%TF.GenerationSoftware,KiCad,Pcbnew,8.0.8*%
%TF.CreationDate,2025-02-12T11:53:10+01:00*%
%TF.ProjectId,PCB_g,5043425f-672e-46b6-9963-61645f706362,rev?*%
%TF.SameCoordinates,Original*%
%TF.FileFunction,Soldermask,Top*%
%TF.FilePolarity,Negative*%
%FSLAX46Y46*%
G04 Gerber Fmt 4.6, Leading zero omitted, Abs format (unit mm)*
G04 Created by KiCad (PCBNEW 8.0.8) date 2025-02-12 11:53:10*
%MOMM*%
%LPD*%
G01*
G04 APERTURE LIST*
G04 Aperture macros list*
%AMRoundRect*
0 Rectangle with rounded corners*
0 $1 Rounding radius*
0 $2 $3 $4 $5 $6 $7 $8 $9 X,Y pos of 4 corners*
0 Add a 4 corners polygon primitive as box body*
4,1,4,$2,$3,$4,$5,$6,$7,$8,$9,$2,$3,0*
0 Add four circle primitives for the rounded corners*
1,1,$1+$1,$2,$3*
1,1,$1+$1,$4,$5*
1,1,$1+$1,$6,$7*
1,1,$1+$1,$8,$9*
0 Add four rect primitives between the rounded corners*
20,1,$1+$1,$2,$3,$4,$5,0*
20,1,$1+$1,$4,$5,$6,$7,0*
20,1,$1+$1,$6,$7,$8,$9,0*
20,1,$1+$1,$8,$9,$2,$3,0*%
G04 Aperture macros list end*
%ADD10C,2.000000*%
%ADD11R,1.000000X0.800000*%
%ADD12C,0.900000*%
%ADD13R,0.700000X1.500000*%
%ADD14C,1.200000*%
%ADD15RoundRect,0.250000X-0.600000X-0.750000X0.600000X-0.750000X0.600000X0.750000X-0.600000X0.750000X0*%
%ADD16O,1.700000X2.000000*%
%ADD17C,5.700000*%
%ADD18C,1.750000*%
%ADD19C,3.987800*%
%ADD20C,3.300000*%
G04 APERTURE END LIST*
D10*
%TO.C,SW27*%
X204624200Y-82807000D03*
X211124200Y-82807000D03*
X204624200Y-87307000D03*
X211124200Y-87307000D03*
%TD*%
%TO.C,SW2*%
X191131300Y-82807000D03*
X197631300Y-82807000D03*
X191131300Y-87307000D03*
X197631300Y-87307000D03*
%TD*%
D11*
%TO.C,SW1*%
X197312800Y-43969800D03*
X197312800Y-41759800D03*
D12*
X195162800Y-42859800D03*
X192162800Y-42859800D03*
D11*
X190012800Y-43969800D03*
X190012800Y-41759800D03*
D13*
X195912800Y-44619800D03*
X192912800Y-44619800D03*
X191412800Y-44619800D03*
%TD*%
D14*
%TO.C,J1*%
X190840750Y-47606250D03*
D15*
X192440750Y-49606250D03*
D16*
X194940750Y-49606250D03*
%TD*%
D17*
%TO.C,H4*%
X107546350Y-42462950D03*
%TD*%
%TO.C,H3*%
X110721150Y-119055000D03*
%TD*%
%TO.C,H2*%
X175804550Y-136119550D03*
%TD*%
%TO.C,H1*%
X213969600Y-78435200D03*
%TD*%
D18*
%TO.C,SW24*%
X180880176Y-69750000D03*
D19*
X175800176Y-69750000D03*
D18*
X170720176Y-69750000D03*
D20*
X171990176Y-67210000D03*
X178340176Y-64670000D03*
%TD*%
D18*
%TO.C,SW12*%
X123880000Y-67450000D03*
D19*
X118800000Y-67450000D03*
D18*
X113720000Y-67450000D03*
D20*
X114990000Y-64910000D03*
X121340000Y-62370000D03*
%TD*%
D18*
%TO.C,SW35*%
X202399409Y-121000000D03*
D19*
X198000000Y-118460000D03*
D18*
X193600591Y-115920000D03*
D20*
X195970444Y-114355295D03*
X202739705Y-115330591D03*
%TD*%
D18*
%TO.C,SW8*%
X104880000Y-110950000D03*
D19*
X99800000Y-110950000D03*
D18*
X94720000Y-110950000D03*
D20*
X95990000Y-108410000D03*
X102340000Y-105870000D03*
%TD*%
D18*
%TO.C,SW13*%
X123880000Y-86500000D03*
D19*
X118800000Y-86500000D03*
D18*
X113720000Y-86500000D03*
D20*
X114990000Y-83960000D03*
X121340000Y-81420000D03*
%TD*%
D18*
%TO.C,SW16*%
X142880000Y-63400000D03*
D19*
X137800000Y-63400000D03*
D18*
X132720000Y-63400000D03*
D20*
X133990000Y-60860000D03*
X140340000Y-58320000D03*
%TD*%
D18*
%TO.C,SW25*%
X180880000Y-88800000D03*
D19*
X175800000Y-88800000D03*
D18*
X170720000Y-88800000D03*
D20*
X171990000Y-86260000D03*
X178340000Y-83720000D03*
%TD*%
D18*
%TO.C,SW26*%
X180880176Y-107850000D03*
D19*
X175800176Y-107850000D03*
D18*
X170720176Y-107850000D03*
D20*
X171990176Y-105310000D03*
X178340176Y-102770000D03*
%TD*%
D18*
%TO.C,SW21*%
X161880000Y-86450000D03*
D19*
X156800000Y-86450000D03*
D18*
X151720000Y-86450000D03*
D20*
X152990000Y-83910000D03*
X159340000Y-81370000D03*
%TD*%
D18*
%TO.C,SW37*%
X170160000Y-129200000D03*
D19*
X165080000Y-129200000D03*
D18*
X160000000Y-129200000D03*
D20*
X161270000Y-126660000D03*
X167620000Y-124120000D03*
%TD*%
D18*
%TO.C,SW7*%
X85830176Y-72850000D03*
D19*
X80750176Y-72850000D03*
D18*
X75670176Y-72850000D03*
D20*
X76940176Y-70310000D03*
X83290176Y-67770000D03*
%TD*%
D18*
%TO.C,SW20*%
X161879824Y-67400000D03*
D19*
X156799824Y-67400000D03*
D18*
X151719824Y-67400000D03*
D20*
X152989824Y-64860000D03*
X159339824Y-62320000D03*
%TD*%
D18*
%TO.C,SW38*%
X151080000Y-127000000D03*
D19*
X146000000Y-127000000D03*
D18*
X140920000Y-127000000D03*
D20*
X142190000Y-124460000D03*
X148540000Y-121920000D03*
%TD*%
D18*
%TO.C,SW19*%
X161879824Y-48350000D03*
D19*
X156799824Y-48350000D03*
D18*
X151719824Y-48350000D03*
D20*
X152989824Y-45810000D03*
X159339824Y-43270000D03*
%TD*%
D18*
%TO.C,SW17*%
X142880000Y-82450000D03*
D19*
X137800000Y-82450000D03*
D18*
X132720000Y-82450000D03*
D20*
X133990000Y-79910000D03*
X140340000Y-77370000D03*
%TD*%
D18*
%TO.C,SW36*%
X192899409Y-137500000D03*
D19*
X188500000Y-134960000D03*
D18*
X184100591Y-132420000D03*
D20*
X186470444Y-130855295D03*
X193239705Y-131830591D03*
%TD*%
D18*
%TO.C,SW9*%
X85830176Y-91900000D03*
D19*
X80750176Y-91900000D03*
D18*
X75670176Y-91900000D03*
D20*
X76940176Y-89360000D03*
X83290176Y-86820000D03*
%TD*%
D18*
%TO.C,SW22*%
X161880000Y-105500000D03*
D19*
X156800000Y-105500000D03*
D18*
X151720000Y-105500000D03*
D20*
X152990000Y-102960000D03*
X159340000Y-100420000D03*
%TD*%
D18*
%TO.C,SW6*%
X85830176Y-53800000D03*
D19*
X80750176Y-53800000D03*
D18*
X75670176Y-53800000D03*
D20*
X76940176Y-51260000D03*
X83290176Y-48720000D03*
%TD*%
D18*
%TO.C,SW18*%
X142880176Y-101500000D03*
D19*
X137800176Y-101500000D03*
D18*
X132720176Y-101500000D03*
D20*
X133990176Y-98960000D03*
X140340176Y-96420000D03*
%TD*%
D18*
%TO.C,SW3*%
X104880176Y-91900000D03*
D19*
X99800176Y-91900000D03*
D18*
X94720176Y-91900000D03*
D20*
X95990176Y-89360000D03*
X102340176Y-86820000D03*
%TD*%
D18*
%TO.C,SW10*%
X85830000Y-110950000D03*
D19*
X80750000Y-110950000D03*
D18*
X75670000Y-110950000D03*
D20*
X76940000Y-108410000D03*
X83290000Y-105870000D03*
%TD*%
D18*
%TO.C,SW14*%
X123879824Y-105550000D03*
D19*
X118799824Y-105550000D03*
D18*
X113719824Y-105550000D03*
D20*
X114989824Y-103010000D03*
X121339824Y-100470000D03*
%TD*%
D18*
%TO.C,SW4*%
X104880000Y-53800000D03*
D19*
X99800000Y-53800000D03*
D18*
X94720000Y-53800000D03*
D20*
X95990000Y-51260000D03*
X102340000Y-48720000D03*
%TD*%
D18*
%TO.C,SW23*%
X180880176Y-50700000D03*
D19*
X175800176Y-50700000D03*
D18*
X170720176Y-50700000D03*
D20*
X171990176Y-48160000D03*
X178340176Y-45620000D03*
%TD*%
D18*
%TO.C,SW5*%
X104880000Y-72850000D03*
D19*
X99800000Y-72850000D03*
D18*
X94720000Y-72850000D03*
D20*
X95990000Y-70310000D03*
X102340000Y-67770000D03*
%TD*%
D18*
%TO.C,SW15*%
X142880176Y-44350000D03*
D19*
X137800176Y-44350000D03*
D18*
X132720176Y-44350000D03*
D20*
X133990176Y-41810000D03*
X140340176Y-39270000D03*
%TD*%
D18*
%TO.C,SW11*%
X123880000Y-48400000D03*
D19*
X118800000Y-48400000D03*
D18*
X113720000Y-48400000D03*
D20*
X114990000Y-45860000D03*
X121340000Y-43320000D03*
%TD*%
M02*
