%TF.GenerationSoftware,KiCad,Pcbnew,8.0.8*%
%TF.CreationDate,2025-02-12T11:53:10+01:00*%
%TF.ProjectId,PCB_g,5043425f-672e-46b6-9963-61645f706362,rev?*%
%TF.SameCoordinates,Original*%
%TF.FileFunction,Legend,Bot*%
%TF.FilePolarity,Positive*%
%FSLAX46Y46*%
G04 Gerber Fmt 4.6, Leading zero omitted, Abs format (unit mm)*
G04 Created by KiCad (PCBNEW 8.0.8) date 2025-02-12 11:53:10*
%MOMM*%
%LPD*%
G01*
G04 APERTURE LIST*
%ADD10C,0.150000*%
%ADD11C,0.120000*%
G04 APERTURE END LIST*
D10*
X194024083Y-52611069D02*
X194024083Y-53325354D01*
X194024083Y-53325354D02*
X194071702Y-53468211D01*
X194071702Y-53468211D02*
X194166940Y-53563450D01*
X194166940Y-53563450D02*
X194309797Y-53611069D01*
X194309797Y-53611069D02*
X194405035Y-53611069D01*
X193024083Y-53611069D02*
X193595511Y-53611069D01*
X193309797Y-53611069D02*
X193309797Y-52611069D01*
X193309797Y-52611069D02*
X193405035Y-52753926D01*
X193405035Y-52753926D02*
X193500273Y-52849164D01*
X193500273Y-52849164D02*
X193595511Y-52896783D01*
X200414285Y-126254819D02*
X200414285Y-125254819D01*
X200414285Y-125254819D02*
X200176190Y-125254819D01*
X200176190Y-125254819D02*
X200033333Y-125302438D01*
X200033333Y-125302438D02*
X199938095Y-125397676D01*
X199938095Y-125397676D02*
X199890476Y-125492914D01*
X199890476Y-125492914D02*
X199842857Y-125683390D01*
X199842857Y-125683390D02*
X199842857Y-125826247D01*
X199842857Y-125826247D02*
X199890476Y-126016723D01*
X199890476Y-126016723D02*
X199938095Y-126111961D01*
X199938095Y-126111961D02*
X200033333Y-126207200D01*
X200033333Y-126207200D02*
X200176190Y-126254819D01*
X200176190Y-126254819D02*
X200414285Y-126254819D01*
X199509523Y-125254819D02*
X198890476Y-125254819D01*
X198890476Y-125254819D02*
X199223809Y-125635771D01*
X199223809Y-125635771D02*
X199080952Y-125635771D01*
X199080952Y-125635771D02*
X198985714Y-125683390D01*
X198985714Y-125683390D02*
X198938095Y-125731009D01*
X198938095Y-125731009D02*
X198890476Y-125826247D01*
X198890476Y-125826247D02*
X198890476Y-126064342D01*
X198890476Y-126064342D02*
X198938095Y-126159580D01*
X198938095Y-126159580D02*
X198985714Y-126207200D01*
X198985714Y-126207200D02*
X199080952Y-126254819D01*
X199080952Y-126254819D02*
X199366666Y-126254819D01*
X199366666Y-126254819D02*
X199461904Y-126207200D01*
X199461904Y-126207200D02*
X199509523Y-126159580D01*
X198033333Y-125588152D02*
X198033333Y-126254819D01*
X198271428Y-125207200D02*
X198509523Y-125921485D01*
X198509523Y-125921485D02*
X197890476Y-125921485D01*
X181859699Y-68407200D02*
X181716842Y-68454819D01*
X181716842Y-68454819D02*
X181478747Y-68454819D01*
X181478747Y-68454819D02*
X181383509Y-68407200D01*
X181383509Y-68407200D02*
X181335890Y-68359580D01*
X181335890Y-68359580D02*
X181288271Y-68264342D01*
X181288271Y-68264342D02*
X181288271Y-68169104D01*
X181288271Y-68169104D02*
X181335890Y-68073866D01*
X181335890Y-68073866D02*
X181383509Y-68026247D01*
X181383509Y-68026247D02*
X181478747Y-67978628D01*
X181478747Y-67978628D02*
X181669223Y-67931009D01*
X181669223Y-67931009D02*
X181764461Y-67883390D01*
X181764461Y-67883390D02*
X181812080Y-67835771D01*
X181812080Y-67835771D02*
X181859699Y-67740533D01*
X181859699Y-67740533D02*
X181859699Y-67645295D01*
X181859699Y-67645295D02*
X181812080Y-67550057D01*
X181812080Y-67550057D02*
X181764461Y-67502438D01*
X181764461Y-67502438D02*
X181669223Y-67454819D01*
X181669223Y-67454819D02*
X181431128Y-67454819D01*
X181431128Y-67454819D02*
X181288271Y-67502438D01*
X180954937Y-67454819D02*
X180716842Y-68454819D01*
X180716842Y-68454819D02*
X180526366Y-67740533D01*
X180526366Y-67740533D02*
X180335890Y-68454819D01*
X180335890Y-68454819D02*
X180097795Y-67454819D01*
X179764461Y-67550057D02*
X179716842Y-67502438D01*
X179716842Y-67502438D02*
X179621604Y-67454819D01*
X179621604Y-67454819D02*
X179383509Y-67454819D01*
X179383509Y-67454819D02*
X179288271Y-67502438D01*
X179288271Y-67502438D02*
X179240652Y-67550057D01*
X179240652Y-67550057D02*
X179193033Y-67645295D01*
X179193033Y-67645295D02*
X179193033Y-67740533D01*
X179193033Y-67740533D02*
X179240652Y-67883390D01*
X179240652Y-67883390D02*
X179812080Y-68454819D01*
X179812080Y-68454819D02*
X179193033Y-68454819D01*
X178335890Y-67788152D02*
X178335890Y-68454819D01*
X178573985Y-67407200D02*
X178812080Y-68121485D01*
X178812080Y-68121485D02*
X178193033Y-68121485D01*
X142956813Y-48610819D02*
X142956813Y-47610819D01*
X142956813Y-47610819D02*
X142718718Y-47610819D01*
X142718718Y-47610819D02*
X142575861Y-47658438D01*
X142575861Y-47658438D02*
X142480623Y-47753676D01*
X142480623Y-47753676D02*
X142433004Y-47848914D01*
X142433004Y-47848914D02*
X142385385Y-48039390D01*
X142385385Y-48039390D02*
X142385385Y-48182247D01*
X142385385Y-48182247D02*
X142433004Y-48372723D01*
X142433004Y-48372723D02*
X142480623Y-48467961D01*
X142480623Y-48467961D02*
X142575861Y-48563200D01*
X142575861Y-48563200D02*
X142718718Y-48610819D01*
X142718718Y-48610819D02*
X142956813Y-48610819D01*
X141433004Y-48610819D02*
X142004432Y-48610819D01*
X141718718Y-48610819D02*
X141718718Y-47610819D01*
X141718718Y-47610819D02*
X141813956Y-47753676D01*
X141813956Y-47753676D02*
X141909194Y-47848914D01*
X141909194Y-47848914D02*
X142004432Y-47896533D01*
X140813956Y-47610819D02*
X140718718Y-47610819D01*
X140718718Y-47610819D02*
X140623480Y-47658438D01*
X140623480Y-47658438D02*
X140575861Y-47706057D01*
X140575861Y-47706057D02*
X140528242Y-47801295D01*
X140528242Y-47801295D02*
X140480623Y-47991771D01*
X140480623Y-47991771D02*
X140480623Y-48229866D01*
X140480623Y-48229866D02*
X140528242Y-48420342D01*
X140528242Y-48420342D02*
X140575861Y-48515580D01*
X140575861Y-48515580D02*
X140623480Y-48563200D01*
X140623480Y-48563200D02*
X140718718Y-48610819D01*
X140718718Y-48610819D02*
X140813956Y-48610819D01*
X140813956Y-48610819D02*
X140909194Y-48563200D01*
X140909194Y-48563200D02*
X140956813Y-48515580D01*
X140956813Y-48515580D02*
X141004432Y-48420342D01*
X141004432Y-48420342D02*
X141052051Y-48229866D01*
X141052051Y-48229866D02*
X141052051Y-47991771D01*
X141052051Y-47991771D02*
X141004432Y-47801295D01*
X141004432Y-47801295D02*
X140956813Y-47706057D01*
X140956813Y-47706057D02*
X140909194Y-47658438D01*
X140909194Y-47658438D02*
X140813956Y-47610819D01*
X124859523Y-66107200D02*
X124716666Y-66154819D01*
X124716666Y-66154819D02*
X124478571Y-66154819D01*
X124478571Y-66154819D02*
X124383333Y-66107200D01*
X124383333Y-66107200D02*
X124335714Y-66059580D01*
X124335714Y-66059580D02*
X124288095Y-65964342D01*
X124288095Y-65964342D02*
X124288095Y-65869104D01*
X124288095Y-65869104D02*
X124335714Y-65773866D01*
X124335714Y-65773866D02*
X124383333Y-65726247D01*
X124383333Y-65726247D02*
X124478571Y-65678628D01*
X124478571Y-65678628D02*
X124669047Y-65631009D01*
X124669047Y-65631009D02*
X124764285Y-65583390D01*
X124764285Y-65583390D02*
X124811904Y-65535771D01*
X124811904Y-65535771D02*
X124859523Y-65440533D01*
X124859523Y-65440533D02*
X124859523Y-65345295D01*
X124859523Y-65345295D02*
X124811904Y-65250057D01*
X124811904Y-65250057D02*
X124764285Y-65202438D01*
X124764285Y-65202438D02*
X124669047Y-65154819D01*
X124669047Y-65154819D02*
X124430952Y-65154819D01*
X124430952Y-65154819D02*
X124288095Y-65202438D01*
X123954761Y-65154819D02*
X123716666Y-66154819D01*
X123716666Y-66154819D02*
X123526190Y-65440533D01*
X123526190Y-65440533D02*
X123335714Y-66154819D01*
X123335714Y-66154819D02*
X123097619Y-65154819D01*
X122192857Y-66154819D02*
X122764285Y-66154819D01*
X122478571Y-66154819D02*
X122478571Y-65154819D01*
X122478571Y-65154819D02*
X122573809Y-65297676D01*
X122573809Y-65297676D02*
X122669047Y-65392914D01*
X122669047Y-65392914D02*
X122764285Y-65440533D01*
X121811904Y-65250057D02*
X121764285Y-65202438D01*
X121764285Y-65202438D02*
X121669047Y-65154819D01*
X121669047Y-65154819D02*
X121430952Y-65154819D01*
X121430952Y-65154819D02*
X121335714Y-65202438D01*
X121335714Y-65202438D02*
X121288095Y-65250057D01*
X121288095Y-65250057D02*
X121240476Y-65345295D01*
X121240476Y-65345295D02*
X121240476Y-65440533D01*
X121240476Y-65440533D02*
X121288095Y-65583390D01*
X121288095Y-65583390D02*
X121859523Y-66154819D01*
X121859523Y-66154819D02*
X121240476Y-66154819D01*
X203919101Y-120326863D02*
X203771574Y-120296674D01*
X203771574Y-120296674D02*
X203565377Y-120177626D01*
X203565377Y-120177626D02*
X203506708Y-120088768D01*
X203506708Y-120088768D02*
X203489278Y-120023719D01*
X203489278Y-120023719D02*
X203495658Y-119917431D01*
X203495658Y-119917431D02*
X203543277Y-119834952D01*
X203543277Y-119834952D02*
X203632135Y-119776283D01*
X203632135Y-119776283D02*
X203697184Y-119758853D01*
X203697184Y-119758853D02*
X203803472Y-119765233D01*
X203803472Y-119765233D02*
X203992239Y-119819232D01*
X203992239Y-119819232D02*
X204098527Y-119825612D01*
X204098527Y-119825612D02*
X204163576Y-119808182D01*
X204163576Y-119808182D02*
X204252434Y-119749513D01*
X204252434Y-119749513D02*
X204300053Y-119667034D01*
X204300053Y-119667034D02*
X204306433Y-119560746D01*
X204306433Y-119560746D02*
X204289003Y-119495697D01*
X204289003Y-119495697D02*
X204230334Y-119406839D01*
X204230334Y-119406839D02*
X204024138Y-119287791D01*
X204024138Y-119287791D02*
X203876610Y-119257602D01*
X203611745Y-119049696D02*
X202905548Y-119796674D01*
X202905548Y-119796674D02*
X203097734Y-119082846D01*
X203097734Y-119082846D02*
X202575634Y-119606197D01*
X202575634Y-119606197D02*
X202869437Y-118621124D01*
X202622002Y-118478267D02*
X202085891Y-118168744D01*
X202085891Y-118168744D02*
X202184090Y-118665325D01*
X202184090Y-118665325D02*
X202060372Y-118593896D01*
X202060372Y-118593896D02*
X201954083Y-118587516D01*
X201954083Y-118587516D02*
X201889035Y-118604946D01*
X201889035Y-118604946D02*
X201800176Y-118663615D01*
X201800176Y-118663615D02*
X201681129Y-118869812D01*
X201681129Y-118869812D02*
X201674749Y-118976100D01*
X201674749Y-118976100D02*
X201692179Y-119041149D01*
X201692179Y-119041149D02*
X201750848Y-119130007D01*
X201750848Y-119130007D02*
X201998284Y-119272864D01*
X201998284Y-119272864D02*
X202104572Y-119279244D01*
X202104572Y-119279244D02*
X202169621Y-119261814D01*
X201302344Y-117716363D02*
X201714737Y-117954458D01*
X201714737Y-117954458D02*
X201517881Y-118390660D01*
X201517881Y-118390660D02*
X201500451Y-118325612D01*
X201500451Y-118325612D02*
X201441782Y-118236753D01*
X201441782Y-118236753D02*
X201235585Y-118117706D01*
X201235585Y-118117706D02*
X201129297Y-118111326D01*
X201129297Y-118111326D02*
X201064248Y-118128756D01*
X201064248Y-118128756D02*
X200975390Y-118187425D01*
X200975390Y-118187425D02*
X200856343Y-118393621D01*
X200856343Y-118393621D02*
X200849963Y-118499909D01*
X200849963Y-118499909D02*
X200867393Y-118564958D01*
X200867393Y-118564958D02*
X200926062Y-118653817D01*
X200926062Y-118653817D02*
X201132258Y-118772864D01*
X201132258Y-118772864D02*
X201238546Y-118779244D01*
X201238546Y-118779244D02*
X201303595Y-118761814D01*
X105383332Y-109607200D02*
X105240475Y-109654819D01*
X105240475Y-109654819D02*
X105002380Y-109654819D01*
X105002380Y-109654819D02*
X104907142Y-109607200D01*
X104907142Y-109607200D02*
X104859523Y-109559580D01*
X104859523Y-109559580D02*
X104811904Y-109464342D01*
X104811904Y-109464342D02*
X104811904Y-109369104D01*
X104811904Y-109369104D02*
X104859523Y-109273866D01*
X104859523Y-109273866D02*
X104907142Y-109226247D01*
X104907142Y-109226247D02*
X105002380Y-109178628D01*
X105002380Y-109178628D02*
X105192856Y-109131009D01*
X105192856Y-109131009D02*
X105288094Y-109083390D01*
X105288094Y-109083390D02*
X105335713Y-109035771D01*
X105335713Y-109035771D02*
X105383332Y-108940533D01*
X105383332Y-108940533D02*
X105383332Y-108845295D01*
X105383332Y-108845295D02*
X105335713Y-108750057D01*
X105335713Y-108750057D02*
X105288094Y-108702438D01*
X105288094Y-108702438D02*
X105192856Y-108654819D01*
X105192856Y-108654819D02*
X104954761Y-108654819D01*
X104954761Y-108654819D02*
X104811904Y-108702438D01*
X104478570Y-108654819D02*
X104240475Y-109654819D01*
X104240475Y-109654819D02*
X104049999Y-108940533D01*
X104049999Y-108940533D02*
X103859523Y-109654819D01*
X103859523Y-109654819D02*
X103621428Y-108654819D01*
X103097618Y-109083390D02*
X103192856Y-109035771D01*
X103192856Y-109035771D02*
X103240475Y-108988152D01*
X103240475Y-108988152D02*
X103288094Y-108892914D01*
X103288094Y-108892914D02*
X103288094Y-108845295D01*
X103288094Y-108845295D02*
X103240475Y-108750057D01*
X103240475Y-108750057D02*
X103192856Y-108702438D01*
X103192856Y-108702438D02*
X103097618Y-108654819D01*
X103097618Y-108654819D02*
X102907142Y-108654819D01*
X102907142Y-108654819D02*
X102811904Y-108702438D01*
X102811904Y-108702438D02*
X102764285Y-108750057D01*
X102764285Y-108750057D02*
X102716666Y-108845295D01*
X102716666Y-108845295D02*
X102716666Y-108892914D01*
X102716666Y-108892914D02*
X102764285Y-108988152D01*
X102764285Y-108988152D02*
X102811904Y-109035771D01*
X102811904Y-109035771D02*
X102907142Y-109083390D01*
X102907142Y-109083390D02*
X103097618Y-109083390D01*
X103097618Y-109083390D02*
X103192856Y-109131009D01*
X103192856Y-109131009D02*
X103240475Y-109178628D01*
X103240475Y-109178628D02*
X103288094Y-109273866D01*
X103288094Y-109273866D02*
X103288094Y-109464342D01*
X103288094Y-109464342D02*
X103240475Y-109559580D01*
X103240475Y-109559580D02*
X103192856Y-109607200D01*
X103192856Y-109607200D02*
X103097618Y-109654819D01*
X103097618Y-109654819D02*
X102907142Y-109654819D01*
X102907142Y-109654819D02*
X102811904Y-109607200D01*
X102811904Y-109607200D02*
X102764285Y-109559580D01*
X102764285Y-109559580D02*
X102716666Y-109464342D01*
X102716666Y-109464342D02*
X102716666Y-109273866D01*
X102716666Y-109273866D02*
X102764285Y-109178628D01*
X102764285Y-109178628D02*
X102811904Y-109131009D01*
X102811904Y-109131009D02*
X102907142Y-109083390D01*
X124859523Y-85157200D02*
X124716666Y-85204819D01*
X124716666Y-85204819D02*
X124478571Y-85204819D01*
X124478571Y-85204819D02*
X124383333Y-85157200D01*
X124383333Y-85157200D02*
X124335714Y-85109580D01*
X124335714Y-85109580D02*
X124288095Y-85014342D01*
X124288095Y-85014342D02*
X124288095Y-84919104D01*
X124288095Y-84919104D02*
X124335714Y-84823866D01*
X124335714Y-84823866D02*
X124383333Y-84776247D01*
X124383333Y-84776247D02*
X124478571Y-84728628D01*
X124478571Y-84728628D02*
X124669047Y-84681009D01*
X124669047Y-84681009D02*
X124764285Y-84633390D01*
X124764285Y-84633390D02*
X124811904Y-84585771D01*
X124811904Y-84585771D02*
X124859523Y-84490533D01*
X124859523Y-84490533D02*
X124859523Y-84395295D01*
X124859523Y-84395295D02*
X124811904Y-84300057D01*
X124811904Y-84300057D02*
X124764285Y-84252438D01*
X124764285Y-84252438D02*
X124669047Y-84204819D01*
X124669047Y-84204819D02*
X124430952Y-84204819D01*
X124430952Y-84204819D02*
X124288095Y-84252438D01*
X123954761Y-84204819D02*
X123716666Y-85204819D01*
X123716666Y-85204819D02*
X123526190Y-84490533D01*
X123526190Y-84490533D02*
X123335714Y-85204819D01*
X123335714Y-85204819D02*
X123097619Y-84204819D01*
X122192857Y-85204819D02*
X122764285Y-85204819D01*
X122478571Y-85204819D02*
X122478571Y-84204819D01*
X122478571Y-84204819D02*
X122573809Y-84347676D01*
X122573809Y-84347676D02*
X122669047Y-84442914D01*
X122669047Y-84442914D02*
X122764285Y-84490533D01*
X121859523Y-84204819D02*
X121240476Y-84204819D01*
X121240476Y-84204819D02*
X121573809Y-84585771D01*
X121573809Y-84585771D02*
X121430952Y-84585771D01*
X121430952Y-84585771D02*
X121335714Y-84633390D01*
X121335714Y-84633390D02*
X121288095Y-84681009D01*
X121288095Y-84681009D02*
X121240476Y-84776247D01*
X121240476Y-84776247D02*
X121240476Y-85014342D01*
X121240476Y-85014342D02*
X121288095Y-85109580D01*
X121288095Y-85109580D02*
X121335714Y-85157200D01*
X121335714Y-85157200D02*
X121430952Y-85204819D01*
X121430952Y-85204819D02*
X121716666Y-85204819D01*
X121716666Y-85204819D02*
X121811904Y-85157200D01*
X121811904Y-85157200D02*
X121859523Y-85109580D01*
X143859523Y-62057200D02*
X143716666Y-62104819D01*
X143716666Y-62104819D02*
X143478571Y-62104819D01*
X143478571Y-62104819D02*
X143383333Y-62057200D01*
X143383333Y-62057200D02*
X143335714Y-62009580D01*
X143335714Y-62009580D02*
X143288095Y-61914342D01*
X143288095Y-61914342D02*
X143288095Y-61819104D01*
X143288095Y-61819104D02*
X143335714Y-61723866D01*
X143335714Y-61723866D02*
X143383333Y-61676247D01*
X143383333Y-61676247D02*
X143478571Y-61628628D01*
X143478571Y-61628628D02*
X143669047Y-61581009D01*
X143669047Y-61581009D02*
X143764285Y-61533390D01*
X143764285Y-61533390D02*
X143811904Y-61485771D01*
X143811904Y-61485771D02*
X143859523Y-61390533D01*
X143859523Y-61390533D02*
X143859523Y-61295295D01*
X143859523Y-61295295D02*
X143811904Y-61200057D01*
X143811904Y-61200057D02*
X143764285Y-61152438D01*
X143764285Y-61152438D02*
X143669047Y-61104819D01*
X143669047Y-61104819D02*
X143430952Y-61104819D01*
X143430952Y-61104819D02*
X143288095Y-61152438D01*
X142954761Y-61104819D02*
X142716666Y-62104819D01*
X142716666Y-62104819D02*
X142526190Y-61390533D01*
X142526190Y-61390533D02*
X142335714Y-62104819D01*
X142335714Y-62104819D02*
X142097619Y-61104819D01*
X141192857Y-62104819D02*
X141764285Y-62104819D01*
X141478571Y-62104819D02*
X141478571Y-61104819D01*
X141478571Y-61104819D02*
X141573809Y-61247676D01*
X141573809Y-61247676D02*
X141669047Y-61342914D01*
X141669047Y-61342914D02*
X141764285Y-61390533D01*
X140335714Y-61104819D02*
X140526190Y-61104819D01*
X140526190Y-61104819D02*
X140621428Y-61152438D01*
X140621428Y-61152438D02*
X140669047Y-61200057D01*
X140669047Y-61200057D02*
X140764285Y-61342914D01*
X140764285Y-61342914D02*
X140811904Y-61533390D01*
X140811904Y-61533390D02*
X140811904Y-61914342D01*
X140811904Y-61914342D02*
X140764285Y-62009580D01*
X140764285Y-62009580D02*
X140716666Y-62057200D01*
X140716666Y-62057200D02*
X140621428Y-62104819D01*
X140621428Y-62104819D02*
X140430952Y-62104819D01*
X140430952Y-62104819D02*
X140335714Y-62057200D01*
X140335714Y-62057200D02*
X140288095Y-62009580D01*
X140288095Y-62009580D02*
X140240476Y-61914342D01*
X140240476Y-61914342D02*
X140240476Y-61676247D01*
X140240476Y-61676247D02*
X140288095Y-61581009D01*
X140288095Y-61581009D02*
X140335714Y-61533390D01*
X140335714Y-61533390D02*
X140430952Y-61485771D01*
X140430952Y-61485771D02*
X140621428Y-61485771D01*
X140621428Y-61485771D02*
X140716666Y-61533390D01*
X140716666Y-61533390D02*
X140764285Y-61581009D01*
X140764285Y-61581009D02*
X140811904Y-61676247D01*
X181859523Y-87457200D02*
X181716666Y-87504819D01*
X181716666Y-87504819D02*
X181478571Y-87504819D01*
X181478571Y-87504819D02*
X181383333Y-87457200D01*
X181383333Y-87457200D02*
X181335714Y-87409580D01*
X181335714Y-87409580D02*
X181288095Y-87314342D01*
X181288095Y-87314342D02*
X181288095Y-87219104D01*
X181288095Y-87219104D02*
X181335714Y-87123866D01*
X181335714Y-87123866D02*
X181383333Y-87076247D01*
X181383333Y-87076247D02*
X181478571Y-87028628D01*
X181478571Y-87028628D02*
X181669047Y-86981009D01*
X181669047Y-86981009D02*
X181764285Y-86933390D01*
X181764285Y-86933390D02*
X181811904Y-86885771D01*
X181811904Y-86885771D02*
X181859523Y-86790533D01*
X181859523Y-86790533D02*
X181859523Y-86695295D01*
X181859523Y-86695295D02*
X181811904Y-86600057D01*
X181811904Y-86600057D02*
X181764285Y-86552438D01*
X181764285Y-86552438D02*
X181669047Y-86504819D01*
X181669047Y-86504819D02*
X181430952Y-86504819D01*
X181430952Y-86504819D02*
X181288095Y-86552438D01*
X180954761Y-86504819D02*
X180716666Y-87504819D01*
X180716666Y-87504819D02*
X180526190Y-86790533D01*
X180526190Y-86790533D02*
X180335714Y-87504819D01*
X180335714Y-87504819D02*
X180097619Y-86504819D01*
X179764285Y-86600057D02*
X179716666Y-86552438D01*
X179716666Y-86552438D02*
X179621428Y-86504819D01*
X179621428Y-86504819D02*
X179383333Y-86504819D01*
X179383333Y-86504819D02*
X179288095Y-86552438D01*
X179288095Y-86552438D02*
X179240476Y-86600057D01*
X179240476Y-86600057D02*
X179192857Y-86695295D01*
X179192857Y-86695295D02*
X179192857Y-86790533D01*
X179192857Y-86790533D02*
X179240476Y-86933390D01*
X179240476Y-86933390D02*
X179811904Y-87504819D01*
X179811904Y-87504819D02*
X179192857Y-87504819D01*
X178288095Y-86504819D02*
X178764285Y-86504819D01*
X178764285Y-86504819D02*
X178811904Y-86981009D01*
X178811904Y-86981009D02*
X178764285Y-86933390D01*
X178764285Y-86933390D02*
X178669047Y-86885771D01*
X178669047Y-86885771D02*
X178430952Y-86885771D01*
X178430952Y-86885771D02*
X178335714Y-86933390D01*
X178335714Y-86933390D02*
X178288095Y-86981009D01*
X178288095Y-86981009D02*
X178240476Y-87076247D01*
X178240476Y-87076247D02*
X178240476Y-87314342D01*
X178240476Y-87314342D02*
X178288095Y-87409580D01*
X178288095Y-87409580D02*
X178335714Y-87457200D01*
X178335714Y-87457200D02*
X178430952Y-87504819D01*
X178430952Y-87504819D02*
X178669047Y-87504819D01*
X178669047Y-87504819D02*
X178764285Y-87457200D01*
X178764285Y-87457200D02*
X178811904Y-87409580D01*
X161881637Y-71221819D02*
X161881637Y-70221819D01*
X161881637Y-70221819D02*
X161643542Y-70221819D01*
X161643542Y-70221819D02*
X161500685Y-70269438D01*
X161500685Y-70269438D02*
X161405447Y-70364676D01*
X161405447Y-70364676D02*
X161357828Y-70459914D01*
X161357828Y-70459914D02*
X161310209Y-70650390D01*
X161310209Y-70650390D02*
X161310209Y-70793247D01*
X161310209Y-70793247D02*
X161357828Y-70983723D01*
X161357828Y-70983723D02*
X161405447Y-71078961D01*
X161405447Y-71078961D02*
X161500685Y-71174200D01*
X161500685Y-71174200D02*
X161643542Y-71221819D01*
X161643542Y-71221819D02*
X161881637Y-71221819D01*
X160357828Y-71221819D02*
X160929256Y-71221819D01*
X160643542Y-71221819D02*
X160643542Y-70221819D01*
X160643542Y-70221819D02*
X160738780Y-70364676D01*
X160738780Y-70364676D02*
X160834018Y-70459914D01*
X160834018Y-70459914D02*
X160929256Y-70507533D01*
X159881637Y-71221819D02*
X159691161Y-71221819D01*
X159691161Y-71221819D02*
X159595923Y-71174200D01*
X159595923Y-71174200D02*
X159548304Y-71126580D01*
X159548304Y-71126580D02*
X159453066Y-70983723D01*
X159453066Y-70983723D02*
X159405447Y-70793247D01*
X159405447Y-70793247D02*
X159405447Y-70412295D01*
X159405447Y-70412295D02*
X159453066Y-70317057D01*
X159453066Y-70317057D02*
X159500685Y-70269438D01*
X159500685Y-70269438D02*
X159595923Y-70221819D01*
X159595923Y-70221819D02*
X159786399Y-70221819D01*
X159786399Y-70221819D02*
X159881637Y-70269438D01*
X159881637Y-70269438D02*
X159929256Y-70317057D01*
X159929256Y-70317057D02*
X159976875Y-70412295D01*
X159976875Y-70412295D02*
X159976875Y-70650390D01*
X159976875Y-70650390D02*
X159929256Y-70745628D01*
X159929256Y-70745628D02*
X159881637Y-70793247D01*
X159881637Y-70793247D02*
X159786399Y-70840866D01*
X159786399Y-70840866D02*
X159595923Y-70840866D01*
X159595923Y-70840866D02*
X159500685Y-70793247D01*
X159500685Y-70793247D02*
X159453066Y-70745628D01*
X159453066Y-70745628D02*
X159405447Y-70650390D01*
X181306813Y-92708819D02*
X181306813Y-91708819D01*
X181306813Y-91708819D02*
X181068718Y-91708819D01*
X181068718Y-91708819D02*
X180925861Y-91756438D01*
X180925861Y-91756438D02*
X180830623Y-91851676D01*
X180830623Y-91851676D02*
X180783004Y-91946914D01*
X180783004Y-91946914D02*
X180735385Y-92137390D01*
X180735385Y-92137390D02*
X180735385Y-92280247D01*
X180735385Y-92280247D02*
X180783004Y-92470723D01*
X180783004Y-92470723D02*
X180830623Y-92565961D01*
X180830623Y-92565961D02*
X180925861Y-92661200D01*
X180925861Y-92661200D02*
X181068718Y-92708819D01*
X181068718Y-92708819D02*
X181306813Y-92708819D01*
X180354432Y-91804057D02*
X180306813Y-91756438D01*
X180306813Y-91756438D02*
X180211575Y-91708819D01*
X180211575Y-91708819D02*
X179973480Y-91708819D01*
X179973480Y-91708819D02*
X179878242Y-91756438D01*
X179878242Y-91756438D02*
X179830623Y-91804057D01*
X179830623Y-91804057D02*
X179783004Y-91899295D01*
X179783004Y-91899295D02*
X179783004Y-91994533D01*
X179783004Y-91994533D02*
X179830623Y-92137390D01*
X179830623Y-92137390D02*
X180402051Y-92708819D01*
X180402051Y-92708819D02*
X179783004Y-92708819D01*
X178925861Y-92042152D02*
X178925861Y-92708819D01*
X179163956Y-91661200D02*
X179402051Y-92375485D01*
X179402051Y-92375485D02*
X178783004Y-92375485D01*
X181131813Y-73608819D02*
X181131813Y-72608819D01*
X181131813Y-72608819D02*
X180893718Y-72608819D01*
X180893718Y-72608819D02*
X180750861Y-72656438D01*
X180750861Y-72656438D02*
X180655623Y-72751676D01*
X180655623Y-72751676D02*
X180608004Y-72846914D01*
X180608004Y-72846914D02*
X180560385Y-73037390D01*
X180560385Y-73037390D02*
X180560385Y-73180247D01*
X180560385Y-73180247D02*
X180608004Y-73370723D01*
X180608004Y-73370723D02*
X180655623Y-73465961D01*
X180655623Y-73465961D02*
X180750861Y-73561200D01*
X180750861Y-73561200D02*
X180893718Y-73608819D01*
X180893718Y-73608819D02*
X181131813Y-73608819D01*
X180179432Y-72704057D02*
X180131813Y-72656438D01*
X180131813Y-72656438D02*
X180036575Y-72608819D01*
X180036575Y-72608819D02*
X179798480Y-72608819D01*
X179798480Y-72608819D02*
X179703242Y-72656438D01*
X179703242Y-72656438D02*
X179655623Y-72704057D01*
X179655623Y-72704057D02*
X179608004Y-72799295D01*
X179608004Y-72799295D02*
X179608004Y-72894533D01*
X179608004Y-72894533D02*
X179655623Y-73037390D01*
X179655623Y-73037390D02*
X180227051Y-73608819D01*
X180227051Y-73608819D02*
X179608004Y-73608819D01*
X179274670Y-72608819D02*
X178655623Y-72608819D01*
X178655623Y-72608819D02*
X178988956Y-72989771D01*
X178988956Y-72989771D02*
X178846099Y-72989771D01*
X178846099Y-72989771D02*
X178750861Y-73037390D01*
X178750861Y-73037390D02*
X178703242Y-73085009D01*
X178703242Y-73085009D02*
X178655623Y-73180247D01*
X178655623Y-73180247D02*
X178655623Y-73418342D01*
X178655623Y-73418342D02*
X178703242Y-73513580D01*
X178703242Y-73513580D02*
X178750861Y-73561200D01*
X178750861Y-73561200D02*
X178846099Y-73608819D01*
X178846099Y-73608819D02*
X179131813Y-73608819D01*
X179131813Y-73608819D02*
X179227051Y-73561200D01*
X179227051Y-73561200D02*
X179274670Y-73513580D01*
X143131813Y-67235819D02*
X143131813Y-66235819D01*
X143131813Y-66235819D02*
X142893718Y-66235819D01*
X142893718Y-66235819D02*
X142750861Y-66283438D01*
X142750861Y-66283438D02*
X142655623Y-66378676D01*
X142655623Y-66378676D02*
X142608004Y-66473914D01*
X142608004Y-66473914D02*
X142560385Y-66664390D01*
X142560385Y-66664390D02*
X142560385Y-66807247D01*
X142560385Y-66807247D02*
X142608004Y-66997723D01*
X142608004Y-66997723D02*
X142655623Y-67092961D01*
X142655623Y-67092961D02*
X142750861Y-67188200D01*
X142750861Y-67188200D02*
X142893718Y-67235819D01*
X142893718Y-67235819D02*
X143131813Y-67235819D01*
X141608004Y-67235819D02*
X142179432Y-67235819D01*
X141893718Y-67235819D02*
X141893718Y-66235819D01*
X141893718Y-66235819D02*
X141988956Y-66378676D01*
X141988956Y-66378676D02*
X142084194Y-66473914D01*
X142084194Y-66473914D02*
X142179432Y-66521533D01*
X140655623Y-67235819D02*
X141227051Y-67235819D01*
X140941337Y-67235819D02*
X140941337Y-66235819D01*
X140941337Y-66235819D02*
X141036575Y-66378676D01*
X141036575Y-66378676D02*
X141131813Y-66473914D01*
X141131813Y-66473914D02*
X141227051Y-66521533D01*
X181859699Y-106507200D02*
X181716842Y-106554819D01*
X181716842Y-106554819D02*
X181478747Y-106554819D01*
X181478747Y-106554819D02*
X181383509Y-106507200D01*
X181383509Y-106507200D02*
X181335890Y-106459580D01*
X181335890Y-106459580D02*
X181288271Y-106364342D01*
X181288271Y-106364342D02*
X181288271Y-106269104D01*
X181288271Y-106269104D02*
X181335890Y-106173866D01*
X181335890Y-106173866D02*
X181383509Y-106126247D01*
X181383509Y-106126247D02*
X181478747Y-106078628D01*
X181478747Y-106078628D02*
X181669223Y-106031009D01*
X181669223Y-106031009D02*
X181764461Y-105983390D01*
X181764461Y-105983390D02*
X181812080Y-105935771D01*
X181812080Y-105935771D02*
X181859699Y-105840533D01*
X181859699Y-105840533D02*
X181859699Y-105745295D01*
X181859699Y-105745295D02*
X181812080Y-105650057D01*
X181812080Y-105650057D02*
X181764461Y-105602438D01*
X181764461Y-105602438D02*
X181669223Y-105554819D01*
X181669223Y-105554819D02*
X181431128Y-105554819D01*
X181431128Y-105554819D02*
X181288271Y-105602438D01*
X180954937Y-105554819D02*
X180716842Y-106554819D01*
X180716842Y-106554819D02*
X180526366Y-105840533D01*
X180526366Y-105840533D02*
X180335890Y-106554819D01*
X180335890Y-106554819D02*
X180097795Y-105554819D01*
X179764461Y-105650057D02*
X179716842Y-105602438D01*
X179716842Y-105602438D02*
X179621604Y-105554819D01*
X179621604Y-105554819D02*
X179383509Y-105554819D01*
X179383509Y-105554819D02*
X179288271Y-105602438D01*
X179288271Y-105602438D02*
X179240652Y-105650057D01*
X179240652Y-105650057D02*
X179193033Y-105745295D01*
X179193033Y-105745295D02*
X179193033Y-105840533D01*
X179193033Y-105840533D02*
X179240652Y-105983390D01*
X179240652Y-105983390D02*
X179812080Y-106554819D01*
X179812080Y-106554819D02*
X179193033Y-106554819D01*
X178335890Y-105554819D02*
X178526366Y-105554819D01*
X178526366Y-105554819D02*
X178621604Y-105602438D01*
X178621604Y-105602438D02*
X178669223Y-105650057D01*
X178669223Y-105650057D02*
X178764461Y-105792914D01*
X178764461Y-105792914D02*
X178812080Y-105983390D01*
X178812080Y-105983390D02*
X178812080Y-106364342D01*
X178812080Y-106364342D02*
X178764461Y-106459580D01*
X178764461Y-106459580D02*
X178716842Y-106507200D01*
X178716842Y-106507200D02*
X178621604Y-106554819D01*
X178621604Y-106554819D02*
X178431128Y-106554819D01*
X178431128Y-106554819D02*
X178335890Y-106507200D01*
X178335890Y-106507200D02*
X178288271Y-106459580D01*
X178288271Y-106459580D02*
X178240652Y-106364342D01*
X178240652Y-106364342D02*
X178240652Y-106126247D01*
X178240652Y-106126247D02*
X178288271Y-106031009D01*
X178288271Y-106031009D02*
X178335890Y-105983390D01*
X178335890Y-105983390D02*
X178431128Y-105935771D01*
X178431128Y-105935771D02*
X178621604Y-105935771D01*
X178621604Y-105935771D02*
X178716842Y-105983390D01*
X178716842Y-105983390D02*
X178764461Y-106031009D01*
X178764461Y-106031009D02*
X178812080Y-106126247D01*
X162859523Y-85107200D02*
X162716666Y-85154819D01*
X162716666Y-85154819D02*
X162478571Y-85154819D01*
X162478571Y-85154819D02*
X162383333Y-85107200D01*
X162383333Y-85107200D02*
X162335714Y-85059580D01*
X162335714Y-85059580D02*
X162288095Y-84964342D01*
X162288095Y-84964342D02*
X162288095Y-84869104D01*
X162288095Y-84869104D02*
X162335714Y-84773866D01*
X162335714Y-84773866D02*
X162383333Y-84726247D01*
X162383333Y-84726247D02*
X162478571Y-84678628D01*
X162478571Y-84678628D02*
X162669047Y-84631009D01*
X162669047Y-84631009D02*
X162764285Y-84583390D01*
X162764285Y-84583390D02*
X162811904Y-84535771D01*
X162811904Y-84535771D02*
X162859523Y-84440533D01*
X162859523Y-84440533D02*
X162859523Y-84345295D01*
X162859523Y-84345295D02*
X162811904Y-84250057D01*
X162811904Y-84250057D02*
X162764285Y-84202438D01*
X162764285Y-84202438D02*
X162669047Y-84154819D01*
X162669047Y-84154819D02*
X162430952Y-84154819D01*
X162430952Y-84154819D02*
X162288095Y-84202438D01*
X161954761Y-84154819D02*
X161716666Y-85154819D01*
X161716666Y-85154819D02*
X161526190Y-84440533D01*
X161526190Y-84440533D02*
X161335714Y-85154819D01*
X161335714Y-85154819D02*
X161097619Y-84154819D01*
X160764285Y-84250057D02*
X160716666Y-84202438D01*
X160716666Y-84202438D02*
X160621428Y-84154819D01*
X160621428Y-84154819D02*
X160383333Y-84154819D01*
X160383333Y-84154819D02*
X160288095Y-84202438D01*
X160288095Y-84202438D02*
X160240476Y-84250057D01*
X160240476Y-84250057D02*
X160192857Y-84345295D01*
X160192857Y-84345295D02*
X160192857Y-84440533D01*
X160192857Y-84440533D02*
X160240476Y-84583390D01*
X160240476Y-84583390D02*
X160811904Y-85154819D01*
X160811904Y-85154819D02*
X160192857Y-85154819D01*
X159240476Y-85154819D02*
X159811904Y-85154819D01*
X159526190Y-85154819D02*
X159526190Y-84154819D01*
X159526190Y-84154819D02*
X159621428Y-84297676D01*
X159621428Y-84297676D02*
X159716666Y-84392914D01*
X159716666Y-84392914D02*
X159811904Y-84440533D01*
X171139523Y-127857200D02*
X170996666Y-127904819D01*
X170996666Y-127904819D02*
X170758571Y-127904819D01*
X170758571Y-127904819D02*
X170663333Y-127857200D01*
X170663333Y-127857200D02*
X170615714Y-127809580D01*
X170615714Y-127809580D02*
X170568095Y-127714342D01*
X170568095Y-127714342D02*
X170568095Y-127619104D01*
X170568095Y-127619104D02*
X170615714Y-127523866D01*
X170615714Y-127523866D02*
X170663333Y-127476247D01*
X170663333Y-127476247D02*
X170758571Y-127428628D01*
X170758571Y-127428628D02*
X170949047Y-127381009D01*
X170949047Y-127381009D02*
X171044285Y-127333390D01*
X171044285Y-127333390D02*
X171091904Y-127285771D01*
X171091904Y-127285771D02*
X171139523Y-127190533D01*
X171139523Y-127190533D02*
X171139523Y-127095295D01*
X171139523Y-127095295D02*
X171091904Y-127000057D01*
X171091904Y-127000057D02*
X171044285Y-126952438D01*
X171044285Y-126952438D02*
X170949047Y-126904819D01*
X170949047Y-126904819D02*
X170710952Y-126904819D01*
X170710952Y-126904819D02*
X170568095Y-126952438D01*
X170234761Y-126904819D02*
X169996666Y-127904819D01*
X169996666Y-127904819D02*
X169806190Y-127190533D01*
X169806190Y-127190533D02*
X169615714Y-127904819D01*
X169615714Y-127904819D02*
X169377619Y-126904819D01*
X169091904Y-126904819D02*
X168472857Y-126904819D01*
X168472857Y-126904819D02*
X168806190Y-127285771D01*
X168806190Y-127285771D02*
X168663333Y-127285771D01*
X168663333Y-127285771D02*
X168568095Y-127333390D01*
X168568095Y-127333390D02*
X168520476Y-127381009D01*
X168520476Y-127381009D02*
X168472857Y-127476247D01*
X168472857Y-127476247D02*
X168472857Y-127714342D01*
X168472857Y-127714342D02*
X168520476Y-127809580D01*
X168520476Y-127809580D02*
X168568095Y-127857200D01*
X168568095Y-127857200D02*
X168663333Y-127904819D01*
X168663333Y-127904819D02*
X168949047Y-127904819D01*
X168949047Y-127904819D02*
X169044285Y-127857200D01*
X169044285Y-127857200D02*
X169091904Y-127809580D01*
X168139523Y-126904819D02*
X167472857Y-126904819D01*
X167472857Y-126904819D02*
X167901428Y-127904819D01*
X170914285Y-133154819D02*
X170914285Y-132154819D01*
X170914285Y-132154819D02*
X170676190Y-132154819D01*
X170676190Y-132154819D02*
X170533333Y-132202438D01*
X170533333Y-132202438D02*
X170438095Y-132297676D01*
X170438095Y-132297676D02*
X170390476Y-132392914D01*
X170390476Y-132392914D02*
X170342857Y-132583390D01*
X170342857Y-132583390D02*
X170342857Y-132726247D01*
X170342857Y-132726247D02*
X170390476Y-132916723D01*
X170390476Y-132916723D02*
X170438095Y-133011961D01*
X170438095Y-133011961D02*
X170533333Y-133107200D01*
X170533333Y-133107200D02*
X170676190Y-133154819D01*
X170676190Y-133154819D02*
X170914285Y-133154819D01*
X170009523Y-132154819D02*
X169390476Y-132154819D01*
X169390476Y-132154819D02*
X169723809Y-132535771D01*
X169723809Y-132535771D02*
X169580952Y-132535771D01*
X169580952Y-132535771D02*
X169485714Y-132583390D01*
X169485714Y-132583390D02*
X169438095Y-132631009D01*
X169438095Y-132631009D02*
X169390476Y-132726247D01*
X169390476Y-132726247D02*
X169390476Y-132964342D01*
X169390476Y-132964342D02*
X169438095Y-133059580D01*
X169438095Y-133059580D02*
X169485714Y-133107200D01*
X169485714Y-133107200D02*
X169580952Y-133154819D01*
X169580952Y-133154819D02*
X169866666Y-133154819D01*
X169866666Y-133154819D02*
X169961904Y-133107200D01*
X169961904Y-133107200D02*
X170009523Y-133059580D01*
X168533333Y-132154819D02*
X168723809Y-132154819D01*
X168723809Y-132154819D02*
X168819047Y-132202438D01*
X168819047Y-132202438D02*
X168866666Y-132250057D01*
X168866666Y-132250057D02*
X168961904Y-132392914D01*
X168961904Y-132392914D02*
X169009523Y-132583390D01*
X169009523Y-132583390D02*
X169009523Y-132964342D01*
X169009523Y-132964342D02*
X168961904Y-133059580D01*
X168961904Y-133059580D02*
X168914285Y-133107200D01*
X168914285Y-133107200D02*
X168819047Y-133154819D01*
X168819047Y-133154819D02*
X168628571Y-133154819D01*
X168628571Y-133154819D02*
X168533333Y-133107200D01*
X168533333Y-133107200D02*
X168485714Y-133059580D01*
X168485714Y-133059580D02*
X168438095Y-132964342D01*
X168438095Y-132964342D02*
X168438095Y-132726247D01*
X168438095Y-132726247D02*
X168485714Y-132631009D01*
X168485714Y-132631009D02*
X168533333Y-132583390D01*
X168533333Y-132583390D02*
X168628571Y-132535771D01*
X168628571Y-132535771D02*
X168819047Y-132535771D01*
X168819047Y-132535771D02*
X168914285Y-132583390D01*
X168914285Y-132583390D02*
X168961904Y-132631009D01*
X168961904Y-132631009D02*
X169009523Y-132726247D01*
X86333508Y-71507200D02*
X86190651Y-71554819D01*
X86190651Y-71554819D02*
X85952556Y-71554819D01*
X85952556Y-71554819D02*
X85857318Y-71507200D01*
X85857318Y-71507200D02*
X85809699Y-71459580D01*
X85809699Y-71459580D02*
X85762080Y-71364342D01*
X85762080Y-71364342D02*
X85762080Y-71269104D01*
X85762080Y-71269104D02*
X85809699Y-71173866D01*
X85809699Y-71173866D02*
X85857318Y-71126247D01*
X85857318Y-71126247D02*
X85952556Y-71078628D01*
X85952556Y-71078628D02*
X86143032Y-71031009D01*
X86143032Y-71031009D02*
X86238270Y-70983390D01*
X86238270Y-70983390D02*
X86285889Y-70935771D01*
X86285889Y-70935771D02*
X86333508Y-70840533D01*
X86333508Y-70840533D02*
X86333508Y-70745295D01*
X86333508Y-70745295D02*
X86285889Y-70650057D01*
X86285889Y-70650057D02*
X86238270Y-70602438D01*
X86238270Y-70602438D02*
X86143032Y-70554819D01*
X86143032Y-70554819D02*
X85904937Y-70554819D01*
X85904937Y-70554819D02*
X85762080Y-70602438D01*
X85428746Y-70554819D02*
X85190651Y-71554819D01*
X85190651Y-71554819D02*
X85000175Y-70840533D01*
X85000175Y-70840533D02*
X84809699Y-71554819D01*
X84809699Y-71554819D02*
X84571604Y-70554819D01*
X84285889Y-70554819D02*
X83619223Y-70554819D01*
X83619223Y-70554819D02*
X84047794Y-71554819D01*
X162859347Y-66057200D02*
X162716490Y-66104819D01*
X162716490Y-66104819D02*
X162478395Y-66104819D01*
X162478395Y-66104819D02*
X162383157Y-66057200D01*
X162383157Y-66057200D02*
X162335538Y-66009580D01*
X162335538Y-66009580D02*
X162287919Y-65914342D01*
X162287919Y-65914342D02*
X162287919Y-65819104D01*
X162287919Y-65819104D02*
X162335538Y-65723866D01*
X162335538Y-65723866D02*
X162383157Y-65676247D01*
X162383157Y-65676247D02*
X162478395Y-65628628D01*
X162478395Y-65628628D02*
X162668871Y-65581009D01*
X162668871Y-65581009D02*
X162764109Y-65533390D01*
X162764109Y-65533390D02*
X162811728Y-65485771D01*
X162811728Y-65485771D02*
X162859347Y-65390533D01*
X162859347Y-65390533D02*
X162859347Y-65295295D01*
X162859347Y-65295295D02*
X162811728Y-65200057D01*
X162811728Y-65200057D02*
X162764109Y-65152438D01*
X162764109Y-65152438D02*
X162668871Y-65104819D01*
X162668871Y-65104819D02*
X162430776Y-65104819D01*
X162430776Y-65104819D02*
X162287919Y-65152438D01*
X161954585Y-65104819D02*
X161716490Y-66104819D01*
X161716490Y-66104819D02*
X161526014Y-65390533D01*
X161526014Y-65390533D02*
X161335538Y-66104819D01*
X161335538Y-66104819D02*
X161097443Y-65104819D01*
X160764109Y-65200057D02*
X160716490Y-65152438D01*
X160716490Y-65152438D02*
X160621252Y-65104819D01*
X160621252Y-65104819D02*
X160383157Y-65104819D01*
X160383157Y-65104819D02*
X160287919Y-65152438D01*
X160287919Y-65152438D02*
X160240300Y-65200057D01*
X160240300Y-65200057D02*
X160192681Y-65295295D01*
X160192681Y-65295295D02*
X160192681Y-65390533D01*
X160192681Y-65390533D02*
X160240300Y-65533390D01*
X160240300Y-65533390D02*
X160811728Y-66104819D01*
X160811728Y-66104819D02*
X160192681Y-66104819D01*
X159573633Y-65104819D02*
X159478395Y-65104819D01*
X159478395Y-65104819D02*
X159383157Y-65152438D01*
X159383157Y-65152438D02*
X159335538Y-65200057D01*
X159335538Y-65200057D02*
X159287919Y-65295295D01*
X159287919Y-65295295D02*
X159240300Y-65485771D01*
X159240300Y-65485771D02*
X159240300Y-65723866D01*
X159240300Y-65723866D02*
X159287919Y-65914342D01*
X159287919Y-65914342D02*
X159335538Y-66009580D01*
X159335538Y-66009580D02*
X159383157Y-66057200D01*
X159383157Y-66057200D02*
X159478395Y-66104819D01*
X159478395Y-66104819D02*
X159573633Y-66104819D01*
X159573633Y-66104819D02*
X159668871Y-66057200D01*
X159668871Y-66057200D02*
X159716490Y-66009580D01*
X159716490Y-66009580D02*
X159764109Y-65914342D01*
X159764109Y-65914342D02*
X159811728Y-65723866D01*
X159811728Y-65723866D02*
X159811728Y-65485771D01*
X159811728Y-65485771D02*
X159764109Y-65295295D01*
X159764109Y-65295295D02*
X159716490Y-65200057D01*
X159716490Y-65200057D02*
X159668871Y-65152438D01*
X159668871Y-65152438D02*
X159573633Y-65104819D01*
X143281813Y-86210819D02*
X143281813Y-85210819D01*
X143281813Y-85210819D02*
X143043718Y-85210819D01*
X143043718Y-85210819D02*
X142900861Y-85258438D01*
X142900861Y-85258438D02*
X142805623Y-85353676D01*
X142805623Y-85353676D02*
X142758004Y-85448914D01*
X142758004Y-85448914D02*
X142710385Y-85639390D01*
X142710385Y-85639390D02*
X142710385Y-85782247D01*
X142710385Y-85782247D02*
X142758004Y-85972723D01*
X142758004Y-85972723D02*
X142805623Y-86067961D01*
X142805623Y-86067961D02*
X142900861Y-86163200D01*
X142900861Y-86163200D02*
X143043718Y-86210819D01*
X143043718Y-86210819D02*
X143281813Y-86210819D01*
X141758004Y-86210819D02*
X142329432Y-86210819D01*
X142043718Y-86210819D02*
X142043718Y-85210819D01*
X142043718Y-85210819D02*
X142138956Y-85353676D01*
X142138956Y-85353676D02*
X142234194Y-85448914D01*
X142234194Y-85448914D02*
X142329432Y-85496533D01*
X141377051Y-85306057D02*
X141329432Y-85258438D01*
X141329432Y-85258438D02*
X141234194Y-85210819D01*
X141234194Y-85210819D02*
X140996099Y-85210819D01*
X140996099Y-85210819D02*
X140900861Y-85258438D01*
X140900861Y-85258438D02*
X140853242Y-85306057D01*
X140853242Y-85306057D02*
X140805623Y-85401295D01*
X140805623Y-85401295D02*
X140805623Y-85496533D01*
X140805623Y-85496533D02*
X140853242Y-85639390D01*
X140853242Y-85639390D02*
X141424670Y-86210819D01*
X141424670Y-86210819D02*
X140805623Y-86210819D01*
X152059523Y-125657200D02*
X151916666Y-125704819D01*
X151916666Y-125704819D02*
X151678571Y-125704819D01*
X151678571Y-125704819D02*
X151583333Y-125657200D01*
X151583333Y-125657200D02*
X151535714Y-125609580D01*
X151535714Y-125609580D02*
X151488095Y-125514342D01*
X151488095Y-125514342D02*
X151488095Y-125419104D01*
X151488095Y-125419104D02*
X151535714Y-125323866D01*
X151535714Y-125323866D02*
X151583333Y-125276247D01*
X151583333Y-125276247D02*
X151678571Y-125228628D01*
X151678571Y-125228628D02*
X151869047Y-125181009D01*
X151869047Y-125181009D02*
X151964285Y-125133390D01*
X151964285Y-125133390D02*
X152011904Y-125085771D01*
X152011904Y-125085771D02*
X152059523Y-124990533D01*
X152059523Y-124990533D02*
X152059523Y-124895295D01*
X152059523Y-124895295D02*
X152011904Y-124800057D01*
X152011904Y-124800057D02*
X151964285Y-124752438D01*
X151964285Y-124752438D02*
X151869047Y-124704819D01*
X151869047Y-124704819D02*
X151630952Y-124704819D01*
X151630952Y-124704819D02*
X151488095Y-124752438D01*
X151154761Y-124704819D02*
X150916666Y-125704819D01*
X150916666Y-125704819D02*
X150726190Y-124990533D01*
X150726190Y-124990533D02*
X150535714Y-125704819D01*
X150535714Y-125704819D02*
X150297619Y-124704819D01*
X150011904Y-124704819D02*
X149392857Y-124704819D01*
X149392857Y-124704819D02*
X149726190Y-125085771D01*
X149726190Y-125085771D02*
X149583333Y-125085771D01*
X149583333Y-125085771D02*
X149488095Y-125133390D01*
X149488095Y-125133390D02*
X149440476Y-125181009D01*
X149440476Y-125181009D02*
X149392857Y-125276247D01*
X149392857Y-125276247D02*
X149392857Y-125514342D01*
X149392857Y-125514342D02*
X149440476Y-125609580D01*
X149440476Y-125609580D02*
X149488095Y-125657200D01*
X149488095Y-125657200D02*
X149583333Y-125704819D01*
X149583333Y-125704819D02*
X149869047Y-125704819D01*
X149869047Y-125704819D02*
X149964285Y-125657200D01*
X149964285Y-125657200D02*
X150011904Y-125609580D01*
X148821428Y-125133390D02*
X148916666Y-125085771D01*
X148916666Y-125085771D02*
X148964285Y-125038152D01*
X148964285Y-125038152D02*
X149011904Y-124942914D01*
X149011904Y-124942914D02*
X149011904Y-124895295D01*
X149011904Y-124895295D02*
X148964285Y-124800057D01*
X148964285Y-124800057D02*
X148916666Y-124752438D01*
X148916666Y-124752438D02*
X148821428Y-124704819D01*
X148821428Y-124704819D02*
X148630952Y-124704819D01*
X148630952Y-124704819D02*
X148535714Y-124752438D01*
X148535714Y-124752438D02*
X148488095Y-124800057D01*
X148488095Y-124800057D02*
X148440476Y-124895295D01*
X148440476Y-124895295D02*
X148440476Y-124942914D01*
X148440476Y-124942914D02*
X148488095Y-125038152D01*
X148488095Y-125038152D02*
X148535714Y-125085771D01*
X148535714Y-125085771D02*
X148630952Y-125133390D01*
X148630952Y-125133390D02*
X148821428Y-125133390D01*
X148821428Y-125133390D02*
X148916666Y-125181009D01*
X148916666Y-125181009D02*
X148964285Y-125228628D01*
X148964285Y-125228628D02*
X149011904Y-125323866D01*
X149011904Y-125323866D02*
X149011904Y-125514342D01*
X149011904Y-125514342D02*
X148964285Y-125609580D01*
X148964285Y-125609580D02*
X148916666Y-125657200D01*
X148916666Y-125657200D02*
X148821428Y-125704819D01*
X148821428Y-125704819D02*
X148630952Y-125704819D01*
X148630952Y-125704819D02*
X148535714Y-125657200D01*
X148535714Y-125657200D02*
X148488095Y-125609580D01*
X148488095Y-125609580D02*
X148440476Y-125514342D01*
X148440476Y-125514342D02*
X148440476Y-125323866D01*
X148440476Y-125323866D02*
X148488095Y-125228628D01*
X148488095Y-125228628D02*
X148535714Y-125181009D01*
X148535714Y-125181009D02*
X148630952Y-125133390D01*
X161831637Y-90196819D02*
X161831637Y-89196819D01*
X161831637Y-89196819D02*
X161593542Y-89196819D01*
X161593542Y-89196819D02*
X161450685Y-89244438D01*
X161450685Y-89244438D02*
X161355447Y-89339676D01*
X161355447Y-89339676D02*
X161307828Y-89434914D01*
X161307828Y-89434914D02*
X161260209Y-89625390D01*
X161260209Y-89625390D02*
X161260209Y-89768247D01*
X161260209Y-89768247D02*
X161307828Y-89958723D01*
X161307828Y-89958723D02*
X161355447Y-90053961D01*
X161355447Y-90053961D02*
X161450685Y-90149200D01*
X161450685Y-90149200D02*
X161593542Y-90196819D01*
X161593542Y-90196819D02*
X161831637Y-90196819D01*
X160879256Y-89292057D02*
X160831637Y-89244438D01*
X160831637Y-89244438D02*
X160736399Y-89196819D01*
X160736399Y-89196819D02*
X160498304Y-89196819D01*
X160498304Y-89196819D02*
X160403066Y-89244438D01*
X160403066Y-89244438D02*
X160355447Y-89292057D01*
X160355447Y-89292057D02*
X160307828Y-89387295D01*
X160307828Y-89387295D02*
X160307828Y-89482533D01*
X160307828Y-89482533D02*
X160355447Y-89625390D01*
X160355447Y-89625390D02*
X160926875Y-90196819D01*
X160926875Y-90196819D02*
X160307828Y-90196819D01*
X159688780Y-89196819D02*
X159593542Y-89196819D01*
X159593542Y-89196819D02*
X159498304Y-89244438D01*
X159498304Y-89244438D02*
X159450685Y-89292057D01*
X159450685Y-89292057D02*
X159403066Y-89387295D01*
X159403066Y-89387295D02*
X159355447Y-89577771D01*
X159355447Y-89577771D02*
X159355447Y-89815866D01*
X159355447Y-89815866D02*
X159403066Y-90006342D01*
X159403066Y-90006342D02*
X159450685Y-90101580D01*
X159450685Y-90101580D02*
X159498304Y-90149200D01*
X159498304Y-90149200D02*
X159593542Y-90196819D01*
X159593542Y-90196819D02*
X159688780Y-90196819D01*
X159688780Y-90196819D02*
X159784018Y-90149200D01*
X159784018Y-90149200D02*
X159831637Y-90101580D01*
X159831637Y-90101580D02*
X159879256Y-90006342D01*
X159879256Y-90006342D02*
X159926875Y-89815866D01*
X159926875Y-89815866D02*
X159926875Y-89577771D01*
X159926875Y-89577771D02*
X159879256Y-89387295D01*
X159879256Y-89387295D02*
X159831637Y-89292057D01*
X159831637Y-89292057D02*
X159784018Y-89244438D01*
X159784018Y-89244438D02*
X159688780Y-89196819D01*
X123405446Y-90071819D02*
X123405446Y-89071819D01*
X123405446Y-89071819D02*
X123167351Y-89071819D01*
X123167351Y-89071819D02*
X123024494Y-89119438D01*
X123024494Y-89119438D02*
X122929256Y-89214676D01*
X122929256Y-89214676D02*
X122881637Y-89309914D01*
X122881637Y-89309914D02*
X122834018Y-89500390D01*
X122834018Y-89500390D02*
X122834018Y-89643247D01*
X122834018Y-89643247D02*
X122881637Y-89833723D01*
X122881637Y-89833723D02*
X122929256Y-89928961D01*
X122929256Y-89928961D02*
X123024494Y-90024200D01*
X123024494Y-90024200D02*
X123167351Y-90071819D01*
X123167351Y-90071819D02*
X123405446Y-90071819D01*
X122262589Y-89500390D02*
X122357827Y-89452771D01*
X122357827Y-89452771D02*
X122405446Y-89405152D01*
X122405446Y-89405152D02*
X122453065Y-89309914D01*
X122453065Y-89309914D02*
X122453065Y-89262295D01*
X122453065Y-89262295D02*
X122405446Y-89167057D01*
X122405446Y-89167057D02*
X122357827Y-89119438D01*
X122357827Y-89119438D02*
X122262589Y-89071819D01*
X122262589Y-89071819D02*
X122072113Y-89071819D01*
X122072113Y-89071819D02*
X121976875Y-89119438D01*
X121976875Y-89119438D02*
X121929256Y-89167057D01*
X121929256Y-89167057D02*
X121881637Y-89262295D01*
X121881637Y-89262295D02*
X121881637Y-89309914D01*
X121881637Y-89309914D02*
X121929256Y-89405152D01*
X121929256Y-89405152D02*
X121976875Y-89452771D01*
X121976875Y-89452771D02*
X122072113Y-89500390D01*
X122072113Y-89500390D02*
X122262589Y-89500390D01*
X122262589Y-89500390D02*
X122357827Y-89548009D01*
X122357827Y-89548009D02*
X122405446Y-89595628D01*
X122405446Y-89595628D02*
X122453065Y-89690866D01*
X122453065Y-89690866D02*
X122453065Y-89881342D01*
X122453065Y-89881342D02*
X122405446Y-89976580D01*
X122405446Y-89976580D02*
X122357827Y-90024200D01*
X122357827Y-90024200D02*
X122262589Y-90071819D01*
X122262589Y-90071819D02*
X122072113Y-90071819D01*
X122072113Y-90071819D02*
X121976875Y-90024200D01*
X121976875Y-90024200D02*
X121929256Y-89976580D01*
X121929256Y-89976580D02*
X121881637Y-89881342D01*
X121881637Y-89881342D02*
X121881637Y-89690866D01*
X121881637Y-89690866D02*
X121929256Y-89595628D01*
X121929256Y-89595628D02*
X121976875Y-89548009D01*
X121976875Y-89548009D02*
X122072113Y-89500390D01*
X162859347Y-47007200D02*
X162716490Y-47054819D01*
X162716490Y-47054819D02*
X162478395Y-47054819D01*
X162478395Y-47054819D02*
X162383157Y-47007200D01*
X162383157Y-47007200D02*
X162335538Y-46959580D01*
X162335538Y-46959580D02*
X162287919Y-46864342D01*
X162287919Y-46864342D02*
X162287919Y-46769104D01*
X162287919Y-46769104D02*
X162335538Y-46673866D01*
X162335538Y-46673866D02*
X162383157Y-46626247D01*
X162383157Y-46626247D02*
X162478395Y-46578628D01*
X162478395Y-46578628D02*
X162668871Y-46531009D01*
X162668871Y-46531009D02*
X162764109Y-46483390D01*
X162764109Y-46483390D02*
X162811728Y-46435771D01*
X162811728Y-46435771D02*
X162859347Y-46340533D01*
X162859347Y-46340533D02*
X162859347Y-46245295D01*
X162859347Y-46245295D02*
X162811728Y-46150057D01*
X162811728Y-46150057D02*
X162764109Y-46102438D01*
X162764109Y-46102438D02*
X162668871Y-46054819D01*
X162668871Y-46054819D02*
X162430776Y-46054819D01*
X162430776Y-46054819D02*
X162287919Y-46102438D01*
X161954585Y-46054819D02*
X161716490Y-47054819D01*
X161716490Y-47054819D02*
X161526014Y-46340533D01*
X161526014Y-46340533D02*
X161335538Y-47054819D01*
X161335538Y-47054819D02*
X161097443Y-46054819D01*
X160192681Y-47054819D02*
X160764109Y-47054819D01*
X160478395Y-47054819D02*
X160478395Y-46054819D01*
X160478395Y-46054819D02*
X160573633Y-46197676D01*
X160573633Y-46197676D02*
X160668871Y-46292914D01*
X160668871Y-46292914D02*
X160764109Y-46340533D01*
X159716490Y-47054819D02*
X159526014Y-47054819D01*
X159526014Y-47054819D02*
X159430776Y-47007200D01*
X159430776Y-47007200D02*
X159383157Y-46959580D01*
X159383157Y-46959580D02*
X159287919Y-46816723D01*
X159287919Y-46816723D02*
X159240300Y-46626247D01*
X159240300Y-46626247D02*
X159240300Y-46245295D01*
X159240300Y-46245295D02*
X159287919Y-46150057D01*
X159287919Y-46150057D02*
X159335538Y-46102438D01*
X159335538Y-46102438D02*
X159430776Y-46054819D01*
X159430776Y-46054819D02*
X159621252Y-46054819D01*
X159621252Y-46054819D02*
X159716490Y-46102438D01*
X159716490Y-46102438D02*
X159764109Y-46150057D01*
X159764109Y-46150057D02*
X159811728Y-46245295D01*
X159811728Y-46245295D02*
X159811728Y-46483390D01*
X159811728Y-46483390D02*
X159764109Y-46578628D01*
X159764109Y-46578628D02*
X159716490Y-46626247D01*
X159716490Y-46626247D02*
X159621252Y-46673866D01*
X159621252Y-46673866D02*
X159430776Y-46673866D01*
X159430776Y-46673866D02*
X159335538Y-46626247D01*
X159335538Y-46626247D02*
X159287919Y-46578628D01*
X159287919Y-46578628D02*
X159240300Y-46483390D01*
X143859523Y-81107200D02*
X143716666Y-81154819D01*
X143716666Y-81154819D02*
X143478571Y-81154819D01*
X143478571Y-81154819D02*
X143383333Y-81107200D01*
X143383333Y-81107200D02*
X143335714Y-81059580D01*
X143335714Y-81059580D02*
X143288095Y-80964342D01*
X143288095Y-80964342D02*
X143288095Y-80869104D01*
X143288095Y-80869104D02*
X143335714Y-80773866D01*
X143335714Y-80773866D02*
X143383333Y-80726247D01*
X143383333Y-80726247D02*
X143478571Y-80678628D01*
X143478571Y-80678628D02*
X143669047Y-80631009D01*
X143669047Y-80631009D02*
X143764285Y-80583390D01*
X143764285Y-80583390D02*
X143811904Y-80535771D01*
X143811904Y-80535771D02*
X143859523Y-80440533D01*
X143859523Y-80440533D02*
X143859523Y-80345295D01*
X143859523Y-80345295D02*
X143811904Y-80250057D01*
X143811904Y-80250057D02*
X143764285Y-80202438D01*
X143764285Y-80202438D02*
X143669047Y-80154819D01*
X143669047Y-80154819D02*
X143430952Y-80154819D01*
X143430952Y-80154819D02*
X143288095Y-80202438D01*
X142954761Y-80154819D02*
X142716666Y-81154819D01*
X142716666Y-81154819D02*
X142526190Y-80440533D01*
X142526190Y-80440533D02*
X142335714Y-81154819D01*
X142335714Y-81154819D02*
X142097619Y-80154819D01*
X141192857Y-81154819D02*
X141764285Y-81154819D01*
X141478571Y-81154819D02*
X141478571Y-80154819D01*
X141478571Y-80154819D02*
X141573809Y-80297676D01*
X141573809Y-80297676D02*
X141669047Y-80392914D01*
X141669047Y-80392914D02*
X141764285Y-80440533D01*
X140859523Y-80154819D02*
X140192857Y-80154819D01*
X140192857Y-80154819D02*
X140621428Y-81154819D01*
X181131813Y-111508819D02*
X181131813Y-110508819D01*
X181131813Y-110508819D02*
X180893718Y-110508819D01*
X180893718Y-110508819D02*
X180750861Y-110556438D01*
X180750861Y-110556438D02*
X180655623Y-110651676D01*
X180655623Y-110651676D02*
X180608004Y-110746914D01*
X180608004Y-110746914D02*
X180560385Y-110937390D01*
X180560385Y-110937390D02*
X180560385Y-111080247D01*
X180560385Y-111080247D02*
X180608004Y-111270723D01*
X180608004Y-111270723D02*
X180655623Y-111365961D01*
X180655623Y-111365961D02*
X180750861Y-111461200D01*
X180750861Y-111461200D02*
X180893718Y-111508819D01*
X180893718Y-111508819D02*
X181131813Y-111508819D01*
X180179432Y-110604057D02*
X180131813Y-110556438D01*
X180131813Y-110556438D02*
X180036575Y-110508819D01*
X180036575Y-110508819D02*
X179798480Y-110508819D01*
X179798480Y-110508819D02*
X179703242Y-110556438D01*
X179703242Y-110556438D02*
X179655623Y-110604057D01*
X179655623Y-110604057D02*
X179608004Y-110699295D01*
X179608004Y-110699295D02*
X179608004Y-110794533D01*
X179608004Y-110794533D02*
X179655623Y-110937390D01*
X179655623Y-110937390D02*
X180227051Y-111508819D01*
X180227051Y-111508819D02*
X179608004Y-111508819D01*
X178703242Y-110508819D02*
X179179432Y-110508819D01*
X179179432Y-110508819D02*
X179227051Y-110985009D01*
X179227051Y-110985009D02*
X179179432Y-110937390D01*
X179179432Y-110937390D02*
X179084194Y-110889771D01*
X179084194Y-110889771D02*
X178846099Y-110889771D01*
X178846099Y-110889771D02*
X178750861Y-110937390D01*
X178750861Y-110937390D02*
X178703242Y-110985009D01*
X178703242Y-110985009D02*
X178655623Y-111080247D01*
X178655623Y-111080247D02*
X178655623Y-111318342D01*
X178655623Y-111318342D02*
X178703242Y-111413580D01*
X178703242Y-111413580D02*
X178750861Y-111461200D01*
X178750861Y-111461200D02*
X178846099Y-111508819D01*
X178846099Y-111508819D02*
X179084194Y-111508819D01*
X179084194Y-111508819D02*
X179179432Y-111461200D01*
X179179432Y-111461200D02*
X179227051Y-111413580D01*
X85905622Y-114533819D02*
X85905622Y-113533819D01*
X85905622Y-113533819D02*
X85667527Y-113533819D01*
X85667527Y-113533819D02*
X85524670Y-113581438D01*
X85524670Y-113581438D02*
X85429432Y-113676676D01*
X85429432Y-113676676D02*
X85381813Y-113771914D01*
X85381813Y-113771914D02*
X85334194Y-113962390D01*
X85334194Y-113962390D02*
X85334194Y-114105247D01*
X85334194Y-114105247D02*
X85381813Y-114295723D01*
X85381813Y-114295723D02*
X85429432Y-114390961D01*
X85429432Y-114390961D02*
X85524670Y-114486200D01*
X85524670Y-114486200D02*
X85667527Y-114533819D01*
X85667527Y-114533819D02*
X85905622Y-114533819D01*
X84429432Y-113533819D02*
X84905622Y-113533819D01*
X84905622Y-113533819D02*
X84953241Y-114010009D01*
X84953241Y-114010009D02*
X84905622Y-113962390D01*
X84905622Y-113962390D02*
X84810384Y-113914771D01*
X84810384Y-113914771D02*
X84572289Y-113914771D01*
X84572289Y-113914771D02*
X84477051Y-113962390D01*
X84477051Y-113962390D02*
X84429432Y-114010009D01*
X84429432Y-114010009D02*
X84381813Y-114105247D01*
X84381813Y-114105247D02*
X84381813Y-114343342D01*
X84381813Y-114343342D02*
X84429432Y-114438580D01*
X84429432Y-114438580D02*
X84477051Y-114486200D01*
X84477051Y-114486200D02*
X84572289Y-114533819D01*
X84572289Y-114533819D02*
X84810384Y-114533819D01*
X84810384Y-114533819D02*
X84905622Y-114486200D01*
X84905622Y-114486200D02*
X84953241Y-114438580D01*
X104555622Y-95083819D02*
X104555622Y-94083819D01*
X104555622Y-94083819D02*
X104317527Y-94083819D01*
X104317527Y-94083819D02*
X104174670Y-94131438D01*
X104174670Y-94131438D02*
X104079432Y-94226676D01*
X104079432Y-94226676D02*
X104031813Y-94321914D01*
X104031813Y-94321914D02*
X103984194Y-94512390D01*
X103984194Y-94512390D02*
X103984194Y-94655247D01*
X103984194Y-94655247D02*
X104031813Y-94845723D01*
X104031813Y-94845723D02*
X104079432Y-94940961D01*
X104079432Y-94940961D02*
X104174670Y-95036200D01*
X104174670Y-95036200D02*
X104317527Y-95083819D01*
X104317527Y-95083819D02*
X104555622Y-95083819D01*
X103603241Y-94179057D02*
X103555622Y-94131438D01*
X103555622Y-94131438D02*
X103460384Y-94083819D01*
X103460384Y-94083819D02*
X103222289Y-94083819D01*
X103222289Y-94083819D02*
X103127051Y-94131438D01*
X103127051Y-94131438D02*
X103079432Y-94179057D01*
X103079432Y-94179057D02*
X103031813Y-94274295D01*
X103031813Y-94274295D02*
X103031813Y-94369533D01*
X103031813Y-94369533D02*
X103079432Y-94512390D01*
X103079432Y-94512390D02*
X103650860Y-95083819D01*
X103650860Y-95083819D02*
X103031813Y-95083819D01*
X104206813Y-57308819D02*
X104206813Y-56308819D01*
X104206813Y-56308819D02*
X103968718Y-56308819D01*
X103968718Y-56308819D02*
X103825861Y-56356438D01*
X103825861Y-56356438D02*
X103730623Y-56451676D01*
X103730623Y-56451676D02*
X103683004Y-56546914D01*
X103683004Y-56546914D02*
X103635385Y-56737390D01*
X103635385Y-56737390D02*
X103635385Y-56880247D01*
X103635385Y-56880247D02*
X103683004Y-57070723D01*
X103683004Y-57070723D02*
X103730623Y-57165961D01*
X103730623Y-57165961D02*
X103825861Y-57261200D01*
X103825861Y-57261200D02*
X103968718Y-57308819D01*
X103968718Y-57308819D02*
X104206813Y-57308819D01*
X102683004Y-57308819D02*
X103254432Y-57308819D01*
X102968718Y-57308819D02*
X102968718Y-56308819D01*
X102968718Y-56308819D02*
X103063956Y-56451676D01*
X103063956Y-56451676D02*
X103159194Y-56546914D01*
X103159194Y-56546914D02*
X103254432Y-56594533D01*
X102349670Y-56308819D02*
X101730623Y-56308819D01*
X101730623Y-56308819D02*
X102063956Y-56689771D01*
X102063956Y-56689771D02*
X101921099Y-56689771D01*
X101921099Y-56689771D02*
X101825861Y-56737390D01*
X101825861Y-56737390D02*
X101778242Y-56785009D01*
X101778242Y-56785009D02*
X101730623Y-56880247D01*
X101730623Y-56880247D02*
X101730623Y-57118342D01*
X101730623Y-57118342D02*
X101778242Y-57213580D01*
X101778242Y-57213580D02*
X101825861Y-57261200D01*
X101825861Y-57261200D02*
X101921099Y-57308819D01*
X101921099Y-57308819D02*
X102206813Y-57308819D01*
X102206813Y-57308819D02*
X102302051Y-57261200D01*
X102302051Y-57261200D02*
X102349670Y-57213580D01*
X162056637Y-109146819D02*
X162056637Y-108146819D01*
X162056637Y-108146819D02*
X161818542Y-108146819D01*
X161818542Y-108146819D02*
X161675685Y-108194438D01*
X161675685Y-108194438D02*
X161580447Y-108289676D01*
X161580447Y-108289676D02*
X161532828Y-108384914D01*
X161532828Y-108384914D02*
X161485209Y-108575390D01*
X161485209Y-108575390D02*
X161485209Y-108718247D01*
X161485209Y-108718247D02*
X161532828Y-108908723D01*
X161532828Y-108908723D02*
X161580447Y-109003961D01*
X161580447Y-109003961D02*
X161675685Y-109099200D01*
X161675685Y-109099200D02*
X161818542Y-109146819D01*
X161818542Y-109146819D02*
X162056637Y-109146819D01*
X161104256Y-108242057D02*
X161056637Y-108194438D01*
X161056637Y-108194438D02*
X160961399Y-108146819D01*
X160961399Y-108146819D02*
X160723304Y-108146819D01*
X160723304Y-108146819D02*
X160628066Y-108194438D01*
X160628066Y-108194438D02*
X160580447Y-108242057D01*
X160580447Y-108242057D02*
X160532828Y-108337295D01*
X160532828Y-108337295D02*
X160532828Y-108432533D01*
X160532828Y-108432533D02*
X160580447Y-108575390D01*
X160580447Y-108575390D02*
X161151875Y-109146819D01*
X161151875Y-109146819D02*
X160532828Y-109146819D01*
X159580447Y-109146819D02*
X160151875Y-109146819D01*
X159866161Y-109146819D02*
X159866161Y-108146819D01*
X159866161Y-108146819D02*
X159961399Y-108289676D01*
X159961399Y-108289676D02*
X160056637Y-108384914D01*
X160056637Y-108384914D02*
X160151875Y-108432533D01*
X194419101Y-136826863D02*
X194271574Y-136796674D01*
X194271574Y-136796674D02*
X194065377Y-136677626D01*
X194065377Y-136677626D02*
X194006708Y-136588768D01*
X194006708Y-136588768D02*
X193989278Y-136523719D01*
X193989278Y-136523719D02*
X193995658Y-136417431D01*
X193995658Y-136417431D02*
X194043277Y-136334952D01*
X194043277Y-136334952D02*
X194132135Y-136276283D01*
X194132135Y-136276283D02*
X194197184Y-136258853D01*
X194197184Y-136258853D02*
X194303472Y-136265233D01*
X194303472Y-136265233D02*
X194492239Y-136319232D01*
X194492239Y-136319232D02*
X194598527Y-136325612D01*
X194598527Y-136325612D02*
X194663576Y-136308182D01*
X194663576Y-136308182D02*
X194752434Y-136249513D01*
X194752434Y-136249513D02*
X194800053Y-136167034D01*
X194800053Y-136167034D02*
X194806433Y-136060746D01*
X194806433Y-136060746D02*
X194789003Y-135995697D01*
X194789003Y-135995697D02*
X194730334Y-135906839D01*
X194730334Y-135906839D02*
X194524138Y-135787791D01*
X194524138Y-135787791D02*
X194376610Y-135757602D01*
X194111745Y-135549696D02*
X193405548Y-136296674D01*
X193405548Y-136296674D02*
X193597734Y-135582846D01*
X193597734Y-135582846D02*
X193075634Y-136106197D01*
X193075634Y-136106197D02*
X193369437Y-135121124D01*
X193122002Y-134978267D02*
X192585891Y-134668744D01*
X192585891Y-134668744D02*
X192684090Y-135165325D01*
X192684090Y-135165325D02*
X192560372Y-135093896D01*
X192560372Y-135093896D02*
X192454083Y-135087516D01*
X192454083Y-135087516D02*
X192389035Y-135104946D01*
X192389035Y-135104946D02*
X192300176Y-135163615D01*
X192300176Y-135163615D02*
X192181129Y-135369812D01*
X192181129Y-135369812D02*
X192174749Y-135476100D01*
X192174749Y-135476100D02*
X192192179Y-135541149D01*
X192192179Y-135541149D02*
X192250848Y-135630007D01*
X192250848Y-135630007D02*
X192498284Y-135772864D01*
X192498284Y-135772864D02*
X192604572Y-135779244D01*
X192604572Y-135779244D02*
X192669621Y-135761814D01*
X191843583Y-134240172D02*
X192008540Y-134335410D01*
X192008540Y-134335410D02*
X192067209Y-134424269D01*
X192067209Y-134424269D02*
X192084639Y-134489317D01*
X192084639Y-134489317D02*
X192095689Y-134660654D01*
X192095689Y-134660654D02*
X192041690Y-134849421D01*
X192041690Y-134849421D02*
X191851214Y-135179336D01*
X191851214Y-135179336D02*
X191762356Y-135238005D01*
X191762356Y-135238005D02*
X191697307Y-135255434D01*
X191697307Y-135255434D02*
X191591019Y-135249055D01*
X191591019Y-135249055D02*
X191426062Y-135153817D01*
X191426062Y-135153817D02*
X191367393Y-135064958D01*
X191367393Y-135064958D02*
X191349963Y-134999909D01*
X191349963Y-134999909D02*
X191356343Y-134893621D01*
X191356343Y-134893621D02*
X191475390Y-134687425D01*
X191475390Y-134687425D02*
X191564248Y-134628756D01*
X191564248Y-134628756D02*
X191629297Y-134611326D01*
X191629297Y-134611326D02*
X191735585Y-134617706D01*
X191735585Y-134617706D02*
X191900543Y-134712944D01*
X191900543Y-134712944D02*
X191959212Y-134801802D01*
X191959212Y-134801802D02*
X191976642Y-134866851D01*
X191976642Y-134866851D02*
X191970262Y-134973139D01*
X86333508Y-90557200D02*
X86190651Y-90604819D01*
X86190651Y-90604819D02*
X85952556Y-90604819D01*
X85952556Y-90604819D02*
X85857318Y-90557200D01*
X85857318Y-90557200D02*
X85809699Y-90509580D01*
X85809699Y-90509580D02*
X85762080Y-90414342D01*
X85762080Y-90414342D02*
X85762080Y-90319104D01*
X85762080Y-90319104D02*
X85809699Y-90223866D01*
X85809699Y-90223866D02*
X85857318Y-90176247D01*
X85857318Y-90176247D02*
X85952556Y-90128628D01*
X85952556Y-90128628D02*
X86143032Y-90081009D01*
X86143032Y-90081009D02*
X86238270Y-90033390D01*
X86238270Y-90033390D02*
X86285889Y-89985771D01*
X86285889Y-89985771D02*
X86333508Y-89890533D01*
X86333508Y-89890533D02*
X86333508Y-89795295D01*
X86333508Y-89795295D02*
X86285889Y-89700057D01*
X86285889Y-89700057D02*
X86238270Y-89652438D01*
X86238270Y-89652438D02*
X86143032Y-89604819D01*
X86143032Y-89604819D02*
X85904937Y-89604819D01*
X85904937Y-89604819D02*
X85762080Y-89652438D01*
X85428746Y-89604819D02*
X85190651Y-90604819D01*
X85190651Y-90604819D02*
X85000175Y-89890533D01*
X85000175Y-89890533D02*
X84809699Y-90604819D01*
X84809699Y-90604819D02*
X84571604Y-89604819D01*
X84143032Y-90604819D02*
X83952556Y-90604819D01*
X83952556Y-90604819D02*
X83857318Y-90557200D01*
X83857318Y-90557200D02*
X83809699Y-90509580D01*
X83809699Y-90509580D02*
X83714461Y-90366723D01*
X83714461Y-90366723D02*
X83666842Y-90176247D01*
X83666842Y-90176247D02*
X83666842Y-89795295D01*
X83666842Y-89795295D02*
X83714461Y-89700057D01*
X83714461Y-89700057D02*
X83762080Y-89652438D01*
X83762080Y-89652438D02*
X83857318Y-89604819D01*
X83857318Y-89604819D02*
X84047794Y-89604819D01*
X84047794Y-89604819D02*
X84143032Y-89652438D01*
X84143032Y-89652438D02*
X84190651Y-89700057D01*
X84190651Y-89700057D02*
X84238270Y-89795295D01*
X84238270Y-89795295D02*
X84238270Y-90033390D01*
X84238270Y-90033390D02*
X84190651Y-90128628D01*
X84190651Y-90128628D02*
X84143032Y-90176247D01*
X84143032Y-90176247D02*
X84047794Y-90223866D01*
X84047794Y-90223866D02*
X83857318Y-90223866D01*
X83857318Y-90223866D02*
X83762080Y-90176247D01*
X83762080Y-90176247D02*
X83714461Y-90128628D01*
X83714461Y-90128628D02*
X83666842Y-90033390D01*
X103730622Y-114358819D02*
X103730622Y-113358819D01*
X103730622Y-113358819D02*
X103492527Y-113358819D01*
X103492527Y-113358819D02*
X103349670Y-113406438D01*
X103349670Y-113406438D02*
X103254432Y-113501676D01*
X103254432Y-113501676D02*
X103206813Y-113596914D01*
X103206813Y-113596914D02*
X103159194Y-113787390D01*
X103159194Y-113787390D02*
X103159194Y-113930247D01*
X103159194Y-113930247D02*
X103206813Y-114120723D01*
X103206813Y-114120723D02*
X103254432Y-114215961D01*
X103254432Y-114215961D02*
X103349670Y-114311200D01*
X103349670Y-114311200D02*
X103492527Y-114358819D01*
X103492527Y-114358819D02*
X103730622Y-114358819D01*
X102825860Y-113358819D02*
X102206813Y-113358819D01*
X102206813Y-113358819D02*
X102540146Y-113739771D01*
X102540146Y-113739771D02*
X102397289Y-113739771D01*
X102397289Y-113739771D02*
X102302051Y-113787390D01*
X102302051Y-113787390D02*
X102254432Y-113835009D01*
X102254432Y-113835009D02*
X102206813Y-113930247D01*
X102206813Y-113930247D02*
X102206813Y-114168342D01*
X102206813Y-114168342D02*
X102254432Y-114263580D01*
X102254432Y-114263580D02*
X102302051Y-114311200D01*
X102302051Y-114311200D02*
X102397289Y-114358819D01*
X102397289Y-114358819D02*
X102683003Y-114358819D01*
X102683003Y-114358819D02*
X102778241Y-114311200D01*
X102778241Y-114311200D02*
X102825860Y-114263580D01*
X142806813Y-105010819D02*
X142806813Y-104010819D01*
X142806813Y-104010819D02*
X142568718Y-104010819D01*
X142568718Y-104010819D02*
X142425861Y-104058438D01*
X142425861Y-104058438D02*
X142330623Y-104153676D01*
X142330623Y-104153676D02*
X142283004Y-104248914D01*
X142283004Y-104248914D02*
X142235385Y-104439390D01*
X142235385Y-104439390D02*
X142235385Y-104582247D01*
X142235385Y-104582247D02*
X142283004Y-104772723D01*
X142283004Y-104772723D02*
X142330623Y-104867961D01*
X142330623Y-104867961D02*
X142425861Y-104963200D01*
X142425861Y-104963200D02*
X142568718Y-105010819D01*
X142568718Y-105010819D02*
X142806813Y-105010819D01*
X141283004Y-105010819D02*
X141854432Y-105010819D01*
X141568718Y-105010819D02*
X141568718Y-104010819D01*
X141568718Y-104010819D02*
X141663956Y-104153676D01*
X141663956Y-104153676D02*
X141759194Y-104248914D01*
X141759194Y-104248914D02*
X141854432Y-104296533D01*
X140949670Y-104010819D02*
X140283004Y-104010819D01*
X140283004Y-104010819D02*
X140711575Y-105010819D01*
X105031813Y-76933819D02*
X105031813Y-75933819D01*
X105031813Y-75933819D02*
X104793718Y-75933819D01*
X104793718Y-75933819D02*
X104650861Y-75981438D01*
X104650861Y-75981438D02*
X104555623Y-76076676D01*
X104555623Y-76076676D02*
X104508004Y-76171914D01*
X104508004Y-76171914D02*
X104460385Y-76362390D01*
X104460385Y-76362390D02*
X104460385Y-76505247D01*
X104460385Y-76505247D02*
X104508004Y-76695723D01*
X104508004Y-76695723D02*
X104555623Y-76790961D01*
X104555623Y-76790961D02*
X104650861Y-76886200D01*
X104650861Y-76886200D02*
X104793718Y-76933819D01*
X104793718Y-76933819D02*
X105031813Y-76933819D01*
X103508004Y-76933819D02*
X104079432Y-76933819D01*
X103793718Y-76933819D02*
X103793718Y-75933819D01*
X103793718Y-75933819D02*
X103888956Y-76076676D01*
X103888956Y-76076676D02*
X103984194Y-76171914D01*
X103984194Y-76171914D02*
X104079432Y-76219533D01*
X102650861Y-76267152D02*
X102650861Y-76933819D01*
X102888956Y-75886200D02*
X103127051Y-76600485D01*
X103127051Y-76600485D02*
X102508004Y-76600485D01*
X162859523Y-104157200D02*
X162716666Y-104204819D01*
X162716666Y-104204819D02*
X162478571Y-104204819D01*
X162478571Y-104204819D02*
X162383333Y-104157200D01*
X162383333Y-104157200D02*
X162335714Y-104109580D01*
X162335714Y-104109580D02*
X162288095Y-104014342D01*
X162288095Y-104014342D02*
X162288095Y-103919104D01*
X162288095Y-103919104D02*
X162335714Y-103823866D01*
X162335714Y-103823866D02*
X162383333Y-103776247D01*
X162383333Y-103776247D02*
X162478571Y-103728628D01*
X162478571Y-103728628D02*
X162669047Y-103681009D01*
X162669047Y-103681009D02*
X162764285Y-103633390D01*
X162764285Y-103633390D02*
X162811904Y-103585771D01*
X162811904Y-103585771D02*
X162859523Y-103490533D01*
X162859523Y-103490533D02*
X162859523Y-103395295D01*
X162859523Y-103395295D02*
X162811904Y-103300057D01*
X162811904Y-103300057D02*
X162764285Y-103252438D01*
X162764285Y-103252438D02*
X162669047Y-103204819D01*
X162669047Y-103204819D02*
X162430952Y-103204819D01*
X162430952Y-103204819D02*
X162288095Y-103252438D01*
X161954761Y-103204819D02*
X161716666Y-104204819D01*
X161716666Y-104204819D02*
X161526190Y-103490533D01*
X161526190Y-103490533D02*
X161335714Y-104204819D01*
X161335714Y-104204819D02*
X161097619Y-103204819D01*
X160764285Y-103300057D02*
X160716666Y-103252438D01*
X160716666Y-103252438D02*
X160621428Y-103204819D01*
X160621428Y-103204819D02*
X160383333Y-103204819D01*
X160383333Y-103204819D02*
X160288095Y-103252438D01*
X160288095Y-103252438D02*
X160240476Y-103300057D01*
X160240476Y-103300057D02*
X160192857Y-103395295D01*
X160192857Y-103395295D02*
X160192857Y-103490533D01*
X160192857Y-103490533D02*
X160240476Y-103633390D01*
X160240476Y-103633390D02*
X160811904Y-104204819D01*
X160811904Y-104204819D02*
X160192857Y-104204819D01*
X159811904Y-103300057D02*
X159764285Y-103252438D01*
X159764285Y-103252438D02*
X159669047Y-103204819D01*
X159669047Y-103204819D02*
X159430952Y-103204819D01*
X159430952Y-103204819D02*
X159335714Y-103252438D01*
X159335714Y-103252438D02*
X159288095Y-103300057D01*
X159288095Y-103300057D02*
X159240476Y-103395295D01*
X159240476Y-103395295D02*
X159240476Y-103490533D01*
X159240476Y-103490533D02*
X159288095Y-103633390D01*
X159288095Y-103633390D02*
X159859523Y-104204819D01*
X159859523Y-104204819D02*
X159240476Y-104204819D01*
X85905622Y-95558819D02*
X85905622Y-94558819D01*
X85905622Y-94558819D02*
X85667527Y-94558819D01*
X85667527Y-94558819D02*
X85524670Y-94606438D01*
X85524670Y-94606438D02*
X85429432Y-94701676D01*
X85429432Y-94701676D02*
X85381813Y-94796914D01*
X85381813Y-94796914D02*
X85334194Y-94987390D01*
X85334194Y-94987390D02*
X85334194Y-95130247D01*
X85334194Y-95130247D02*
X85381813Y-95320723D01*
X85381813Y-95320723D02*
X85429432Y-95415961D01*
X85429432Y-95415961D02*
X85524670Y-95511200D01*
X85524670Y-95511200D02*
X85667527Y-95558819D01*
X85667527Y-95558819D02*
X85905622Y-95558819D01*
X84477051Y-94892152D02*
X84477051Y-95558819D01*
X84715146Y-94511200D02*
X84953241Y-95225485D01*
X84953241Y-95225485D02*
X84334194Y-95225485D01*
X86333508Y-52457200D02*
X86190651Y-52504819D01*
X86190651Y-52504819D02*
X85952556Y-52504819D01*
X85952556Y-52504819D02*
X85857318Y-52457200D01*
X85857318Y-52457200D02*
X85809699Y-52409580D01*
X85809699Y-52409580D02*
X85762080Y-52314342D01*
X85762080Y-52314342D02*
X85762080Y-52219104D01*
X85762080Y-52219104D02*
X85809699Y-52123866D01*
X85809699Y-52123866D02*
X85857318Y-52076247D01*
X85857318Y-52076247D02*
X85952556Y-52028628D01*
X85952556Y-52028628D02*
X86143032Y-51981009D01*
X86143032Y-51981009D02*
X86238270Y-51933390D01*
X86238270Y-51933390D02*
X86285889Y-51885771D01*
X86285889Y-51885771D02*
X86333508Y-51790533D01*
X86333508Y-51790533D02*
X86333508Y-51695295D01*
X86333508Y-51695295D02*
X86285889Y-51600057D01*
X86285889Y-51600057D02*
X86238270Y-51552438D01*
X86238270Y-51552438D02*
X86143032Y-51504819D01*
X86143032Y-51504819D02*
X85904937Y-51504819D01*
X85904937Y-51504819D02*
X85762080Y-51552438D01*
X85428746Y-51504819D02*
X85190651Y-52504819D01*
X85190651Y-52504819D02*
X85000175Y-51790533D01*
X85000175Y-51790533D02*
X84809699Y-52504819D01*
X84809699Y-52504819D02*
X84571604Y-51504819D01*
X83762080Y-51504819D02*
X83952556Y-51504819D01*
X83952556Y-51504819D02*
X84047794Y-51552438D01*
X84047794Y-51552438D02*
X84095413Y-51600057D01*
X84095413Y-51600057D02*
X84190651Y-51742914D01*
X84190651Y-51742914D02*
X84238270Y-51933390D01*
X84238270Y-51933390D02*
X84238270Y-52314342D01*
X84238270Y-52314342D02*
X84190651Y-52409580D01*
X84190651Y-52409580D02*
X84143032Y-52457200D01*
X84143032Y-52457200D02*
X84047794Y-52504819D01*
X84047794Y-52504819D02*
X83857318Y-52504819D01*
X83857318Y-52504819D02*
X83762080Y-52457200D01*
X83762080Y-52457200D02*
X83714461Y-52409580D01*
X83714461Y-52409580D02*
X83666842Y-52314342D01*
X83666842Y-52314342D02*
X83666842Y-52076247D01*
X83666842Y-52076247D02*
X83714461Y-51981009D01*
X83714461Y-51981009D02*
X83762080Y-51933390D01*
X83762080Y-51933390D02*
X83857318Y-51885771D01*
X83857318Y-51885771D02*
X84047794Y-51885771D01*
X84047794Y-51885771D02*
X84143032Y-51933390D01*
X84143032Y-51933390D02*
X84190651Y-51981009D01*
X84190651Y-51981009D02*
X84238270Y-52076247D01*
X143859699Y-100157200D02*
X143716842Y-100204819D01*
X143716842Y-100204819D02*
X143478747Y-100204819D01*
X143478747Y-100204819D02*
X143383509Y-100157200D01*
X143383509Y-100157200D02*
X143335890Y-100109580D01*
X143335890Y-100109580D02*
X143288271Y-100014342D01*
X143288271Y-100014342D02*
X143288271Y-99919104D01*
X143288271Y-99919104D02*
X143335890Y-99823866D01*
X143335890Y-99823866D02*
X143383509Y-99776247D01*
X143383509Y-99776247D02*
X143478747Y-99728628D01*
X143478747Y-99728628D02*
X143669223Y-99681009D01*
X143669223Y-99681009D02*
X143764461Y-99633390D01*
X143764461Y-99633390D02*
X143812080Y-99585771D01*
X143812080Y-99585771D02*
X143859699Y-99490533D01*
X143859699Y-99490533D02*
X143859699Y-99395295D01*
X143859699Y-99395295D02*
X143812080Y-99300057D01*
X143812080Y-99300057D02*
X143764461Y-99252438D01*
X143764461Y-99252438D02*
X143669223Y-99204819D01*
X143669223Y-99204819D02*
X143431128Y-99204819D01*
X143431128Y-99204819D02*
X143288271Y-99252438D01*
X142954937Y-99204819D02*
X142716842Y-100204819D01*
X142716842Y-100204819D02*
X142526366Y-99490533D01*
X142526366Y-99490533D02*
X142335890Y-100204819D01*
X142335890Y-100204819D02*
X142097795Y-99204819D01*
X141193033Y-100204819D02*
X141764461Y-100204819D01*
X141478747Y-100204819D02*
X141478747Y-99204819D01*
X141478747Y-99204819D02*
X141573985Y-99347676D01*
X141573985Y-99347676D02*
X141669223Y-99442914D01*
X141669223Y-99442914D02*
X141764461Y-99490533D01*
X140621604Y-99633390D02*
X140716842Y-99585771D01*
X140716842Y-99585771D02*
X140764461Y-99538152D01*
X140764461Y-99538152D02*
X140812080Y-99442914D01*
X140812080Y-99442914D02*
X140812080Y-99395295D01*
X140812080Y-99395295D02*
X140764461Y-99300057D01*
X140764461Y-99300057D02*
X140716842Y-99252438D01*
X140716842Y-99252438D02*
X140621604Y-99204819D01*
X140621604Y-99204819D02*
X140431128Y-99204819D01*
X140431128Y-99204819D02*
X140335890Y-99252438D01*
X140335890Y-99252438D02*
X140288271Y-99300057D01*
X140288271Y-99300057D02*
X140240652Y-99395295D01*
X140240652Y-99395295D02*
X140240652Y-99442914D01*
X140240652Y-99442914D02*
X140288271Y-99538152D01*
X140288271Y-99538152D02*
X140335890Y-99585771D01*
X140335890Y-99585771D02*
X140431128Y-99633390D01*
X140431128Y-99633390D02*
X140621604Y-99633390D01*
X140621604Y-99633390D02*
X140716842Y-99681009D01*
X140716842Y-99681009D02*
X140764461Y-99728628D01*
X140764461Y-99728628D02*
X140812080Y-99823866D01*
X140812080Y-99823866D02*
X140812080Y-100014342D01*
X140812080Y-100014342D02*
X140764461Y-100109580D01*
X140764461Y-100109580D02*
X140716842Y-100157200D01*
X140716842Y-100157200D02*
X140621604Y-100204819D01*
X140621604Y-100204819D02*
X140431128Y-100204819D01*
X140431128Y-100204819D02*
X140335890Y-100157200D01*
X140335890Y-100157200D02*
X140288271Y-100109580D01*
X140288271Y-100109580D02*
X140240652Y-100014342D01*
X140240652Y-100014342D02*
X140240652Y-99823866D01*
X140240652Y-99823866D02*
X140288271Y-99728628D01*
X140288271Y-99728628D02*
X140335890Y-99681009D01*
X140335890Y-99681009D02*
X140431128Y-99633390D01*
X123230446Y-71446819D02*
X123230446Y-70446819D01*
X123230446Y-70446819D02*
X122992351Y-70446819D01*
X122992351Y-70446819D02*
X122849494Y-70494438D01*
X122849494Y-70494438D02*
X122754256Y-70589676D01*
X122754256Y-70589676D02*
X122706637Y-70684914D01*
X122706637Y-70684914D02*
X122659018Y-70875390D01*
X122659018Y-70875390D02*
X122659018Y-71018247D01*
X122659018Y-71018247D02*
X122706637Y-71208723D01*
X122706637Y-71208723D02*
X122754256Y-71303961D01*
X122754256Y-71303961D02*
X122849494Y-71399200D01*
X122849494Y-71399200D02*
X122992351Y-71446819D01*
X122992351Y-71446819D02*
X123230446Y-71446819D01*
X122325684Y-70446819D02*
X121659018Y-70446819D01*
X121659018Y-70446819D02*
X122087589Y-71446819D01*
X123730446Y-51996819D02*
X123730446Y-50996819D01*
X123730446Y-50996819D02*
X123492351Y-50996819D01*
X123492351Y-50996819D02*
X123349494Y-51044438D01*
X123349494Y-51044438D02*
X123254256Y-51139676D01*
X123254256Y-51139676D02*
X123206637Y-51234914D01*
X123206637Y-51234914D02*
X123159018Y-51425390D01*
X123159018Y-51425390D02*
X123159018Y-51568247D01*
X123159018Y-51568247D02*
X123206637Y-51758723D01*
X123206637Y-51758723D02*
X123254256Y-51853961D01*
X123254256Y-51853961D02*
X123349494Y-51949200D01*
X123349494Y-51949200D02*
X123492351Y-51996819D01*
X123492351Y-51996819D02*
X123730446Y-51996819D01*
X122301875Y-50996819D02*
X122492351Y-50996819D01*
X122492351Y-50996819D02*
X122587589Y-51044438D01*
X122587589Y-51044438D02*
X122635208Y-51092057D01*
X122635208Y-51092057D02*
X122730446Y-51234914D01*
X122730446Y-51234914D02*
X122778065Y-51425390D01*
X122778065Y-51425390D02*
X122778065Y-51806342D01*
X122778065Y-51806342D02*
X122730446Y-51901580D01*
X122730446Y-51901580D02*
X122682827Y-51949200D01*
X122682827Y-51949200D02*
X122587589Y-51996819D01*
X122587589Y-51996819D02*
X122397113Y-51996819D01*
X122397113Y-51996819D02*
X122301875Y-51949200D01*
X122301875Y-51949200D02*
X122254256Y-51901580D01*
X122254256Y-51901580D02*
X122206637Y-51806342D01*
X122206637Y-51806342D02*
X122206637Y-51568247D01*
X122206637Y-51568247D02*
X122254256Y-51473009D01*
X122254256Y-51473009D02*
X122301875Y-51425390D01*
X122301875Y-51425390D02*
X122397113Y-51377771D01*
X122397113Y-51377771D02*
X122587589Y-51377771D01*
X122587589Y-51377771D02*
X122682827Y-51425390D01*
X122682827Y-51425390D02*
X122730446Y-51473009D01*
X122730446Y-51473009D02*
X122778065Y-51568247D01*
X105383508Y-90557200D02*
X105240651Y-90604819D01*
X105240651Y-90604819D02*
X105002556Y-90604819D01*
X105002556Y-90604819D02*
X104907318Y-90557200D01*
X104907318Y-90557200D02*
X104859699Y-90509580D01*
X104859699Y-90509580D02*
X104812080Y-90414342D01*
X104812080Y-90414342D02*
X104812080Y-90319104D01*
X104812080Y-90319104D02*
X104859699Y-90223866D01*
X104859699Y-90223866D02*
X104907318Y-90176247D01*
X104907318Y-90176247D02*
X105002556Y-90128628D01*
X105002556Y-90128628D02*
X105193032Y-90081009D01*
X105193032Y-90081009D02*
X105288270Y-90033390D01*
X105288270Y-90033390D02*
X105335889Y-89985771D01*
X105335889Y-89985771D02*
X105383508Y-89890533D01*
X105383508Y-89890533D02*
X105383508Y-89795295D01*
X105383508Y-89795295D02*
X105335889Y-89700057D01*
X105335889Y-89700057D02*
X105288270Y-89652438D01*
X105288270Y-89652438D02*
X105193032Y-89604819D01*
X105193032Y-89604819D02*
X104954937Y-89604819D01*
X104954937Y-89604819D02*
X104812080Y-89652438D01*
X104478746Y-89604819D02*
X104240651Y-90604819D01*
X104240651Y-90604819D02*
X104050175Y-89890533D01*
X104050175Y-89890533D02*
X103859699Y-90604819D01*
X103859699Y-90604819D02*
X103621604Y-89604819D01*
X103335889Y-89604819D02*
X102716842Y-89604819D01*
X102716842Y-89604819D02*
X103050175Y-89985771D01*
X103050175Y-89985771D02*
X102907318Y-89985771D01*
X102907318Y-89985771D02*
X102812080Y-90033390D01*
X102812080Y-90033390D02*
X102764461Y-90081009D01*
X102764461Y-90081009D02*
X102716842Y-90176247D01*
X102716842Y-90176247D02*
X102716842Y-90414342D01*
X102716842Y-90414342D02*
X102764461Y-90509580D01*
X102764461Y-90509580D02*
X102812080Y-90557200D01*
X102812080Y-90557200D02*
X102907318Y-90604819D01*
X102907318Y-90604819D02*
X103193032Y-90604819D01*
X103193032Y-90604819D02*
X103288270Y-90557200D01*
X103288270Y-90557200D02*
X103335889Y-90509580D01*
X86809523Y-109607200D02*
X86666666Y-109654819D01*
X86666666Y-109654819D02*
X86428571Y-109654819D01*
X86428571Y-109654819D02*
X86333333Y-109607200D01*
X86333333Y-109607200D02*
X86285714Y-109559580D01*
X86285714Y-109559580D02*
X86238095Y-109464342D01*
X86238095Y-109464342D02*
X86238095Y-109369104D01*
X86238095Y-109369104D02*
X86285714Y-109273866D01*
X86285714Y-109273866D02*
X86333333Y-109226247D01*
X86333333Y-109226247D02*
X86428571Y-109178628D01*
X86428571Y-109178628D02*
X86619047Y-109131009D01*
X86619047Y-109131009D02*
X86714285Y-109083390D01*
X86714285Y-109083390D02*
X86761904Y-109035771D01*
X86761904Y-109035771D02*
X86809523Y-108940533D01*
X86809523Y-108940533D02*
X86809523Y-108845295D01*
X86809523Y-108845295D02*
X86761904Y-108750057D01*
X86761904Y-108750057D02*
X86714285Y-108702438D01*
X86714285Y-108702438D02*
X86619047Y-108654819D01*
X86619047Y-108654819D02*
X86380952Y-108654819D01*
X86380952Y-108654819D02*
X86238095Y-108702438D01*
X85904761Y-108654819D02*
X85666666Y-109654819D01*
X85666666Y-109654819D02*
X85476190Y-108940533D01*
X85476190Y-108940533D02*
X85285714Y-109654819D01*
X85285714Y-109654819D02*
X85047619Y-108654819D01*
X84142857Y-109654819D02*
X84714285Y-109654819D01*
X84428571Y-109654819D02*
X84428571Y-108654819D01*
X84428571Y-108654819D02*
X84523809Y-108797676D01*
X84523809Y-108797676D02*
X84619047Y-108892914D01*
X84619047Y-108892914D02*
X84714285Y-108940533D01*
X83523809Y-108654819D02*
X83428571Y-108654819D01*
X83428571Y-108654819D02*
X83333333Y-108702438D01*
X83333333Y-108702438D02*
X83285714Y-108750057D01*
X83285714Y-108750057D02*
X83238095Y-108845295D01*
X83238095Y-108845295D02*
X83190476Y-109035771D01*
X83190476Y-109035771D02*
X83190476Y-109273866D01*
X83190476Y-109273866D02*
X83238095Y-109464342D01*
X83238095Y-109464342D02*
X83285714Y-109559580D01*
X83285714Y-109559580D02*
X83333333Y-109607200D01*
X83333333Y-109607200D02*
X83428571Y-109654819D01*
X83428571Y-109654819D02*
X83523809Y-109654819D01*
X83523809Y-109654819D02*
X83619047Y-109607200D01*
X83619047Y-109607200D02*
X83666666Y-109559580D01*
X83666666Y-109559580D02*
X83714285Y-109464342D01*
X83714285Y-109464342D02*
X83761904Y-109273866D01*
X83761904Y-109273866D02*
X83761904Y-109035771D01*
X83761904Y-109035771D02*
X83714285Y-108845295D01*
X83714285Y-108845295D02*
X83666666Y-108750057D01*
X83666666Y-108750057D02*
X83619047Y-108702438D01*
X83619047Y-108702438D02*
X83523809Y-108654819D01*
X151219285Y-130654819D02*
X151219285Y-129654819D01*
X151219285Y-129654819D02*
X150981190Y-129654819D01*
X150981190Y-129654819D02*
X150838333Y-129702438D01*
X150838333Y-129702438D02*
X150743095Y-129797676D01*
X150743095Y-129797676D02*
X150695476Y-129892914D01*
X150695476Y-129892914D02*
X150647857Y-130083390D01*
X150647857Y-130083390D02*
X150647857Y-130226247D01*
X150647857Y-130226247D02*
X150695476Y-130416723D01*
X150695476Y-130416723D02*
X150743095Y-130511961D01*
X150743095Y-130511961D02*
X150838333Y-130607200D01*
X150838333Y-130607200D02*
X150981190Y-130654819D01*
X150981190Y-130654819D02*
X151219285Y-130654819D01*
X150314523Y-129654819D02*
X149695476Y-129654819D01*
X149695476Y-129654819D02*
X150028809Y-130035771D01*
X150028809Y-130035771D02*
X149885952Y-130035771D01*
X149885952Y-130035771D02*
X149790714Y-130083390D01*
X149790714Y-130083390D02*
X149743095Y-130131009D01*
X149743095Y-130131009D02*
X149695476Y-130226247D01*
X149695476Y-130226247D02*
X149695476Y-130464342D01*
X149695476Y-130464342D02*
X149743095Y-130559580D01*
X149743095Y-130559580D02*
X149790714Y-130607200D01*
X149790714Y-130607200D02*
X149885952Y-130654819D01*
X149885952Y-130654819D02*
X150171666Y-130654819D01*
X150171666Y-130654819D02*
X150266904Y-130607200D01*
X150266904Y-130607200D02*
X150314523Y-130559580D01*
X149362142Y-129654819D02*
X148695476Y-129654819D01*
X148695476Y-129654819D02*
X149124047Y-130654819D01*
X124859347Y-104207200D02*
X124716490Y-104254819D01*
X124716490Y-104254819D02*
X124478395Y-104254819D01*
X124478395Y-104254819D02*
X124383157Y-104207200D01*
X124383157Y-104207200D02*
X124335538Y-104159580D01*
X124335538Y-104159580D02*
X124287919Y-104064342D01*
X124287919Y-104064342D02*
X124287919Y-103969104D01*
X124287919Y-103969104D02*
X124335538Y-103873866D01*
X124335538Y-103873866D02*
X124383157Y-103826247D01*
X124383157Y-103826247D02*
X124478395Y-103778628D01*
X124478395Y-103778628D02*
X124668871Y-103731009D01*
X124668871Y-103731009D02*
X124764109Y-103683390D01*
X124764109Y-103683390D02*
X124811728Y-103635771D01*
X124811728Y-103635771D02*
X124859347Y-103540533D01*
X124859347Y-103540533D02*
X124859347Y-103445295D01*
X124859347Y-103445295D02*
X124811728Y-103350057D01*
X124811728Y-103350057D02*
X124764109Y-103302438D01*
X124764109Y-103302438D02*
X124668871Y-103254819D01*
X124668871Y-103254819D02*
X124430776Y-103254819D01*
X124430776Y-103254819D02*
X124287919Y-103302438D01*
X123954585Y-103254819D02*
X123716490Y-104254819D01*
X123716490Y-104254819D02*
X123526014Y-103540533D01*
X123526014Y-103540533D02*
X123335538Y-104254819D01*
X123335538Y-104254819D02*
X123097443Y-103254819D01*
X122192681Y-104254819D02*
X122764109Y-104254819D01*
X122478395Y-104254819D02*
X122478395Y-103254819D01*
X122478395Y-103254819D02*
X122573633Y-103397676D01*
X122573633Y-103397676D02*
X122668871Y-103492914D01*
X122668871Y-103492914D02*
X122764109Y-103540533D01*
X121335538Y-103588152D02*
X121335538Y-104254819D01*
X121573633Y-103207200D02*
X121811728Y-103921485D01*
X121811728Y-103921485D02*
X121192681Y-103921485D01*
X105383332Y-52457200D02*
X105240475Y-52504819D01*
X105240475Y-52504819D02*
X105002380Y-52504819D01*
X105002380Y-52504819D02*
X104907142Y-52457200D01*
X104907142Y-52457200D02*
X104859523Y-52409580D01*
X104859523Y-52409580D02*
X104811904Y-52314342D01*
X104811904Y-52314342D02*
X104811904Y-52219104D01*
X104811904Y-52219104D02*
X104859523Y-52123866D01*
X104859523Y-52123866D02*
X104907142Y-52076247D01*
X104907142Y-52076247D02*
X105002380Y-52028628D01*
X105002380Y-52028628D02*
X105192856Y-51981009D01*
X105192856Y-51981009D02*
X105288094Y-51933390D01*
X105288094Y-51933390D02*
X105335713Y-51885771D01*
X105335713Y-51885771D02*
X105383332Y-51790533D01*
X105383332Y-51790533D02*
X105383332Y-51695295D01*
X105383332Y-51695295D02*
X105335713Y-51600057D01*
X105335713Y-51600057D02*
X105288094Y-51552438D01*
X105288094Y-51552438D02*
X105192856Y-51504819D01*
X105192856Y-51504819D02*
X104954761Y-51504819D01*
X104954761Y-51504819D02*
X104811904Y-51552438D01*
X104478570Y-51504819D02*
X104240475Y-52504819D01*
X104240475Y-52504819D02*
X104049999Y-51790533D01*
X104049999Y-51790533D02*
X103859523Y-52504819D01*
X103859523Y-52504819D02*
X103621428Y-51504819D01*
X102811904Y-51838152D02*
X102811904Y-52504819D01*
X103049999Y-51457200D02*
X103288094Y-52171485D01*
X103288094Y-52171485D02*
X102669047Y-52171485D01*
X181859699Y-49357200D02*
X181716842Y-49404819D01*
X181716842Y-49404819D02*
X181478747Y-49404819D01*
X181478747Y-49404819D02*
X181383509Y-49357200D01*
X181383509Y-49357200D02*
X181335890Y-49309580D01*
X181335890Y-49309580D02*
X181288271Y-49214342D01*
X181288271Y-49214342D02*
X181288271Y-49119104D01*
X181288271Y-49119104D02*
X181335890Y-49023866D01*
X181335890Y-49023866D02*
X181383509Y-48976247D01*
X181383509Y-48976247D02*
X181478747Y-48928628D01*
X181478747Y-48928628D02*
X181669223Y-48881009D01*
X181669223Y-48881009D02*
X181764461Y-48833390D01*
X181764461Y-48833390D02*
X181812080Y-48785771D01*
X181812080Y-48785771D02*
X181859699Y-48690533D01*
X181859699Y-48690533D02*
X181859699Y-48595295D01*
X181859699Y-48595295D02*
X181812080Y-48500057D01*
X181812080Y-48500057D02*
X181764461Y-48452438D01*
X181764461Y-48452438D02*
X181669223Y-48404819D01*
X181669223Y-48404819D02*
X181431128Y-48404819D01*
X181431128Y-48404819D02*
X181288271Y-48452438D01*
X180954937Y-48404819D02*
X180716842Y-49404819D01*
X180716842Y-49404819D02*
X180526366Y-48690533D01*
X180526366Y-48690533D02*
X180335890Y-49404819D01*
X180335890Y-49404819D02*
X180097795Y-48404819D01*
X179764461Y-48500057D02*
X179716842Y-48452438D01*
X179716842Y-48452438D02*
X179621604Y-48404819D01*
X179621604Y-48404819D02*
X179383509Y-48404819D01*
X179383509Y-48404819D02*
X179288271Y-48452438D01*
X179288271Y-48452438D02*
X179240652Y-48500057D01*
X179240652Y-48500057D02*
X179193033Y-48595295D01*
X179193033Y-48595295D02*
X179193033Y-48690533D01*
X179193033Y-48690533D02*
X179240652Y-48833390D01*
X179240652Y-48833390D02*
X179812080Y-49404819D01*
X179812080Y-49404819D02*
X179193033Y-49404819D01*
X178859699Y-48404819D02*
X178240652Y-48404819D01*
X178240652Y-48404819D02*
X178573985Y-48785771D01*
X178573985Y-48785771D02*
X178431128Y-48785771D01*
X178431128Y-48785771D02*
X178335890Y-48833390D01*
X178335890Y-48833390D02*
X178288271Y-48881009D01*
X178288271Y-48881009D02*
X178240652Y-48976247D01*
X178240652Y-48976247D02*
X178240652Y-49214342D01*
X178240652Y-49214342D02*
X178288271Y-49309580D01*
X178288271Y-49309580D02*
X178335890Y-49357200D01*
X178335890Y-49357200D02*
X178431128Y-49404819D01*
X178431128Y-49404819D02*
X178716842Y-49404819D01*
X178716842Y-49404819D02*
X178812080Y-49357200D01*
X178812080Y-49357200D02*
X178859699Y-49309580D01*
X123555446Y-109196819D02*
X123555446Y-108196819D01*
X123555446Y-108196819D02*
X123317351Y-108196819D01*
X123317351Y-108196819D02*
X123174494Y-108244438D01*
X123174494Y-108244438D02*
X123079256Y-108339676D01*
X123079256Y-108339676D02*
X123031637Y-108434914D01*
X123031637Y-108434914D02*
X122984018Y-108625390D01*
X122984018Y-108625390D02*
X122984018Y-108768247D01*
X122984018Y-108768247D02*
X123031637Y-108958723D01*
X123031637Y-108958723D02*
X123079256Y-109053961D01*
X123079256Y-109053961D02*
X123174494Y-109149200D01*
X123174494Y-109149200D02*
X123317351Y-109196819D01*
X123317351Y-109196819D02*
X123555446Y-109196819D01*
X122507827Y-109196819D02*
X122317351Y-109196819D01*
X122317351Y-109196819D02*
X122222113Y-109149200D01*
X122222113Y-109149200D02*
X122174494Y-109101580D01*
X122174494Y-109101580D02*
X122079256Y-108958723D01*
X122079256Y-108958723D02*
X122031637Y-108768247D01*
X122031637Y-108768247D02*
X122031637Y-108387295D01*
X122031637Y-108387295D02*
X122079256Y-108292057D01*
X122079256Y-108292057D02*
X122126875Y-108244438D01*
X122126875Y-108244438D02*
X122222113Y-108196819D01*
X122222113Y-108196819D02*
X122412589Y-108196819D01*
X122412589Y-108196819D02*
X122507827Y-108244438D01*
X122507827Y-108244438D02*
X122555446Y-108292057D01*
X122555446Y-108292057D02*
X122603065Y-108387295D01*
X122603065Y-108387295D02*
X122603065Y-108625390D01*
X122603065Y-108625390D02*
X122555446Y-108720628D01*
X122555446Y-108720628D02*
X122507827Y-108768247D01*
X122507827Y-108768247D02*
X122412589Y-108815866D01*
X122412589Y-108815866D02*
X122222113Y-108815866D01*
X122222113Y-108815866D02*
X122126875Y-108768247D01*
X122126875Y-108768247D02*
X122079256Y-108720628D01*
X122079256Y-108720628D02*
X122031637Y-108625390D01*
X162056637Y-52096819D02*
X162056637Y-51096819D01*
X162056637Y-51096819D02*
X161818542Y-51096819D01*
X161818542Y-51096819D02*
X161675685Y-51144438D01*
X161675685Y-51144438D02*
X161580447Y-51239676D01*
X161580447Y-51239676D02*
X161532828Y-51334914D01*
X161532828Y-51334914D02*
X161485209Y-51525390D01*
X161485209Y-51525390D02*
X161485209Y-51668247D01*
X161485209Y-51668247D02*
X161532828Y-51858723D01*
X161532828Y-51858723D02*
X161580447Y-51953961D01*
X161580447Y-51953961D02*
X161675685Y-52049200D01*
X161675685Y-52049200D02*
X161818542Y-52096819D01*
X161818542Y-52096819D02*
X162056637Y-52096819D01*
X160532828Y-52096819D02*
X161104256Y-52096819D01*
X160818542Y-52096819D02*
X160818542Y-51096819D01*
X160818542Y-51096819D02*
X160913780Y-51239676D01*
X160913780Y-51239676D02*
X161009018Y-51334914D01*
X161009018Y-51334914D02*
X161104256Y-51382533D01*
X159961399Y-51525390D02*
X160056637Y-51477771D01*
X160056637Y-51477771D02*
X160104256Y-51430152D01*
X160104256Y-51430152D02*
X160151875Y-51334914D01*
X160151875Y-51334914D02*
X160151875Y-51287295D01*
X160151875Y-51287295D02*
X160104256Y-51192057D01*
X160104256Y-51192057D02*
X160056637Y-51144438D01*
X160056637Y-51144438D02*
X159961399Y-51096819D01*
X159961399Y-51096819D02*
X159770923Y-51096819D01*
X159770923Y-51096819D02*
X159675685Y-51144438D01*
X159675685Y-51144438D02*
X159628066Y-51192057D01*
X159628066Y-51192057D02*
X159580447Y-51287295D01*
X159580447Y-51287295D02*
X159580447Y-51334914D01*
X159580447Y-51334914D02*
X159628066Y-51430152D01*
X159628066Y-51430152D02*
X159675685Y-51477771D01*
X159675685Y-51477771D02*
X159770923Y-51525390D01*
X159770923Y-51525390D02*
X159961399Y-51525390D01*
X159961399Y-51525390D02*
X160056637Y-51573009D01*
X160056637Y-51573009D02*
X160104256Y-51620628D01*
X160104256Y-51620628D02*
X160151875Y-51715866D01*
X160151875Y-51715866D02*
X160151875Y-51906342D01*
X160151875Y-51906342D02*
X160104256Y-52001580D01*
X160104256Y-52001580D02*
X160056637Y-52049200D01*
X160056637Y-52049200D02*
X159961399Y-52096819D01*
X159961399Y-52096819D02*
X159770923Y-52096819D01*
X159770923Y-52096819D02*
X159675685Y-52049200D01*
X159675685Y-52049200D02*
X159628066Y-52001580D01*
X159628066Y-52001580D02*
X159580447Y-51906342D01*
X159580447Y-51906342D02*
X159580447Y-51715866D01*
X159580447Y-51715866D02*
X159628066Y-51620628D01*
X159628066Y-51620628D02*
X159675685Y-51573009D01*
X159675685Y-51573009D02*
X159770923Y-51525390D01*
X105383332Y-71507200D02*
X105240475Y-71554819D01*
X105240475Y-71554819D02*
X105002380Y-71554819D01*
X105002380Y-71554819D02*
X104907142Y-71507200D01*
X104907142Y-71507200D02*
X104859523Y-71459580D01*
X104859523Y-71459580D02*
X104811904Y-71364342D01*
X104811904Y-71364342D02*
X104811904Y-71269104D01*
X104811904Y-71269104D02*
X104859523Y-71173866D01*
X104859523Y-71173866D02*
X104907142Y-71126247D01*
X104907142Y-71126247D02*
X105002380Y-71078628D01*
X105002380Y-71078628D02*
X105192856Y-71031009D01*
X105192856Y-71031009D02*
X105288094Y-70983390D01*
X105288094Y-70983390D02*
X105335713Y-70935771D01*
X105335713Y-70935771D02*
X105383332Y-70840533D01*
X105383332Y-70840533D02*
X105383332Y-70745295D01*
X105383332Y-70745295D02*
X105335713Y-70650057D01*
X105335713Y-70650057D02*
X105288094Y-70602438D01*
X105288094Y-70602438D02*
X105192856Y-70554819D01*
X105192856Y-70554819D02*
X104954761Y-70554819D01*
X104954761Y-70554819D02*
X104811904Y-70602438D01*
X104478570Y-70554819D02*
X104240475Y-71554819D01*
X104240475Y-71554819D02*
X104049999Y-70840533D01*
X104049999Y-70840533D02*
X103859523Y-71554819D01*
X103859523Y-71554819D02*
X103621428Y-70554819D01*
X102764285Y-70554819D02*
X103240475Y-70554819D01*
X103240475Y-70554819D02*
X103288094Y-71031009D01*
X103288094Y-71031009D02*
X103240475Y-70983390D01*
X103240475Y-70983390D02*
X103145237Y-70935771D01*
X103145237Y-70935771D02*
X102907142Y-70935771D01*
X102907142Y-70935771D02*
X102811904Y-70983390D01*
X102811904Y-70983390D02*
X102764285Y-71031009D01*
X102764285Y-71031009D02*
X102716666Y-71126247D01*
X102716666Y-71126247D02*
X102716666Y-71364342D01*
X102716666Y-71364342D02*
X102764285Y-71459580D01*
X102764285Y-71459580D02*
X102811904Y-71507200D01*
X102811904Y-71507200D02*
X102907142Y-71554819D01*
X102907142Y-71554819D02*
X103145237Y-71554819D01*
X103145237Y-71554819D02*
X103240475Y-71507200D01*
X103240475Y-71507200D02*
X103288094Y-71459580D01*
X85731813Y-57483819D02*
X85731813Y-56483819D01*
X85731813Y-56483819D02*
X85493718Y-56483819D01*
X85493718Y-56483819D02*
X85350861Y-56531438D01*
X85350861Y-56531438D02*
X85255623Y-56626676D01*
X85255623Y-56626676D02*
X85208004Y-56721914D01*
X85208004Y-56721914D02*
X85160385Y-56912390D01*
X85160385Y-56912390D02*
X85160385Y-57055247D01*
X85160385Y-57055247D02*
X85208004Y-57245723D01*
X85208004Y-57245723D02*
X85255623Y-57340961D01*
X85255623Y-57340961D02*
X85350861Y-57436200D01*
X85350861Y-57436200D02*
X85493718Y-57483819D01*
X85493718Y-57483819D02*
X85731813Y-57483819D01*
X84208004Y-57483819D02*
X84779432Y-57483819D01*
X84493718Y-57483819D02*
X84493718Y-56483819D01*
X84493718Y-56483819D02*
X84588956Y-56626676D01*
X84588956Y-56626676D02*
X84684194Y-56721914D01*
X84684194Y-56721914D02*
X84779432Y-56769533D01*
X83303242Y-56483819D02*
X83779432Y-56483819D01*
X83779432Y-56483819D02*
X83827051Y-56960009D01*
X83827051Y-56960009D02*
X83779432Y-56912390D01*
X83779432Y-56912390D02*
X83684194Y-56864771D01*
X83684194Y-56864771D02*
X83446099Y-56864771D01*
X83446099Y-56864771D02*
X83350861Y-56912390D01*
X83350861Y-56912390D02*
X83303242Y-56960009D01*
X83303242Y-56960009D02*
X83255623Y-57055247D01*
X83255623Y-57055247D02*
X83255623Y-57293342D01*
X83255623Y-57293342D02*
X83303242Y-57388580D01*
X83303242Y-57388580D02*
X83350861Y-57436200D01*
X83350861Y-57436200D02*
X83446099Y-57483819D01*
X83446099Y-57483819D02*
X83684194Y-57483819D01*
X83684194Y-57483819D02*
X83779432Y-57436200D01*
X83779432Y-57436200D02*
X83827051Y-57388580D01*
X86056813Y-76108819D02*
X86056813Y-75108819D01*
X86056813Y-75108819D02*
X85818718Y-75108819D01*
X85818718Y-75108819D02*
X85675861Y-75156438D01*
X85675861Y-75156438D02*
X85580623Y-75251676D01*
X85580623Y-75251676D02*
X85533004Y-75346914D01*
X85533004Y-75346914D02*
X85485385Y-75537390D01*
X85485385Y-75537390D02*
X85485385Y-75680247D01*
X85485385Y-75680247D02*
X85533004Y-75870723D01*
X85533004Y-75870723D02*
X85580623Y-75965961D01*
X85580623Y-75965961D02*
X85675861Y-76061200D01*
X85675861Y-76061200D02*
X85818718Y-76108819D01*
X85818718Y-76108819D02*
X86056813Y-76108819D01*
X84533004Y-76108819D02*
X85104432Y-76108819D01*
X84818718Y-76108819D02*
X84818718Y-75108819D01*
X84818718Y-75108819D02*
X84913956Y-75251676D01*
X84913956Y-75251676D02*
X85009194Y-75346914D01*
X85009194Y-75346914D02*
X85104432Y-75394533D01*
X83675861Y-75108819D02*
X83866337Y-75108819D01*
X83866337Y-75108819D02*
X83961575Y-75156438D01*
X83961575Y-75156438D02*
X84009194Y-75204057D01*
X84009194Y-75204057D02*
X84104432Y-75346914D01*
X84104432Y-75346914D02*
X84152051Y-75537390D01*
X84152051Y-75537390D02*
X84152051Y-75918342D01*
X84152051Y-75918342D02*
X84104432Y-76013580D01*
X84104432Y-76013580D02*
X84056813Y-76061200D01*
X84056813Y-76061200D02*
X83961575Y-76108819D01*
X83961575Y-76108819D02*
X83771099Y-76108819D01*
X83771099Y-76108819D02*
X83675861Y-76061200D01*
X83675861Y-76061200D02*
X83628242Y-76013580D01*
X83628242Y-76013580D02*
X83580623Y-75918342D01*
X83580623Y-75918342D02*
X83580623Y-75680247D01*
X83580623Y-75680247D02*
X83628242Y-75585009D01*
X83628242Y-75585009D02*
X83675861Y-75537390D01*
X83675861Y-75537390D02*
X83771099Y-75489771D01*
X83771099Y-75489771D02*
X83961575Y-75489771D01*
X83961575Y-75489771D02*
X84056813Y-75537390D01*
X84056813Y-75537390D02*
X84104432Y-75585009D01*
X84104432Y-75585009D02*
X84152051Y-75680247D01*
X181456813Y-54158819D02*
X181456813Y-53158819D01*
X181456813Y-53158819D02*
X181218718Y-53158819D01*
X181218718Y-53158819D02*
X181075861Y-53206438D01*
X181075861Y-53206438D02*
X180980623Y-53301676D01*
X180980623Y-53301676D02*
X180933004Y-53396914D01*
X180933004Y-53396914D02*
X180885385Y-53587390D01*
X180885385Y-53587390D02*
X180885385Y-53730247D01*
X180885385Y-53730247D02*
X180933004Y-53920723D01*
X180933004Y-53920723D02*
X180980623Y-54015961D01*
X180980623Y-54015961D02*
X181075861Y-54111200D01*
X181075861Y-54111200D02*
X181218718Y-54158819D01*
X181218718Y-54158819D02*
X181456813Y-54158819D01*
X180504432Y-53254057D02*
X180456813Y-53206438D01*
X180456813Y-53206438D02*
X180361575Y-53158819D01*
X180361575Y-53158819D02*
X180123480Y-53158819D01*
X180123480Y-53158819D02*
X180028242Y-53206438D01*
X180028242Y-53206438D02*
X179980623Y-53254057D01*
X179980623Y-53254057D02*
X179933004Y-53349295D01*
X179933004Y-53349295D02*
X179933004Y-53444533D01*
X179933004Y-53444533D02*
X179980623Y-53587390D01*
X179980623Y-53587390D02*
X180552051Y-54158819D01*
X180552051Y-54158819D02*
X179933004Y-54158819D01*
X179552051Y-53254057D02*
X179504432Y-53206438D01*
X179504432Y-53206438D02*
X179409194Y-53158819D01*
X179409194Y-53158819D02*
X179171099Y-53158819D01*
X179171099Y-53158819D02*
X179075861Y-53206438D01*
X179075861Y-53206438D02*
X179028242Y-53254057D01*
X179028242Y-53254057D02*
X178980623Y-53349295D01*
X178980623Y-53349295D02*
X178980623Y-53444533D01*
X178980623Y-53444533D02*
X179028242Y-53587390D01*
X179028242Y-53587390D02*
X179599670Y-54158819D01*
X179599670Y-54158819D02*
X178980623Y-54158819D01*
X191514285Y-143154819D02*
X191514285Y-142154819D01*
X191514285Y-142154819D02*
X191276190Y-142154819D01*
X191276190Y-142154819D02*
X191133333Y-142202438D01*
X191133333Y-142202438D02*
X191038095Y-142297676D01*
X191038095Y-142297676D02*
X190990476Y-142392914D01*
X190990476Y-142392914D02*
X190942857Y-142583390D01*
X190942857Y-142583390D02*
X190942857Y-142726247D01*
X190942857Y-142726247D02*
X190990476Y-142916723D01*
X190990476Y-142916723D02*
X191038095Y-143011961D01*
X191038095Y-143011961D02*
X191133333Y-143107200D01*
X191133333Y-143107200D02*
X191276190Y-143154819D01*
X191276190Y-143154819D02*
X191514285Y-143154819D01*
X190609523Y-142154819D02*
X189990476Y-142154819D01*
X189990476Y-142154819D02*
X190323809Y-142535771D01*
X190323809Y-142535771D02*
X190180952Y-142535771D01*
X190180952Y-142535771D02*
X190085714Y-142583390D01*
X190085714Y-142583390D02*
X190038095Y-142631009D01*
X190038095Y-142631009D02*
X189990476Y-142726247D01*
X189990476Y-142726247D02*
X189990476Y-142964342D01*
X189990476Y-142964342D02*
X190038095Y-143059580D01*
X190038095Y-143059580D02*
X190085714Y-143107200D01*
X190085714Y-143107200D02*
X190180952Y-143154819D01*
X190180952Y-143154819D02*
X190466666Y-143154819D01*
X190466666Y-143154819D02*
X190561904Y-143107200D01*
X190561904Y-143107200D02*
X190609523Y-143059580D01*
X189085714Y-142154819D02*
X189561904Y-142154819D01*
X189561904Y-142154819D02*
X189609523Y-142631009D01*
X189609523Y-142631009D02*
X189561904Y-142583390D01*
X189561904Y-142583390D02*
X189466666Y-142535771D01*
X189466666Y-142535771D02*
X189228571Y-142535771D01*
X189228571Y-142535771D02*
X189133333Y-142583390D01*
X189133333Y-142583390D02*
X189085714Y-142631009D01*
X189085714Y-142631009D02*
X189038095Y-142726247D01*
X189038095Y-142726247D02*
X189038095Y-142964342D01*
X189038095Y-142964342D02*
X189085714Y-143059580D01*
X189085714Y-143059580D02*
X189133333Y-143107200D01*
X189133333Y-143107200D02*
X189228571Y-143154819D01*
X189228571Y-143154819D02*
X189466666Y-143154819D01*
X189466666Y-143154819D02*
X189561904Y-143107200D01*
X189561904Y-143107200D02*
X189609523Y-143059580D01*
X143859699Y-43007200D02*
X143716842Y-43054819D01*
X143716842Y-43054819D02*
X143478747Y-43054819D01*
X143478747Y-43054819D02*
X143383509Y-43007200D01*
X143383509Y-43007200D02*
X143335890Y-42959580D01*
X143335890Y-42959580D02*
X143288271Y-42864342D01*
X143288271Y-42864342D02*
X143288271Y-42769104D01*
X143288271Y-42769104D02*
X143335890Y-42673866D01*
X143335890Y-42673866D02*
X143383509Y-42626247D01*
X143383509Y-42626247D02*
X143478747Y-42578628D01*
X143478747Y-42578628D02*
X143669223Y-42531009D01*
X143669223Y-42531009D02*
X143764461Y-42483390D01*
X143764461Y-42483390D02*
X143812080Y-42435771D01*
X143812080Y-42435771D02*
X143859699Y-42340533D01*
X143859699Y-42340533D02*
X143859699Y-42245295D01*
X143859699Y-42245295D02*
X143812080Y-42150057D01*
X143812080Y-42150057D02*
X143764461Y-42102438D01*
X143764461Y-42102438D02*
X143669223Y-42054819D01*
X143669223Y-42054819D02*
X143431128Y-42054819D01*
X143431128Y-42054819D02*
X143288271Y-42102438D01*
X142954937Y-42054819D02*
X142716842Y-43054819D01*
X142716842Y-43054819D02*
X142526366Y-42340533D01*
X142526366Y-42340533D02*
X142335890Y-43054819D01*
X142335890Y-43054819D02*
X142097795Y-42054819D01*
X141193033Y-43054819D02*
X141764461Y-43054819D01*
X141478747Y-43054819D02*
X141478747Y-42054819D01*
X141478747Y-42054819D02*
X141573985Y-42197676D01*
X141573985Y-42197676D02*
X141669223Y-42292914D01*
X141669223Y-42292914D02*
X141764461Y-42340533D01*
X140288271Y-42054819D02*
X140764461Y-42054819D01*
X140764461Y-42054819D02*
X140812080Y-42531009D01*
X140812080Y-42531009D02*
X140764461Y-42483390D01*
X140764461Y-42483390D02*
X140669223Y-42435771D01*
X140669223Y-42435771D02*
X140431128Y-42435771D01*
X140431128Y-42435771D02*
X140335890Y-42483390D01*
X140335890Y-42483390D02*
X140288271Y-42531009D01*
X140288271Y-42531009D02*
X140240652Y-42626247D01*
X140240652Y-42626247D02*
X140240652Y-42864342D01*
X140240652Y-42864342D02*
X140288271Y-42959580D01*
X140288271Y-42959580D02*
X140335890Y-43007200D01*
X140335890Y-43007200D02*
X140431128Y-43054819D01*
X140431128Y-43054819D02*
X140669223Y-43054819D01*
X140669223Y-43054819D02*
X140764461Y-43007200D01*
X140764461Y-43007200D02*
X140812080Y-42959580D01*
X124859523Y-47057200D02*
X124716666Y-47104819D01*
X124716666Y-47104819D02*
X124478571Y-47104819D01*
X124478571Y-47104819D02*
X124383333Y-47057200D01*
X124383333Y-47057200D02*
X124335714Y-47009580D01*
X124335714Y-47009580D02*
X124288095Y-46914342D01*
X124288095Y-46914342D02*
X124288095Y-46819104D01*
X124288095Y-46819104D02*
X124335714Y-46723866D01*
X124335714Y-46723866D02*
X124383333Y-46676247D01*
X124383333Y-46676247D02*
X124478571Y-46628628D01*
X124478571Y-46628628D02*
X124669047Y-46581009D01*
X124669047Y-46581009D02*
X124764285Y-46533390D01*
X124764285Y-46533390D02*
X124811904Y-46485771D01*
X124811904Y-46485771D02*
X124859523Y-46390533D01*
X124859523Y-46390533D02*
X124859523Y-46295295D01*
X124859523Y-46295295D02*
X124811904Y-46200057D01*
X124811904Y-46200057D02*
X124764285Y-46152438D01*
X124764285Y-46152438D02*
X124669047Y-46104819D01*
X124669047Y-46104819D02*
X124430952Y-46104819D01*
X124430952Y-46104819D02*
X124288095Y-46152438D01*
X123954761Y-46104819D02*
X123716666Y-47104819D01*
X123716666Y-47104819D02*
X123526190Y-46390533D01*
X123526190Y-46390533D02*
X123335714Y-47104819D01*
X123335714Y-47104819D02*
X123097619Y-46104819D01*
X122192857Y-47104819D02*
X122764285Y-47104819D01*
X122478571Y-47104819D02*
X122478571Y-46104819D01*
X122478571Y-46104819D02*
X122573809Y-46247676D01*
X122573809Y-46247676D02*
X122669047Y-46342914D01*
X122669047Y-46342914D02*
X122764285Y-46390533D01*
X121240476Y-47104819D02*
X121811904Y-47104819D01*
X121526190Y-47104819D02*
X121526190Y-46104819D01*
X121526190Y-46104819D02*
X121621428Y-46247676D01*
X121621428Y-46247676D02*
X121716666Y-46342914D01*
X121716666Y-46342914D02*
X121811904Y-46390533D01*
D11*
%TO.C,J1*%
X189590750Y-51106250D02*
X189590750Y-52356250D01*
X189880750Y-46096250D02*
X189880750Y-52066250D01*
X197500750Y-46096250D02*
X189880750Y-46096250D01*
X189890750Y-51306250D02*
X189890750Y-52056250D01*
X191690750Y-51306250D02*
X189890750Y-51306250D01*
X190640750Y-49806250D02*
X189890750Y-49806250D01*
X190640750Y-48466250D02*
X190640750Y-49806250D01*
X189590750Y-52356250D02*
X190840750Y-52356250D01*
X189890750Y-52056250D02*
X191690750Y-52056250D01*
X191690750Y-52056250D02*
X191690750Y-51306250D01*
X193190750Y-51306250D02*
X193190750Y-52056250D01*
X194190750Y-51306250D02*
X193190750Y-51306250D01*
X191700750Y-46856250D02*
X193690750Y-46856250D01*
X193190750Y-52056250D02*
X194190750Y-52056250D01*
X194190750Y-52056250D02*
X194190750Y-51306250D01*
X195690750Y-51306250D02*
X195690750Y-52056250D01*
X197490750Y-51306250D02*
X195690750Y-51306250D01*
X196740750Y-46856250D02*
X196740750Y-49806250D01*
X193690750Y-46856250D02*
X196740750Y-46856250D01*
X195690750Y-52056250D02*
X197490750Y-52056250D01*
X197490750Y-52056250D02*
X197490750Y-51306250D01*
X196740750Y-49806250D02*
X197490750Y-49806250D01*
X189880750Y-52066250D02*
X197500750Y-52066250D01*
X197500750Y-52066250D02*
X197500750Y-46096250D01*
%TO.C,D34*%
X197940000Y-123600000D02*
X197940000Y-124800000D01*
X197940000Y-123600000D02*
X199900000Y-123600000D01*
X197940000Y-124800000D02*
X199900000Y-124800000D01*
D10*
%TO.C,SW24*%
X169715000Y-64999780D02*
X169715000Y-65799780D01*
X169715000Y-68889780D02*
X169715000Y-68649780D01*
X175600176Y-67049780D02*
X180165000Y-67049780D01*
X177615000Y-62999780D02*
X171715000Y-62999780D01*
X180665000Y-62999780D02*
X179115000Y-62999780D01*
X180665000Y-63229780D02*
X180665000Y-62999780D01*
X180665000Y-66549780D02*
X180665000Y-66079780D01*
X169715000Y-64999780D02*
G75*
G02*
X171715000Y-62999780I2000005J-5D01*
G01*
X173305854Y-68889780D02*
G75*
G02*
X175600176Y-67049780I2293456J-509332D01*
G01*
X180665000Y-66549780D02*
G75*
G02*
X180165000Y-67049780I-500001J1D01*
G01*
D11*
%TO.C,D10*%
X143002528Y-48856000D02*
X141042528Y-48856000D01*
X143002528Y-50056000D02*
X141042528Y-50056000D01*
X143002528Y-50056000D02*
X143002528Y-48856000D01*
D10*
%TO.C,SW12*%
X112714824Y-62699780D02*
X112714824Y-63499780D01*
X112714824Y-66589780D02*
X112714824Y-66349780D01*
X118600000Y-64749780D02*
X123164824Y-64749780D01*
X120614824Y-60699780D02*
X114714824Y-60699780D01*
X123664824Y-60699780D02*
X122114824Y-60699780D01*
X123664824Y-60929780D02*
X123664824Y-60699780D01*
X123664824Y-64249780D02*
X123664824Y-63779780D01*
X112714824Y-62699780D02*
G75*
G02*
X114714824Y-60699780I2000005J-5D01*
G01*
X116305678Y-66589780D02*
G75*
G02*
X118600000Y-64749780I2293456J-509332D01*
G01*
X123664824Y-64249780D02*
G75*
G02*
X123164824Y-64749780I-500001J1D01*
G01*
%TO.C,SW35*%
X193160193Y-114672440D02*
X193280193Y-114464594D01*
X195105193Y-111303601D02*
X194705193Y-111996421D01*
X199176905Y-116021541D02*
X203130158Y-118303953D01*
X202946794Y-113521550D02*
X197837244Y-110571550D01*
X203813171Y-118120940D02*
X204048171Y-117713908D01*
X205473171Y-115245736D02*
X205588171Y-115046550D01*
X205588171Y-115046550D02*
X204245832Y-114271550D01*
X195105193Y-111303601D02*
G75*
G02*
X197837244Y-110571550I1732049J-999993D01*
G01*
X196269964Y-116467867D02*
G75*
G02*
X199176905Y-116021542I1731526J-1587828D01*
G01*
X203813171Y-118120940D02*
G75*
G02*
X203130158Y-118303953I-433013J250001D01*
G01*
%TO.C,SW8*%
X93714824Y-106199780D02*
X93714824Y-106999780D01*
X93714824Y-110089780D02*
X93714824Y-109849780D01*
X99600000Y-108249780D02*
X104164824Y-108249780D01*
X101614824Y-104199780D02*
X95714824Y-104199780D01*
X104664824Y-104199780D02*
X103114824Y-104199780D01*
X104664824Y-104429780D02*
X104664824Y-104199780D01*
X104664824Y-107749780D02*
X104664824Y-107279780D01*
X93714824Y-106199780D02*
G75*
G02*
X95714824Y-104199780I2000005J-5D01*
G01*
X97305678Y-110089780D02*
G75*
G02*
X99600000Y-108249780I2293456J-509332D01*
G01*
X104664824Y-107749780D02*
G75*
G02*
X104164824Y-108249780I-500001J1D01*
G01*
%TO.C,SW13*%
X112714824Y-81749780D02*
X112714824Y-82549780D01*
X112714824Y-85639780D02*
X112714824Y-85399780D01*
X118600000Y-83799780D02*
X123164824Y-83799780D01*
X120614824Y-79749780D02*
X114714824Y-79749780D01*
X123664824Y-79749780D02*
X122114824Y-79749780D01*
X123664824Y-79979780D02*
X123664824Y-79749780D01*
X123664824Y-83299780D02*
X123664824Y-82829780D01*
X112714824Y-81749780D02*
G75*
G02*
X114714824Y-79749780I2000005J-5D01*
G01*
X116305678Y-85639780D02*
G75*
G02*
X118600000Y-83799780I2293456J-509332D01*
G01*
X123664824Y-83299780D02*
G75*
G02*
X123164824Y-83799780I-500001J1D01*
G01*
%TO.C,SW16*%
X131714824Y-58649780D02*
X131714824Y-59449780D01*
X131714824Y-62539780D02*
X131714824Y-62299780D01*
X137600000Y-60699780D02*
X142164824Y-60699780D01*
X139614824Y-56649780D02*
X133714824Y-56649780D01*
X142664824Y-56649780D02*
X141114824Y-56649780D01*
X142664824Y-56879780D02*
X142664824Y-56649780D01*
X142664824Y-60199780D02*
X142664824Y-59729780D01*
X131714824Y-58649780D02*
G75*
G02*
X133714824Y-56649780I2000005J-5D01*
G01*
X135305678Y-62539780D02*
G75*
G02*
X137600000Y-60699780I2293456J-509332D01*
G01*
X142664824Y-60199780D02*
G75*
G02*
X142164824Y-60699780I-500001J1D01*
G01*
%TO.C,SW25*%
X169714824Y-84049780D02*
X169714824Y-84849780D01*
X169714824Y-87939780D02*
X169714824Y-87699780D01*
X175600000Y-86099780D02*
X180164824Y-86099780D01*
X177614824Y-82049780D02*
X171714824Y-82049780D01*
X180664824Y-82049780D02*
X179114824Y-82049780D01*
X180664824Y-82279780D02*
X180664824Y-82049780D01*
X180664824Y-85599780D02*
X180664824Y-85129780D01*
X169714824Y-84049780D02*
G75*
G02*
X171714824Y-82049780I2000005J-5D01*
G01*
X173305678Y-87939780D02*
G75*
G02*
X175600000Y-86099780I2293456J-509332D01*
G01*
X180664824Y-85599780D02*
G75*
G02*
X180164824Y-86099780I-500001J1D01*
G01*
D11*
%TO.C,D19*%
X161927352Y-71467000D02*
X159967352Y-71467000D01*
X161927352Y-72667000D02*
X159967352Y-72667000D01*
X161927352Y-72667000D02*
X161927352Y-71467000D01*
%TO.C,D24*%
X181352528Y-92954000D02*
X179392528Y-92954000D01*
X181352528Y-94154000D02*
X179392528Y-94154000D01*
X181352528Y-94154000D02*
X181352528Y-92954000D01*
%TO.C,D23*%
X181177528Y-73854000D02*
X179217528Y-73854000D01*
X181177528Y-75054000D02*
X179217528Y-75054000D01*
X181177528Y-75054000D02*
X181177528Y-73854000D01*
%TO.C,D11*%
X143177528Y-67481000D02*
X141217528Y-67481000D01*
X143177528Y-68681000D02*
X141217528Y-68681000D01*
X143177528Y-68681000D02*
X143177528Y-67481000D01*
D10*
%TO.C,SW26*%
X169715000Y-103099780D02*
X169715000Y-103899780D01*
X169715000Y-106989780D02*
X169715000Y-106749780D01*
X175600176Y-105149780D02*
X180165000Y-105149780D01*
X177615000Y-101099780D02*
X171715000Y-101099780D01*
X180665000Y-101099780D02*
X179115000Y-101099780D01*
X180665000Y-101329780D02*
X180665000Y-101099780D01*
X180665000Y-104649780D02*
X180665000Y-104179780D01*
X169715000Y-103099780D02*
G75*
G02*
X171715000Y-101099780I2000005J-5D01*
G01*
X173305854Y-106989780D02*
G75*
G02*
X175600176Y-105149780I2293456J-509332D01*
G01*
X180665000Y-104649780D02*
G75*
G02*
X180165000Y-105149780I-500001J1D01*
G01*
%TO.C,SW21*%
X150714824Y-81699780D02*
X150714824Y-82499780D01*
X150714824Y-85589780D02*
X150714824Y-85349780D01*
X156600000Y-83749780D02*
X161164824Y-83749780D01*
X158614824Y-79699780D02*
X152714824Y-79699780D01*
X161664824Y-79699780D02*
X160114824Y-79699780D01*
X161664824Y-79929780D02*
X161664824Y-79699780D01*
X161664824Y-83249780D02*
X161664824Y-82779780D01*
X150714824Y-81699780D02*
G75*
G02*
X152714824Y-79699780I2000005J-5D01*
G01*
X154305678Y-85589780D02*
G75*
G02*
X156600000Y-83749780I2293456J-509332D01*
G01*
X161664824Y-83249780D02*
G75*
G02*
X161164824Y-83749780I-500001J1D01*
G01*
%TO.C,SW37*%
X158994824Y-124449780D02*
X158994824Y-125249780D01*
X158994824Y-128339780D02*
X158994824Y-128099780D01*
X164880000Y-126499780D02*
X169444824Y-126499780D01*
X166894824Y-122449780D02*
X160994824Y-122449780D01*
X169944824Y-122449780D02*
X168394824Y-122449780D01*
X169944824Y-122679780D02*
X169944824Y-122449780D01*
X169944824Y-125999780D02*
X169944824Y-125529780D01*
X158994824Y-124449780D02*
G75*
G02*
X160994824Y-122449780I2000005J-5D01*
G01*
X162585678Y-128339780D02*
G75*
G02*
X164880000Y-126499780I2293456J-509332D01*
G01*
X169944824Y-125999780D02*
G75*
G02*
X169444824Y-126499780I-500001J1D01*
G01*
D11*
%TO.C,D36*%
X170960000Y-133400000D02*
X169000000Y-133400000D01*
X170960000Y-134600000D02*
X169000000Y-134600000D01*
X170960000Y-134600000D02*
X170960000Y-133400000D01*
D10*
%TO.C,SW7*%
X74665000Y-68099780D02*
X74665000Y-68899780D01*
X74665000Y-71989780D02*
X74665000Y-71749780D01*
X80550176Y-70149780D02*
X85115000Y-70149780D01*
X82565000Y-66099780D02*
X76665000Y-66099780D01*
X85615000Y-66099780D02*
X84065000Y-66099780D01*
X85615000Y-66329780D02*
X85615000Y-66099780D01*
X85615000Y-69649780D02*
X85615000Y-69179780D01*
X74665000Y-68099780D02*
G75*
G02*
X76665000Y-66099780I2000005J-5D01*
G01*
X78255854Y-71989780D02*
G75*
G02*
X80550176Y-70149780I2293456J-509332D01*
G01*
X85615000Y-69649780D02*
G75*
G02*
X85115000Y-70149780I-500001J1D01*
G01*
%TO.C,SW20*%
X150714648Y-62649780D02*
X150714648Y-63449780D01*
X150714648Y-66539780D02*
X150714648Y-66299780D01*
X156599824Y-64699780D02*
X161164648Y-64699780D01*
X158614648Y-60649780D02*
X152714648Y-60649780D01*
X161664648Y-60649780D02*
X160114648Y-60649780D01*
X161664648Y-60879780D02*
X161664648Y-60649780D01*
X161664648Y-64199780D02*
X161664648Y-63729780D01*
X150714648Y-62649780D02*
G75*
G02*
X152714648Y-60649780I2000005J-5D01*
G01*
X154305502Y-66539780D02*
G75*
G02*
X156599824Y-64699780I2293456J-509332D01*
G01*
X161664648Y-64199780D02*
G75*
G02*
X161164648Y-64699780I-500001J1D01*
G01*
D11*
%TO.C,D12*%
X143327528Y-86456000D02*
X141367528Y-86456000D01*
X143327528Y-87656000D02*
X141367528Y-87656000D01*
X143327528Y-87656000D02*
X143327528Y-86456000D01*
D10*
%TO.C,SW38*%
X139914824Y-122249780D02*
X139914824Y-123049780D01*
X139914824Y-126139780D02*
X139914824Y-125899780D01*
X145800000Y-124299780D02*
X150364824Y-124299780D01*
X147814824Y-120249780D02*
X141914824Y-120249780D01*
X150864824Y-120249780D02*
X149314824Y-120249780D01*
X150864824Y-120479780D02*
X150864824Y-120249780D01*
X150864824Y-123799780D02*
X150864824Y-123329780D01*
X139914824Y-122249780D02*
G75*
G02*
X141914824Y-120249780I2000005J-5D01*
G01*
X143505678Y-126139780D02*
G75*
G02*
X145800000Y-124299780I2293456J-509332D01*
G01*
X150864824Y-123799780D02*
G75*
G02*
X150364824Y-124299780I-500001J1D01*
G01*
D11*
%TO.C,D20*%
X161877352Y-90442000D02*
X159917352Y-90442000D01*
X161877352Y-91642000D02*
X159917352Y-91642000D01*
X161877352Y-91642000D02*
X161877352Y-90442000D01*
%TO.C,D8*%
X123927352Y-90317000D02*
X121967352Y-90317000D01*
X123927352Y-91517000D02*
X121967352Y-91517000D01*
X123927352Y-91517000D02*
X123927352Y-90317000D01*
D10*
%TO.C,SW19*%
X150714648Y-43599780D02*
X150714648Y-44399780D01*
X150714648Y-47489780D02*
X150714648Y-47249780D01*
X156599824Y-45649780D02*
X161164648Y-45649780D01*
X158614648Y-41599780D02*
X152714648Y-41599780D01*
X161664648Y-41599780D02*
X160114648Y-41599780D01*
X161664648Y-41829780D02*
X161664648Y-41599780D01*
X161664648Y-45149780D02*
X161664648Y-44679780D01*
X150714648Y-43599780D02*
G75*
G02*
X152714648Y-41599780I2000005J-5D01*
G01*
X154305502Y-47489780D02*
G75*
G02*
X156599824Y-45649780I2293456J-509332D01*
G01*
X161664648Y-45149780D02*
G75*
G02*
X161164648Y-45649780I-500001J1D01*
G01*
%TO.C,SW17*%
X131714824Y-77699780D02*
X131714824Y-78499780D01*
X131714824Y-81589780D02*
X131714824Y-81349780D01*
X137600000Y-79749780D02*
X142164824Y-79749780D01*
X139614824Y-75699780D02*
X133714824Y-75699780D01*
X142664824Y-75699780D02*
X141114824Y-75699780D01*
X142664824Y-75929780D02*
X142664824Y-75699780D01*
X142664824Y-79249780D02*
X142664824Y-78779780D01*
X131714824Y-77699780D02*
G75*
G02*
X133714824Y-75699780I2000005J-5D01*
G01*
X135305678Y-81589780D02*
G75*
G02*
X137600000Y-79749780I2293456J-509332D01*
G01*
X142664824Y-79249780D02*
G75*
G02*
X142164824Y-79749780I-500001J1D01*
G01*
D11*
%TO.C,D25*%
X181177528Y-111754000D02*
X179217528Y-111754000D01*
X181177528Y-112954000D02*
X179217528Y-112954000D01*
X181177528Y-112954000D02*
X181177528Y-111754000D01*
%TO.C,D5*%
X86427528Y-114779000D02*
X84467528Y-114779000D01*
X86427528Y-115979000D02*
X84467528Y-115979000D01*
X86427528Y-115979000D02*
X86427528Y-114779000D01*
%TO.C,D2*%
X105077528Y-95329000D02*
X103117528Y-95329000D01*
X105077528Y-96529000D02*
X103117528Y-96529000D01*
X105077528Y-96529000D02*
X105077528Y-95329000D01*
%TO.C,D13*%
X104252528Y-57554000D02*
X102292528Y-57554000D01*
X104252528Y-58754000D02*
X102292528Y-58754000D01*
X104252528Y-58754000D02*
X104252528Y-57554000D01*
%TO.C,D21*%
X162102352Y-109392000D02*
X160142352Y-109392000D01*
X162102352Y-110592000D02*
X160142352Y-110592000D01*
X162102352Y-110592000D02*
X162102352Y-109392000D01*
D10*
%TO.C,SW36*%
X183660193Y-131172440D02*
X183780193Y-130964594D01*
X185605193Y-127803601D02*
X185205193Y-128496421D01*
X189676905Y-132521541D02*
X193630158Y-134803953D01*
X193446794Y-130021550D02*
X188337244Y-127071550D01*
X194313171Y-134620940D02*
X194548171Y-134213908D01*
X195973171Y-131745736D02*
X196088171Y-131546550D01*
X196088171Y-131546550D02*
X194745832Y-130771550D01*
X185605193Y-127803601D02*
G75*
G02*
X188337244Y-127071550I1732049J-999993D01*
G01*
X186769964Y-132967867D02*
G75*
G02*
X189676905Y-132521542I1731526J-1587828D01*
G01*
X194313171Y-134620940D02*
G75*
G02*
X193630158Y-134803953I-433013J250001D01*
G01*
%TO.C,SW9*%
X74665000Y-87149780D02*
X74665000Y-87949780D01*
X74665000Y-91039780D02*
X74665000Y-90799780D01*
X80550176Y-89199780D02*
X85115000Y-89199780D01*
X82565000Y-85149780D02*
X76665000Y-85149780D01*
X85615000Y-85149780D02*
X84065000Y-85149780D01*
X85615000Y-85379780D02*
X85615000Y-85149780D01*
X85615000Y-88699780D02*
X85615000Y-88229780D01*
X74665000Y-87149780D02*
G75*
G02*
X76665000Y-85149780I2000005J-5D01*
G01*
X78255854Y-91039780D02*
G75*
G02*
X80550176Y-89199780I2293456J-509332D01*
G01*
X85615000Y-88699780D02*
G75*
G02*
X85115000Y-89199780I-500001J1D01*
G01*
D11*
%TO.C,D3*%
X104252528Y-114604000D02*
X102292528Y-114604000D01*
X104252528Y-115804000D02*
X102292528Y-115804000D01*
X104252528Y-115804000D02*
X104252528Y-114604000D01*
%TO.C,D17*%
X142852528Y-105256000D02*
X140892528Y-105256000D01*
X142852528Y-106456000D02*
X140892528Y-106456000D01*
X142852528Y-106456000D02*
X142852528Y-105256000D01*
%TO.C,D14*%
X105077528Y-77179000D02*
X103117528Y-77179000D01*
X105077528Y-78379000D02*
X103117528Y-78379000D01*
X105077528Y-78379000D02*
X105077528Y-77179000D01*
D10*
%TO.C,SW22*%
X150714824Y-100749780D02*
X150714824Y-101549780D01*
X150714824Y-104639780D02*
X150714824Y-104399780D01*
X156600000Y-102799780D02*
X161164824Y-102799780D01*
X158614824Y-98749780D02*
X152714824Y-98749780D01*
X161664824Y-98749780D02*
X160114824Y-98749780D01*
X161664824Y-98979780D02*
X161664824Y-98749780D01*
X161664824Y-102299780D02*
X161664824Y-101829780D01*
X150714824Y-100749780D02*
G75*
G02*
X152714824Y-98749780I2000005J-5D01*
G01*
X154305678Y-104639780D02*
G75*
G02*
X156600000Y-102799780I2293456J-509332D01*
G01*
X161664824Y-102299780D02*
G75*
G02*
X161164824Y-102799780I-500001J1D01*
G01*
D11*
%TO.C,D4*%
X86427528Y-95804000D02*
X84467528Y-95804000D01*
X86427528Y-97004000D02*
X84467528Y-97004000D01*
X86427528Y-97004000D02*
X86427528Y-95804000D01*
D10*
%TO.C,SW6*%
X74665000Y-49049780D02*
X74665000Y-49849780D01*
X74665000Y-52939780D02*
X74665000Y-52699780D01*
X80550176Y-51099780D02*
X85115000Y-51099780D01*
X82565000Y-47049780D02*
X76665000Y-47049780D01*
X85615000Y-47049780D02*
X84065000Y-47049780D01*
X85615000Y-47279780D02*
X85615000Y-47049780D01*
X85615000Y-50599780D02*
X85615000Y-50129780D01*
X74665000Y-49049780D02*
G75*
G02*
X76665000Y-47049780I2000005J-5D01*
G01*
X78255854Y-52939780D02*
G75*
G02*
X80550176Y-51099780I2293456J-509332D01*
G01*
X85615000Y-50599780D02*
G75*
G02*
X85115000Y-51099780I-500001J1D01*
G01*
%TO.C,SW18*%
X131715000Y-96749780D02*
X131715000Y-97549780D01*
X131715000Y-100639780D02*
X131715000Y-100399780D01*
X137600176Y-98799780D02*
X142165000Y-98799780D01*
X139615000Y-94749780D02*
X133715000Y-94749780D01*
X142665000Y-94749780D02*
X141115000Y-94749780D01*
X142665000Y-94979780D02*
X142665000Y-94749780D01*
X142665000Y-98299780D02*
X142665000Y-97829780D01*
X131715000Y-96749780D02*
G75*
G02*
X133715000Y-94749780I2000005J-5D01*
G01*
X135305854Y-100639780D02*
G75*
G02*
X137600176Y-98799780I2293456J-509332D01*
G01*
X142665000Y-98299780D02*
G75*
G02*
X142165000Y-98799780I-500001J1D01*
G01*
D11*
%TO.C,D7*%
X123752352Y-71692000D02*
X121792352Y-71692000D01*
X123752352Y-72892000D02*
X121792352Y-72892000D01*
X123752352Y-72892000D02*
X123752352Y-71692000D01*
%TO.C,D6*%
X124252352Y-52242000D02*
X122292352Y-52242000D01*
X124252352Y-53442000D02*
X122292352Y-53442000D01*
X124252352Y-53442000D02*
X124252352Y-52242000D01*
D10*
%TO.C,SW3*%
X93715000Y-87149780D02*
X93715000Y-87949780D01*
X93715000Y-91039780D02*
X93715000Y-90799780D01*
X99600176Y-89199780D02*
X104165000Y-89199780D01*
X101615000Y-85149780D02*
X95715000Y-85149780D01*
X104665000Y-85149780D02*
X103115000Y-85149780D01*
X104665000Y-85379780D02*
X104665000Y-85149780D01*
X104665000Y-88699780D02*
X104665000Y-88229780D01*
X93715000Y-87149780D02*
G75*
G02*
X95715000Y-85149780I2000005J-5D01*
G01*
X97305854Y-91039780D02*
G75*
G02*
X99600176Y-89199780I2293456J-509332D01*
G01*
X104665000Y-88699780D02*
G75*
G02*
X104165000Y-89199780I-500001J1D01*
G01*
%TO.C,SW10*%
X74664824Y-106199780D02*
X74664824Y-106999780D01*
X74664824Y-110089780D02*
X74664824Y-109849780D01*
X80550000Y-108249780D02*
X85114824Y-108249780D01*
X82564824Y-104199780D02*
X76664824Y-104199780D01*
X85614824Y-104199780D02*
X84064824Y-104199780D01*
X85614824Y-104429780D02*
X85614824Y-104199780D01*
X85614824Y-107749780D02*
X85614824Y-107279780D01*
X74664824Y-106199780D02*
G75*
G02*
X76664824Y-104199780I2000005J-5D01*
G01*
X78255678Y-110089780D02*
G75*
G02*
X80550000Y-108249780I2293456J-509332D01*
G01*
X85614824Y-107749780D02*
G75*
G02*
X85114824Y-108249780I-500001J1D01*
G01*
D11*
%TO.C,D37*%
X151265000Y-130900000D02*
X149305000Y-130900000D01*
X151265000Y-132100000D02*
X149305000Y-132100000D01*
X151265000Y-132100000D02*
X151265000Y-130900000D01*
D10*
%TO.C,SW14*%
X112714648Y-100799780D02*
X112714648Y-101599780D01*
X112714648Y-104689780D02*
X112714648Y-104449780D01*
X118599824Y-102849780D02*
X123164648Y-102849780D01*
X120614648Y-98799780D02*
X114714648Y-98799780D01*
X123664648Y-98799780D02*
X122114648Y-98799780D01*
X123664648Y-99029780D02*
X123664648Y-98799780D01*
X123664648Y-102349780D02*
X123664648Y-101879780D01*
X112714648Y-100799780D02*
G75*
G02*
X114714648Y-98799780I2000005J-5D01*
G01*
X116305502Y-104689780D02*
G75*
G02*
X118599824Y-102849780I2293456J-509332D01*
G01*
X123664648Y-102349780D02*
G75*
G02*
X123164648Y-102849780I-500001J1D01*
G01*
%TO.C,SW4*%
X93714824Y-49049780D02*
X93714824Y-49849780D01*
X93714824Y-52939780D02*
X93714824Y-52699780D01*
X99600000Y-51099780D02*
X104164824Y-51099780D01*
X101614824Y-47049780D02*
X95714824Y-47049780D01*
X104664824Y-47049780D02*
X103114824Y-47049780D01*
X104664824Y-47279780D02*
X104664824Y-47049780D01*
X104664824Y-50599780D02*
X104664824Y-50129780D01*
X93714824Y-49049780D02*
G75*
G02*
X95714824Y-47049780I2000005J-5D01*
G01*
X97305678Y-52939780D02*
G75*
G02*
X99600000Y-51099780I2293456J-509332D01*
G01*
X104664824Y-50599780D02*
G75*
G02*
X104164824Y-51099780I-500001J1D01*
G01*
%TO.C,SW23*%
X169715000Y-45949780D02*
X169715000Y-46749780D01*
X169715000Y-49839780D02*
X169715000Y-49599780D01*
X175600176Y-47999780D02*
X180165000Y-47999780D01*
X177615000Y-43949780D02*
X171715000Y-43949780D01*
X180665000Y-43949780D02*
X179115000Y-43949780D01*
X180665000Y-44179780D02*
X180665000Y-43949780D01*
X180665000Y-47499780D02*
X180665000Y-47029780D01*
X169715000Y-45949780D02*
G75*
G02*
X171715000Y-43949780I2000005J-5D01*
G01*
X173305854Y-49839780D02*
G75*
G02*
X175600176Y-47999780I2293456J-509332D01*
G01*
X180665000Y-47499780D02*
G75*
G02*
X180165000Y-47999780I-500001J1D01*
G01*
D11*
%TO.C,D9*%
X124077352Y-109442000D02*
X122117352Y-109442000D01*
X124077352Y-110642000D02*
X122117352Y-110642000D01*
X124077352Y-110642000D02*
X124077352Y-109442000D01*
%TO.C,D18*%
X162102352Y-52342000D02*
X160142352Y-52342000D01*
X162102352Y-53542000D02*
X160142352Y-53542000D01*
X162102352Y-53542000D02*
X162102352Y-52342000D01*
D10*
%TO.C,SW5*%
X93714824Y-68099780D02*
X93714824Y-68899780D01*
X93714824Y-71989780D02*
X93714824Y-71749780D01*
X99600000Y-70149780D02*
X104164824Y-70149780D01*
X101614824Y-66099780D02*
X95714824Y-66099780D01*
X104664824Y-66099780D02*
X103114824Y-66099780D01*
X104664824Y-66329780D02*
X104664824Y-66099780D01*
X104664824Y-69649780D02*
X104664824Y-69179780D01*
X93714824Y-68099780D02*
G75*
G02*
X95714824Y-66099780I2000005J-5D01*
G01*
X97305678Y-71989780D02*
G75*
G02*
X99600000Y-70149780I2293456J-509332D01*
G01*
X104664824Y-69649780D02*
G75*
G02*
X104164824Y-70149780I-500001J1D01*
G01*
D11*
%TO.C,D15*%
X85777528Y-57729000D02*
X83817528Y-57729000D01*
X85777528Y-58929000D02*
X83817528Y-58929000D01*
X85777528Y-58929000D02*
X85777528Y-57729000D01*
%TO.C,D16*%
X86102528Y-76354000D02*
X84142528Y-76354000D01*
X86102528Y-77554000D02*
X84142528Y-77554000D01*
X86102528Y-77554000D02*
X86102528Y-76354000D01*
%TO.C,D22*%
X181502528Y-54404000D02*
X179542528Y-54404000D01*
X181502528Y-55604000D02*
X179542528Y-55604000D01*
X181502528Y-55604000D02*
X181502528Y-54404000D01*
%TO.C,D35*%
X189040000Y-140800000D02*
X189040000Y-142000000D01*
X189040000Y-140800000D02*
X191000000Y-140800000D01*
X189040000Y-142000000D02*
X191000000Y-142000000D01*
D10*
%TO.C,SW15*%
X131715000Y-39599780D02*
X131715000Y-40399780D01*
X131715000Y-43489780D02*
X131715000Y-43249780D01*
X137600176Y-41649780D02*
X142165000Y-41649780D01*
X139615000Y-37599780D02*
X133715000Y-37599780D01*
X142665000Y-37599780D02*
X141115000Y-37599780D01*
X142665000Y-37829780D02*
X142665000Y-37599780D01*
X142665000Y-41149780D02*
X142665000Y-40679780D01*
X131715000Y-39599780D02*
G75*
G02*
X133715000Y-37599780I2000005J-5D01*
G01*
X135305854Y-43489780D02*
G75*
G02*
X137600176Y-41649780I2293456J-509332D01*
G01*
X142665000Y-41149780D02*
G75*
G02*
X142165000Y-41649780I-500001J1D01*
G01*
%TO.C,SW11*%
X112714824Y-43649780D02*
X112714824Y-44449780D01*
X112714824Y-47539780D02*
X112714824Y-47299780D01*
X118600000Y-45699780D02*
X123164824Y-45699780D01*
X120614824Y-41649780D02*
X114714824Y-41649780D01*
X123664824Y-41649780D02*
X122114824Y-41649780D01*
X123664824Y-41879780D02*
X123664824Y-41649780D01*
X123664824Y-45199780D02*
X123664824Y-44729780D01*
X112714824Y-43649780D02*
G75*
G02*
X114714824Y-41649780I2000005J-5D01*
G01*
X116305678Y-47539780D02*
G75*
G02*
X118600000Y-45699780I2293456J-509332D01*
G01*
X123664824Y-45199780D02*
G75*
G02*
X123164824Y-45699780I-500001J1D01*
G01*
%TD*%
M02*
