M48
; DRILL file {KiCad 8.0.8} date 2025-02-12T11:53:12+0100
; FORMAT={-:-/ absolute / inch / decimal}
; #@! TF.CreationDate,2025-02-12T11:53:12+01:00
; #@! TF.GenerationSoftware,Kicad,Pcbnew,8.0.8
; #@! TF.FileFunction,Plated,1,2,PTH
FMAT,2
INCH
; #@! TA.AperFunction,Plated,PTH,ViaDrill
T1C0.0118
; #@! TA.AperFunction,Plated,PTH,ComponentDrill
T2C0.0394
; #@! TA.AperFunction,Plated,PTH,ComponentDrill
T3C0.0433
; #@! TA.AperFunction,Plated,PTH,ComponentDrill
T4C0.1181
; #@! TA.AperFunction,Plated,PTH,ComponentDrill
T5C0.1260
%
G90
G05
T1
X2.8894Y-2.4061
X2.8937Y-2.9134
X2.8937Y-3.3661
X2.8937Y-3.6811
X2.8937Y-4.1142
X3.6417Y-2.3888
X3.6417Y-2.6181
X3.6417Y-2.8937
X3.6417Y-3.3858
X3.6417Y-3.6614
X3.6417Y-4.1339
X4.3874Y-2.1561
X4.3898Y-2.4213
X4.3898Y-2.6969
X4.3898Y-3.189
X4.3898Y-3.4449
X4.3898Y-3.9173
X5.1378Y-2.1001
X5.1378Y-2.2441
X5.1378Y-2.5394
X5.1378Y-3.0118
X5.1378Y-3.2874
X5.1378Y-3.7795
X5.4724Y-4.9803
X5.8835Y-2.1405
X5.8858Y-2.4213
X5.8858Y-2.6969
X5.8858Y-3.189
X5.8858Y-3.4252
X5.8858Y-3.9173
X6.122Y-5.0197
X6.2205Y-5.0984
X6.6339Y-2.2655
X6.6339Y-2.5394
X6.6339Y-2.7559
X6.6339Y-3.3071
X6.6339Y-3.5039
X6.6339Y-4.0551
X7.185Y-5.1575
X7.2027Y-4.5153
X7.2669Y-4.3903
X7.2944Y-3.1717
X7.3031Y-5.0
X7.324Y-3.0623
X7.5Y-4.5276
X7.7026Y-1.8124
T2
X7.5764Y-1.953
X7.6748Y-1.953
X7.902Y-1.71
X7.902Y-1.81
X7.902Y-1.91
X7.902Y-2.01
X7.902Y-2.11
X7.902Y-2.21
X7.902Y-2.31
X7.902Y-2.41
X7.902Y-2.51
X7.902Y-2.61
X7.902Y-2.71
X7.902Y-2.81
X7.902Y-2.91
X8.023Y-2.7882
X8.123Y-2.7882
X8.223Y-2.7882
X8.502Y-1.71
X8.502Y-1.81
X8.502Y-1.91
X8.502Y-2.01
X8.502Y-2.11
X8.502Y-2.21
X8.502Y-2.31
X8.502Y-2.41
X8.502Y-2.51
X8.502Y-2.61
X8.502Y-2.71
X8.502Y-2.81
X8.502Y-2.91
T3
X7.5249Y-3.2601
X7.5249Y-3.4373
X7.7808Y-3.2601
X7.7808Y-3.4373
X8.0561Y-3.2601
X8.0561Y-3.4373
X8.312Y-3.2601
X8.312Y-3.4373
T4
X3.0291Y-4.2681
X3.0291Y-2.0181
X3.0291Y-2.7681
X3.0291Y-3.5181
X3.2791Y-4.1681
X3.2791Y-1.9181
X3.2791Y-2.6681
X3.2791Y-3.4181
X3.7791Y-2.0181
X3.7791Y-2.7681
X3.7791Y-4.2681
X3.7791Y-3.5181
X4.0291Y-1.9181
X4.0291Y-2.6681
X4.0291Y-4.1681
X4.0291Y-3.4181
X4.5272Y-4.0555
X4.5272Y-1.8055
X4.5272Y-2.5555
X4.5272Y-3.3055
X4.7772Y-3.9555
X4.7772Y-1.7055
X4.7772Y-2.4555
X4.7772Y-3.2055
X5.2752Y-2.3961
X5.2752Y-3.1461
X5.2752Y-1.6461
X5.2752Y-3.8961
X5.5252Y-2.2961
X5.5252Y-3.0461
X5.5252Y-1.5461
X5.5252Y-3.7961
X5.598Y-4.9
X5.848Y-4.8
X6.0232Y-1.8035
X6.0232Y-2.5535
X6.0232Y-3.3035
X6.0232Y-4.0535
X6.2732Y-1.7035
X6.2732Y-2.4535
X6.2732Y-3.2035
X6.2732Y-3.9535
X6.3492Y-4.9866
X6.5992Y-4.8866
X6.7713Y-3.3961
X6.7713Y-1.8961
X6.7713Y-2.6461
X6.7713Y-4.1461
X7.0213Y-3.2961
X7.0213Y-1.7961
X7.0213Y-2.5461
X7.0213Y-4.0461
X7.3414Y-5.1518
X7.6079Y-5.1902
X7.7154Y-4.5022
X7.9819Y-4.5406
T5
X4.2341Y-1.6718
X4.3591Y-4.6872
X6.9214Y-5.359
X8.424Y-3.088
M30
