M48
; DRILL file {KiCad 8.0.8} date 2025-02-12T11:53:12+0100
; FORMAT={-:-/ absolute / inch / decimal}
; #@! TF.CreationDate,2025-02-12T11:53:12+01:00
; #@! TF.GenerationSoftware,Kicad,Pcbnew,8.0.8
; #@! TF.FileFunction,NonPlated,1,2,NPTH
FMAT,2
INCH
; #@! TA.AperFunction,NonPlated,NPTH,ComponentDrill
T1C0.0354
; #@! TA.AperFunction,NonPlated,NPTH,ComponentDrill
T2C0.0472
; #@! TA.AperFunction,NonPlated,NPTH,ComponentDrill
T3C0.0689
; #@! TA.AperFunction,NonPlated,NPTH,ComponentDrill
T4C0.1570
%
G90
G05
T1
X7.5655Y-1.6874
X7.6836Y-1.6874
T2
X7.5134Y-1.8743
T3
X2.9791Y-4.3681
X2.9791Y-2.1181
X2.9791Y-2.8681
X2.9791Y-3.6181
X3.3791Y-4.3681
X3.3791Y-2.1181
X3.3791Y-2.8681
X3.3791Y-3.6181
X3.7291Y-2.1181
X3.7291Y-2.8681
X3.7291Y-4.3681
X3.7291Y-3.6181
X4.1291Y-2.1181
X4.1291Y-2.8681
X4.1291Y-4.3681
X4.1291Y-3.6181
X4.4772Y-4.1555
X4.4772Y-1.9055
X4.4772Y-2.6555
X4.4772Y-3.4055
X4.8772Y-4.1555
X4.8772Y-1.9055
X4.8772Y-2.6555
X4.8772Y-3.4055
X5.2252Y-2.4961
X5.2252Y-3.2461
X5.2252Y-1.7461
X5.2252Y-3.9961
X5.548Y-5.0
X5.6252Y-2.4961
X5.6252Y-3.2461
X5.6252Y-1.7461
X5.6252Y-3.9961
X5.948Y-5.0
X5.9732Y-1.9035
X5.9732Y-2.6535
X5.9732Y-3.4035
X5.9732Y-4.1535
X6.2992Y-5.0866
X6.3732Y-1.9035
X6.3732Y-2.6535
X6.3732Y-3.4035
X6.3732Y-4.1535
X6.6992Y-5.0866
X6.7213Y-3.4961
X6.7213Y-1.9961
X6.7213Y-2.7461
X6.7213Y-4.2461
X7.1213Y-3.4961
X7.1213Y-1.9961
X7.1213Y-2.7461
X7.1213Y-4.2461
X7.2481Y-5.2134
X7.5945Y-5.4134
X7.6221Y-4.5638
X7.9685Y-4.7638
T4
X3.1791Y-4.3681
X3.1791Y-2.1181
X3.1791Y-2.8681
X3.1791Y-3.6181
X3.9291Y-2.1181
X3.9291Y-2.8681
X3.9291Y-4.3681
X3.9291Y-3.6181
X4.6772Y-4.1555
X4.6772Y-1.9055
X4.6772Y-2.6555
X4.6772Y-3.4055
X5.4252Y-2.4961
X5.4252Y-3.2461
X5.4252Y-1.7461
X5.4252Y-3.9961
X5.748Y-5.0
X6.1732Y-1.9035
X6.1732Y-2.6535
X6.1732Y-3.4035
X6.1732Y-4.1535
X6.4992Y-5.0866
X6.9213Y-3.4961
X6.9213Y-1.9961
X6.9213Y-2.7461
X6.9213Y-4.2461
X7.4213Y-5.3134
X7.7953Y-4.6638
M30
