%TF.GenerationSoftware,KiCad,Pcbnew,8.0.8*%
%TF.CreationDate,2025-02-12T11:53:10+01:00*%
%TF.ProjectId,PCB_g,5043425f-672e-46b6-9963-61645f706362,rev?*%
%TF.SameCoordinates,Original*%
%TF.FileFunction,Paste,Bot*%
%TF.FilePolarity,Positive*%
%FSLAX46Y46*%
G04 Gerber Fmt 4.6, Leading zero omitted, Abs format (unit mm)*
G04 Created by KiCad (PCBNEW 8.0.8) date 2025-02-12 11:53:10*
%MOMM*%
%LPD*%
G01*
G04 APERTURE LIST*
G04 Aperture macros list*
%AMRoundRect*
0 Rectangle with rounded corners*
0 $1 Rounding radius*
0 $2 $3 $4 $5 $6 $7 $8 $9 X,Y pos of 4 corners*
0 Add a 4 corners polygon primitive as box body*
4,1,4,$2,$3,$4,$5,$6,$7,$8,$9,$2,$3,0*
0 Add four circle primitives for the rounded corners*
1,1,$1+$1,$2,$3*
1,1,$1+$1,$4,$5*
1,1,$1+$1,$6,$7*
1,1,$1+$1,$8,$9*
0 Add four rect primitives between the rounded corners*
20,1,$1+$1,$2,$3,$4,$5,0*
20,1,$1+$1,$4,$5,$6,$7,0*
20,1,$1+$1,$6,$7,$8,$9,0*
20,1,$1+$1,$8,$9,$2,$3,0*%
G04 Aperture macros list end*
%ADD10RoundRect,0.150000X0.150000X0.200000X-0.150000X0.200000X-0.150000X-0.200000X0.150000X-0.200000X0*%
%ADD11RoundRect,0.250000X1.025000X1.000000X-1.025000X1.000000X-1.025000X-1.000000X1.025000X-1.000000X0*%
%ADD12RoundRect,0.150000X-0.150000X-0.200000X0.150000X-0.200000X0.150000X0.200000X-0.150000X0.200000X0*%
%ADD13RoundRect,0.250000X1.387676X0.353525X-0.387676X1.378525X-1.387676X-0.353525X0.387676X-1.378525X0*%
G04 APERTURE END LIST*
D10*
%TO.C,D34*%
X198500000Y-124200000D03*
X199900000Y-124200000D03*
%TD*%
D11*
%TO.C,SW24*%
X168440176Y-67210000D03*
X181890176Y-64670000D03*
%TD*%
D12*
%TO.C,D10*%
X142442528Y-49456000D03*
X141042528Y-49456000D03*
%TD*%
D11*
%TO.C,SW12*%
X111440000Y-64910000D03*
X124890000Y-62370000D03*
%TD*%
D13*
%TO.C,SW35*%
X192896053Y-112580295D03*
X205814095Y-117105591D03*
%TD*%
D11*
%TO.C,SW8*%
X92440000Y-108410000D03*
X105890000Y-105870000D03*
%TD*%
%TO.C,SW13*%
X111440000Y-83960000D03*
X124890000Y-81420000D03*
%TD*%
%TO.C,SW16*%
X130440000Y-60860000D03*
X143890000Y-58320000D03*
%TD*%
%TO.C,SW25*%
X168440000Y-86260000D03*
X181890000Y-83720000D03*
%TD*%
D12*
%TO.C,D19*%
X161367352Y-72067000D03*
X159967352Y-72067000D03*
%TD*%
%TO.C,D24*%
X180792528Y-93554000D03*
X179392528Y-93554000D03*
%TD*%
%TO.C,D23*%
X180617528Y-74454000D03*
X179217528Y-74454000D03*
%TD*%
%TO.C,D11*%
X142617528Y-68081000D03*
X141217528Y-68081000D03*
%TD*%
D11*
%TO.C,SW26*%
X168440176Y-105310000D03*
X181890176Y-102770000D03*
%TD*%
%TO.C,SW21*%
X149440000Y-83910000D03*
X162890000Y-81370000D03*
%TD*%
%TO.C,SW37*%
X157720000Y-126660000D03*
X171170000Y-124120000D03*
%TD*%
D12*
%TO.C,D36*%
X170400000Y-134000000D03*
X169000000Y-134000000D03*
%TD*%
D11*
%TO.C,SW7*%
X73390176Y-70310000D03*
X86840176Y-67770000D03*
%TD*%
%TO.C,SW20*%
X149439824Y-64860000D03*
X162889824Y-62320000D03*
%TD*%
D12*
%TO.C,D12*%
X142767528Y-87056000D03*
X141367528Y-87056000D03*
%TD*%
D11*
%TO.C,SW38*%
X138640000Y-124460000D03*
X152090000Y-121920000D03*
%TD*%
D12*
%TO.C,D20*%
X161317352Y-91042000D03*
X159917352Y-91042000D03*
%TD*%
%TO.C,D8*%
X123367352Y-90917000D03*
X121967352Y-90917000D03*
%TD*%
D11*
%TO.C,SW19*%
X149439824Y-45810000D03*
X162889824Y-43270000D03*
%TD*%
%TO.C,SW17*%
X130440000Y-79910000D03*
X143890000Y-77370000D03*
%TD*%
D12*
%TO.C,D25*%
X180617528Y-112354000D03*
X179217528Y-112354000D03*
%TD*%
%TO.C,D5*%
X85867528Y-115379000D03*
X84467528Y-115379000D03*
%TD*%
%TO.C,D2*%
X104517528Y-95929000D03*
X103117528Y-95929000D03*
%TD*%
%TO.C,D13*%
X103692528Y-58154000D03*
X102292528Y-58154000D03*
%TD*%
%TO.C,D21*%
X161542352Y-109992000D03*
X160142352Y-109992000D03*
%TD*%
D13*
%TO.C,SW36*%
X183396053Y-129080295D03*
X196314095Y-133605591D03*
%TD*%
D11*
%TO.C,SW9*%
X73390176Y-89360000D03*
X86840176Y-86820000D03*
%TD*%
D12*
%TO.C,D3*%
X103692528Y-115204000D03*
X102292528Y-115204000D03*
%TD*%
%TO.C,D17*%
X142292528Y-105856000D03*
X140892528Y-105856000D03*
%TD*%
%TO.C,D14*%
X104517528Y-77779000D03*
X103117528Y-77779000D03*
%TD*%
D11*
%TO.C,SW22*%
X149440000Y-102960000D03*
X162890000Y-100420000D03*
%TD*%
D12*
%TO.C,D4*%
X85867528Y-96404000D03*
X84467528Y-96404000D03*
%TD*%
D11*
%TO.C,SW6*%
X73390176Y-51260000D03*
X86840176Y-48720000D03*
%TD*%
%TO.C,SW18*%
X130440176Y-98960000D03*
X143890176Y-96420000D03*
%TD*%
D12*
%TO.C,D7*%
X123192352Y-72292000D03*
X121792352Y-72292000D03*
%TD*%
%TO.C,D6*%
X123692352Y-52842000D03*
X122292352Y-52842000D03*
%TD*%
D11*
%TO.C,SW3*%
X92440176Y-89360000D03*
X105890176Y-86820000D03*
%TD*%
%TO.C,SW10*%
X73390000Y-108410000D03*
X86840000Y-105870000D03*
%TD*%
D12*
%TO.C,D37*%
X150705000Y-131500000D03*
X149305000Y-131500000D03*
%TD*%
D11*
%TO.C,SW14*%
X111439824Y-103010000D03*
X124889824Y-100470000D03*
%TD*%
%TO.C,SW4*%
X92440000Y-51260000D03*
X105890000Y-48720000D03*
%TD*%
%TO.C,SW23*%
X168440176Y-48160000D03*
X181890176Y-45620000D03*
%TD*%
D12*
%TO.C,D9*%
X123517352Y-110042000D03*
X122117352Y-110042000D03*
%TD*%
%TO.C,D18*%
X161542352Y-52942000D03*
X160142352Y-52942000D03*
%TD*%
D11*
%TO.C,SW5*%
X92440000Y-70310000D03*
X105890000Y-67770000D03*
%TD*%
D12*
%TO.C,D15*%
X85217528Y-58329000D03*
X83817528Y-58329000D03*
%TD*%
%TO.C,D16*%
X85542528Y-76954000D03*
X84142528Y-76954000D03*
%TD*%
%TO.C,D22*%
X180942528Y-55004000D03*
X179542528Y-55004000D03*
%TD*%
D10*
%TO.C,D35*%
X189600000Y-141400000D03*
X191000000Y-141400000D03*
%TD*%
D11*
%TO.C,SW15*%
X130440176Y-41810000D03*
X143890176Y-39270000D03*
%TD*%
%TO.C,SW11*%
X111440000Y-45860000D03*
X124890000Y-43320000D03*
%TD*%
M02*
