%TF.GenerationSoftware,KiCad,Pcbnew,8.0.8*%
%TF.CreationDate,2025-02-12T11:53:10+01:00*%
%TF.ProjectId,PCB_g,5043425f-672e-46b6-9963-61645f706362,rev?*%
%TF.SameCoordinates,Original*%
%TF.FileFunction,Legend,Top*%
%TF.FilePolarity,Positive*%
%FSLAX46Y46*%
G04 Gerber Fmt 4.6, Leading zero omitted, Abs format (unit mm)*
G04 Created by KiCad (PCBNEW 8.0.8) date 2025-02-12 11:53:10*
%MOMM*%
%LPD*%
G01*
G04 APERTURE LIST*
%ADD10C,0.200000*%
%ADD11C,0.150000*%
%ADD12C,0.120000*%
G04 APERTURE END LIST*
D10*
G36*
X207481320Y-90462609D02*
G01*
X206806424Y-90462609D01*
X207143872Y-89450265D01*
X207481320Y-90462609D01*
G37*
G36*
X211749888Y-91456260D02*
G01*
X203964577Y-91456260D01*
X203964577Y-89137777D01*
X204186799Y-89137777D01*
X204189449Y-89157200D01*
X204665639Y-91157200D01*
X204667945Y-91163893D01*
X204668265Y-91166295D01*
X204669522Y-91168466D01*
X204672027Y-91175734D01*
X204680540Y-91187498D01*
X204687815Y-91200063D01*
X204691892Y-91203183D01*
X204694902Y-91207343D01*
X204707264Y-91214950D01*
X204718798Y-91223779D01*
X204723761Y-91225102D01*
X204728132Y-91227792D01*
X204742466Y-91230090D01*
X204756499Y-91233832D01*
X204761587Y-91233155D01*
X204766659Y-91233969D01*
X204780787Y-91230604D01*
X204795177Y-91228693D01*
X204799620Y-91226120D01*
X204804616Y-91224931D01*
X204816380Y-91216417D01*
X204828945Y-91209143D01*
X204832065Y-91205065D01*
X204836225Y-91202056D01*
X204843832Y-91189693D01*
X204852661Y-91178160D01*
X204855359Y-91170961D01*
X204856674Y-91168826D01*
X204857057Y-91166432D01*
X204859543Y-91159804D01*
X205143872Y-90093571D01*
X205428201Y-91159804D01*
X205430687Y-91166435D01*
X205431071Y-91168826D01*
X205432384Y-91170960D01*
X205435084Y-91178159D01*
X205443910Y-91189690D01*
X205451520Y-91202056D01*
X205455679Y-91205066D01*
X205458800Y-91209143D01*
X205471362Y-91216415D01*
X205483129Y-91224931D01*
X205488127Y-91226121D01*
X205492568Y-91228692D01*
X205506951Y-91230603D01*
X205521086Y-91233969D01*
X205526157Y-91233155D01*
X205531246Y-91233832D01*
X205545273Y-91230090D01*
X205559613Y-91227792D01*
X205563986Y-91225100D01*
X205568946Y-91223778D01*
X205580470Y-91214956D01*
X205592843Y-91207343D01*
X205595854Y-91203181D01*
X205599930Y-91200062D01*
X205607200Y-91187503D01*
X205615718Y-91175734D01*
X205618224Y-91168462D01*
X205619479Y-91166295D01*
X205619797Y-91163897D01*
X205622106Y-91157200D01*
X205630599Y-91121531D01*
X206377991Y-91121531D01*
X206380757Y-91160451D01*
X206398207Y-91195350D01*
X206427683Y-91220915D01*
X206464699Y-91233253D01*
X206503619Y-91230487D01*
X206538518Y-91213037D01*
X206564083Y-91183561D01*
X206572074Y-91165661D01*
X206739758Y-90662609D01*
X207547987Y-90662609D01*
X207715671Y-91165661D01*
X207723662Y-91183561D01*
X207749227Y-91213037D01*
X207784126Y-91230487D01*
X207823046Y-91233253D01*
X207860062Y-91220914D01*
X207889538Y-91195349D01*
X207906988Y-91160450D01*
X207909754Y-91121530D01*
X207905407Y-91102415D01*
X207249281Y-89134038D01*
X208377206Y-89134038D01*
X208377206Y-91134038D01*
X208379127Y-91153547D01*
X208394059Y-91189595D01*
X208421649Y-91217185D01*
X208457697Y-91232117D01*
X208496715Y-91232117D01*
X208532763Y-91217185D01*
X208560353Y-91189595D01*
X208575285Y-91153547D01*
X208577206Y-91134038D01*
X208577206Y-90318317D01*
X208752101Y-90143421D01*
X209540063Y-91194038D01*
X209553305Y-91208492D01*
X209586879Y-91228372D01*
X209625505Y-91233890D01*
X209663303Y-91224206D01*
X209694517Y-91200796D01*
X209714397Y-91167221D01*
X209719915Y-91128595D01*
X209710231Y-91090798D01*
X209700063Y-91074038D01*
X208894958Y-90000564D01*
X209690774Y-89204749D01*
X209703210Y-89189595D01*
X209718142Y-89153547D01*
X209718142Y-89134038D01*
X210377206Y-89134038D01*
X210377206Y-91134038D01*
X210379127Y-91153547D01*
X210394059Y-91189595D01*
X210421649Y-91217185D01*
X210457697Y-91232117D01*
X210477206Y-91234038D01*
X211429587Y-91234038D01*
X211449096Y-91232117D01*
X211485144Y-91217185D01*
X211512734Y-91189595D01*
X211527666Y-91153547D01*
X211527666Y-91114529D01*
X211512734Y-91078481D01*
X211485144Y-91050891D01*
X211449096Y-91035959D01*
X211429587Y-91034038D01*
X210577206Y-91034038D01*
X210577206Y-90186419D01*
X211143873Y-90186419D01*
X211163382Y-90184498D01*
X211199430Y-90169566D01*
X211227020Y-90141976D01*
X211241952Y-90105928D01*
X211241952Y-90066910D01*
X211227020Y-90030862D01*
X211199430Y-90003272D01*
X211163382Y-89988340D01*
X211143873Y-89986419D01*
X210577206Y-89986419D01*
X210577206Y-89234038D01*
X211429587Y-89234038D01*
X211449096Y-89232117D01*
X211485144Y-89217185D01*
X211512734Y-89189595D01*
X211527666Y-89153547D01*
X211527666Y-89114529D01*
X211512734Y-89078481D01*
X211485144Y-89050891D01*
X211449096Y-89035959D01*
X211429587Y-89034038D01*
X210477206Y-89034038D01*
X210457697Y-89035959D01*
X210421649Y-89050891D01*
X210394059Y-89078481D01*
X210379127Y-89114529D01*
X210377206Y-89134038D01*
X209718142Y-89134038D01*
X209718142Y-89114529D01*
X209703210Y-89078481D01*
X209675620Y-89050891D01*
X209639572Y-89035959D01*
X209600554Y-89035959D01*
X209564506Y-89050891D01*
X209549352Y-89063327D01*
X208577206Y-90035473D01*
X208577206Y-89134038D01*
X208575285Y-89114529D01*
X208560353Y-89078481D01*
X208532763Y-89050891D01*
X208496715Y-89035959D01*
X208457697Y-89035959D01*
X208421649Y-89050891D01*
X208394059Y-89078481D01*
X208379127Y-89114529D01*
X208377206Y-89134038D01*
X207249281Y-89134038D01*
X207238740Y-89102415D01*
X207230749Y-89084515D01*
X207226065Y-89079115D01*
X207222871Y-89072726D01*
X207213396Y-89064508D01*
X207205183Y-89055039D01*
X207198795Y-89051845D01*
X207193395Y-89047161D01*
X207181496Y-89043195D01*
X207170285Y-89037589D01*
X207163157Y-89037082D01*
X207156379Y-89034823D01*
X207143872Y-89035711D01*
X207131365Y-89034823D01*
X207124586Y-89037082D01*
X207117459Y-89037589D01*
X207106247Y-89043195D01*
X207094349Y-89047161D01*
X207088948Y-89051844D01*
X207082561Y-89055039D01*
X207074345Y-89064511D01*
X207064873Y-89072727D01*
X207061678Y-89079114D01*
X207056995Y-89084515D01*
X207049004Y-89102415D01*
X206382338Y-91102415D01*
X206377991Y-91121531D01*
X205630599Y-91121531D01*
X206098297Y-89157200D01*
X206100947Y-89137777D01*
X206094770Y-89099250D01*
X206074321Y-89066020D01*
X206042712Y-89043145D01*
X206004755Y-89034107D01*
X205966228Y-89040284D01*
X205932998Y-89060733D01*
X205910123Y-89092342D01*
X205903735Y-89110876D01*
X205519336Y-90725349D01*
X205240497Y-89679700D01*
X205238783Y-89675129D01*
X205238528Y-89673208D01*
X205237207Y-89670926D01*
X205233614Y-89661344D01*
X205225589Y-89650861D01*
X205218978Y-89639441D01*
X205213834Y-89635504D01*
X205209898Y-89630361D01*
X205198480Y-89623751D01*
X205187995Y-89615725D01*
X205181730Y-89614054D01*
X205176130Y-89610812D01*
X205163057Y-89609074D01*
X205150294Y-89605671D01*
X205143869Y-89606524D01*
X205137452Y-89605672D01*
X205124700Y-89609072D01*
X205111616Y-89610811D01*
X205106012Y-89614055D01*
X205099751Y-89615725D01*
X205089265Y-89623751D01*
X205077849Y-89630361D01*
X205073913Y-89635502D01*
X205068768Y-89639441D01*
X205062155Y-89650863D01*
X205054133Y-89661344D01*
X205050538Y-89670930D01*
X205049219Y-89673209D01*
X205048963Y-89675128D01*
X205047250Y-89679699D01*
X204768409Y-90725350D01*
X204384011Y-89110876D01*
X204377623Y-89092342D01*
X204354748Y-89060733D01*
X204321518Y-89040284D01*
X204282991Y-89034107D01*
X204245034Y-89043145D01*
X204213425Y-89066020D01*
X204192976Y-89099250D01*
X204186799Y-89137777D01*
X203964577Y-89137777D01*
X203964577Y-88811816D01*
X211749888Y-88811816D01*
X211749888Y-91456260D01*
G37*
G36*
X193067926Y-89311461D02*
G01*
X193140215Y-89383750D01*
X193217639Y-89538597D01*
X193217639Y-89777096D01*
X193140215Y-89931943D01*
X193067927Y-90004233D01*
X192913080Y-90081657D01*
X192274782Y-90081657D01*
X192274782Y-89234038D01*
X192913080Y-89234038D01*
X193067926Y-89311461D01*
G37*
G36*
X197256988Y-91456260D02*
G01*
X191852560Y-91456260D01*
X191852560Y-89134038D01*
X192074782Y-89134038D01*
X192074782Y-91134038D01*
X192076703Y-91153547D01*
X192091635Y-91189595D01*
X192119225Y-91217185D01*
X192155273Y-91232117D01*
X192194291Y-91232117D01*
X192230339Y-91217185D01*
X192257929Y-91189595D01*
X192272861Y-91153547D01*
X192274782Y-91134038D01*
X192274782Y-90281657D01*
X192598907Y-90281657D01*
X193235716Y-91191384D01*
X193248477Y-91206265D01*
X193281382Y-91227233D01*
X193319806Y-91234014D01*
X193357901Y-91225575D01*
X193389866Y-91203199D01*
X193410835Y-91170295D01*
X193417615Y-91131870D01*
X193409176Y-91093775D01*
X193399562Y-91076691D01*
X192843037Y-90281657D01*
X192936687Y-90281657D01*
X192956196Y-90279736D01*
X192959516Y-90278360D01*
X192963100Y-90278106D01*
X192981408Y-90271100D01*
X193171885Y-90175862D01*
X193180282Y-90170576D01*
X193182721Y-90169566D01*
X193185465Y-90167313D01*
X193188475Y-90165419D01*
X193190207Y-90163421D01*
X193197874Y-90157129D01*
X193293112Y-90061890D01*
X193299404Y-90054223D01*
X193301401Y-90052492D01*
X193303294Y-90049484D01*
X193305549Y-90046737D01*
X193306560Y-90044295D01*
X193311844Y-90035901D01*
X193407082Y-89845425D01*
X193414088Y-89827117D01*
X193414342Y-89823533D01*
X193415718Y-89820213D01*
X193417639Y-89800704D01*
X193417639Y-89514990D01*
X193979544Y-89514990D01*
X193979544Y-89705466D01*
X193981465Y-89724975D01*
X193982840Y-89728295D01*
X193983095Y-89731879D01*
X193990101Y-89750187D01*
X194085339Y-89940664D01*
X194090625Y-89949062D01*
X194091635Y-89951499D01*
X194093886Y-89954242D01*
X194095782Y-89957254D01*
X194097779Y-89958986D01*
X194104071Y-89966653D01*
X194199309Y-90061891D01*
X194206975Y-90068182D01*
X194208708Y-90070180D01*
X194211719Y-90072075D01*
X194214463Y-90074327D01*
X194216899Y-90075336D01*
X194225298Y-90080623D01*
X194415774Y-90175861D01*
X194417199Y-90176406D01*
X194417782Y-90176838D01*
X194425975Y-90179765D01*
X194434083Y-90182868D01*
X194434803Y-90182919D01*
X194436242Y-90183433D01*
X194806545Y-90276008D01*
X194972688Y-90359080D01*
X195044977Y-90431369D01*
X195122401Y-90586216D01*
X195122401Y-90729477D01*
X195044977Y-90884324D01*
X194972689Y-90956614D01*
X194817842Y-91034038D01*
X194381485Y-91034038D01*
X194111167Y-90943932D01*
X194092051Y-90939585D01*
X194053131Y-90942351D01*
X194018232Y-90959801D01*
X193992667Y-90989277D01*
X193980329Y-91026293D01*
X193983095Y-91065213D01*
X194000545Y-91100112D01*
X194030021Y-91125677D01*
X194047921Y-91133668D01*
X194333635Y-91228906D01*
X194343306Y-91231105D01*
X194345749Y-91232117D01*
X194349287Y-91232465D01*
X194352751Y-91233253D01*
X194355384Y-91233065D01*
X194365258Y-91234038D01*
X194841449Y-91234038D01*
X194860958Y-91232117D01*
X194864278Y-91230741D01*
X194867862Y-91230487D01*
X194886170Y-91223481D01*
X195076647Y-91128243D01*
X195085044Y-91122957D01*
X195087483Y-91121947D01*
X195090227Y-91119694D01*
X195093237Y-91117800D01*
X195094969Y-91115802D01*
X195102636Y-91109510D01*
X195197874Y-91014271D01*
X195204166Y-91006604D01*
X195206163Y-91004873D01*
X195208056Y-91001865D01*
X195210311Y-90999118D01*
X195211322Y-90996676D01*
X195216606Y-90988282D01*
X195311844Y-90797806D01*
X195318850Y-90779498D01*
X195319104Y-90775914D01*
X195320480Y-90772594D01*
X195322401Y-90753085D01*
X195322401Y-90562609D01*
X195320480Y-90543100D01*
X195319104Y-90539779D01*
X195318850Y-90536196D01*
X195311844Y-90517888D01*
X195216606Y-90327412D01*
X195211319Y-90319013D01*
X195210310Y-90316576D01*
X195208058Y-90313832D01*
X195206163Y-90310821D01*
X195204165Y-90309088D01*
X195197874Y-90301422D01*
X195102636Y-90206184D01*
X195094969Y-90199892D01*
X195093237Y-90197895D01*
X195090225Y-90195999D01*
X195087482Y-90193748D01*
X195085045Y-90192738D01*
X195076647Y-90187452D01*
X194886170Y-90092214D01*
X194884743Y-90091668D01*
X194884163Y-90091238D01*
X194875986Y-90088316D01*
X194867862Y-90085208D01*
X194867139Y-90085156D01*
X194865702Y-90084643D01*
X194495402Y-89992068D01*
X194329256Y-89908994D01*
X194256967Y-89836705D01*
X194179544Y-89681859D01*
X194179544Y-89538597D01*
X194256967Y-89383751D01*
X194329256Y-89311461D01*
X194484104Y-89234038D01*
X194920460Y-89234038D01*
X195190778Y-89324144D01*
X195209894Y-89328491D01*
X195248814Y-89325725D01*
X195283713Y-89308275D01*
X195309278Y-89278799D01*
X195321616Y-89241783D01*
X195318850Y-89202863D01*
X195301400Y-89167964D01*
X195271924Y-89142399D01*
X195254024Y-89134408D01*
X195194387Y-89114529D01*
X195695751Y-89114529D01*
X195695751Y-89153547D01*
X195710683Y-89189595D01*
X195738273Y-89217185D01*
X195774321Y-89232117D01*
X195793830Y-89234038D01*
X196265258Y-89234038D01*
X196265258Y-91134038D01*
X196267179Y-91153547D01*
X196282111Y-91189595D01*
X196309701Y-91217185D01*
X196345749Y-91232117D01*
X196384767Y-91232117D01*
X196420815Y-91217185D01*
X196448405Y-91189595D01*
X196463337Y-91153547D01*
X196465258Y-91134038D01*
X196465258Y-89234038D01*
X196936687Y-89234038D01*
X196956196Y-89232117D01*
X196992244Y-89217185D01*
X197019834Y-89189595D01*
X197034766Y-89153547D01*
X197034766Y-89114529D01*
X197019834Y-89078481D01*
X196992244Y-89050891D01*
X196956196Y-89035959D01*
X196936687Y-89034038D01*
X195793830Y-89034038D01*
X195774321Y-89035959D01*
X195738273Y-89050891D01*
X195710683Y-89078481D01*
X195695751Y-89114529D01*
X195194387Y-89114529D01*
X194968310Y-89039170D01*
X194958638Y-89036970D01*
X194956196Y-89035959D01*
X194952657Y-89035610D01*
X194949194Y-89034823D01*
X194946560Y-89035010D01*
X194936687Y-89034038D01*
X194460496Y-89034038D01*
X194440987Y-89035959D01*
X194437666Y-89037334D01*
X194434083Y-89037589D01*
X194415775Y-89044595D01*
X194225299Y-89139833D01*
X194216900Y-89145119D01*
X194214463Y-89146129D01*
X194211719Y-89148380D01*
X194208708Y-89150276D01*
X194206975Y-89152273D01*
X194199309Y-89158565D01*
X194104071Y-89253803D01*
X194097779Y-89261469D01*
X194095782Y-89263202D01*
X194093886Y-89266213D01*
X194091635Y-89268957D01*
X194090625Y-89271393D01*
X194085339Y-89279792D01*
X193990101Y-89470269D01*
X193983095Y-89488577D01*
X193982840Y-89492160D01*
X193981465Y-89495481D01*
X193979544Y-89514990D01*
X193417639Y-89514990D01*
X193415718Y-89495481D01*
X193414342Y-89492160D01*
X193414088Y-89488577D01*
X193407082Y-89470269D01*
X193311844Y-89279793D01*
X193306557Y-89271394D01*
X193305548Y-89268957D01*
X193303296Y-89266213D01*
X193301401Y-89263202D01*
X193299403Y-89261469D01*
X193293112Y-89253803D01*
X193197874Y-89158565D01*
X193190207Y-89152273D01*
X193188475Y-89150276D01*
X193185463Y-89148380D01*
X193182720Y-89146129D01*
X193180283Y-89145119D01*
X193171885Y-89139833D01*
X192981408Y-89044595D01*
X192963100Y-89037589D01*
X192959516Y-89037334D01*
X192956196Y-89035959D01*
X192936687Y-89034038D01*
X192174782Y-89034038D01*
X192155273Y-89035959D01*
X192119225Y-89050891D01*
X192091635Y-89078481D01*
X192076703Y-89114529D01*
X192074782Y-89134038D01*
X191852560Y-89134038D01*
X191852560Y-88811816D01*
X197256988Y-88811816D01*
X197256988Y-91456260D01*
G37*
D11*
X199527579Y-75638819D02*
X199527579Y-76448342D01*
X199527579Y-76448342D02*
X199575198Y-76543580D01*
X199575198Y-76543580D02*
X199622817Y-76591200D01*
X199622817Y-76591200D02*
X199718055Y-76638819D01*
X199718055Y-76638819D02*
X199908531Y-76638819D01*
X199908531Y-76638819D02*
X200003769Y-76591200D01*
X200003769Y-76591200D02*
X200051388Y-76543580D01*
X200051388Y-76543580D02*
X200099007Y-76448342D01*
X200099007Y-76448342D02*
X200099007Y-75638819D01*
X201099007Y-76638819D02*
X200527579Y-76638819D01*
X200813293Y-76638819D02*
X200813293Y-75638819D01*
X200813293Y-75638819D02*
X200718055Y-75781676D01*
X200718055Y-75781676D02*
X200622817Y-75876914D01*
X200622817Y-75876914D02*
X200527579Y-75924533D01*
X202901514Y-46531319D02*
X202330086Y-46531319D01*
X202615800Y-46531319D02*
X202615800Y-45531319D01*
X202615800Y-45531319D02*
X202520562Y-45674176D01*
X202520562Y-45674176D02*
X202425324Y-45769414D01*
X202425324Y-45769414D02*
X202330086Y-45817033D01*
X205711752Y-44347152D02*
X206092704Y-44347152D01*
X205854609Y-44013819D02*
X205854609Y-44870961D01*
X205854609Y-44870961D02*
X205902228Y-44966200D01*
X205902228Y-44966200D02*
X205997466Y-45013819D01*
X205997466Y-45013819D02*
X206092704Y-45013819D01*
X206568895Y-45013819D02*
X206473657Y-44966200D01*
X206473657Y-44966200D02*
X206426038Y-44918580D01*
X206426038Y-44918580D02*
X206378419Y-44823342D01*
X206378419Y-44823342D02*
X206378419Y-44537628D01*
X206378419Y-44537628D02*
X206426038Y-44442390D01*
X206426038Y-44442390D02*
X206473657Y-44394771D01*
X206473657Y-44394771D02*
X206568895Y-44347152D01*
X206568895Y-44347152D02*
X206711752Y-44347152D01*
X206711752Y-44347152D02*
X206806990Y-44394771D01*
X206806990Y-44394771D02*
X206854609Y-44442390D01*
X206854609Y-44442390D02*
X206902228Y-44537628D01*
X206902228Y-44537628D02*
X206902228Y-44823342D01*
X206902228Y-44823342D02*
X206854609Y-44918580D01*
X206854609Y-44918580D02*
X206806990Y-44966200D01*
X206806990Y-44966200D02*
X206711752Y-45013819D01*
X206711752Y-45013819D02*
X206568895Y-45013819D01*
X207330800Y-44347152D02*
X207330800Y-45347152D01*
X207330800Y-44394771D02*
X207426038Y-44347152D01*
X207426038Y-44347152D02*
X207616514Y-44347152D01*
X207616514Y-44347152D02*
X207711752Y-44394771D01*
X207711752Y-44394771D02*
X207759371Y-44442390D01*
X207759371Y-44442390D02*
X207806990Y-44537628D01*
X207806990Y-44537628D02*
X207806990Y-44823342D01*
X207806990Y-44823342D02*
X207759371Y-44918580D01*
X207759371Y-44918580D02*
X207711752Y-44966200D01*
X207711752Y-44966200D02*
X207616514Y-45013819D01*
X207616514Y-45013819D02*
X207426038Y-45013819D01*
X207426038Y-45013819D02*
X207330800Y-44966200D01*
X208187943Y-44966200D02*
X208283181Y-45013819D01*
X208283181Y-45013819D02*
X208473657Y-45013819D01*
X208473657Y-45013819D02*
X208568895Y-44966200D01*
X208568895Y-44966200D02*
X208616514Y-44870961D01*
X208616514Y-44870961D02*
X208616514Y-44823342D01*
X208616514Y-44823342D02*
X208568895Y-44728104D01*
X208568895Y-44728104D02*
X208473657Y-44680485D01*
X208473657Y-44680485D02*
X208330800Y-44680485D01*
X208330800Y-44680485D02*
X208235562Y-44632866D01*
X208235562Y-44632866D02*
X208187943Y-44537628D01*
X208187943Y-44537628D02*
X208187943Y-44490009D01*
X208187943Y-44490009D02*
X208235562Y-44394771D01*
X208235562Y-44394771D02*
X208330800Y-44347152D01*
X208330800Y-44347152D02*
X208473657Y-44347152D01*
X208473657Y-44347152D02*
X208568895Y-44394771D01*
X209045086Y-45013819D02*
X209045086Y-44347152D01*
X209045086Y-44013819D02*
X208997467Y-44061438D01*
X208997467Y-44061438D02*
X209045086Y-44109057D01*
X209045086Y-44109057D02*
X209092705Y-44061438D01*
X209092705Y-44061438D02*
X209045086Y-44013819D01*
X209045086Y-44013819D02*
X209045086Y-44109057D01*
X209949847Y-45013819D02*
X209949847Y-44013819D01*
X209949847Y-44966200D02*
X209854609Y-45013819D01*
X209854609Y-45013819D02*
X209664133Y-45013819D01*
X209664133Y-45013819D02*
X209568895Y-44966200D01*
X209568895Y-44966200D02*
X209521276Y-44918580D01*
X209521276Y-44918580D02*
X209473657Y-44823342D01*
X209473657Y-44823342D02*
X209473657Y-44537628D01*
X209473657Y-44537628D02*
X209521276Y-44442390D01*
X209521276Y-44442390D02*
X209568895Y-44394771D01*
X209568895Y-44394771D02*
X209664133Y-44347152D01*
X209664133Y-44347152D02*
X209854609Y-44347152D01*
X209854609Y-44347152D02*
X209949847Y-44394771D01*
X210806990Y-44966200D02*
X210711752Y-45013819D01*
X210711752Y-45013819D02*
X210521276Y-45013819D01*
X210521276Y-45013819D02*
X210426038Y-44966200D01*
X210426038Y-44966200D02*
X210378419Y-44870961D01*
X210378419Y-44870961D02*
X210378419Y-44490009D01*
X210378419Y-44490009D02*
X210426038Y-44394771D01*
X210426038Y-44394771D02*
X210521276Y-44347152D01*
X210521276Y-44347152D02*
X210711752Y-44347152D01*
X210711752Y-44347152D02*
X210806990Y-44394771D01*
X210806990Y-44394771D02*
X210854609Y-44490009D01*
X210854609Y-44490009D02*
X210854609Y-44585247D01*
X210854609Y-44585247D02*
X210378419Y-44680485D01*
X207068895Y-42613819D02*
X207068895Y-43423342D01*
X207068895Y-43423342D02*
X207116514Y-43518580D01*
X207116514Y-43518580D02*
X207164133Y-43566200D01*
X207164133Y-43566200D02*
X207259371Y-43613819D01*
X207259371Y-43613819D02*
X207449847Y-43613819D01*
X207449847Y-43613819D02*
X207545085Y-43566200D01*
X207545085Y-43566200D02*
X207592704Y-43518580D01*
X207592704Y-43518580D02*
X207640323Y-43423342D01*
X207640323Y-43423342D02*
X207640323Y-42613819D01*
X208068895Y-43566200D02*
X208211752Y-43613819D01*
X208211752Y-43613819D02*
X208449847Y-43613819D01*
X208449847Y-43613819D02*
X208545085Y-43566200D01*
X208545085Y-43566200D02*
X208592704Y-43518580D01*
X208592704Y-43518580D02*
X208640323Y-43423342D01*
X208640323Y-43423342D02*
X208640323Y-43328104D01*
X208640323Y-43328104D02*
X208592704Y-43232866D01*
X208592704Y-43232866D02*
X208545085Y-43185247D01*
X208545085Y-43185247D02*
X208449847Y-43137628D01*
X208449847Y-43137628D02*
X208259371Y-43090009D01*
X208259371Y-43090009D02*
X208164133Y-43042390D01*
X208164133Y-43042390D02*
X208116514Y-42994771D01*
X208116514Y-42994771D02*
X208068895Y-42899533D01*
X208068895Y-42899533D02*
X208068895Y-42804295D01*
X208068895Y-42804295D02*
X208116514Y-42709057D01*
X208116514Y-42709057D02*
X208164133Y-42661438D01*
X208164133Y-42661438D02*
X208259371Y-42613819D01*
X208259371Y-42613819D02*
X208497466Y-42613819D01*
X208497466Y-42613819D02*
X208640323Y-42661438D01*
X209402228Y-43090009D02*
X209545085Y-43137628D01*
X209545085Y-43137628D02*
X209592704Y-43185247D01*
X209592704Y-43185247D02*
X209640323Y-43280485D01*
X209640323Y-43280485D02*
X209640323Y-43423342D01*
X209640323Y-43423342D02*
X209592704Y-43518580D01*
X209592704Y-43518580D02*
X209545085Y-43566200D01*
X209545085Y-43566200D02*
X209449847Y-43613819D01*
X209449847Y-43613819D02*
X209068895Y-43613819D01*
X209068895Y-43613819D02*
X209068895Y-42613819D01*
X209068895Y-42613819D02*
X209402228Y-42613819D01*
X209402228Y-42613819D02*
X209497466Y-42661438D01*
X209497466Y-42661438D02*
X209545085Y-42709057D01*
X209545085Y-42709057D02*
X209592704Y-42804295D01*
X209592704Y-42804295D02*
X209592704Y-42899533D01*
X209592704Y-42899533D02*
X209545085Y-42994771D01*
X209545085Y-42994771D02*
X209497466Y-43042390D01*
X209497466Y-43042390D02*
X209402228Y-43090009D01*
X209402228Y-43090009D02*
X209068895Y-43090009D01*
X206064676Y-81214200D02*
X206207533Y-81261819D01*
X206207533Y-81261819D02*
X206445628Y-81261819D01*
X206445628Y-81261819D02*
X206540866Y-81214200D01*
X206540866Y-81214200D02*
X206588485Y-81166580D01*
X206588485Y-81166580D02*
X206636104Y-81071342D01*
X206636104Y-81071342D02*
X206636104Y-80976104D01*
X206636104Y-80976104D02*
X206588485Y-80880866D01*
X206588485Y-80880866D02*
X206540866Y-80833247D01*
X206540866Y-80833247D02*
X206445628Y-80785628D01*
X206445628Y-80785628D02*
X206255152Y-80738009D01*
X206255152Y-80738009D02*
X206159914Y-80690390D01*
X206159914Y-80690390D02*
X206112295Y-80642771D01*
X206112295Y-80642771D02*
X206064676Y-80547533D01*
X206064676Y-80547533D02*
X206064676Y-80452295D01*
X206064676Y-80452295D02*
X206112295Y-80357057D01*
X206112295Y-80357057D02*
X206159914Y-80309438D01*
X206159914Y-80309438D02*
X206255152Y-80261819D01*
X206255152Y-80261819D02*
X206493247Y-80261819D01*
X206493247Y-80261819D02*
X206636104Y-80309438D01*
X206969438Y-80261819D02*
X207207533Y-81261819D01*
X207207533Y-81261819D02*
X207398009Y-80547533D01*
X207398009Y-80547533D02*
X207588485Y-81261819D01*
X207588485Y-81261819D02*
X207826581Y-80261819D01*
X208159914Y-80357057D02*
X208207533Y-80309438D01*
X208207533Y-80309438D02*
X208302771Y-80261819D01*
X208302771Y-80261819D02*
X208540866Y-80261819D01*
X208540866Y-80261819D02*
X208636104Y-80309438D01*
X208636104Y-80309438D02*
X208683723Y-80357057D01*
X208683723Y-80357057D02*
X208731342Y-80452295D01*
X208731342Y-80452295D02*
X208731342Y-80547533D01*
X208731342Y-80547533D02*
X208683723Y-80690390D01*
X208683723Y-80690390D02*
X208112295Y-81261819D01*
X208112295Y-81261819D02*
X208731342Y-81261819D01*
X209064676Y-80261819D02*
X209731342Y-80261819D01*
X209731342Y-80261819D02*
X209302771Y-81261819D01*
X193047967Y-81214200D02*
X193190824Y-81261819D01*
X193190824Y-81261819D02*
X193428919Y-81261819D01*
X193428919Y-81261819D02*
X193524157Y-81214200D01*
X193524157Y-81214200D02*
X193571776Y-81166580D01*
X193571776Y-81166580D02*
X193619395Y-81071342D01*
X193619395Y-81071342D02*
X193619395Y-80976104D01*
X193619395Y-80976104D02*
X193571776Y-80880866D01*
X193571776Y-80880866D02*
X193524157Y-80833247D01*
X193524157Y-80833247D02*
X193428919Y-80785628D01*
X193428919Y-80785628D02*
X193238443Y-80738009D01*
X193238443Y-80738009D02*
X193143205Y-80690390D01*
X193143205Y-80690390D02*
X193095586Y-80642771D01*
X193095586Y-80642771D02*
X193047967Y-80547533D01*
X193047967Y-80547533D02*
X193047967Y-80452295D01*
X193047967Y-80452295D02*
X193095586Y-80357057D01*
X193095586Y-80357057D02*
X193143205Y-80309438D01*
X193143205Y-80309438D02*
X193238443Y-80261819D01*
X193238443Y-80261819D02*
X193476538Y-80261819D01*
X193476538Y-80261819D02*
X193619395Y-80309438D01*
X193952729Y-80261819D02*
X194190824Y-81261819D01*
X194190824Y-81261819D02*
X194381300Y-80547533D01*
X194381300Y-80547533D02*
X194571776Y-81261819D01*
X194571776Y-81261819D02*
X194809872Y-80261819D01*
X195143205Y-80357057D02*
X195190824Y-80309438D01*
X195190824Y-80309438D02*
X195286062Y-80261819D01*
X195286062Y-80261819D02*
X195524157Y-80261819D01*
X195524157Y-80261819D02*
X195619395Y-80309438D01*
X195619395Y-80309438D02*
X195667014Y-80357057D01*
X195667014Y-80357057D02*
X195714633Y-80452295D01*
X195714633Y-80452295D02*
X195714633Y-80547533D01*
X195714633Y-80547533D02*
X195667014Y-80690390D01*
X195667014Y-80690390D02*
X195095586Y-81261819D01*
X195095586Y-81261819D02*
X195714633Y-81261819D01*
X192329467Y-46797000D02*
X192472324Y-46844619D01*
X192472324Y-46844619D02*
X192710419Y-46844619D01*
X192710419Y-46844619D02*
X192805657Y-46797000D01*
X192805657Y-46797000D02*
X192853276Y-46749380D01*
X192853276Y-46749380D02*
X192900895Y-46654142D01*
X192900895Y-46654142D02*
X192900895Y-46558904D01*
X192900895Y-46558904D02*
X192853276Y-46463666D01*
X192853276Y-46463666D02*
X192805657Y-46416047D01*
X192805657Y-46416047D02*
X192710419Y-46368428D01*
X192710419Y-46368428D02*
X192519943Y-46320809D01*
X192519943Y-46320809D02*
X192424705Y-46273190D01*
X192424705Y-46273190D02*
X192377086Y-46225571D01*
X192377086Y-46225571D02*
X192329467Y-46130333D01*
X192329467Y-46130333D02*
X192329467Y-46035095D01*
X192329467Y-46035095D02*
X192377086Y-45939857D01*
X192377086Y-45939857D02*
X192424705Y-45892238D01*
X192424705Y-45892238D02*
X192519943Y-45844619D01*
X192519943Y-45844619D02*
X192758038Y-45844619D01*
X192758038Y-45844619D02*
X192900895Y-45892238D01*
X193234229Y-45844619D02*
X193472324Y-46844619D01*
X193472324Y-46844619D02*
X193662800Y-46130333D01*
X193662800Y-46130333D02*
X193853276Y-46844619D01*
X193853276Y-46844619D02*
X194091372Y-45844619D01*
X194996133Y-46844619D02*
X194424705Y-46844619D01*
X194710419Y-46844619D02*
X194710419Y-45844619D01*
X194710419Y-45844619D02*
X194615181Y-45987476D01*
X194615181Y-45987476D02*
X194519943Y-46082714D01*
X194519943Y-46082714D02*
X194424705Y-46130333D01*
X106784445Y-39067769D02*
X106784445Y-38067769D01*
X106784445Y-38543959D02*
X107355873Y-38543959D01*
X107355873Y-39067769D02*
X107355873Y-38067769D01*
X108260635Y-38401102D02*
X108260635Y-39067769D01*
X108022540Y-38020150D02*
X107784445Y-38734435D01*
X107784445Y-38734435D02*
X108403492Y-38734435D01*
X109959245Y-115659819D02*
X109959245Y-114659819D01*
X109959245Y-115136009D02*
X110530673Y-115136009D01*
X110530673Y-115659819D02*
X110530673Y-114659819D01*
X110911626Y-114659819D02*
X111530673Y-114659819D01*
X111530673Y-114659819D02*
X111197340Y-115040771D01*
X111197340Y-115040771D02*
X111340197Y-115040771D01*
X111340197Y-115040771D02*
X111435435Y-115088390D01*
X111435435Y-115088390D02*
X111483054Y-115136009D01*
X111483054Y-115136009D02*
X111530673Y-115231247D01*
X111530673Y-115231247D02*
X111530673Y-115469342D01*
X111530673Y-115469342D02*
X111483054Y-115564580D01*
X111483054Y-115564580D02*
X111435435Y-115612200D01*
X111435435Y-115612200D02*
X111340197Y-115659819D01*
X111340197Y-115659819D02*
X111054483Y-115659819D01*
X111054483Y-115659819D02*
X110959245Y-115612200D01*
X110959245Y-115612200D02*
X110911626Y-115564580D01*
X175042645Y-132724369D02*
X175042645Y-131724369D01*
X175042645Y-132200559D02*
X175614073Y-132200559D01*
X175614073Y-132724369D02*
X175614073Y-131724369D01*
X176042645Y-131819607D02*
X176090264Y-131771988D01*
X176090264Y-131771988D02*
X176185502Y-131724369D01*
X176185502Y-131724369D02*
X176423597Y-131724369D01*
X176423597Y-131724369D02*
X176518835Y-131771988D01*
X176518835Y-131771988D02*
X176566454Y-131819607D01*
X176566454Y-131819607D02*
X176614073Y-131914845D01*
X176614073Y-131914845D02*
X176614073Y-132010083D01*
X176614073Y-132010083D02*
X176566454Y-132152940D01*
X176566454Y-132152940D02*
X175995026Y-132724369D01*
X175995026Y-132724369D02*
X176614073Y-132724369D01*
X215544495Y-82293619D02*
X215544495Y-81293619D01*
X215544495Y-81769809D02*
X216115923Y-81769809D01*
X216115923Y-82293619D02*
X216115923Y-81293619D01*
X217115923Y-82293619D02*
X216544495Y-82293619D01*
X216830209Y-82293619D02*
X216830209Y-81293619D01*
X216830209Y-81293619D02*
X216734971Y-81436476D01*
X216734971Y-81436476D02*
X216639733Y-81531714D01*
X216639733Y-81531714D02*
X216544495Y-81579333D01*
%TO.C,U1*%
X204780800Y-45744000D02*
X204780800Y-42164000D01*
X211880800Y-45744000D02*
X204780800Y-45744000D01*
X211880800Y-45744000D02*
X211880800Y-42164000D01*
X199440800Y-42164000D02*
X217220800Y-42164000D01*
X217220800Y-75184000D01*
X199440800Y-75184000D01*
X199440800Y-42164000D01*
D12*
%TO.C,SW27*%
X204374200Y-84307000D02*
X204374200Y-85807000D01*
X205624200Y-88307000D02*
X210124200Y-88307000D01*
X210124200Y-81807000D02*
X205624200Y-81807000D01*
X211374200Y-85807000D02*
X211374200Y-84307000D01*
%TO.C,SW2*%
X190881300Y-84307000D02*
X190881300Y-85807000D01*
X192131300Y-88307000D02*
X196631300Y-88307000D01*
X196631300Y-81807000D02*
X192131300Y-81807000D01*
X197881300Y-85807000D02*
X197881300Y-84307000D01*
%TO.C,SW1*%
X197112800Y-43259800D02*
X197112800Y-42469800D01*
X196512800Y-41459800D02*
X190812800Y-41459800D01*
X195262800Y-44309800D02*
X193562800Y-44309800D01*
X195062800Y-41459800D02*
X195062800Y-40169800D01*
X195062800Y-40169800D02*
X194862800Y-39959800D01*
X194862800Y-39959800D02*
X193962800Y-39959800D01*
X193762800Y-40169800D02*
X193962800Y-39959800D01*
X193762800Y-40169800D02*
X193762800Y-41459800D01*
X192262800Y-44309800D02*
X192062800Y-44309800D01*
X190212800Y-42469800D02*
X190212800Y-43259800D01*
%TD*%
M02*
