M48
; DRILL file {KiCad 8.0.8} date 2025-02-12T11:53:28+0100
; FORMAT={-:-/ absolute / inch / decimal}
; #@! TF.CreationDate,2025-02-12T11:53:28+01:00
; #@! TF.GenerationSoftware,Kicad,Pcbnew,8.0.8
; #@! TF.FileFunction,Plated,1,2,PTH
FMAT,2
INCH
; #@! TA.AperFunction,Plated,PTH,ViaDrill
T1C0.0118
; #@! TA.AperFunction,Plated,PTH,ComponentDrill
T2C0.0394
; #@! TA.AperFunction,Plated,PTH,ComponentDrill
T3C0.0433
; #@! TA.AperFunction,Plated,PTH,ComponentDrill
T4C0.1181
; #@! TA.AperFunction,Plated,PTH,ComponentDrill
T5C0.1260
%
G90
G05
T1
X5.81Y-5.006
X6.188Y-5.618
X6.4371Y-2.97
X6.484Y-3.2654
X6.536Y-3.9216
X6.608Y-3.648
X6.612Y-2.908
X6.614Y-2.3584
X6.676Y-4.16
X6.734Y-4.656
X7.068Y-4.966
X7.354Y-2.2371
X7.354Y-2.778
X7.358Y-3.52
X7.362Y-4.048
X7.652Y-5.12
X8.102Y-2.2095
X8.102Y-2.652
X8.102Y-3.414
X8.104Y-3.87
X8.856Y-2.836
X8.856Y-3.568
X8.856Y-4.024
X8.858Y-2.182
X9.604Y-2.2811
X9.606Y-3.05
X9.606Y-3.804
X9.608Y-4.246
X10.354Y-2.3436
X10.354Y-3.042
X10.354Y-3.794
X10.354Y-4.228
T2
X5.316Y-1.836
X5.316Y-1.936
X5.316Y-2.036
X5.316Y-2.136
X5.316Y-2.236
X5.316Y-2.336
X5.316Y-2.436
X5.316Y-2.536
X5.316Y-2.636
X5.316Y-2.736
X5.316Y-2.836
X5.316Y-2.936
X5.316Y-3.036
X5.437Y-2.9142
X5.537Y-2.9142
X5.637Y-2.9142
X5.916Y-1.836
X5.916Y-1.936
X5.916Y-2.036
X5.916Y-2.136
X5.916Y-2.236
X5.916Y-2.336
X5.916Y-2.436
X5.916Y-2.536
X5.916Y-2.636
X5.916Y-2.736
X5.916Y-2.836
X5.916Y-2.936
X5.916Y-3.036
X6.1043Y-2.083
X6.2027Y-2.083
T3
X5.5221Y-3.3799
X5.5221Y-3.5571
X5.778Y-3.3799
X5.778Y-3.5571
X6.034Y-3.3799
X6.034Y-3.5571
X6.29Y-3.3799
X6.29Y-3.5571
T4
X5.8447Y-4.7886
X6.0112Y-4.577
X6.2201Y-5.4384
X6.3866Y-5.2268
X6.745Y-3.515
X6.745Y-2.015
X6.745Y-2.765
X6.745Y-4.265
X6.995Y-3.415
X6.995Y-1.915
X6.995Y-2.665
X6.995Y-4.165
X7.17Y-5.11
X7.42Y-5.01
X7.495Y-1.92
X7.495Y-2.67
X7.495Y-3.42
X7.495Y-4.17
X7.745Y-1.82
X7.745Y-2.57
X7.745Y-3.32
X7.745Y-4.07
X7.9209Y-5.0181
X8.1709Y-4.9181
X8.245Y-2.51
X8.245Y-3.26
X8.245Y-1.76
X8.245Y-4.01
X8.495Y-2.41
X8.495Y-3.16
X8.495Y-1.66
X8.495Y-3.91
X8.995Y-4.17
X8.995Y-1.92
X8.995Y-2.67
X8.995Y-3.42
X9.245Y-4.07
X9.245Y-1.82
X9.245Y-2.57
X9.245Y-3.32
X9.745Y-4.39
X9.745Y-2.14
X9.745Y-2.89
X9.745Y-3.64
X9.995Y-4.29
X9.995Y-2.04
X9.995Y-2.79
X9.995Y-3.54
X10.495Y-2.14
X10.495Y-2.89
X10.495Y-4.39
X10.495Y-3.64
X10.745Y-2.04
X10.745Y-2.79
X10.745Y-4.29
X10.745Y-3.54
T5
X5.3903Y-3.2185
X6.902Y-5.48
X9.486Y-4.808
X9.6Y-1.784
M30
