%TF.GenerationSoftware,KiCad,Pcbnew,8.0.8*%
%TF.CreationDate,2025-02-12T11:53:30+01:00*%
%TF.ProjectId,PCB_d,5043425f-642e-46b6-9963-61645f706362,rev?*%
%TF.SameCoordinates,Original*%
%TF.FileFunction,Soldermask,Top*%
%TF.FilePolarity,Negative*%
%FSLAX46Y46*%
G04 Gerber Fmt 4.6, Leading zero omitted, Abs format (unit mm)*
G04 Created by KiCad (PCBNEW 8.0.8) date 2025-02-12 11:53:30*
%MOMM*%
%LPD*%
G01*
G04 APERTURE LIST*
G04 Aperture macros list*
%AMRoundRect*
0 Rectangle with rounded corners*
0 $1 Rounding radius*
0 $2 $3 $4 $5 $6 $7 $8 $9 X,Y pos of 4 corners*
0 Add a 4 corners polygon primitive as box body*
4,1,4,$2,$3,$4,$5,$6,$7,$8,$9,$2,$3,0*
0 Add four circle primitives for the rounded corners*
1,1,$1+$1,$2,$3*
1,1,$1+$1,$4,$5*
1,1,$1+$1,$6,$7*
1,1,$1+$1,$8,$9*
0 Add four rect primitives between the rounded corners*
20,1,$1+$1,$2,$3,$4,$5,0*
20,1,$1+$1,$4,$5,$6,$7,0*
20,1,$1+$1,$6,$7,$8,$9,0*
20,1,$1+$1,$8,$9,$2,$3,0*%
G04 Aperture macros list end*
%ADD10C,5.700000*%
%ADD11C,1.200000*%
%ADD12RoundRect,0.250000X-0.600000X-0.750000X0.600000X-0.750000X0.600000X0.750000X-0.600000X0.750000X0*%
%ADD13O,1.700000X2.000000*%
%ADD14C,2.000000*%
%ADD15R,1.000000X0.800000*%
%ADD16C,0.900000*%
%ADD17R,0.700000X1.500000*%
%ADD18C,1.750000*%
%ADD19C,3.987800*%
%ADD20C,3.300000*%
G04 APERTURE END LIST*
D10*
%TO.C,H4*%
X175310800Y-139192000D03*
%TD*%
%TO.C,H3*%
X243840000Y-45313600D03*
%TD*%
%TO.C,H2*%
X240944400Y-122123200D03*
%TD*%
%TO.C,H1*%
X136913250Y-81751100D03*
%TD*%
D11*
%TO.C,J3*%
X153449450Y-50909200D03*
D12*
X155049450Y-52909200D03*
D13*
X157549450Y-52909200D03*
%TD*%
D14*
%TO.C,SW27*%
X146761200Y-90350700D03*
X140261200Y-90350700D03*
X146761200Y-85850700D03*
X140261200Y-85850700D03*
%TD*%
D15*
%TO.C,SW2*%
X160008900Y-47211450D03*
X160008900Y-45001450D03*
D16*
X157858900Y-46101450D03*
X154858900Y-46101450D03*
D15*
X152708900Y-47211450D03*
X152708900Y-45001450D03*
D17*
X158608900Y-47861450D03*
X155608900Y-47861450D03*
X154108900Y-47861450D03*
%TD*%
D14*
%TO.C,SW1*%
X159764800Y-90350700D03*
X153264800Y-90350700D03*
X159764800Y-85850700D03*
X153264800Y-85850700D03*
%TD*%
D18*
%TO.C,SW24*%
X180212648Y-72771000D03*
D19*
X175132648Y-72771000D03*
D18*
X170052648Y-72771000D03*
D20*
X171322648Y-70231000D03*
X177672648Y-67691000D03*
%TD*%
D18*
%TO.C,SW12*%
X237362648Y-70358000D03*
D19*
X232282648Y-70358000D03*
D18*
X227202648Y-70358000D03*
D20*
X228472648Y-67818000D03*
X234822648Y-65278000D03*
%TD*%
D18*
%TO.C,SW35*%
X157424409Y-119385000D03*
D19*
X153025000Y-121925000D03*
D18*
X148625591Y-124465000D03*
D20*
X148455443Y-121630295D03*
X152684705Y-116255591D03*
%TD*%
D18*
%TO.C,SW8*%
X275462472Y-114046000D03*
D19*
X270382472Y-114046000D03*
D18*
X265302472Y-114046000D03*
D20*
X266572472Y-111506000D03*
X272922472Y-108966000D03*
%TD*%
D18*
%TO.C,SW13*%
X237362648Y-89408000D03*
D19*
X232282648Y-89408000D03*
D18*
X227202648Y-89408000D03*
D20*
X228472648Y-86868000D03*
X234822648Y-84328000D03*
%TD*%
D18*
%TO.C,SW16*%
X218312472Y-66294000D03*
D19*
X213232472Y-66294000D03*
D18*
X208152472Y-66294000D03*
D20*
X209422472Y-63754000D03*
X215772472Y-61214000D03*
%TD*%
D18*
%TO.C,SW25*%
X180212472Y-91821000D03*
D19*
X175132472Y-91821000D03*
D18*
X170052472Y-91821000D03*
D20*
X171322472Y-89281000D03*
X177672472Y-86741000D03*
%TD*%
D18*
%TO.C,SW26*%
X180212648Y-110871000D03*
D19*
X175132648Y-110871000D03*
D18*
X170052648Y-110871000D03*
D20*
X171322648Y-108331000D03*
X177672648Y-105791000D03*
%TD*%
D18*
%TO.C,SW21*%
X199262648Y-89408000D03*
D19*
X194182648Y-89408000D03*
D18*
X189102648Y-89408000D03*
D20*
X190372648Y-86868000D03*
X196722648Y-84328000D03*
%TD*%
D18*
%TO.C,SW37*%
X191008000Y-132334000D03*
D19*
X185928000Y-132334000D03*
D18*
X180848000Y-132334000D03*
D20*
X182118000Y-129794000D03*
X188468000Y-127254000D03*
%TD*%
D18*
%TO.C,SW7*%
X256412648Y-75946000D03*
D19*
X251332648Y-75946000D03*
D18*
X246252648Y-75946000D03*
D20*
X247522648Y-73406000D03*
X253872648Y-70866000D03*
%TD*%
D18*
%TO.C,SW20*%
X199262472Y-70358000D03*
D19*
X194182472Y-70358000D03*
D18*
X189102472Y-70358000D03*
D20*
X190372472Y-67818000D03*
X196722472Y-65278000D03*
%TD*%
D18*
%TO.C,SW38*%
X210080000Y-130000000D03*
D19*
X205000000Y-130000000D03*
D18*
X199920000Y-130000000D03*
D20*
X201190000Y-127460000D03*
X207540000Y-124920000D03*
%TD*%
D18*
%TO.C,SW19*%
X199262472Y-51308000D03*
D19*
X194182472Y-51308000D03*
D18*
X189102472Y-51308000D03*
D20*
X190372472Y-48768000D03*
X196722472Y-46228000D03*
%TD*%
D18*
%TO.C,SW17*%
X218312472Y-85344000D03*
D19*
X213232472Y-85344000D03*
D18*
X208152472Y-85344000D03*
D20*
X209422472Y-82804000D03*
X215772472Y-80264000D03*
%TD*%
D18*
%TO.C,SW36*%
X166959409Y-135890000D03*
D19*
X162560000Y-138430000D03*
D18*
X158160591Y-140970000D03*
D20*
X157990443Y-138135295D03*
X162219705Y-132760591D03*
%TD*%
D18*
%TO.C,SW9*%
X256412648Y-94996000D03*
D19*
X251332648Y-94996000D03*
D18*
X246252648Y-94996000D03*
D20*
X247522648Y-92456000D03*
X253872648Y-89916000D03*
%TD*%
D18*
%TO.C,SW22*%
X199262648Y-108458000D03*
D19*
X194182648Y-108458000D03*
D18*
X189102648Y-108458000D03*
D20*
X190372648Y-105918000D03*
X196722648Y-103378000D03*
%TD*%
D18*
%TO.C,SW6*%
X256412648Y-56896000D03*
D19*
X251332648Y-56896000D03*
D18*
X246252648Y-56896000D03*
D20*
X247522648Y-54356000D03*
X253872648Y-51816000D03*
%TD*%
D18*
%TO.C,SW18*%
X218312648Y-104394000D03*
D19*
X213232648Y-104394000D03*
D18*
X208152648Y-104394000D03*
D20*
X209422648Y-101854000D03*
X215772648Y-99314000D03*
%TD*%
D18*
%TO.C,SW3*%
X275462648Y-94996000D03*
D19*
X270382648Y-94996000D03*
D18*
X265302648Y-94996000D03*
D20*
X266572648Y-92456000D03*
X272922648Y-89916000D03*
%TD*%
D18*
%TO.C,SW10*%
X256412472Y-114046000D03*
D19*
X251332472Y-114046000D03*
D18*
X246252472Y-114046000D03*
D20*
X247522472Y-111506000D03*
X253872472Y-108966000D03*
%TD*%
D18*
%TO.C,SW14*%
X237362472Y-108458000D03*
D19*
X232282472Y-108458000D03*
D18*
X227202472Y-108458000D03*
D20*
X228472472Y-105918000D03*
X234822472Y-103378000D03*
%TD*%
D18*
%TO.C,SW4*%
X275462472Y-56896000D03*
D19*
X270382472Y-56896000D03*
D18*
X265302472Y-56896000D03*
D20*
X266572472Y-54356000D03*
X272922472Y-51816000D03*
%TD*%
D18*
%TO.C,SW23*%
X180212648Y-53721000D03*
D19*
X175132648Y-53721000D03*
D18*
X170052648Y-53721000D03*
D20*
X171322648Y-51181000D03*
X177672648Y-48641000D03*
%TD*%
D18*
%TO.C,SW5*%
X275462472Y-75946000D03*
D19*
X270382472Y-75946000D03*
D18*
X265302472Y-75946000D03*
D20*
X266572472Y-73406000D03*
X272922472Y-70866000D03*
%TD*%
D18*
%TO.C,SW15*%
X218312648Y-47244000D03*
D19*
X213232648Y-47244000D03*
D18*
X208152648Y-47244000D03*
D20*
X209422648Y-44704000D03*
X215772648Y-42164000D03*
%TD*%
D18*
%TO.C,SW11*%
X237362648Y-51308000D03*
D19*
X232282648Y-51308000D03*
D18*
X227202648Y-51308000D03*
D20*
X228472648Y-48768000D03*
X234822648Y-46228000D03*
%TD*%
M02*
