M48
; DRILL file {KiCad 8.0.8} date 2025-02-12T11:53:28+0100
; FORMAT={-:-/ absolute / inch / decimal}
; #@! TF.CreationDate,2025-02-12T11:53:28+01:00
; #@! TF.GenerationSoftware,Kicad,Pcbnew,8.0.8
; #@! TF.FileFunction,NonPlated,1,2,NPTH
FMAT,2
INCH
; #@! TA.AperFunction,NonPlated,NPTH,ComponentDrill
T1C0.0354
; #@! TA.AperFunction,NonPlated,NPTH,ComponentDrill
T2C0.0472
; #@! TA.AperFunction,NonPlated,NPTH,ComponentDrill
T3C0.0689
; #@! TA.AperFunction,NonPlated,NPTH,ComponentDrill
T4C0.1570
%
G90
G05
T1
X6.0968Y-1.815
X6.2149Y-1.815
T2
X6.0413Y-2.0043
T3
X5.8514Y-4.9002
X6.1978Y-4.7002
X6.2268Y-5.55
X6.5732Y-5.35
X6.695Y-3.615
X6.695Y-2.115
X6.695Y-2.865
X6.695Y-4.365
X7.095Y-3.615
X7.095Y-2.115
X7.095Y-2.865
X7.095Y-4.365
X7.12Y-5.21
X7.445Y-2.02
X7.445Y-2.77
X7.445Y-3.52
X7.445Y-4.27
X7.52Y-5.21
X7.845Y-2.02
X7.845Y-2.77
X7.845Y-3.52
X7.845Y-4.27
X7.8709Y-5.1181
X8.195Y-2.61
X8.195Y-3.36
X8.195Y-1.86
X8.195Y-4.11
X8.2709Y-5.1181
X8.595Y-2.61
X8.595Y-3.36
X8.595Y-1.86
X8.595Y-4.11
X8.945Y-4.27
X8.945Y-2.02
X8.945Y-2.77
X8.945Y-3.52
X9.345Y-4.27
X9.345Y-2.02
X9.345Y-2.77
X9.345Y-3.52
X9.695Y-4.49
X9.695Y-2.24
X9.695Y-2.99
X9.695Y-3.74
X10.095Y-4.49
X10.095Y-2.24
X10.095Y-2.99
X10.095Y-3.74
X10.445Y-2.24
X10.445Y-2.99
X10.445Y-4.49
X10.445Y-3.74
X10.845Y-2.24
X10.845Y-2.99
X10.845Y-4.49
X10.845Y-3.74
T4
X6.0246Y-4.8002
X6.4Y-5.45
X6.895Y-3.615
X6.895Y-2.115
X6.895Y-2.865
X6.895Y-4.365
X7.32Y-5.21
X7.645Y-2.02
X7.645Y-2.77
X7.645Y-3.52
X7.645Y-4.27
X8.0709Y-5.1181
X8.395Y-2.61
X8.395Y-3.36
X8.395Y-1.86
X8.395Y-4.11
X9.145Y-4.27
X9.145Y-2.02
X9.145Y-2.77
X9.145Y-3.52
X9.895Y-4.49
X9.895Y-2.24
X9.895Y-2.99
X9.895Y-3.74
X10.645Y-2.24
X10.645Y-2.99
X10.645Y-4.49
X10.645Y-3.74
M30
