%TF.GenerationSoftware,KiCad,Pcbnew,8.0.8*%
%TF.CreationDate,2025-02-12T11:53:30+01:00*%
%TF.ProjectId,PCB_d,5043425f-642e-46b6-9963-61645f706362,rev?*%
%TF.SameCoordinates,Original*%
%TF.FileFunction,Soldermask,Bot*%
%TF.FilePolarity,Negative*%
%FSLAX46Y46*%
G04 Gerber Fmt 4.6, Leading zero omitted, Abs format (unit mm)*
G04 Created by KiCad (PCBNEW 8.0.8) date 2025-02-12 11:53:30*
%MOMM*%
%LPD*%
G01*
G04 APERTURE LIST*
G04 Aperture macros list*
%AMRoundRect*
0 Rectangle with rounded corners*
0 $1 Rounding radius*
0 $2 $3 $4 $5 $6 $7 $8 $9 X,Y pos of 4 corners*
0 Add a 4 corners polygon primitive as box body*
4,1,4,$2,$3,$4,$5,$6,$7,$8,$9,$2,$3,0*
0 Add four circle primitives for the rounded corners*
1,1,$1+$1,$2,$3*
1,1,$1+$1,$4,$5*
1,1,$1+$1,$6,$7*
1,1,$1+$1,$8,$9*
0 Add four rect primitives between the rounded corners*
20,1,$1+$1,$2,$3,$4,$5,0*
20,1,$1+$1,$4,$5,$6,$7,0*
20,1,$1+$1,$6,$7,$8,$9,0*
20,1,$1+$1,$8,$9,$2,$3,0*%
G04 Aperture macros list end*
%ADD10C,5.700000*%
%ADD11C,1.200000*%
%ADD12RoundRect,0.250000X-0.600000X-0.750000X0.600000X-0.750000X0.600000X0.750000X-0.600000X0.750000X0*%
%ADD13O,1.700000X2.000000*%
%ADD14C,1.800000*%
%ADD15RoundRect,0.450000X-0.450000X-0.450000X0.450000X-0.450000X0.450000X0.450000X-0.450000X0.450000X0*%
%ADD16O,1.800000X4.340000*%
%ADD17C,2.000000*%
%ADD18C,0.900000*%
%ADD19RoundRect,0.150000X-0.150000X-0.200000X0.150000X-0.200000X0.150000X0.200000X-0.150000X0.200000X0*%
%ADD20C,1.750000*%
%ADD21C,3.987800*%
%ADD22C,3.300000*%
%ADD23RoundRect,0.250000X1.025000X1.000000X-1.025000X1.000000X-1.025000X-1.000000X1.025000X-1.000000X0*%
%ADD24RoundRect,0.250000X0.387676X1.378525X-1.387676X0.353525X-0.387676X-1.378525X1.387676X-0.353525X0*%
G04 APERTURE END LIST*
D10*
%TO.C,H4*%
X175310800Y-139192000D03*
%TD*%
%TO.C,H3*%
X243840000Y-45313600D03*
%TD*%
%TO.C,H2*%
X240944400Y-122123200D03*
%TD*%
%TO.C,H1*%
X136913250Y-81751100D03*
%TD*%
D11*
%TO.C,J3*%
X153449450Y-50909200D03*
D12*
X155049450Y-52909200D03*
D13*
X157549450Y-52909200D03*
%TD*%
D14*
%TO.C,U1*%
X135026400Y-49174400D03*
X135026400Y-51714400D03*
D15*
X135026400Y-54254400D03*
X135026400Y-56794400D03*
D14*
X135026400Y-59334400D03*
X135026400Y-61874400D03*
X135026400Y-64414400D03*
X135026400Y-66954400D03*
X135026400Y-69494400D03*
X135026400Y-72034400D03*
X135026400Y-74574400D03*
X135026400Y-77114400D03*
D16*
X150266400Y-47904400D03*
D15*
X150266400Y-51714400D03*
D14*
X150266400Y-54254400D03*
X150266400Y-56794400D03*
X150266400Y-59334400D03*
X150266400Y-61874400D03*
X150266400Y-64414400D03*
X150266400Y-66954400D03*
X150266400Y-69494400D03*
X150266400Y-72034400D03*
X150266400Y-74574400D03*
X150266400Y-77114400D03*
X138099800Y-74020680D03*
X140639800Y-74020680D03*
X143179800Y-74020680D03*
D15*
X135026400Y-46634400D03*
D14*
X150266400Y-46634400D03*
%TD*%
D17*
%TO.C,SW27*%
X146761200Y-90350700D03*
X140261200Y-90350700D03*
X146761200Y-85850700D03*
X140261200Y-85850700D03*
%TD*%
D18*
%TO.C,SW2*%
X157858900Y-46101450D03*
X154858900Y-46101450D03*
%TD*%
D17*
%TO.C,SW1*%
X159764800Y-90350700D03*
X153264800Y-90350700D03*
X159764800Y-85850700D03*
X153264800Y-85850700D03*
%TD*%
D19*
%TO.C,D34*%
X159300000Y-123725000D03*
X157900000Y-123725000D03*
%TD*%
D20*
%TO.C,SW24*%
X180212648Y-72771000D03*
D21*
X175132648Y-72771000D03*
D20*
X170052648Y-72771000D03*
D22*
X171322648Y-70231000D03*
D23*
X167772648Y-70231000D03*
X181222648Y-67691000D03*
D22*
X177672648Y-67691000D03*
%TD*%
D19*
%TO.C,D10*%
X217875000Y-52350000D03*
X216475000Y-52350000D03*
%TD*%
D20*
%TO.C,SW12*%
X237362648Y-70358000D03*
D21*
X232282648Y-70358000D03*
D20*
X227202648Y-70358000D03*
D22*
X228472648Y-67818000D03*
D23*
X224922648Y-67818000D03*
X238372648Y-65278000D03*
D22*
X234822648Y-65278000D03*
%TD*%
D20*
%TO.C,SW35*%
X157424409Y-119385000D03*
D21*
X153025000Y-121925000D03*
D20*
X148625591Y-124465000D03*
D22*
X148455443Y-121630295D03*
D24*
X145381053Y-123405295D03*
X155759095Y-114480591D03*
D22*
X152684705Y-116255591D03*
%TD*%
D20*
%TO.C,SW8*%
X275462472Y-114046000D03*
D21*
X270382472Y-114046000D03*
D20*
X265302472Y-114046000D03*
D22*
X266572472Y-111506000D03*
D23*
X263022472Y-111506000D03*
X276472472Y-108966000D03*
D22*
X272922472Y-108966000D03*
%TD*%
D20*
%TO.C,SW13*%
X237362648Y-89408000D03*
D21*
X232282648Y-89408000D03*
D20*
X227202648Y-89408000D03*
D22*
X228472648Y-86868000D03*
D23*
X224922648Y-86868000D03*
X238372648Y-84328000D03*
D22*
X234822648Y-84328000D03*
%TD*%
D20*
%TO.C,SW16*%
X218312472Y-66294000D03*
D21*
X213232472Y-66294000D03*
D20*
X208152472Y-66294000D03*
D22*
X209422472Y-63754000D03*
D23*
X205872472Y-63754000D03*
X219322472Y-61214000D03*
D22*
X215772472Y-61214000D03*
%TD*%
D20*
%TO.C,SW25*%
X180212472Y-91821000D03*
D21*
X175132472Y-91821000D03*
D20*
X170052472Y-91821000D03*
D22*
X171322472Y-89281000D03*
D23*
X167772472Y-89281000D03*
X181222472Y-86741000D03*
D22*
X177672472Y-86741000D03*
%TD*%
D19*
%TO.C,D19*%
X198750000Y-75025000D03*
X197350000Y-75025000D03*
%TD*%
%TO.C,D24*%
X180125000Y-96575000D03*
X178725000Y-96575000D03*
%TD*%
%TO.C,D23*%
X179950000Y-77475000D03*
X178550000Y-77475000D03*
%TD*%
%TO.C,D11*%
X218050000Y-70975000D03*
X216650000Y-70975000D03*
%TD*%
D20*
%TO.C,SW26*%
X180212648Y-110871000D03*
D21*
X175132648Y-110871000D03*
D20*
X170052648Y-110871000D03*
D22*
X171322648Y-108331000D03*
D23*
X167772648Y-108331000D03*
X181222648Y-105791000D03*
D22*
X177672648Y-105791000D03*
%TD*%
D20*
%TO.C,SW21*%
X199262648Y-89408000D03*
D21*
X194182648Y-89408000D03*
D20*
X189102648Y-89408000D03*
D22*
X190372648Y-86868000D03*
D23*
X186822648Y-86868000D03*
X200272648Y-84328000D03*
D22*
X196722648Y-84328000D03*
%TD*%
D20*
%TO.C,SW37*%
X191008000Y-132334000D03*
D21*
X185928000Y-132334000D03*
D20*
X180848000Y-132334000D03*
D22*
X182118000Y-129794000D03*
D23*
X178568000Y-129794000D03*
X192018000Y-127254000D03*
D22*
X188468000Y-127254000D03*
%TD*%
D19*
%TO.C,D36*%
X190550000Y-136775000D03*
X189150000Y-136775000D03*
%TD*%
D20*
%TO.C,SW7*%
X256412648Y-75946000D03*
D21*
X251332648Y-75946000D03*
D20*
X246252648Y-75946000D03*
D22*
X247522648Y-73406000D03*
D23*
X243972648Y-73406000D03*
X257422648Y-70866000D03*
D22*
X253872648Y-70866000D03*
%TD*%
D20*
%TO.C,SW20*%
X199262472Y-70358000D03*
D21*
X194182472Y-70358000D03*
D20*
X189102472Y-70358000D03*
D22*
X190372472Y-67818000D03*
D23*
X186822472Y-67818000D03*
X200272472Y-65278000D03*
D22*
X196722472Y-65278000D03*
%TD*%
D19*
%TO.C,D12*%
X218200000Y-89950000D03*
X216800000Y-89950000D03*
%TD*%
D20*
%TO.C,SW38*%
X210080000Y-130000000D03*
D21*
X205000000Y-130000000D03*
D20*
X199920000Y-130000000D03*
D22*
X201190000Y-127460000D03*
D23*
X197640000Y-127460000D03*
X211090000Y-124920000D03*
D22*
X207540000Y-124920000D03*
%TD*%
D19*
%TO.C,D20*%
X198700000Y-94000000D03*
X197300000Y-94000000D03*
%TD*%
%TO.C,D8*%
X236850000Y-93825000D03*
X235450000Y-93825000D03*
%TD*%
D20*
%TO.C,SW19*%
X199262472Y-51308000D03*
D21*
X194182472Y-51308000D03*
D20*
X189102472Y-51308000D03*
D22*
X190372472Y-48768000D03*
D23*
X186822472Y-48768000D03*
X200272472Y-46228000D03*
D22*
X196722472Y-46228000D03*
%TD*%
D20*
%TO.C,SW17*%
X218312472Y-85344000D03*
D21*
X213232472Y-85344000D03*
D20*
X208152472Y-85344000D03*
D22*
X209422472Y-82804000D03*
D23*
X205872472Y-82804000D03*
X219322472Y-80264000D03*
D22*
X215772472Y-80264000D03*
%TD*%
D19*
%TO.C,D25*%
X179950000Y-115375000D03*
X178550000Y-115375000D03*
%TD*%
%TO.C,D5*%
X256450000Y-118475000D03*
X255050000Y-118475000D03*
%TD*%
%TO.C,D2*%
X275100000Y-99025000D03*
X273700000Y-99025000D03*
%TD*%
%TO.C,D13*%
X274275000Y-61250000D03*
X272875000Y-61250000D03*
%TD*%
%TO.C,D21*%
X198925000Y-112950000D03*
X197525000Y-112950000D03*
%TD*%
D20*
%TO.C,SW36*%
X166959409Y-135890000D03*
D21*
X162560000Y-138430000D03*
D20*
X158160591Y-140970000D03*
D22*
X157990443Y-138135295D03*
D24*
X154916053Y-139910295D03*
X165294095Y-130985591D03*
D22*
X162219705Y-132760591D03*
%TD*%
D20*
%TO.C,SW9*%
X256412648Y-94996000D03*
D21*
X251332648Y-94996000D03*
D20*
X246252648Y-94996000D03*
D22*
X247522648Y-92456000D03*
D23*
X243972648Y-92456000D03*
X257422648Y-89916000D03*
D22*
X253872648Y-89916000D03*
%TD*%
D19*
%TO.C,D3*%
X274275000Y-118300000D03*
X272875000Y-118300000D03*
%TD*%
%TO.C,D17*%
X217725000Y-108750000D03*
X216325000Y-108750000D03*
%TD*%
%TO.C,D14*%
X275100000Y-80875000D03*
X273700000Y-80875000D03*
%TD*%
D20*
%TO.C,SW22*%
X199262648Y-108458000D03*
D21*
X194182648Y-108458000D03*
D20*
X189102648Y-108458000D03*
D22*
X190372648Y-105918000D03*
D23*
X186822648Y-105918000D03*
X200272648Y-103378000D03*
D22*
X196722648Y-103378000D03*
%TD*%
D19*
%TO.C,D4*%
X256450000Y-99500000D03*
X255050000Y-99500000D03*
%TD*%
D20*
%TO.C,SW6*%
X256412648Y-56896000D03*
D21*
X251332648Y-56896000D03*
D20*
X246252648Y-56896000D03*
D22*
X247522648Y-54356000D03*
D23*
X243972648Y-54356000D03*
X257422648Y-51816000D03*
D22*
X253872648Y-51816000D03*
%TD*%
D20*
%TO.C,SW18*%
X218312648Y-104394000D03*
D21*
X213232648Y-104394000D03*
D20*
X208152648Y-104394000D03*
D22*
X209422648Y-101854000D03*
D23*
X205872648Y-101854000D03*
X219322648Y-99314000D03*
D22*
X215772648Y-99314000D03*
%TD*%
D19*
%TO.C,D7*%
X236675000Y-75200000D03*
X235275000Y-75200000D03*
%TD*%
%TO.C,D6*%
X237175000Y-55750000D03*
X235775000Y-55750000D03*
%TD*%
D20*
%TO.C,SW3*%
X275462648Y-94996000D03*
D21*
X270382648Y-94996000D03*
D20*
X265302648Y-94996000D03*
D22*
X266572648Y-92456000D03*
D23*
X263022648Y-92456000D03*
X276472648Y-89916000D03*
D22*
X272922648Y-89916000D03*
%TD*%
D20*
%TO.C,SW10*%
X256412472Y-114046000D03*
D21*
X251332472Y-114046000D03*
D20*
X246252472Y-114046000D03*
D22*
X247522472Y-111506000D03*
D23*
X243972472Y-111506000D03*
X257422472Y-108966000D03*
D22*
X253872472Y-108966000D03*
%TD*%
D19*
%TO.C,D37*%
X209625000Y-135000000D03*
X208225000Y-135000000D03*
%TD*%
D20*
%TO.C,SW14*%
X237362472Y-108458000D03*
D21*
X232282472Y-108458000D03*
D20*
X227202472Y-108458000D03*
D22*
X228472472Y-105918000D03*
D23*
X224922472Y-105918000D03*
X238372472Y-103378000D03*
D22*
X234822472Y-103378000D03*
%TD*%
D20*
%TO.C,SW4*%
X275462472Y-56896000D03*
D21*
X270382472Y-56896000D03*
D20*
X265302472Y-56896000D03*
D22*
X266572472Y-54356000D03*
D23*
X263022472Y-54356000D03*
X276472472Y-51816000D03*
D22*
X272922472Y-51816000D03*
%TD*%
D20*
%TO.C,SW23*%
X180212648Y-53721000D03*
D21*
X175132648Y-53721000D03*
D20*
X170052648Y-53721000D03*
D22*
X171322648Y-51181000D03*
D23*
X167772648Y-51181000D03*
X181222648Y-48641000D03*
D22*
X177672648Y-48641000D03*
%TD*%
D19*
%TO.C,D9*%
X237000000Y-112950000D03*
X235600000Y-112950000D03*
%TD*%
%TO.C,D18*%
X198925000Y-55900000D03*
X197525000Y-55900000D03*
%TD*%
D20*
%TO.C,SW5*%
X275462472Y-75946000D03*
D21*
X270382472Y-75946000D03*
D20*
X265302472Y-75946000D03*
D22*
X266572472Y-73406000D03*
D23*
X263022472Y-73406000D03*
X276472472Y-70866000D03*
D22*
X272922472Y-70866000D03*
%TD*%
D19*
%TO.C,D15*%
X255800000Y-61425000D03*
X254400000Y-61425000D03*
%TD*%
%TO.C,D16*%
X256125000Y-80050000D03*
X254725000Y-80050000D03*
%TD*%
%TO.C,D22*%
X180275000Y-58025000D03*
X178875000Y-58025000D03*
%TD*%
%TO.C,D35*%
X168525000Y-140725000D03*
X167125000Y-140725000D03*
%TD*%
D20*
%TO.C,SW15*%
X218312648Y-47244000D03*
D21*
X213232648Y-47244000D03*
D20*
X208152648Y-47244000D03*
D22*
X209422648Y-44704000D03*
D23*
X205872648Y-44704000D03*
X219322648Y-42164000D03*
D22*
X215772648Y-42164000D03*
%TD*%
D20*
%TO.C,SW11*%
X237362648Y-51308000D03*
D21*
X232282648Y-51308000D03*
D20*
X227202648Y-51308000D03*
D22*
X228472648Y-48768000D03*
D23*
X224922648Y-48768000D03*
X238372648Y-46228000D03*
D22*
X234822648Y-46228000D03*
%TD*%
M02*
