%TF.GenerationSoftware,KiCad,Pcbnew,8.0.8*%
%TF.CreationDate,2025-02-12T11:53:30+01:00*%
%TF.ProjectId,PCB_d,5043425f-642e-46b6-9963-61645f706362,rev?*%
%TF.SameCoordinates,Original*%
%TF.FileFunction,Legend,Bot*%
%TF.FilePolarity,Positive*%
%FSLAX46Y46*%
G04 Gerber Fmt 4.6, Leading zero omitted, Abs format (unit mm)*
G04 Created by KiCad (PCBNEW 8.0.8) date 2025-02-12 11:53:30*
%MOMM*%
%LPD*%
G01*
G04 APERTURE LIST*
%ADD10C,0.150000*%
%ADD11C,0.120000*%
G04 APERTURE END LIST*
D10*
X156632783Y-55914019D02*
X156632783Y-56628304D01*
X156632783Y-56628304D02*
X156680402Y-56771161D01*
X156680402Y-56771161D02*
X156775640Y-56866400D01*
X156775640Y-56866400D02*
X156918497Y-56914019D01*
X156918497Y-56914019D02*
X157013735Y-56914019D01*
X156251830Y-55914019D02*
X155632783Y-55914019D01*
X155632783Y-55914019D02*
X155966116Y-56294971D01*
X155966116Y-56294971D02*
X155823259Y-56294971D01*
X155823259Y-56294971D02*
X155728021Y-56342590D01*
X155728021Y-56342590D02*
X155680402Y-56390209D01*
X155680402Y-56390209D02*
X155632783Y-56485447D01*
X155632783Y-56485447D02*
X155632783Y-56723542D01*
X155632783Y-56723542D02*
X155680402Y-56818780D01*
X155680402Y-56818780D02*
X155728021Y-56866400D01*
X155728021Y-56866400D02*
X155823259Y-56914019D01*
X155823259Y-56914019D02*
X156108973Y-56914019D01*
X156108973Y-56914019D02*
X156204211Y-56866400D01*
X156204211Y-56866400D02*
X156251830Y-56818780D01*
X159814285Y-122879819D02*
X159814285Y-121879819D01*
X159814285Y-121879819D02*
X159576190Y-121879819D01*
X159576190Y-121879819D02*
X159433333Y-121927438D01*
X159433333Y-121927438D02*
X159338095Y-122022676D01*
X159338095Y-122022676D02*
X159290476Y-122117914D01*
X159290476Y-122117914D02*
X159242857Y-122308390D01*
X159242857Y-122308390D02*
X159242857Y-122451247D01*
X159242857Y-122451247D02*
X159290476Y-122641723D01*
X159290476Y-122641723D02*
X159338095Y-122736961D01*
X159338095Y-122736961D02*
X159433333Y-122832200D01*
X159433333Y-122832200D02*
X159576190Y-122879819D01*
X159576190Y-122879819D02*
X159814285Y-122879819D01*
X158909523Y-121879819D02*
X158290476Y-121879819D01*
X158290476Y-121879819D02*
X158623809Y-122260771D01*
X158623809Y-122260771D02*
X158480952Y-122260771D01*
X158480952Y-122260771D02*
X158385714Y-122308390D01*
X158385714Y-122308390D02*
X158338095Y-122356009D01*
X158338095Y-122356009D02*
X158290476Y-122451247D01*
X158290476Y-122451247D02*
X158290476Y-122689342D01*
X158290476Y-122689342D02*
X158338095Y-122784580D01*
X158338095Y-122784580D02*
X158385714Y-122832200D01*
X158385714Y-122832200D02*
X158480952Y-122879819D01*
X158480952Y-122879819D02*
X158766666Y-122879819D01*
X158766666Y-122879819D02*
X158861904Y-122832200D01*
X158861904Y-122832200D02*
X158909523Y-122784580D01*
X157433333Y-122213152D02*
X157433333Y-122879819D01*
X157671428Y-121832200D02*
X157909523Y-122546485D01*
X157909523Y-122546485D02*
X157290476Y-122546485D01*
X181192171Y-71428200D02*
X181049314Y-71475819D01*
X181049314Y-71475819D02*
X180811219Y-71475819D01*
X180811219Y-71475819D02*
X180715981Y-71428200D01*
X180715981Y-71428200D02*
X180668362Y-71380580D01*
X180668362Y-71380580D02*
X180620743Y-71285342D01*
X180620743Y-71285342D02*
X180620743Y-71190104D01*
X180620743Y-71190104D02*
X180668362Y-71094866D01*
X180668362Y-71094866D02*
X180715981Y-71047247D01*
X180715981Y-71047247D02*
X180811219Y-70999628D01*
X180811219Y-70999628D02*
X181001695Y-70952009D01*
X181001695Y-70952009D02*
X181096933Y-70904390D01*
X181096933Y-70904390D02*
X181144552Y-70856771D01*
X181144552Y-70856771D02*
X181192171Y-70761533D01*
X181192171Y-70761533D02*
X181192171Y-70666295D01*
X181192171Y-70666295D02*
X181144552Y-70571057D01*
X181144552Y-70571057D02*
X181096933Y-70523438D01*
X181096933Y-70523438D02*
X181001695Y-70475819D01*
X181001695Y-70475819D02*
X180763600Y-70475819D01*
X180763600Y-70475819D02*
X180620743Y-70523438D01*
X180287409Y-70475819D02*
X180049314Y-71475819D01*
X180049314Y-71475819D02*
X179858838Y-70761533D01*
X179858838Y-70761533D02*
X179668362Y-71475819D01*
X179668362Y-71475819D02*
X179430267Y-70475819D01*
X179096933Y-70571057D02*
X179049314Y-70523438D01*
X179049314Y-70523438D02*
X178954076Y-70475819D01*
X178954076Y-70475819D02*
X178715981Y-70475819D01*
X178715981Y-70475819D02*
X178620743Y-70523438D01*
X178620743Y-70523438D02*
X178573124Y-70571057D01*
X178573124Y-70571057D02*
X178525505Y-70666295D01*
X178525505Y-70666295D02*
X178525505Y-70761533D01*
X178525505Y-70761533D02*
X178573124Y-70904390D01*
X178573124Y-70904390D02*
X179144552Y-71475819D01*
X179144552Y-71475819D02*
X178525505Y-71475819D01*
X177668362Y-70809152D02*
X177668362Y-71475819D01*
X177906457Y-70428200D02*
X178144552Y-71142485D01*
X178144552Y-71142485D02*
X177525505Y-71142485D01*
X218389285Y-51504819D02*
X218389285Y-50504819D01*
X218389285Y-50504819D02*
X218151190Y-50504819D01*
X218151190Y-50504819D02*
X218008333Y-50552438D01*
X218008333Y-50552438D02*
X217913095Y-50647676D01*
X217913095Y-50647676D02*
X217865476Y-50742914D01*
X217865476Y-50742914D02*
X217817857Y-50933390D01*
X217817857Y-50933390D02*
X217817857Y-51076247D01*
X217817857Y-51076247D02*
X217865476Y-51266723D01*
X217865476Y-51266723D02*
X217913095Y-51361961D01*
X217913095Y-51361961D02*
X218008333Y-51457200D01*
X218008333Y-51457200D02*
X218151190Y-51504819D01*
X218151190Y-51504819D02*
X218389285Y-51504819D01*
X216865476Y-51504819D02*
X217436904Y-51504819D01*
X217151190Y-51504819D02*
X217151190Y-50504819D01*
X217151190Y-50504819D02*
X217246428Y-50647676D01*
X217246428Y-50647676D02*
X217341666Y-50742914D01*
X217341666Y-50742914D02*
X217436904Y-50790533D01*
X216246428Y-50504819D02*
X216151190Y-50504819D01*
X216151190Y-50504819D02*
X216055952Y-50552438D01*
X216055952Y-50552438D02*
X216008333Y-50600057D01*
X216008333Y-50600057D02*
X215960714Y-50695295D01*
X215960714Y-50695295D02*
X215913095Y-50885771D01*
X215913095Y-50885771D02*
X215913095Y-51123866D01*
X215913095Y-51123866D02*
X215960714Y-51314342D01*
X215960714Y-51314342D02*
X216008333Y-51409580D01*
X216008333Y-51409580D02*
X216055952Y-51457200D01*
X216055952Y-51457200D02*
X216151190Y-51504819D01*
X216151190Y-51504819D02*
X216246428Y-51504819D01*
X216246428Y-51504819D02*
X216341666Y-51457200D01*
X216341666Y-51457200D02*
X216389285Y-51409580D01*
X216389285Y-51409580D02*
X216436904Y-51314342D01*
X216436904Y-51314342D02*
X216484523Y-51123866D01*
X216484523Y-51123866D02*
X216484523Y-50885771D01*
X216484523Y-50885771D02*
X216436904Y-50695295D01*
X216436904Y-50695295D02*
X216389285Y-50600057D01*
X216389285Y-50600057D02*
X216341666Y-50552438D01*
X216341666Y-50552438D02*
X216246428Y-50504819D01*
X238342171Y-69015200D02*
X238199314Y-69062819D01*
X238199314Y-69062819D02*
X237961219Y-69062819D01*
X237961219Y-69062819D02*
X237865981Y-69015200D01*
X237865981Y-69015200D02*
X237818362Y-68967580D01*
X237818362Y-68967580D02*
X237770743Y-68872342D01*
X237770743Y-68872342D02*
X237770743Y-68777104D01*
X237770743Y-68777104D02*
X237818362Y-68681866D01*
X237818362Y-68681866D02*
X237865981Y-68634247D01*
X237865981Y-68634247D02*
X237961219Y-68586628D01*
X237961219Y-68586628D02*
X238151695Y-68539009D01*
X238151695Y-68539009D02*
X238246933Y-68491390D01*
X238246933Y-68491390D02*
X238294552Y-68443771D01*
X238294552Y-68443771D02*
X238342171Y-68348533D01*
X238342171Y-68348533D02*
X238342171Y-68253295D01*
X238342171Y-68253295D02*
X238294552Y-68158057D01*
X238294552Y-68158057D02*
X238246933Y-68110438D01*
X238246933Y-68110438D02*
X238151695Y-68062819D01*
X238151695Y-68062819D02*
X237913600Y-68062819D01*
X237913600Y-68062819D02*
X237770743Y-68110438D01*
X237437409Y-68062819D02*
X237199314Y-69062819D01*
X237199314Y-69062819D02*
X237008838Y-68348533D01*
X237008838Y-68348533D02*
X236818362Y-69062819D01*
X236818362Y-69062819D02*
X236580267Y-68062819D01*
X235675505Y-69062819D02*
X236246933Y-69062819D01*
X235961219Y-69062819D02*
X235961219Y-68062819D01*
X235961219Y-68062819D02*
X236056457Y-68205676D01*
X236056457Y-68205676D02*
X236151695Y-68300914D01*
X236151695Y-68300914D02*
X236246933Y-68348533D01*
X235294552Y-68158057D02*
X235246933Y-68110438D01*
X235246933Y-68110438D02*
X235151695Y-68062819D01*
X235151695Y-68062819D02*
X234913600Y-68062819D01*
X234913600Y-68062819D02*
X234818362Y-68110438D01*
X234818362Y-68110438D02*
X234770743Y-68158057D01*
X234770743Y-68158057D02*
X234723124Y-68253295D01*
X234723124Y-68253295D02*
X234723124Y-68348533D01*
X234723124Y-68348533D02*
X234770743Y-68491390D01*
X234770743Y-68491390D02*
X235342171Y-69062819D01*
X235342171Y-69062819D02*
X234723124Y-69062819D01*
X157601301Y-117732339D02*
X157501393Y-117845007D01*
X157501393Y-117845007D02*
X157295196Y-117964055D01*
X157295196Y-117964055D02*
X157188908Y-117970434D01*
X157188908Y-117970434D02*
X157123859Y-117953005D01*
X157123859Y-117953005D02*
X157035001Y-117894336D01*
X157035001Y-117894336D02*
X156987382Y-117811857D01*
X156987382Y-117811857D02*
X156981002Y-117705569D01*
X156981002Y-117705569D02*
X156998432Y-117640520D01*
X156998432Y-117640520D02*
X157057101Y-117551662D01*
X157057101Y-117551662D02*
X157198249Y-117415184D01*
X157198249Y-117415184D02*
X157256918Y-117326326D01*
X157256918Y-117326326D02*
X157274347Y-117261277D01*
X157274347Y-117261277D02*
X157267968Y-117154989D01*
X157267968Y-117154989D02*
X157220349Y-117072510D01*
X157220349Y-117072510D02*
X157131490Y-117013841D01*
X157131490Y-117013841D02*
X157066442Y-116996411D01*
X157066442Y-116996411D02*
X156960153Y-117002791D01*
X156960153Y-117002791D02*
X156753957Y-117121839D01*
X156753957Y-117121839D02*
X156654048Y-117234507D01*
X156341564Y-117359934D02*
X156635367Y-118345007D01*
X156635367Y-118345007D02*
X156113267Y-117821656D01*
X156113267Y-117821656D02*
X156305453Y-118535483D01*
X156305453Y-118535483D02*
X155599256Y-117788505D01*
X155351821Y-117931363D02*
X154815710Y-118240886D01*
X154815710Y-118240886D02*
X155294861Y-118404134D01*
X155294861Y-118404134D02*
X155171143Y-118475563D01*
X155171143Y-118475563D02*
X155112474Y-118564421D01*
X155112474Y-118564421D02*
X155095044Y-118629470D01*
X155095044Y-118629470D02*
X155101424Y-118735758D01*
X155101424Y-118735758D02*
X155220472Y-118941955D01*
X155220472Y-118941955D02*
X155309330Y-119000624D01*
X155309330Y-119000624D02*
X155374379Y-119018053D01*
X155374379Y-119018053D02*
X155480667Y-119011674D01*
X155480667Y-119011674D02*
X155728103Y-118868816D01*
X155728103Y-118868816D02*
X155786772Y-118779958D01*
X155786772Y-118779958D02*
X155804202Y-118714909D01*
X154032163Y-118693267D02*
X154444556Y-118455172D01*
X154444556Y-118455172D02*
X154723890Y-118843756D01*
X154723890Y-118843756D02*
X154658842Y-118826326D01*
X154658842Y-118826326D02*
X154552553Y-118832706D01*
X154552553Y-118832706D02*
X154346357Y-118951753D01*
X154346357Y-118951753D02*
X154287688Y-119040612D01*
X154287688Y-119040612D02*
X154270258Y-119105660D01*
X154270258Y-119105660D02*
X154276638Y-119211948D01*
X154276638Y-119211948D02*
X154395685Y-119418145D01*
X154395685Y-119418145D02*
X154484544Y-119476814D01*
X154484544Y-119476814D02*
X154549593Y-119494244D01*
X154549593Y-119494244D02*
X154655881Y-119487864D01*
X154655881Y-119487864D02*
X154862077Y-119368817D01*
X154862077Y-119368817D02*
X154920746Y-119279958D01*
X154920746Y-119279958D02*
X154938176Y-119214909D01*
X275965804Y-112703200D02*
X275822947Y-112750819D01*
X275822947Y-112750819D02*
X275584852Y-112750819D01*
X275584852Y-112750819D02*
X275489614Y-112703200D01*
X275489614Y-112703200D02*
X275441995Y-112655580D01*
X275441995Y-112655580D02*
X275394376Y-112560342D01*
X275394376Y-112560342D02*
X275394376Y-112465104D01*
X275394376Y-112465104D02*
X275441995Y-112369866D01*
X275441995Y-112369866D02*
X275489614Y-112322247D01*
X275489614Y-112322247D02*
X275584852Y-112274628D01*
X275584852Y-112274628D02*
X275775328Y-112227009D01*
X275775328Y-112227009D02*
X275870566Y-112179390D01*
X275870566Y-112179390D02*
X275918185Y-112131771D01*
X275918185Y-112131771D02*
X275965804Y-112036533D01*
X275965804Y-112036533D02*
X275965804Y-111941295D01*
X275965804Y-111941295D02*
X275918185Y-111846057D01*
X275918185Y-111846057D02*
X275870566Y-111798438D01*
X275870566Y-111798438D02*
X275775328Y-111750819D01*
X275775328Y-111750819D02*
X275537233Y-111750819D01*
X275537233Y-111750819D02*
X275394376Y-111798438D01*
X275061042Y-111750819D02*
X274822947Y-112750819D01*
X274822947Y-112750819D02*
X274632471Y-112036533D01*
X274632471Y-112036533D02*
X274441995Y-112750819D01*
X274441995Y-112750819D02*
X274203900Y-111750819D01*
X273680090Y-112179390D02*
X273775328Y-112131771D01*
X273775328Y-112131771D02*
X273822947Y-112084152D01*
X273822947Y-112084152D02*
X273870566Y-111988914D01*
X273870566Y-111988914D02*
X273870566Y-111941295D01*
X273870566Y-111941295D02*
X273822947Y-111846057D01*
X273822947Y-111846057D02*
X273775328Y-111798438D01*
X273775328Y-111798438D02*
X273680090Y-111750819D01*
X273680090Y-111750819D02*
X273489614Y-111750819D01*
X273489614Y-111750819D02*
X273394376Y-111798438D01*
X273394376Y-111798438D02*
X273346757Y-111846057D01*
X273346757Y-111846057D02*
X273299138Y-111941295D01*
X273299138Y-111941295D02*
X273299138Y-111988914D01*
X273299138Y-111988914D02*
X273346757Y-112084152D01*
X273346757Y-112084152D02*
X273394376Y-112131771D01*
X273394376Y-112131771D02*
X273489614Y-112179390D01*
X273489614Y-112179390D02*
X273680090Y-112179390D01*
X273680090Y-112179390D02*
X273775328Y-112227009D01*
X273775328Y-112227009D02*
X273822947Y-112274628D01*
X273822947Y-112274628D02*
X273870566Y-112369866D01*
X273870566Y-112369866D02*
X273870566Y-112560342D01*
X273870566Y-112560342D02*
X273822947Y-112655580D01*
X273822947Y-112655580D02*
X273775328Y-112703200D01*
X273775328Y-112703200D02*
X273680090Y-112750819D01*
X273680090Y-112750819D02*
X273489614Y-112750819D01*
X273489614Y-112750819D02*
X273394376Y-112703200D01*
X273394376Y-112703200D02*
X273346757Y-112655580D01*
X273346757Y-112655580D02*
X273299138Y-112560342D01*
X273299138Y-112560342D02*
X273299138Y-112369866D01*
X273299138Y-112369866D02*
X273346757Y-112274628D01*
X273346757Y-112274628D02*
X273394376Y-112227009D01*
X273394376Y-112227009D02*
X273489614Y-112179390D01*
X238342171Y-88065200D02*
X238199314Y-88112819D01*
X238199314Y-88112819D02*
X237961219Y-88112819D01*
X237961219Y-88112819D02*
X237865981Y-88065200D01*
X237865981Y-88065200D02*
X237818362Y-88017580D01*
X237818362Y-88017580D02*
X237770743Y-87922342D01*
X237770743Y-87922342D02*
X237770743Y-87827104D01*
X237770743Y-87827104D02*
X237818362Y-87731866D01*
X237818362Y-87731866D02*
X237865981Y-87684247D01*
X237865981Y-87684247D02*
X237961219Y-87636628D01*
X237961219Y-87636628D02*
X238151695Y-87589009D01*
X238151695Y-87589009D02*
X238246933Y-87541390D01*
X238246933Y-87541390D02*
X238294552Y-87493771D01*
X238294552Y-87493771D02*
X238342171Y-87398533D01*
X238342171Y-87398533D02*
X238342171Y-87303295D01*
X238342171Y-87303295D02*
X238294552Y-87208057D01*
X238294552Y-87208057D02*
X238246933Y-87160438D01*
X238246933Y-87160438D02*
X238151695Y-87112819D01*
X238151695Y-87112819D02*
X237913600Y-87112819D01*
X237913600Y-87112819D02*
X237770743Y-87160438D01*
X237437409Y-87112819D02*
X237199314Y-88112819D01*
X237199314Y-88112819D02*
X237008838Y-87398533D01*
X237008838Y-87398533D02*
X236818362Y-88112819D01*
X236818362Y-88112819D02*
X236580267Y-87112819D01*
X235675505Y-88112819D02*
X236246933Y-88112819D01*
X235961219Y-88112819D02*
X235961219Y-87112819D01*
X235961219Y-87112819D02*
X236056457Y-87255676D01*
X236056457Y-87255676D02*
X236151695Y-87350914D01*
X236151695Y-87350914D02*
X236246933Y-87398533D01*
X235342171Y-87112819D02*
X234723124Y-87112819D01*
X234723124Y-87112819D02*
X235056457Y-87493771D01*
X235056457Y-87493771D02*
X234913600Y-87493771D01*
X234913600Y-87493771D02*
X234818362Y-87541390D01*
X234818362Y-87541390D02*
X234770743Y-87589009D01*
X234770743Y-87589009D02*
X234723124Y-87684247D01*
X234723124Y-87684247D02*
X234723124Y-87922342D01*
X234723124Y-87922342D02*
X234770743Y-88017580D01*
X234770743Y-88017580D02*
X234818362Y-88065200D01*
X234818362Y-88065200D02*
X234913600Y-88112819D01*
X234913600Y-88112819D02*
X235199314Y-88112819D01*
X235199314Y-88112819D02*
X235294552Y-88065200D01*
X235294552Y-88065200D02*
X235342171Y-88017580D01*
X219291995Y-64951200D02*
X219149138Y-64998819D01*
X219149138Y-64998819D02*
X218911043Y-64998819D01*
X218911043Y-64998819D02*
X218815805Y-64951200D01*
X218815805Y-64951200D02*
X218768186Y-64903580D01*
X218768186Y-64903580D02*
X218720567Y-64808342D01*
X218720567Y-64808342D02*
X218720567Y-64713104D01*
X218720567Y-64713104D02*
X218768186Y-64617866D01*
X218768186Y-64617866D02*
X218815805Y-64570247D01*
X218815805Y-64570247D02*
X218911043Y-64522628D01*
X218911043Y-64522628D02*
X219101519Y-64475009D01*
X219101519Y-64475009D02*
X219196757Y-64427390D01*
X219196757Y-64427390D02*
X219244376Y-64379771D01*
X219244376Y-64379771D02*
X219291995Y-64284533D01*
X219291995Y-64284533D02*
X219291995Y-64189295D01*
X219291995Y-64189295D02*
X219244376Y-64094057D01*
X219244376Y-64094057D02*
X219196757Y-64046438D01*
X219196757Y-64046438D02*
X219101519Y-63998819D01*
X219101519Y-63998819D02*
X218863424Y-63998819D01*
X218863424Y-63998819D02*
X218720567Y-64046438D01*
X218387233Y-63998819D02*
X218149138Y-64998819D01*
X218149138Y-64998819D02*
X217958662Y-64284533D01*
X217958662Y-64284533D02*
X217768186Y-64998819D01*
X217768186Y-64998819D02*
X217530091Y-63998819D01*
X216625329Y-64998819D02*
X217196757Y-64998819D01*
X216911043Y-64998819D02*
X216911043Y-63998819D01*
X216911043Y-63998819D02*
X217006281Y-64141676D01*
X217006281Y-64141676D02*
X217101519Y-64236914D01*
X217101519Y-64236914D02*
X217196757Y-64284533D01*
X215768186Y-63998819D02*
X215958662Y-63998819D01*
X215958662Y-63998819D02*
X216053900Y-64046438D01*
X216053900Y-64046438D02*
X216101519Y-64094057D01*
X216101519Y-64094057D02*
X216196757Y-64236914D01*
X216196757Y-64236914D02*
X216244376Y-64427390D01*
X216244376Y-64427390D02*
X216244376Y-64808342D01*
X216244376Y-64808342D02*
X216196757Y-64903580D01*
X216196757Y-64903580D02*
X216149138Y-64951200D01*
X216149138Y-64951200D02*
X216053900Y-64998819D01*
X216053900Y-64998819D02*
X215863424Y-64998819D01*
X215863424Y-64998819D02*
X215768186Y-64951200D01*
X215768186Y-64951200D02*
X215720567Y-64903580D01*
X215720567Y-64903580D02*
X215672948Y-64808342D01*
X215672948Y-64808342D02*
X215672948Y-64570247D01*
X215672948Y-64570247D02*
X215720567Y-64475009D01*
X215720567Y-64475009D02*
X215768186Y-64427390D01*
X215768186Y-64427390D02*
X215863424Y-64379771D01*
X215863424Y-64379771D02*
X216053900Y-64379771D01*
X216053900Y-64379771D02*
X216149138Y-64427390D01*
X216149138Y-64427390D02*
X216196757Y-64475009D01*
X216196757Y-64475009D02*
X216244376Y-64570247D01*
X181191995Y-90478200D02*
X181049138Y-90525819D01*
X181049138Y-90525819D02*
X180811043Y-90525819D01*
X180811043Y-90525819D02*
X180715805Y-90478200D01*
X180715805Y-90478200D02*
X180668186Y-90430580D01*
X180668186Y-90430580D02*
X180620567Y-90335342D01*
X180620567Y-90335342D02*
X180620567Y-90240104D01*
X180620567Y-90240104D02*
X180668186Y-90144866D01*
X180668186Y-90144866D02*
X180715805Y-90097247D01*
X180715805Y-90097247D02*
X180811043Y-90049628D01*
X180811043Y-90049628D02*
X181001519Y-90002009D01*
X181001519Y-90002009D02*
X181096757Y-89954390D01*
X181096757Y-89954390D02*
X181144376Y-89906771D01*
X181144376Y-89906771D02*
X181191995Y-89811533D01*
X181191995Y-89811533D02*
X181191995Y-89716295D01*
X181191995Y-89716295D02*
X181144376Y-89621057D01*
X181144376Y-89621057D02*
X181096757Y-89573438D01*
X181096757Y-89573438D02*
X181001519Y-89525819D01*
X181001519Y-89525819D02*
X180763424Y-89525819D01*
X180763424Y-89525819D02*
X180620567Y-89573438D01*
X180287233Y-89525819D02*
X180049138Y-90525819D01*
X180049138Y-90525819D02*
X179858662Y-89811533D01*
X179858662Y-89811533D02*
X179668186Y-90525819D01*
X179668186Y-90525819D02*
X179430091Y-89525819D01*
X179096757Y-89621057D02*
X179049138Y-89573438D01*
X179049138Y-89573438D02*
X178953900Y-89525819D01*
X178953900Y-89525819D02*
X178715805Y-89525819D01*
X178715805Y-89525819D02*
X178620567Y-89573438D01*
X178620567Y-89573438D02*
X178572948Y-89621057D01*
X178572948Y-89621057D02*
X178525329Y-89716295D01*
X178525329Y-89716295D02*
X178525329Y-89811533D01*
X178525329Y-89811533D02*
X178572948Y-89954390D01*
X178572948Y-89954390D02*
X179144376Y-90525819D01*
X179144376Y-90525819D02*
X178525329Y-90525819D01*
X177620567Y-89525819D02*
X178096757Y-89525819D01*
X178096757Y-89525819D02*
X178144376Y-90002009D01*
X178144376Y-90002009D02*
X178096757Y-89954390D01*
X178096757Y-89954390D02*
X178001519Y-89906771D01*
X178001519Y-89906771D02*
X177763424Y-89906771D01*
X177763424Y-89906771D02*
X177668186Y-89954390D01*
X177668186Y-89954390D02*
X177620567Y-90002009D01*
X177620567Y-90002009D02*
X177572948Y-90097247D01*
X177572948Y-90097247D02*
X177572948Y-90335342D01*
X177572948Y-90335342D02*
X177620567Y-90430580D01*
X177620567Y-90430580D02*
X177668186Y-90478200D01*
X177668186Y-90478200D02*
X177763424Y-90525819D01*
X177763424Y-90525819D02*
X178001519Y-90525819D01*
X178001519Y-90525819D02*
X178096757Y-90478200D01*
X178096757Y-90478200D02*
X178144376Y-90430580D01*
X199264285Y-74179819D02*
X199264285Y-73179819D01*
X199264285Y-73179819D02*
X199026190Y-73179819D01*
X199026190Y-73179819D02*
X198883333Y-73227438D01*
X198883333Y-73227438D02*
X198788095Y-73322676D01*
X198788095Y-73322676D02*
X198740476Y-73417914D01*
X198740476Y-73417914D02*
X198692857Y-73608390D01*
X198692857Y-73608390D02*
X198692857Y-73751247D01*
X198692857Y-73751247D02*
X198740476Y-73941723D01*
X198740476Y-73941723D02*
X198788095Y-74036961D01*
X198788095Y-74036961D02*
X198883333Y-74132200D01*
X198883333Y-74132200D02*
X199026190Y-74179819D01*
X199026190Y-74179819D02*
X199264285Y-74179819D01*
X197740476Y-74179819D02*
X198311904Y-74179819D01*
X198026190Y-74179819D02*
X198026190Y-73179819D01*
X198026190Y-73179819D02*
X198121428Y-73322676D01*
X198121428Y-73322676D02*
X198216666Y-73417914D01*
X198216666Y-73417914D02*
X198311904Y-73465533D01*
X197264285Y-74179819D02*
X197073809Y-74179819D01*
X197073809Y-74179819D02*
X196978571Y-74132200D01*
X196978571Y-74132200D02*
X196930952Y-74084580D01*
X196930952Y-74084580D02*
X196835714Y-73941723D01*
X196835714Y-73941723D02*
X196788095Y-73751247D01*
X196788095Y-73751247D02*
X196788095Y-73370295D01*
X196788095Y-73370295D02*
X196835714Y-73275057D01*
X196835714Y-73275057D02*
X196883333Y-73227438D01*
X196883333Y-73227438D02*
X196978571Y-73179819D01*
X196978571Y-73179819D02*
X197169047Y-73179819D01*
X197169047Y-73179819D02*
X197264285Y-73227438D01*
X197264285Y-73227438D02*
X197311904Y-73275057D01*
X197311904Y-73275057D02*
X197359523Y-73370295D01*
X197359523Y-73370295D02*
X197359523Y-73608390D01*
X197359523Y-73608390D02*
X197311904Y-73703628D01*
X197311904Y-73703628D02*
X197264285Y-73751247D01*
X197264285Y-73751247D02*
X197169047Y-73798866D01*
X197169047Y-73798866D02*
X196978571Y-73798866D01*
X196978571Y-73798866D02*
X196883333Y-73751247D01*
X196883333Y-73751247D02*
X196835714Y-73703628D01*
X196835714Y-73703628D02*
X196788095Y-73608390D01*
X180639285Y-95729819D02*
X180639285Y-94729819D01*
X180639285Y-94729819D02*
X180401190Y-94729819D01*
X180401190Y-94729819D02*
X180258333Y-94777438D01*
X180258333Y-94777438D02*
X180163095Y-94872676D01*
X180163095Y-94872676D02*
X180115476Y-94967914D01*
X180115476Y-94967914D02*
X180067857Y-95158390D01*
X180067857Y-95158390D02*
X180067857Y-95301247D01*
X180067857Y-95301247D02*
X180115476Y-95491723D01*
X180115476Y-95491723D02*
X180163095Y-95586961D01*
X180163095Y-95586961D02*
X180258333Y-95682200D01*
X180258333Y-95682200D02*
X180401190Y-95729819D01*
X180401190Y-95729819D02*
X180639285Y-95729819D01*
X179686904Y-94825057D02*
X179639285Y-94777438D01*
X179639285Y-94777438D02*
X179544047Y-94729819D01*
X179544047Y-94729819D02*
X179305952Y-94729819D01*
X179305952Y-94729819D02*
X179210714Y-94777438D01*
X179210714Y-94777438D02*
X179163095Y-94825057D01*
X179163095Y-94825057D02*
X179115476Y-94920295D01*
X179115476Y-94920295D02*
X179115476Y-95015533D01*
X179115476Y-95015533D02*
X179163095Y-95158390D01*
X179163095Y-95158390D02*
X179734523Y-95729819D01*
X179734523Y-95729819D02*
X179115476Y-95729819D01*
X178258333Y-95063152D02*
X178258333Y-95729819D01*
X178496428Y-94682200D02*
X178734523Y-95396485D01*
X178734523Y-95396485D02*
X178115476Y-95396485D01*
X180464285Y-76629819D02*
X180464285Y-75629819D01*
X180464285Y-75629819D02*
X180226190Y-75629819D01*
X180226190Y-75629819D02*
X180083333Y-75677438D01*
X180083333Y-75677438D02*
X179988095Y-75772676D01*
X179988095Y-75772676D02*
X179940476Y-75867914D01*
X179940476Y-75867914D02*
X179892857Y-76058390D01*
X179892857Y-76058390D02*
X179892857Y-76201247D01*
X179892857Y-76201247D02*
X179940476Y-76391723D01*
X179940476Y-76391723D02*
X179988095Y-76486961D01*
X179988095Y-76486961D02*
X180083333Y-76582200D01*
X180083333Y-76582200D02*
X180226190Y-76629819D01*
X180226190Y-76629819D02*
X180464285Y-76629819D01*
X179511904Y-75725057D02*
X179464285Y-75677438D01*
X179464285Y-75677438D02*
X179369047Y-75629819D01*
X179369047Y-75629819D02*
X179130952Y-75629819D01*
X179130952Y-75629819D02*
X179035714Y-75677438D01*
X179035714Y-75677438D02*
X178988095Y-75725057D01*
X178988095Y-75725057D02*
X178940476Y-75820295D01*
X178940476Y-75820295D02*
X178940476Y-75915533D01*
X178940476Y-75915533D02*
X178988095Y-76058390D01*
X178988095Y-76058390D02*
X179559523Y-76629819D01*
X179559523Y-76629819D02*
X178940476Y-76629819D01*
X178607142Y-75629819D02*
X177988095Y-75629819D01*
X177988095Y-75629819D02*
X178321428Y-76010771D01*
X178321428Y-76010771D02*
X178178571Y-76010771D01*
X178178571Y-76010771D02*
X178083333Y-76058390D01*
X178083333Y-76058390D02*
X178035714Y-76106009D01*
X178035714Y-76106009D02*
X177988095Y-76201247D01*
X177988095Y-76201247D02*
X177988095Y-76439342D01*
X177988095Y-76439342D02*
X178035714Y-76534580D01*
X178035714Y-76534580D02*
X178083333Y-76582200D01*
X178083333Y-76582200D02*
X178178571Y-76629819D01*
X178178571Y-76629819D02*
X178464285Y-76629819D01*
X178464285Y-76629819D02*
X178559523Y-76582200D01*
X178559523Y-76582200D02*
X178607142Y-76534580D01*
X218564285Y-70129819D02*
X218564285Y-69129819D01*
X218564285Y-69129819D02*
X218326190Y-69129819D01*
X218326190Y-69129819D02*
X218183333Y-69177438D01*
X218183333Y-69177438D02*
X218088095Y-69272676D01*
X218088095Y-69272676D02*
X218040476Y-69367914D01*
X218040476Y-69367914D02*
X217992857Y-69558390D01*
X217992857Y-69558390D02*
X217992857Y-69701247D01*
X217992857Y-69701247D02*
X218040476Y-69891723D01*
X218040476Y-69891723D02*
X218088095Y-69986961D01*
X218088095Y-69986961D02*
X218183333Y-70082200D01*
X218183333Y-70082200D02*
X218326190Y-70129819D01*
X218326190Y-70129819D02*
X218564285Y-70129819D01*
X217040476Y-70129819D02*
X217611904Y-70129819D01*
X217326190Y-70129819D02*
X217326190Y-69129819D01*
X217326190Y-69129819D02*
X217421428Y-69272676D01*
X217421428Y-69272676D02*
X217516666Y-69367914D01*
X217516666Y-69367914D02*
X217611904Y-69415533D01*
X216088095Y-70129819D02*
X216659523Y-70129819D01*
X216373809Y-70129819D02*
X216373809Y-69129819D01*
X216373809Y-69129819D02*
X216469047Y-69272676D01*
X216469047Y-69272676D02*
X216564285Y-69367914D01*
X216564285Y-69367914D02*
X216659523Y-69415533D01*
X181192171Y-109528200D02*
X181049314Y-109575819D01*
X181049314Y-109575819D02*
X180811219Y-109575819D01*
X180811219Y-109575819D02*
X180715981Y-109528200D01*
X180715981Y-109528200D02*
X180668362Y-109480580D01*
X180668362Y-109480580D02*
X180620743Y-109385342D01*
X180620743Y-109385342D02*
X180620743Y-109290104D01*
X180620743Y-109290104D02*
X180668362Y-109194866D01*
X180668362Y-109194866D02*
X180715981Y-109147247D01*
X180715981Y-109147247D02*
X180811219Y-109099628D01*
X180811219Y-109099628D02*
X181001695Y-109052009D01*
X181001695Y-109052009D02*
X181096933Y-109004390D01*
X181096933Y-109004390D02*
X181144552Y-108956771D01*
X181144552Y-108956771D02*
X181192171Y-108861533D01*
X181192171Y-108861533D02*
X181192171Y-108766295D01*
X181192171Y-108766295D02*
X181144552Y-108671057D01*
X181144552Y-108671057D02*
X181096933Y-108623438D01*
X181096933Y-108623438D02*
X181001695Y-108575819D01*
X181001695Y-108575819D02*
X180763600Y-108575819D01*
X180763600Y-108575819D02*
X180620743Y-108623438D01*
X180287409Y-108575819D02*
X180049314Y-109575819D01*
X180049314Y-109575819D02*
X179858838Y-108861533D01*
X179858838Y-108861533D02*
X179668362Y-109575819D01*
X179668362Y-109575819D02*
X179430267Y-108575819D01*
X179096933Y-108671057D02*
X179049314Y-108623438D01*
X179049314Y-108623438D02*
X178954076Y-108575819D01*
X178954076Y-108575819D02*
X178715981Y-108575819D01*
X178715981Y-108575819D02*
X178620743Y-108623438D01*
X178620743Y-108623438D02*
X178573124Y-108671057D01*
X178573124Y-108671057D02*
X178525505Y-108766295D01*
X178525505Y-108766295D02*
X178525505Y-108861533D01*
X178525505Y-108861533D02*
X178573124Y-109004390D01*
X178573124Y-109004390D02*
X179144552Y-109575819D01*
X179144552Y-109575819D02*
X178525505Y-109575819D01*
X177668362Y-108575819D02*
X177858838Y-108575819D01*
X177858838Y-108575819D02*
X177954076Y-108623438D01*
X177954076Y-108623438D02*
X178001695Y-108671057D01*
X178001695Y-108671057D02*
X178096933Y-108813914D01*
X178096933Y-108813914D02*
X178144552Y-109004390D01*
X178144552Y-109004390D02*
X178144552Y-109385342D01*
X178144552Y-109385342D02*
X178096933Y-109480580D01*
X178096933Y-109480580D02*
X178049314Y-109528200D01*
X178049314Y-109528200D02*
X177954076Y-109575819D01*
X177954076Y-109575819D02*
X177763600Y-109575819D01*
X177763600Y-109575819D02*
X177668362Y-109528200D01*
X177668362Y-109528200D02*
X177620743Y-109480580D01*
X177620743Y-109480580D02*
X177573124Y-109385342D01*
X177573124Y-109385342D02*
X177573124Y-109147247D01*
X177573124Y-109147247D02*
X177620743Y-109052009D01*
X177620743Y-109052009D02*
X177668362Y-109004390D01*
X177668362Y-109004390D02*
X177763600Y-108956771D01*
X177763600Y-108956771D02*
X177954076Y-108956771D01*
X177954076Y-108956771D02*
X178049314Y-109004390D01*
X178049314Y-109004390D02*
X178096933Y-109052009D01*
X178096933Y-109052009D02*
X178144552Y-109147247D01*
X200242171Y-88065200D02*
X200099314Y-88112819D01*
X200099314Y-88112819D02*
X199861219Y-88112819D01*
X199861219Y-88112819D02*
X199765981Y-88065200D01*
X199765981Y-88065200D02*
X199718362Y-88017580D01*
X199718362Y-88017580D02*
X199670743Y-87922342D01*
X199670743Y-87922342D02*
X199670743Y-87827104D01*
X199670743Y-87827104D02*
X199718362Y-87731866D01*
X199718362Y-87731866D02*
X199765981Y-87684247D01*
X199765981Y-87684247D02*
X199861219Y-87636628D01*
X199861219Y-87636628D02*
X200051695Y-87589009D01*
X200051695Y-87589009D02*
X200146933Y-87541390D01*
X200146933Y-87541390D02*
X200194552Y-87493771D01*
X200194552Y-87493771D02*
X200242171Y-87398533D01*
X200242171Y-87398533D02*
X200242171Y-87303295D01*
X200242171Y-87303295D02*
X200194552Y-87208057D01*
X200194552Y-87208057D02*
X200146933Y-87160438D01*
X200146933Y-87160438D02*
X200051695Y-87112819D01*
X200051695Y-87112819D02*
X199813600Y-87112819D01*
X199813600Y-87112819D02*
X199670743Y-87160438D01*
X199337409Y-87112819D02*
X199099314Y-88112819D01*
X199099314Y-88112819D02*
X198908838Y-87398533D01*
X198908838Y-87398533D02*
X198718362Y-88112819D01*
X198718362Y-88112819D02*
X198480267Y-87112819D01*
X198146933Y-87208057D02*
X198099314Y-87160438D01*
X198099314Y-87160438D02*
X198004076Y-87112819D01*
X198004076Y-87112819D02*
X197765981Y-87112819D01*
X197765981Y-87112819D02*
X197670743Y-87160438D01*
X197670743Y-87160438D02*
X197623124Y-87208057D01*
X197623124Y-87208057D02*
X197575505Y-87303295D01*
X197575505Y-87303295D02*
X197575505Y-87398533D01*
X197575505Y-87398533D02*
X197623124Y-87541390D01*
X197623124Y-87541390D02*
X198194552Y-88112819D01*
X198194552Y-88112819D02*
X197575505Y-88112819D01*
X196623124Y-88112819D02*
X197194552Y-88112819D01*
X196908838Y-88112819D02*
X196908838Y-87112819D01*
X196908838Y-87112819D02*
X197004076Y-87255676D01*
X197004076Y-87255676D02*
X197099314Y-87350914D01*
X197099314Y-87350914D02*
X197194552Y-87398533D01*
X191987523Y-130991200D02*
X191844666Y-131038819D01*
X191844666Y-131038819D02*
X191606571Y-131038819D01*
X191606571Y-131038819D02*
X191511333Y-130991200D01*
X191511333Y-130991200D02*
X191463714Y-130943580D01*
X191463714Y-130943580D02*
X191416095Y-130848342D01*
X191416095Y-130848342D02*
X191416095Y-130753104D01*
X191416095Y-130753104D02*
X191463714Y-130657866D01*
X191463714Y-130657866D02*
X191511333Y-130610247D01*
X191511333Y-130610247D02*
X191606571Y-130562628D01*
X191606571Y-130562628D02*
X191797047Y-130515009D01*
X191797047Y-130515009D02*
X191892285Y-130467390D01*
X191892285Y-130467390D02*
X191939904Y-130419771D01*
X191939904Y-130419771D02*
X191987523Y-130324533D01*
X191987523Y-130324533D02*
X191987523Y-130229295D01*
X191987523Y-130229295D02*
X191939904Y-130134057D01*
X191939904Y-130134057D02*
X191892285Y-130086438D01*
X191892285Y-130086438D02*
X191797047Y-130038819D01*
X191797047Y-130038819D02*
X191558952Y-130038819D01*
X191558952Y-130038819D02*
X191416095Y-130086438D01*
X191082761Y-130038819D02*
X190844666Y-131038819D01*
X190844666Y-131038819D02*
X190654190Y-130324533D01*
X190654190Y-130324533D02*
X190463714Y-131038819D01*
X190463714Y-131038819D02*
X190225619Y-130038819D01*
X189939904Y-130038819D02*
X189320857Y-130038819D01*
X189320857Y-130038819D02*
X189654190Y-130419771D01*
X189654190Y-130419771D02*
X189511333Y-130419771D01*
X189511333Y-130419771D02*
X189416095Y-130467390D01*
X189416095Y-130467390D02*
X189368476Y-130515009D01*
X189368476Y-130515009D02*
X189320857Y-130610247D01*
X189320857Y-130610247D02*
X189320857Y-130848342D01*
X189320857Y-130848342D02*
X189368476Y-130943580D01*
X189368476Y-130943580D02*
X189416095Y-130991200D01*
X189416095Y-130991200D02*
X189511333Y-131038819D01*
X189511333Y-131038819D02*
X189797047Y-131038819D01*
X189797047Y-131038819D02*
X189892285Y-130991200D01*
X189892285Y-130991200D02*
X189939904Y-130943580D01*
X188987523Y-130038819D02*
X188320857Y-130038819D01*
X188320857Y-130038819D02*
X188749428Y-131038819D01*
X191064285Y-135929819D02*
X191064285Y-134929819D01*
X191064285Y-134929819D02*
X190826190Y-134929819D01*
X190826190Y-134929819D02*
X190683333Y-134977438D01*
X190683333Y-134977438D02*
X190588095Y-135072676D01*
X190588095Y-135072676D02*
X190540476Y-135167914D01*
X190540476Y-135167914D02*
X190492857Y-135358390D01*
X190492857Y-135358390D02*
X190492857Y-135501247D01*
X190492857Y-135501247D02*
X190540476Y-135691723D01*
X190540476Y-135691723D02*
X190588095Y-135786961D01*
X190588095Y-135786961D02*
X190683333Y-135882200D01*
X190683333Y-135882200D02*
X190826190Y-135929819D01*
X190826190Y-135929819D02*
X191064285Y-135929819D01*
X190159523Y-134929819D02*
X189540476Y-134929819D01*
X189540476Y-134929819D02*
X189873809Y-135310771D01*
X189873809Y-135310771D02*
X189730952Y-135310771D01*
X189730952Y-135310771D02*
X189635714Y-135358390D01*
X189635714Y-135358390D02*
X189588095Y-135406009D01*
X189588095Y-135406009D02*
X189540476Y-135501247D01*
X189540476Y-135501247D02*
X189540476Y-135739342D01*
X189540476Y-135739342D02*
X189588095Y-135834580D01*
X189588095Y-135834580D02*
X189635714Y-135882200D01*
X189635714Y-135882200D02*
X189730952Y-135929819D01*
X189730952Y-135929819D02*
X190016666Y-135929819D01*
X190016666Y-135929819D02*
X190111904Y-135882200D01*
X190111904Y-135882200D02*
X190159523Y-135834580D01*
X188683333Y-134929819D02*
X188873809Y-134929819D01*
X188873809Y-134929819D02*
X188969047Y-134977438D01*
X188969047Y-134977438D02*
X189016666Y-135025057D01*
X189016666Y-135025057D02*
X189111904Y-135167914D01*
X189111904Y-135167914D02*
X189159523Y-135358390D01*
X189159523Y-135358390D02*
X189159523Y-135739342D01*
X189159523Y-135739342D02*
X189111904Y-135834580D01*
X189111904Y-135834580D02*
X189064285Y-135882200D01*
X189064285Y-135882200D02*
X188969047Y-135929819D01*
X188969047Y-135929819D02*
X188778571Y-135929819D01*
X188778571Y-135929819D02*
X188683333Y-135882200D01*
X188683333Y-135882200D02*
X188635714Y-135834580D01*
X188635714Y-135834580D02*
X188588095Y-135739342D01*
X188588095Y-135739342D02*
X188588095Y-135501247D01*
X188588095Y-135501247D02*
X188635714Y-135406009D01*
X188635714Y-135406009D02*
X188683333Y-135358390D01*
X188683333Y-135358390D02*
X188778571Y-135310771D01*
X188778571Y-135310771D02*
X188969047Y-135310771D01*
X188969047Y-135310771D02*
X189064285Y-135358390D01*
X189064285Y-135358390D02*
X189111904Y-135406009D01*
X189111904Y-135406009D02*
X189159523Y-135501247D01*
X256915980Y-74603200D02*
X256773123Y-74650819D01*
X256773123Y-74650819D02*
X256535028Y-74650819D01*
X256535028Y-74650819D02*
X256439790Y-74603200D01*
X256439790Y-74603200D02*
X256392171Y-74555580D01*
X256392171Y-74555580D02*
X256344552Y-74460342D01*
X256344552Y-74460342D02*
X256344552Y-74365104D01*
X256344552Y-74365104D02*
X256392171Y-74269866D01*
X256392171Y-74269866D02*
X256439790Y-74222247D01*
X256439790Y-74222247D02*
X256535028Y-74174628D01*
X256535028Y-74174628D02*
X256725504Y-74127009D01*
X256725504Y-74127009D02*
X256820742Y-74079390D01*
X256820742Y-74079390D02*
X256868361Y-74031771D01*
X256868361Y-74031771D02*
X256915980Y-73936533D01*
X256915980Y-73936533D02*
X256915980Y-73841295D01*
X256915980Y-73841295D02*
X256868361Y-73746057D01*
X256868361Y-73746057D02*
X256820742Y-73698438D01*
X256820742Y-73698438D02*
X256725504Y-73650819D01*
X256725504Y-73650819D02*
X256487409Y-73650819D01*
X256487409Y-73650819D02*
X256344552Y-73698438D01*
X256011218Y-73650819D02*
X255773123Y-74650819D01*
X255773123Y-74650819D02*
X255582647Y-73936533D01*
X255582647Y-73936533D02*
X255392171Y-74650819D01*
X255392171Y-74650819D02*
X255154076Y-73650819D01*
X254868361Y-73650819D02*
X254201695Y-73650819D01*
X254201695Y-73650819D02*
X254630266Y-74650819D01*
X200241995Y-69015200D02*
X200099138Y-69062819D01*
X200099138Y-69062819D02*
X199861043Y-69062819D01*
X199861043Y-69062819D02*
X199765805Y-69015200D01*
X199765805Y-69015200D02*
X199718186Y-68967580D01*
X199718186Y-68967580D02*
X199670567Y-68872342D01*
X199670567Y-68872342D02*
X199670567Y-68777104D01*
X199670567Y-68777104D02*
X199718186Y-68681866D01*
X199718186Y-68681866D02*
X199765805Y-68634247D01*
X199765805Y-68634247D02*
X199861043Y-68586628D01*
X199861043Y-68586628D02*
X200051519Y-68539009D01*
X200051519Y-68539009D02*
X200146757Y-68491390D01*
X200146757Y-68491390D02*
X200194376Y-68443771D01*
X200194376Y-68443771D02*
X200241995Y-68348533D01*
X200241995Y-68348533D02*
X200241995Y-68253295D01*
X200241995Y-68253295D02*
X200194376Y-68158057D01*
X200194376Y-68158057D02*
X200146757Y-68110438D01*
X200146757Y-68110438D02*
X200051519Y-68062819D01*
X200051519Y-68062819D02*
X199813424Y-68062819D01*
X199813424Y-68062819D02*
X199670567Y-68110438D01*
X199337233Y-68062819D02*
X199099138Y-69062819D01*
X199099138Y-69062819D02*
X198908662Y-68348533D01*
X198908662Y-68348533D02*
X198718186Y-69062819D01*
X198718186Y-69062819D02*
X198480091Y-68062819D01*
X198146757Y-68158057D02*
X198099138Y-68110438D01*
X198099138Y-68110438D02*
X198003900Y-68062819D01*
X198003900Y-68062819D02*
X197765805Y-68062819D01*
X197765805Y-68062819D02*
X197670567Y-68110438D01*
X197670567Y-68110438D02*
X197622948Y-68158057D01*
X197622948Y-68158057D02*
X197575329Y-68253295D01*
X197575329Y-68253295D02*
X197575329Y-68348533D01*
X197575329Y-68348533D02*
X197622948Y-68491390D01*
X197622948Y-68491390D02*
X198194376Y-69062819D01*
X198194376Y-69062819D02*
X197575329Y-69062819D01*
X196956281Y-68062819D02*
X196861043Y-68062819D01*
X196861043Y-68062819D02*
X196765805Y-68110438D01*
X196765805Y-68110438D02*
X196718186Y-68158057D01*
X196718186Y-68158057D02*
X196670567Y-68253295D01*
X196670567Y-68253295D02*
X196622948Y-68443771D01*
X196622948Y-68443771D02*
X196622948Y-68681866D01*
X196622948Y-68681866D02*
X196670567Y-68872342D01*
X196670567Y-68872342D02*
X196718186Y-68967580D01*
X196718186Y-68967580D02*
X196765805Y-69015200D01*
X196765805Y-69015200D02*
X196861043Y-69062819D01*
X196861043Y-69062819D02*
X196956281Y-69062819D01*
X196956281Y-69062819D02*
X197051519Y-69015200D01*
X197051519Y-69015200D02*
X197099138Y-68967580D01*
X197099138Y-68967580D02*
X197146757Y-68872342D01*
X197146757Y-68872342D02*
X197194376Y-68681866D01*
X197194376Y-68681866D02*
X197194376Y-68443771D01*
X197194376Y-68443771D02*
X197146757Y-68253295D01*
X197146757Y-68253295D02*
X197099138Y-68158057D01*
X197099138Y-68158057D02*
X197051519Y-68110438D01*
X197051519Y-68110438D02*
X196956281Y-68062819D01*
X218714285Y-89104819D02*
X218714285Y-88104819D01*
X218714285Y-88104819D02*
X218476190Y-88104819D01*
X218476190Y-88104819D02*
X218333333Y-88152438D01*
X218333333Y-88152438D02*
X218238095Y-88247676D01*
X218238095Y-88247676D02*
X218190476Y-88342914D01*
X218190476Y-88342914D02*
X218142857Y-88533390D01*
X218142857Y-88533390D02*
X218142857Y-88676247D01*
X218142857Y-88676247D02*
X218190476Y-88866723D01*
X218190476Y-88866723D02*
X218238095Y-88961961D01*
X218238095Y-88961961D02*
X218333333Y-89057200D01*
X218333333Y-89057200D02*
X218476190Y-89104819D01*
X218476190Y-89104819D02*
X218714285Y-89104819D01*
X217190476Y-89104819D02*
X217761904Y-89104819D01*
X217476190Y-89104819D02*
X217476190Y-88104819D01*
X217476190Y-88104819D02*
X217571428Y-88247676D01*
X217571428Y-88247676D02*
X217666666Y-88342914D01*
X217666666Y-88342914D02*
X217761904Y-88390533D01*
X216809523Y-88200057D02*
X216761904Y-88152438D01*
X216761904Y-88152438D02*
X216666666Y-88104819D01*
X216666666Y-88104819D02*
X216428571Y-88104819D01*
X216428571Y-88104819D02*
X216333333Y-88152438D01*
X216333333Y-88152438D02*
X216285714Y-88200057D01*
X216285714Y-88200057D02*
X216238095Y-88295295D01*
X216238095Y-88295295D02*
X216238095Y-88390533D01*
X216238095Y-88390533D02*
X216285714Y-88533390D01*
X216285714Y-88533390D02*
X216857142Y-89104819D01*
X216857142Y-89104819D02*
X216238095Y-89104819D01*
X211059523Y-128657200D02*
X210916666Y-128704819D01*
X210916666Y-128704819D02*
X210678571Y-128704819D01*
X210678571Y-128704819D02*
X210583333Y-128657200D01*
X210583333Y-128657200D02*
X210535714Y-128609580D01*
X210535714Y-128609580D02*
X210488095Y-128514342D01*
X210488095Y-128514342D02*
X210488095Y-128419104D01*
X210488095Y-128419104D02*
X210535714Y-128323866D01*
X210535714Y-128323866D02*
X210583333Y-128276247D01*
X210583333Y-128276247D02*
X210678571Y-128228628D01*
X210678571Y-128228628D02*
X210869047Y-128181009D01*
X210869047Y-128181009D02*
X210964285Y-128133390D01*
X210964285Y-128133390D02*
X211011904Y-128085771D01*
X211011904Y-128085771D02*
X211059523Y-127990533D01*
X211059523Y-127990533D02*
X211059523Y-127895295D01*
X211059523Y-127895295D02*
X211011904Y-127800057D01*
X211011904Y-127800057D02*
X210964285Y-127752438D01*
X210964285Y-127752438D02*
X210869047Y-127704819D01*
X210869047Y-127704819D02*
X210630952Y-127704819D01*
X210630952Y-127704819D02*
X210488095Y-127752438D01*
X210154761Y-127704819D02*
X209916666Y-128704819D01*
X209916666Y-128704819D02*
X209726190Y-127990533D01*
X209726190Y-127990533D02*
X209535714Y-128704819D01*
X209535714Y-128704819D02*
X209297619Y-127704819D01*
X209011904Y-127704819D02*
X208392857Y-127704819D01*
X208392857Y-127704819D02*
X208726190Y-128085771D01*
X208726190Y-128085771D02*
X208583333Y-128085771D01*
X208583333Y-128085771D02*
X208488095Y-128133390D01*
X208488095Y-128133390D02*
X208440476Y-128181009D01*
X208440476Y-128181009D02*
X208392857Y-128276247D01*
X208392857Y-128276247D02*
X208392857Y-128514342D01*
X208392857Y-128514342D02*
X208440476Y-128609580D01*
X208440476Y-128609580D02*
X208488095Y-128657200D01*
X208488095Y-128657200D02*
X208583333Y-128704819D01*
X208583333Y-128704819D02*
X208869047Y-128704819D01*
X208869047Y-128704819D02*
X208964285Y-128657200D01*
X208964285Y-128657200D02*
X209011904Y-128609580D01*
X207821428Y-128133390D02*
X207916666Y-128085771D01*
X207916666Y-128085771D02*
X207964285Y-128038152D01*
X207964285Y-128038152D02*
X208011904Y-127942914D01*
X208011904Y-127942914D02*
X208011904Y-127895295D01*
X208011904Y-127895295D02*
X207964285Y-127800057D01*
X207964285Y-127800057D02*
X207916666Y-127752438D01*
X207916666Y-127752438D02*
X207821428Y-127704819D01*
X207821428Y-127704819D02*
X207630952Y-127704819D01*
X207630952Y-127704819D02*
X207535714Y-127752438D01*
X207535714Y-127752438D02*
X207488095Y-127800057D01*
X207488095Y-127800057D02*
X207440476Y-127895295D01*
X207440476Y-127895295D02*
X207440476Y-127942914D01*
X207440476Y-127942914D02*
X207488095Y-128038152D01*
X207488095Y-128038152D02*
X207535714Y-128085771D01*
X207535714Y-128085771D02*
X207630952Y-128133390D01*
X207630952Y-128133390D02*
X207821428Y-128133390D01*
X207821428Y-128133390D02*
X207916666Y-128181009D01*
X207916666Y-128181009D02*
X207964285Y-128228628D01*
X207964285Y-128228628D02*
X208011904Y-128323866D01*
X208011904Y-128323866D02*
X208011904Y-128514342D01*
X208011904Y-128514342D02*
X207964285Y-128609580D01*
X207964285Y-128609580D02*
X207916666Y-128657200D01*
X207916666Y-128657200D02*
X207821428Y-128704819D01*
X207821428Y-128704819D02*
X207630952Y-128704819D01*
X207630952Y-128704819D02*
X207535714Y-128657200D01*
X207535714Y-128657200D02*
X207488095Y-128609580D01*
X207488095Y-128609580D02*
X207440476Y-128514342D01*
X207440476Y-128514342D02*
X207440476Y-128323866D01*
X207440476Y-128323866D02*
X207488095Y-128228628D01*
X207488095Y-128228628D02*
X207535714Y-128181009D01*
X207535714Y-128181009D02*
X207630952Y-128133390D01*
X199214285Y-93154819D02*
X199214285Y-92154819D01*
X199214285Y-92154819D02*
X198976190Y-92154819D01*
X198976190Y-92154819D02*
X198833333Y-92202438D01*
X198833333Y-92202438D02*
X198738095Y-92297676D01*
X198738095Y-92297676D02*
X198690476Y-92392914D01*
X198690476Y-92392914D02*
X198642857Y-92583390D01*
X198642857Y-92583390D02*
X198642857Y-92726247D01*
X198642857Y-92726247D02*
X198690476Y-92916723D01*
X198690476Y-92916723D02*
X198738095Y-93011961D01*
X198738095Y-93011961D02*
X198833333Y-93107200D01*
X198833333Y-93107200D02*
X198976190Y-93154819D01*
X198976190Y-93154819D02*
X199214285Y-93154819D01*
X198261904Y-92250057D02*
X198214285Y-92202438D01*
X198214285Y-92202438D02*
X198119047Y-92154819D01*
X198119047Y-92154819D02*
X197880952Y-92154819D01*
X197880952Y-92154819D02*
X197785714Y-92202438D01*
X197785714Y-92202438D02*
X197738095Y-92250057D01*
X197738095Y-92250057D02*
X197690476Y-92345295D01*
X197690476Y-92345295D02*
X197690476Y-92440533D01*
X197690476Y-92440533D02*
X197738095Y-92583390D01*
X197738095Y-92583390D02*
X198309523Y-93154819D01*
X198309523Y-93154819D02*
X197690476Y-93154819D01*
X197071428Y-92154819D02*
X196976190Y-92154819D01*
X196976190Y-92154819D02*
X196880952Y-92202438D01*
X196880952Y-92202438D02*
X196833333Y-92250057D01*
X196833333Y-92250057D02*
X196785714Y-92345295D01*
X196785714Y-92345295D02*
X196738095Y-92535771D01*
X196738095Y-92535771D02*
X196738095Y-92773866D01*
X196738095Y-92773866D02*
X196785714Y-92964342D01*
X196785714Y-92964342D02*
X196833333Y-93059580D01*
X196833333Y-93059580D02*
X196880952Y-93107200D01*
X196880952Y-93107200D02*
X196976190Y-93154819D01*
X196976190Y-93154819D02*
X197071428Y-93154819D01*
X197071428Y-93154819D02*
X197166666Y-93107200D01*
X197166666Y-93107200D02*
X197214285Y-93059580D01*
X197214285Y-93059580D02*
X197261904Y-92964342D01*
X197261904Y-92964342D02*
X197309523Y-92773866D01*
X197309523Y-92773866D02*
X197309523Y-92535771D01*
X197309523Y-92535771D02*
X197261904Y-92345295D01*
X197261904Y-92345295D02*
X197214285Y-92250057D01*
X197214285Y-92250057D02*
X197166666Y-92202438D01*
X197166666Y-92202438D02*
X197071428Y-92154819D01*
X236888094Y-92979819D02*
X236888094Y-91979819D01*
X236888094Y-91979819D02*
X236649999Y-91979819D01*
X236649999Y-91979819D02*
X236507142Y-92027438D01*
X236507142Y-92027438D02*
X236411904Y-92122676D01*
X236411904Y-92122676D02*
X236364285Y-92217914D01*
X236364285Y-92217914D02*
X236316666Y-92408390D01*
X236316666Y-92408390D02*
X236316666Y-92551247D01*
X236316666Y-92551247D02*
X236364285Y-92741723D01*
X236364285Y-92741723D02*
X236411904Y-92836961D01*
X236411904Y-92836961D02*
X236507142Y-92932200D01*
X236507142Y-92932200D02*
X236649999Y-92979819D01*
X236649999Y-92979819D02*
X236888094Y-92979819D01*
X235745237Y-92408390D02*
X235840475Y-92360771D01*
X235840475Y-92360771D02*
X235888094Y-92313152D01*
X235888094Y-92313152D02*
X235935713Y-92217914D01*
X235935713Y-92217914D02*
X235935713Y-92170295D01*
X235935713Y-92170295D02*
X235888094Y-92075057D01*
X235888094Y-92075057D02*
X235840475Y-92027438D01*
X235840475Y-92027438D02*
X235745237Y-91979819D01*
X235745237Y-91979819D02*
X235554761Y-91979819D01*
X235554761Y-91979819D02*
X235459523Y-92027438D01*
X235459523Y-92027438D02*
X235411904Y-92075057D01*
X235411904Y-92075057D02*
X235364285Y-92170295D01*
X235364285Y-92170295D02*
X235364285Y-92217914D01*
X235364285Y-92217914D02*
X235411904Y-92313152D01*
X235411904Y-92313152D02*
X235459523Y-92360771D01*
X235459523Y-92360771D02*
X235554761Y-92408390D01*
X235554761Y-92408390D02*
X235745237Y-92408390D01*
X235745237Y-92408390D02*
X235840475Y-92456009D01*
X235840475Y-92456009D02*
X235888094Y-92503628D01*
X235888094Y-92503628D02*
X235935713Y-92598866D01*
X235935713Y-92598866D02*
X235935713Y-92789342D01*
X235935713Y-92789342D02*
X235888094Y-92884580D01*
X235888094Y-92884580D02*
X235840475Y-92932200D01*
X235840475Y-92932200D02*
X235745237Y-92979819D01*
X235745237Y-92979819D02*
X235554761Y-92979819D01*
X235554761Y-92979819D02*
X235459523Y-92932200D01*
X235459523Y-92932200D02*
X235411904Y-92884580D01*
X235411904Y-92884580D02*
X235364285Y-92789342D01*
X235364285Y-92789342D02*
X235364285Y-92598866D01*
X235364285Y-92598866D02*
X235411904Y-92503628D01*
X235411904Y-92503628D02*
X235459523Y-92456009D01*
X235459523Y-92456009D02*
X235554761Y-92408390D01*
X200241995Y-49965200D02*
X200099138Y-50012819D01*
X200099138Y-50012819D02*
X199861043Y-50012819D01*
X199861043Y-50012819D02*
X199765805Y-49965200D01*
X199765805Y-49965200D02*
X199718186Y-49917580D01*
X199718186Y-49917580D02*
X199670567Y-49822342D01*
X199670567Y-49822342D02*
X199670567Y-49727104D01*
X199670567Y-49727104D02*
X199718186Y-49631866D01*
X199718186Y-49631866D02*
X199765805Y-49584247D01*
X199765805Y-49584247D02*
X199861043Y-49536628D01*
X199861043Y-49536628D02*
X200051519Y-49489009D01*
X200051519Y-49489009D02*
X200146757Y-49441390D01*
X200146757Y-49441390D02*
X200194376Y-49393771D01*
X200194376Y-49393771D02*
X200241995Y-49298533D01*
X200241995Y-49298533D02*
X200241995Y-49203295D01*
X200241995Y-49203295D02*
X200194376Y-49108057D01*
X200194376Y-49108057D02*
X200146757Y-49060438D01*
X200146757Y-49060438D02*
X200051519Y-49012819D01*
X200051519Y-49012819D02*
X199813424Y-49012819D01*
X199813424Y-49012819D02*
X199670567Y-49060438D01*
X199337233Y-49012819D02*
X199099138Y-50012819D01*
X199099138Y-50012819D02*
X198908662Y-49298533D01*
X198908662Y-49298533D02*
X198718186Y-50012819D01*
X198718186Y-50012819D02*
X198480091Y-49012819D01*
X197575329Y-50012819D02*
X198146757Y-50012819D01*
X197861043Y-50012819D02*
X197861043Y-49012819D01*
X197861043Y-49012819D02*
X197956281Y-49155676D01*
X197956281Y-49155676D02*
X198051519Y-49250914D01*
X198051519Y-49250914D02*
X198146757Y-49298533D01*
X197099138Y-50012819D02*
X196908662Y-50012819D01*
X196908662Y-50012819D02*
X196813424Y-49965200D01*
X196813424Y-49965200D02*
X196765805Y-49917580D01*
X196765805Y-49917580D02*
X196670567Y-49774723D01*
X196670567Y-49774723D02*
X196622948Y-49584247D01*
X196622948Y-49584247D02*
X196622948Y-49203295D01*
X196622948Y-49203295D02*
X196670567Y-49108057D01*
X196670567Y-49108057D02*
X196718186Y-49060438D01*
X196718186Y-49060438D02*
X196813424Y-49012819D01*
X196813424Y-49012819D02*
X197003900Y-49012819D01*
X197003900Y-49012819D02*
X197099138Y-49060438D01*
X197099138Y-49060438D02*
X197146757Y-49108057D01*
X197146757Y-49108057D02*
X197194376Y-49203295D01*
X197194376Y-49203295D02*
X197194376Y-49441390D01*
X197194376Y-49441390D02*
X197146757Y-49536628D01*
X197146757Y-49536628D02*
X197099138Y-49584247D01*
X197099138Y-49584247D02*
X197003900Y-49631866D01*
X197003900Y-49631866D02*
X196813424Y-49631866D01*
X196813424Y-49631866D02*
X196718186Y-49584247D01*
X196718186Y-49584247D02*
X196670567Y-49536628D01*
X196670567Y-49536628D02*
X196622948Y-49441390D01*
X219291995Y-84001200D02*
X219149138Y-84048819D01*
X219149138Y-84048819D02*
X218911043Y-84048819D01*
X218911043Y-84048819D02*
X218815805Y-84001200D01*
X218815805Y-84001200D02*
X218768186Y-83953580D01*
X218768186Y-83953580D02*
X218720567Y-83858342D01*
X218720567Y-83858342D02*
X218720567Y-83763104D01*
X218720567Y-83763104D02*
X218768186Y-83667866D01*
X218768186Y-83667866D02*
X218815805Y-83620247D01*
X218815805Y-83620247D02*
X218911043Y-83572628D01*
X218911043Y-83572628D02*
X219101519Y-83525009D01*
X219101519Y-83525009D02*
X219196757Y-83477390D01*
X219196757Y-83477390D02*
X219244376Y-83429771D01*
X219244376Y-83429771D02*
X219291995Y-83334533D01*
X219291995Y-83334533D02*
X219291995Y-83239295D01*
X219291995Y-83239295D02*
X219244376Y-83144057D01*
X219244376Y-83144057D02*
X219196757Y-83096438D01*
X219196757Y-83096438D02*
X219101519Y-83048819D01*
X219101519Y-83048819D02*
X218863424Y-83048819D01*
X218863424Y-83048819D02*
X218720567Y-83096438D01*
X218387233Y-83048819D02*
X218149138Y-84048819D01*
X218149138Y-84048819D02*
X217958662Y-83334533D01*
X217958662Y-83334533D02*
X217768186Y-84048819D01*
X217768186Y-84048819D02*
X217530091Y-83048819D01*
X216625329Y-84048819D02*
X217196757Y-84048819D01*
X216911043Y-84048819D02*
X216911043Y-83048819D01*
X216911043Y-83048819D02*
X217006281Y-83191676D01*
X217006281Y-83191676D02*
X217101519Y-83286914D01*
X217101519Y-83286914D02*
X217196757Y-83334533D01*
X216291995Y-83048819D02*
X215625329Y-83048819D01*
X215625329Y-83048819D02*
X216053900Y-84048819D01*
X180464285Y-114529819D02*
X180464285Y-113529819D01*
X180464285Y-113529819D02*
X180226190Y-113529819D01*
X180226190Y-113529819D02*
X180083333Y-113577438D01*
X180083333Y-113577438D02*
X179988095Y-113672676D01*
X179988095Y-113672676D02*
X179940476Y-113767914D01*
X179940476Y-113767914D02*
X179892857Y-113958390D01*
X179892857Y-113958390D02*
X179892857Y-114101247D01*
X179892857Y-114101247D02*
X179940476Y-114291723D01*
X179940476Y-114291723D02*
X179988095Y-114386961D01*
X179988095Y-114386961D02*
X180083333Y-114482200D01*
X180083333Y-114482200D02*
X180226190Y-114529819D01*
X180226190Y-114529819D02*
X180464285Y-114529819D01*
X179511904Y-113625057D02*
X179464285Y-113577438D01*
X179464285Y-113577438D02*
X179369047Y-113529819D01*
X179369047Y-113529819D02*
X179130952Y-113529819D01*
X179130952Y-113529819D02*
X179035714Y-113577438D01*
X179035714Y-113577438D02*
X178988095Y-113625057D01*
X178988095Y-113625057D02*
X178940476Y-113720295D01*
X178940476Y-113720295D02*
X178940476Y-113815533D01*
X178940476Y-113815533D02*
X178988095Y-113958390D01*
X178988095Y-113958390D02*
X179559523Y-114529819D01*
X179559523Y-114529819D02*
X178940476Y-114529819D01*
X178035714Y-113529819D02*
X178511904Y-113529819D01*
X178511904Y-113529819D02*
X178559523Y-114006009D01*
X178559523Y-114006009D02*
X178511904Y-113958390D01*
X178511904Y-113958390D02*
X178416666Y-113910771D01*
X178416666Y-113910771D02*
X178178571Y-113910771D01*
X178178571Y-113910771D02*
X178083333Y-113958390D01*
X178083333Y-113958390D02*
X178035714Y-114006009D01*
X178035714Y-114006009D02*
X177988095Y-114101247D01*
X177988095Y-114101247D02*
X177988095Y-114339342D01*
X177988095Y-114339342D02*
X178035714Y-114434580D01*
X178035714Y-114434580D02*
X178083333Y-114482200D01*
X178083333Y-114482200D02*
X178178571Y-114529819D01*
X178178571Y-114529819D02*
X178416666Y-114529819D01*
X178416666Y-114529819D02*
X178511904Y-114482200D01*
X178511904Y-114482200D02*
X178559523Y-114434580D01*
X256488094Y-117629819D02*
X256488094Y-116629819D01*
X256488094Y-116629819D02*
X256249999Y-116629819D01*
X256249999Y-116629819D02*
X256107142Y-116677438D01*
X256107142Y-116677438D02*
X256011904Y-116772676D01*
X256011904Y-116772676D02*
X255964285Y-116867914D01*
X255964285Y-116867914D02*
X255916666Y-117058390D01*
X255916666Y-117058390D02*
X255916666Y-117201247D01*
X255916666Y-117201247D02*
X255964285Y-117391723D01*
X255964285Y-117391723D02*
X256011904Y-117486961D01*
X256011904Y-117486961D02*
X256107142Y-117582200D01*
X256107142Y-117582200D02*
X256249999Y-117629819D01*
X256249999Y-117629819D02*
X256488094Y-117629819D01*
X255011904Y-116629819D02*
X255488094Y-116629819D01*
X255488094Y-116629819D02*
X255535713Y-117106009D01*
X255535713Y-117106009D02*
X255488094Y-117058390D01*
X255488094Y-117058390D02*
X255392856Y-117010771D01*
X255392856Y-117010771D02*
X255154761Y-117010771D01*
X255154761Y-117010771D02*
X255059523Y-117058390D01*
X255059523Y-117058390D02*
X255011904Y-117106009D01*
X255011904Y-117106009D02*
X254964285Y-117201247D01*
X254964285Y-117201247D02*
X254964285Y-117439342D01*
X254964285Y-117439342D02*
X255011904Y-117534580D01*
X255011904Y-117534580D02*
X255059523Y-117582200D01*
X255059523Y-117582200D02*
X255154761Y-117629819D01*
X255154761Y-117629819D02*
X255392856Y-117629819D01*
X255392856Y-117629819D02*
X255488094Y-117582200D01*
X255488094Y-117582200D02*
X255535713Y-117534580D01*
X275138094Y-98179819D02*
X275138094Y-97179819D01*
X275138094Y-97179819D02*
X274899999Y-97179819D01*
X274899999Y-97179819D02*
X274757142Y-97227438D01*
X274757142Y-97227438D02*
X274661904Y-97322676D01*
X274661904Y-97322676D02*
X274614285Y-97417914D01*
X274614285Y-97417914D02*
X274566666Y-97608390D01*
X274566666Y-97608390D02*
X274566666Y-97751247D01*
X274566666Y-97751247D02*
X274614285Y-97941723D01*
X274614285Y-97941723D02*
X274661904Y-98036961D01*
X274661904Y-98036961D02*
X274757142Y-98132200D01*
X274757142Y-98132200D02*
X274899999Y-98179819D01*
X274899999Y-98179819D02*
X275138094Y-98179819D01*
X274185713Y-97275057D02*
X274138094Y-97227438D01*
X274138094Y-97227438D02*
X274042856Y-97179819D01*
X274042856Y-97179819D02*
X273804761Y-97179819D01*
X273804761Y-97179819D02*
X273709523Y-97227438D01*
X273709523Y-97227438D02*
X273661904Y-97275057D01*
X273661904Y-97275057D02*
X273614285Y-97370295D01*
X273614285Y-97370295D02*
X273614285Y-97465533D01*
X273614285Y-97465533D02*
X273661904Y-97608390D01*
X273661904Y-97608390D02*
X274233332Y-98179819D01*
X274233332Y-98179819D02*
X273614285Y-98179819D01*
X274789285Y-60404819D02*
X274789285Y-59404819D01*
X274789285Y-59404819D02*
X274551190Y-59404819D01*
X274551190Y-59404819D02*
X274408333Y-59452438D01*
X274408333Y-59452438D02*
X274313095Y-59547676D01*
X274313095Y-59547676D02*
X274265476Y-59642914D01*
X274265476Y-59642914D02*
X274217857Y-59833390D01*
X274217857Y-59833390D02*
X274217857Y-59976247D01*
X274217857Y-59976247D02*
X274265476Y-60166723D01*
X274265476Y-60166723D02*
X274313095Y-60261961D01*
X274313095Y-60261961D02*
X274408333Y-60357200D01*
X274408333Y-60357200D02*
X274551190Y-60404819D01*
X274551190Y-60404819D02*
X274789285Y-60404819D01*
X273265476Y-60404819D02*
X273836904Y-60404819D01*
X273551190Y-60404819D02*
X273551190Y-59404819D01*
X273551190Y-59404819D02*
X273646428Y-59547676D01*
X273646428Y-59547676D02*
X273741666Y-59642914D01*
X273741666Y-59642914D02*
X273836904Y-59690533D01*
X272932142Y-59404819D02*
X272313095Y-59404819D01*
X272313095Y-59404819D02*
X272646428Y-59785771D01*
X272646428Y-59785771D02*
X272503571Y-59785771D01*
X272503571Y-59785771D02*
X272408333Y-59833390D01*
X272408333Y-59833390D02*
X272360714Y-59881009D01*
X272360714Y-59881009D02*
X272313095Y-59976247D01*
X272313095Y-59976247D02*
X272313095Y-60214342D01*
X272313095Y-60214342D02*
X272360714Y-60309580D01*
X272360714Y-60309580D02*
X272408333Y-60357200D01*
X272408333Y-60357200D02*
X272503571Y-60404819D01*
X272503571Y-60404819D02*
X272789285Y-60404819D01*
X272789285Y-60404819D02*
X272884523Y-60357200D01*
X272884523Y-60357200D02*
X272932142Y-60309580D01*
X199439285Y-112104819D02*
X199439285Y-111104819D01*
X199439285Y-111104819D02*
X199201190Y-111104819D01*
X199201190Y-111104819D02*
X199058333Y-111152438D01*
X199058333Y-111152438D02*
X198963095Y-111247676D01*
X198963095Y-111247676D02*
X198915476Y-111342914D01*
X198915476Y-111342914D02*
X198867857Y-111533390D01*
X198867857Y-111533390D02*
X198867857Y-111676247D01*
X198867857Y-111676247D02*
X198915476Y-111866723D01*
X198915476Y-111866723D02*
X198963095Y-111961961D01*
X198963095Y-111961961D02*
X199058333Y-112057200D01*
X199058333Y-112057200D02*
X199201190Y-112104819D01*
X199201190Y-112104819D02*
X199439285Y-112104819D01*
X198486904Y-111200057D02*
X198439285Y-111152438D01*
X198439285Y-111152438D02*
X198344047Y-111104819D01*
X198344047Y-111104819D02*
X198105952Y-111104819D01*
X198105952Y-111104819D02*
X198010714Y-111152438D01*
X198010714Y-111152438D02*
X197963095Y-111200057D01*
X197963095Y-111200057D02*
X197915476Y-111295295D01*
X197915476Y-111295295D02*
X197915476Y-111390533D01*
X197915476Y-111390533D02*
X197963095Y-111533390D01*
X197963095Y-111533390D02*
X198534523Y-112104819D01*
X198534523Y-112104819D02*
X197915476Y-112104819D01*
X196963095Y-112104819D02*
X197534523Y-112104819D01*
X197248809Y-112104819D02*
X197248809Y-111104819D01*
X197248809Y-111104819D02*
X197344047Y-111247676D01*
X197344047Y-111247676D02*
X197439285Y-111342914D01*
X197439285Y-111342914D02*
X197534523Y-111390533D01*
X167136301Y-134237339D02*
X167036393Y-134350007D01*
X167036393Y-134350007D02*
X166830196Y-134469055D01*
X166830196Y-134469055D02*
X166723908Y-134475434D01*
X166723908Y-134475434D02*
X166658859Y-134458005D01*
X166658859Y-134458005D02*
X166570001Y-134399336D01*
X166570001Y-134399336D02*
X166522382Y-134316857D01*
X166522382Y-134316857D02*
X166516002Y-134210569D01*
X166516002Y-134210569D02*
X166533432Y-134145520D01*
X166533432Y-134145520D02*
X166592101Y-134056662D01*
X166592101Y-134056662D02*
X166733249Y-133920184D01*
X166733249Y-133920184D02*
X166791918Y-133831326D01*
X166791918Y-133831326D02*
X166809347Y-133766277D01*
X166809347Y-133766277D02*
X166802968Y-133659989D01*
X166802968Y-133659989D02*
X166755349Y-133577510D01*
X166755349Y-133577510D02*
X166666490Y-133518841D01*
X166666490Y-133518841D02*
X166601442Y-133501411D01*
X166601442Y-133501411D02*
X166495153Y-133507791D01*
X166495153Y-133507791D02*
X166288957Y-133626839D01*
X166288957Y-133626839D02*
X166189048Y-133739507D01*
X165876564Y-133864934D02*
X166170367Y-134850007D01*
X166170367Y-134850007D02*
X165648267Y-134326656D01*
X165648267Y-134326656D02*
X165840453Y-135040483D01*
X165840453Y-135040483D02*
X165134256Y-134293505D01*
X164886821Y-134436363D02*
X164350710Y-134745886D01*
X164350710Y-134745886D02*
X164829861Y-134909134D01*
X164829861Y-134909134D02*
X164706143Y-134980563D01*
X164706143Y-134980563D02*
X164647474Y-135069421D01*
X164647474Y-135069421D02*
X164630044Y-135134470D01*
X164630044Y-135134470D02*
X164636424Y-135240758D01*
X164636424Y-135240758D02*
X164755472Y-135446955D01*
X164755472Y-135446955D02*
X164844330Y-135505624D01*
X164844330Y-135505624D02*
X164909379Y-135523053D01*
X164909379Y-135523053D02*
X165015667Y-135516674D01*
X165015667Y-135516674D02*
X165263103Y-135373816D01*
X165263103Y-135373816D02*
X165321772Y-135284958D01*
X165321772Y-135284958D02*
X165339202Y-135219909D01*
X163608402Y-135174458D02*
X163773359Y-135079220D01*
X163773359Y-135079220D02*
X163879647Y-135072840D01*
X163879647Y-135072840D02*
X163944696Y-135090270D01*
X163944696Y-135090270D02*
X164098603Y-135166369D01*
X164098603Y-135166369D02*
X164235081Y-135307516D01*
X164235081Y-135307516D02*
X164425557Y-135637431D01*
X164425557Y-135637431D02*
X164431937Y-135743719D01*
X164431937Y-135743719D02*
X164414507Y-135808768D01*
X164414507Y-135808768D02*
X164355838Y-135897626D01*
X164355838Y-135897626D02*
X164190881Y-135992864D01*
X164190881Y-135992864D02*
X164084593Y-135999244D01*
X164084593Y-135999244D02*
X164019544Y-135981814D01*
X164019544Y-135981814D02*
X163930685Y-135923145D01*
X163930685Y-135923145D02*
X163811638Y-135716948D01*
X163811638Y-135716948D02*
X163805258Y-135610660D01*
X163805258Y-135610660D02*
X163822688Y-135545612D01*
X163822688Y-135545612D02*
X163881357Y-135456753D01*
X163881357Y-135456753D02*
X164046314Y-135361515D01*
X164046314Y-135361515D02*
X164152602Y-135355135D01*
X164152602Y-135355135D02*
X164217651Y-135372565D01*
X164217651Y-135372565D02*
X164306509Y-135431234D01*
X256915980Y-93653200D02*
X256773123Y-93700819D01*
X256773123Y-93700819D02*
X256535028Y-93700819D01*
X256535028Y-93700819D02*
X256439790Y-93653200D01*
X256439790Y-93653200D02*
X256392171Y-93605580D01*
X256392171Y-93605580D02*
X256344552Y-93510342D01*
X256344552Y-93510342D02*
X256344552Y-93415104D01*
X256344552Y-93415104D02*
X256392171Y-93319866D01*
X256392171Y-93319866D02*
X256439790Y-93272247D01*
X256439790Y-93272247D02*
X256535028Y-93224628D01*
X256535028Y-93224628D02*
X256725504Y-93177009D01*
X256725504Y-93177009D02*
X256820742Y-93129390D01*
X256820742Y-93129390D02*
X256868361Y-93081771D01*
X256868361Y-93081771D02*
X256915980Y-92986533D01*
X256915980Y-92986533D02*
X256915980Y-92891295D01*
X256915980Y-92891295D02*
X256868361Y-92796057D01*
X256868361Y-92796057D02*
X256820742Y-92748438D01*
X256820742Y-92748438D02*
X256725504Y-92700819D01*
X256725504Y-92700819D02*
X256487409Y-92700819D01*
X256487409Y-92700819D02*
X256344552Y-92748438D01*
X256011218Y-92700819D02*
X255773123Y-93700819D01*
X255773123Y-93700819D02*
X255582647Y-92986533D01*
X255582647Y-92986533D02*
X255392171Y-93700819D01*
X255392171Y-93700819D02*
X255154076Y-92700819D01*
X254725504Y-93700819D02*
X254535028Y-93700819D01*
X254535028Y-93700819D02*
X254439790Y-93653200D01*
X254439790Y-93653200D02*
X254392171Y-93605580D01*
X254392171Y-93605580D02*
X254296933Y-93462723D01*
X254296933Y-93462723D02*
X254249314Y-93272247D01*
X254249314Y-93272247D02*
X254249314Y-92891295D01*
X254249314Y-92891295D02*
X254296933Y-92796057D01*
X254296933Y-92796057D02*
X254344552Y-92748438D01*
X254344552Y-92748438D02*
X254439790Y-92700819D01*
X254439790Y-92700819D02*
X254630266Y-92700819D01*
X254630266Y-92700819D02*
X254725504Y-92748438D01*
X254725504Y-92748438D02*
X254773123Y-92796057D01*
X254773123Y-92796057D02*
X254820742Y-92891295D01*
X254820742Y-92891295D02*
X254820742Y-93129390D01*
X254820742Y-93129390D02*
X254773123Y-93224628D01*
X254773123Y-93224628D02*
X254725504Y-93272247D01*
X254725504Y-93272247D02*
X254630266Y-93319866D01*
X254630266Y-93319866D02*
X254439790Y-93319866D01*
X254439790Y-93319866D02*
X254344552Y-93272247D01*
X254344552Y-93272247D02*
X254296933Y-93224628D01*
X254296933Y-93224628D02*
X254249314Y-93129390D01*
X274313094Y-117454819D02*
X274313094Y-116454819D01*
X274313094Y-116454819D02*
X274074999Y-116454819D01*
X274074999Y-116454819D02*
X273932142Y-116502438D01*
X273932142Y-116502438D02*
X273836904Y-116597676D01*
X273836904Y-116597676D02*
X273789285Y-116692914D01*
X273789285Y-116692914D02*
X273741666Y-116883390D01*
X273741666Y-116883390D02*
X273741666Y-117026247D01*
X273741666Y-117026247D02*
X273789285Y-117216723D01*
X273789285Y-117216723D02*
X273836904Y-117311961D01*
X273836904Y-117311961D02*
X273932142Y-117407200D01*
X273932142Y-117407200D02*
X274074999Y-117454819D01*
X274074999Y-117454819D02*
X274313094Y-117454819D01*
X273408332Y-116454819D02*
X272789285Y-116454819D01*
X272789285Y-116454819D02*
X273122618Y-116835771D01*
X273122618Y-116835771D02*
X272979761Y-116835771D01*
X272979761Y-116835771D02*
X272884523Y-116883390D01*
X272884523Y-116883390D02*
X272836904Y-116931009D01*
X272836904Y-116931009D02*
X272789285Y-117026247D01*
X272789285Y-117026247D02*
X272789285Y-117264342D01*
X272789285Y-117264342D02*
X272836904Y-117359580D01*
X272836904Y-117359580D02*
X272884523Y-117407200D01*
X272884523Y-117407200D02*
X272979761Y-117454819D01*
X272979761Y-117454819D02*
X273265475Y-117454819D01*
X273265475Y-117454819D02*
X273360713Y-117407200D01*
X273360713Y-117407200D02*
X273408332Y-117359580D01*
X218239285Y-107904819D02*
X218239285Y-106904819D01*
X218239285Y-106904819D02*
X218001190Y-106904819D01*
X218001190Y-106904819D02*
X217858333Y-106952438D01*
X217858333Y-106952438D02*
X217763095Y-107047676D01*
X217763095Y-107047676D02*
X217715476Y-107142914D01*
X217715476Y-107142914D02*
X217667857Y-107333390D01*
X217667857Y-107333390D02*
X217667857Y-107476247D01*
X217667857Y-107476247D02*
X217715476Y-107666723D01*
X217715476Y-107666723D02*
X217763095Y-107761961D01*
X217763095Y-107761961D02*
X217858333Y-107857200D01*
X217858333Y-107857200D02*
X218001190Y-107904819D01*
X218001190Y-107904819D02*
X218239285Y-107904819D01*
X216715476Y-107904819D02*
X217286904Y-107904819D01*
X217001190Y-107904819D02*
X217001190Y-106904819D01*
X217001190Y-106904819D02*
X217096428Y-107047676D01*
X217096428Y-107047676D02*
X217191666Y-107142914D01*
X217191666Y-107142914D02*
X217286904Y-107190533D01*
X216382142Y-106904819D02*
X215715476Y-106904819D01*
X215715476Y-106904819D02*
X216144047Y-107904819D01*
X275614285Y-80029819D02*
X275614285Y-79029819D01*
X275614285Y-79029819D02*
X275376190Y-79029819D01*
X275376190Y-79029819D02*
X275233333Y-79077438D01*
X275233333Y-79077438D02*
X275138095Y-79172676D01*
X275138095Y-79172676D02*
X275090476Y-79267914D01*
X275090476Y-79267914D02*
X275042857Y-79458390D01*
X275042857Y-79458390D02*
X275042857Y-79601247D01*
X275042857Y-79601247D02*
X275090476Y-79791723D01*
X275090476Y-79791723D02*
X275138095Y-79886961D01*
X275138095Y-79886961D02*
X275233333Y-79982200D01*
X275233333Y-79982200D02*
X275376190Y-80029819D01*
X275376190Y-80029819D02*
X275614285Y-80029819D01*
X274090476Y-80029819D02*
X274661904Y-80029819D01*
X274376190Y-80029819D02*
X274376190Y-79029819D01*
X274376190Y-79029819D02*
X274471428Y-79172676D01*
X274471428Y-79172676D02*
X274566666Y-79267914D01*
X274566666Y-79267914D02*
X274661904Y-79315533D01*
X273233333Y-79363152D02*
X273233333Y-80029819D01*
X273471428Y-78982200D02*
X273709523Y-79696485D01*
X273709523Y-79696485D02*
X273090476Y-79696485D01*
X200242171Y-107115200D02*
X200099314Y-107162819D01*
X200099314Y-107162819D02*
X199861219Y-107162819D01*
X199861219Y-107162819D02*
X199765981Y-107115200D01*
X199765981Y-107115200D02*
X199718362Y-107067580D01*
X199718362Y-107067580D02*
X199670743Y-106972342D01*
X199670743Y-106972342D02*
X199670743Y-106877104D01*
X199670743Y-106877104D02*
X199718362Y-106781866D01*
X199718362Y-106781866D02*
X199765981Y-106734247D01*
X199765981Y-106734247D02*
X199861219Y-106686628D01*
X199861219Y-106686628D02*
X200051695Y-106639009D01*
X200051695Y-106639009D02*
X200146933Y-106591390D01*
X200146933Y-106591390D02*
X200194552Y-106543771D01*
X200194552Y-106543771D02*
X200242171Y-106448533D01*
X200242171Y-106448533D02*
X200242171Y-106353295D01*
X200242171Y-106353295D02*
X200194552Y-106258057D01*
X200194552Y-106258057D02*
X200146933Y-106210438D01*
X200146933Y-106210438D02*
X200051695Y-106162819D01*
X200051695Y-106162819D02*
X199813600Y-106162819D01*
X199813600Y-106162819D02*
X199670743Y-106210438D01*
X199337409Y-106162819D02*
X199099314Y-107162819D01*
X199099314Y-107162819D02*
X198908838Y-106448533D01*
X198908838Y-106448533D02*
X198718362Y-107162819D01*
X198718362Y-107162819D02*
X198480267Y-106162819D01*
X198146933Y-106258057D02*
X198099314Y-106210438D01*
X198099314Y-106210438D02*
X198004076Y-106162819D01*
X198004076Y-106162819D02*
X197765981Y-106162819D01*
X197765981Y-106162819D02*
X197670743Y-106210438D01*
X197670743Y-106210438D02*
X197623124Y-106258057D01*
X197623124Y-106258057D02*
X197575505Y-106353295D01*
X197575505Y-106353295D02*
X197575505Y-106448533D01*
X197575505Y-106448533D02*
X197623124Y-106591390D01*
X197623124Y-106591390D02*
X198194552Y-107162819D01*
X198194552Y-107162819D02*
X197575505Y-107162819D01*
X197194552Y-106258057D02*
X197146933Y-106210438D01*
X197146933Y-106210438D02*
X197051695Y-106162819D01*
X197051695Y-106162819D02*
X196813600Y-106162819D01*
X196813600Y-106162819D02*
X196718362Y-106210438D01*
X196718362Y-106210438D02*
X196670743Y-106258057D01*
X196670743Y-106258057D02*
X196623124Y-106353295D01*
X196623124Y-106353295D02*
X196623124Y-106448533D01*
X196623124Y-106448533D02*
X196670743Y-106591390D01*
X196670743Y-106591390D02*
X197242171Y-107162819D01*
X197242171Y-107162819D02*
X196623124Y-107162819D01*
X256488094Y-98654819D02*
X256488094Y-97654819D01*
X256488094Y-97654819D02*
X256249999Y-97654819D01*
X256249999Y-97654819D02*
X256107142Y-97702438D01*
X256107142Y-97702438D02*
X256011904Y-97797676D01*
X256011904Y-97797676D02*
X255964285Y-97892914D01*
X255964285Y-97892914D02*
X255916666Y-98083390D01*
X255916666Y-98083390D02*
X255916666Y-98226247D01*
X255916666Y-98226247D02*
X255964285Y-98416723D01*
X255964285Y-98416723D02*
X256011904Y-98511961D01*
X256011904Y-98511961D02*
X256107142Y-98607200D01*
X256107142Y-98607200D02*
X256249999Y-98654819D01*
X256249999Y-98654819D02*
X256488094Y-98654819D01*
X255059523Y-97988152D02*
X255059523Y-98654819D01*
X255297618Y-97607200D02*
X255535713Y-98321485D01*
X255535713Y-98321485D02*
X254916666Y-98321485D01*
X256915980Y-55553200D02*
X256773123Y-55600819D01*
X256773123Y-55600819D02*
X256535028Y-55600819D01*
X256535028Y-55600819D02*
X256439790Y-55553200D01*
X256439790Y-55553200D02*
X256392171Y-55505580D01*
X256392171Y-55505580D02*
X256344552Y-55410342D01*
X256344552Y-55410342D02*
X256344552Y-55315104D01*
X256344552Y-55315104D02*
X256392171Y-55219866D01*
X256392171Y-55219866D02*
X256439790Y-55172247D01*
X256439790Y-55172247D02*
X256535028Y-55124628D01*
X256535028Y-55124628D02*
X256725504Y-55077009D01*
X256725504Y-55077009D02*
X256820742Y-55029390D01*
X256820742Y-55029390D02*
X256868361Y-54981771D01*
X256868361Y-54981771D02*
X256915980Y-54886533D01*
X256915980Y-54886533D02*
X256915980Y-54791295D01*
X256915980Y-54791295D02*
X256868361Y-54696057D01*
X256868361Y-54696057D02*
X256820742Y-54648438D01*
X256820742Y-54648438D02*
X256725504Y-54600819D01*
X256725504Y-54600819D02*
X256487409Y-54600819D01*
X256487409Y-54600819D02*
X256344552Y-54648438D01*
X256011218Y-54600819D02*
X255773123Y-55600819D01*
X255773123Y-55600819D02*
X255582647Y-54886533D01*
X255582647Y-54886533D02*
X255392171Y-55600819D01*
X255392171Y-55600819D02*
X255154076Y-54600819D01*
X254344552Y-54600819D02*
X254535028Y-54600819D01*
X254535028Y-54600819D02*
X254630266Y-54648438D01*
X254630266Y-54648438D02*
X254677885Y-54696057D01*
X254677885Y-54696057D02*
X254773123Y-54838914D01*
X254773123Y-54838914D02*
X254820742Y-55029390D01*
X254820742Y-55029390D02*
X254820742Y-55410342D01*
X254820742Y-55410342D02*
X254773123Y-55505580D01*
X254773123Y-55505580D02*
X254725504Y-55553200D01*
X254725504Y-55553200D02*
X254630266Y-55600819D01*
X254630266Y-55600819D02*
X254439790Y-55600819D01*
X254439790Y-55600819D02*
X254344552Y-55553200D01*
X254344552Y-55553200D02*
X254296933Y-55505580D01*
X254296933Y-55505580D02*
X254249314Y-55410342D01*
X254249314Y-55410342D02*
X254249314Y-55172247D01*
X254249314Y-55172247D02*
X254296933Y-55077009D01*
X254296933Y-55077009D02*
X254344552Y-55029390D01*
X254344552Y-55029390D02*
X254439790Y-54981771D01*
X254439790Y-54981771D02*
X254630266Y-54981771D01*
X254630266Y-54981771D02*
X254725504Y-55029390D01*
X254725504Y-55029390D02*
X254773123Y-55077009D01*
X254773123Y-55077009D02*
X254820742Y-55172247D01*
X219292171Y-103051200D02*
X219149314Y-103098819D01*
X219149314Y-103098819D02*
X218911219Y-103098819D01*
X218911219Y-103098819D02*
X218815981Y-103051200D01*
X218815981Y-103051200D02*
X218768362Y-103003580D01*
X218768362Y-103003580D02*
X218720743Y-102908342D01*
X218720743Y-102908342D02*
X218720743Y-102813104D01*
X218720743Y-102813104D02*
X218768362Y-102717866D01*
X218768362Y-102717866D02*
X218815981Y-102670247D01*
X218815981Y-102670247D02*
X218911219Y-102622628D01*
X218911219Y-102622628D02*
X219101695Y-102575009D01*
X219101695Y-102575009D02*
X219196933Y-102527390D01*
X219196933Y-102527390D02*
X219244552Y-102479771D01*
X219244552Y-102479771D02*
X219292171Y-102384533D01*
X219292171Y-102384533D02*
X219292171Y-102289295D01*
X219292171Y-102289295D02*
X219244552Y-102194057D01*
X219244552Y-102194057D02*
X219196933Y-102146438D01*
X219196933Y-102146438D02*
X219101695Y-102098819D01*
X219101695Y-102098819D02*
X218863600Y-102098819D01*
X218863600Y-102098819D02*
X218720743Y-102146438D01*
X218387409Y-102098819D02*
X218149314Y-103098819D01*
X218149314Y-103098819D02*
X217958838Y-102384533D01*
X217958838Y-102384533D02*
X217768362Y-103098819D01*
X217768362Y-103098819D02*
X217530267Y-102098819D01*
X216625505Y-103098819D02*
X217196933Y-103098819D01*
X216911219Y-103098819D02*
X216911219Y-102098819D01*
X216911219Y-102098819D02*
X217006457Y-102241676D01*
X217006457Y-102241676D02*
X217101695Y-102336914D01*
X217101695Y-102336914D02*
X217196933Y-102384533D01*
X216054076Y-102527390D02*
X216149314Y-102479771D01*
X216149314Y-102479771D02*
X216196933Y-102432152D01*
X216196933Y-102432152D02*
X216244552Y-102336914D01*
X216244552Y-102336914D02*
X216244552Y-102289295D01*
X216244552Y-102289295D02*
X216196933Y-102194057D01*
X216196933Y-102194057D02*
X216149314Y-102146438D01*
X216149314Y-102146438D02*
X216054076Y-102098819D01*
X216054076Y-102098819D02*
X215863600Y-102098819D01*
X215863600Y-102098819D02*
X215768362Y-102146438D01*
X215768362Y-102146438D02*
X215720743Y-102194057D01*
X215720743Y-102194057D02*
X215673124Y-102289295D01*
X215673124Y-102289295D02*
X215673124Y-102336914D01*
X215673124Y-102336914D02*
X215720743Y-102432152D01*
X215720743Y-102432152D02*
X215768362Y-102479771D01*
X215768362Y-102479771D02*
X215863600Y-102527390D01*
X215863600Y-102527390D02*
X216054076Y-102527390D01*
X216054076Y-102527390D02*
X216149314Y-102575009D01*
X216149314Y-102575009D02*
X216196933Y-102622628D01*
X216196933Y-102622628D02*
X216244552Y-102717866D01*
X216244552Y-102717866D02*
X216244552Y-102908342D01*
X216244552Y-102908342D02*
X216196933Y-103003580D01*
X216196933Y-103003580D02*
X216149314Y-103051200D01*
X216149314Y-103051200D02*
X216054076Y-103098819D01*
X216054076Y-103098819D02*
X215863600Y-103098819D01*
X215863600Y-103098819D02*
X215768362Y-103051200D01*
X215768362Y-103051200D02*
X215720743Y-103003580D01*
X215720743Y-103003580D02*
X215673124Y-102908342D01*
X215673124Y-102908342D02*
X215673124Y-102717866D01*
X215673124Y-102717866D02*
X215720743Y-102622628D01*
X215720743Y-102622628D02*
X215768362Y-102575009D01*
X215768362Y-102575009D02*
X215863600Y-102527390D01*
X236713094Y-74354819D02*
X236713094Y-73354819D01*
X236713094Y-73354819D02*
X236474999Y-73354819D01*
X236474999Y-73354819D02*
X236332142Y-73402438D01*
X236332142Y-73402438D02*
X236236904Y-73497676D01*
X236236904Y-73497676D02*
X236189285Y-73592914D01*
X236189285Y-73592914D02*
X236141666Y-73783390D01*
X236141666Y-73783390D02*
X236141666Y-73926247D01*
X236141666Y-73926247D02*
X236189285Y-74116723D01*
X236189285Y-74116723D02*
X236236904Y-74211961D01*
X236236904Y-74211961D02*
X236332142Y-74307200D01*
X236332142Y-74307200D02*
X236474999Y-74354819D01*
X236474999Y-74354819D02*
X236713094Y-74354819D01*
X235808332Y-73354819D02*
X235141666Y-73354819D01*
X235141666Y-73354819D02*
X235570237Y-74354819D01*
X237213094Y-54904819D02*
X237213094Y-53904819D01*
X237213094Y-53904819D02*
X236974999Y-53904819D01*
X236974999Y-53904819D02*
X236832142Y-53952438D01*
X236832142Y-53952438D02*
X236736904Y-54047676D01*
X236736904Y-54047676D02*
X236689285Y-54142914D01*
X236689285Y-54142914D02*
X236641666Y-54333390D01*
X236641666Y-54333390D02*
X236641666Y-54476247D01*
X236641666Y-54476247D02*
X236689285Y-54666723D01*
X236689285Y-54666723D02*
X236736904Y-54761961D01*
X236736904Y-54761961D02*
X236832142Y-54857200D01*
X236832142Y-54857200D02*
X236974999Y-54904819D01*
X236974999Y-54904819D02*
X237213094Y-54904819D01*
X235784523Y-53904819D02*
X235974999Y-53904819D01*
X235974999Y-53904819D02*
X236070237Y-53952438D01*
X236070237Y-53952438D02*
X236117856Y-54000057D01*
X236117856Y-54000057D02*
X236213094Y-54142914D01*
X236213094Y-54142914D02*
X236260713Y-54333390D01*
X236260713Y-54333390D02*
X236260713Y-54714342D01*
X236260713Y-54714342D02*
X236213094Y-54809580D01*
X236213094Y-54809580D02*
X236165475Y-54857200D01*
X236165475Y-54857200D02*
X236070237Y-54904819D01*
X236070237Y-54904819D02*
X235879761Y-54904819D01*
X235879761Y-54904819D02*
X235784523Y-54857200D01*
X235784523Y-54857200D02*
X235736904Y-54809580D01*
X235736904Y-54809580D02*
X235689285Y-54714342D01*
X235689285Y-54714342D02*
X235689285Y-54476247D01*
X235689285Y-54476247D02*
X235736904Y-54381009D01*
X235736904Y-54381009D02*
X235784523Y-54333390D01*
X235784523Y-54333390D02*
X235879761Y-54285771D01*
X235879761Y-54285771D02*
X236070237Y-54285771D01*
X236070237Y-54285771D02*
X236165475Y-54333390D01*
X236165475Y-54333390D02*
X236213094Y-54381009D01*
X236213094Y-54381009D02*
X236260713Y-54476247D01*
X275965980Y-93653200D02*
X275823123Y-93700819D01*
X275823123Y-93700819D02*
X275585028Y-93700819D01*
X275585028Y-93700819D02*
X275489790Y-93653200D01*
X275489790Y-93653200D02*
X275442171Y-93605580D01*
X275442171Y-93605580D02*
X275394552Y-93510342D01*
X275394552Y-93510342D02*
X275394552Y-93415104D01*
X275394552Y-93415104D02*
X275442171Y-93319866D01*
X275442171Y-93319866D02*
X275489790Y-93272247D01*
X275489790Y-93272247D02*
X275585028Y-93224628D01*
X275585028Y-93224628D02*
X275775504Y-93177009D01*
X275775504Y-93177009D02*
X275870742Y-93129390D01*
X275870742Y-93129390D02*
X275918361Y-93081771D01*
X275918361Y-93081771D02*
X275965980Y-92986533D01*
X275965980Y-92986533D02*
X275965980Y-92891295D01*
X275965980Y-92891295D02*
X275918361Y-92796057D01*
X275918361Y-92796057D02*
X275870742Y-92748438D01*
X275870742Y-92748438D02*
X275775504Y-92700819D01*
X275775504Y-92700819D02*
X275537409Y-92700819D01*
X275537409Y-92700819D02*
X275394552Y-92748438D01*
X275061218Y-92700819D02*
X274823123Y-93700819D01*
X274823123Y-93700819D02*
X274632647Y-92986533D01*
X274632647Y-92986533D02*
X274442171Y-93700819D01*
X274442171Y-93700819D02*
X274204076Y-92700819D01*
X273918361Y-92700819D02*
X273299314Y-92700819D01*
X273299314Y-92700819D02*
X273632647Y-93081771D01*
X273632647Y-93081771D02*
X273489790Y-93081771D01*
X273489790Y-93081771D02*
X273394552Y-93129390D01*
X273394552Y-93129390D02*
X273346933Y-93177009D01*
X273346933Y-93177009D02*
X273299314Y-93272247D01*
X273299314Y-93272247D02*
X273299314Y-93510342D01*
X273299314Y-93510342D02*
X273346933Y-93605580D01*
X273346933Y-93605580D02*
X273394552Y-93653200D01*
X273394552Y-93653200D02*
X273489790Y-93700819D01*
X273489790Y-93700819D02*
X273775504Y-93700819D01*
X273775504Y-93700819D02*
X273870742Y-93653200D01*
X273870742Y-93653200D02*
X273918361Y-93605580D01*
X257391995Y-112703200D02*
X257249138Y-112750819D01*
X257249138Y-112750819D02*
X257011043Y-112750819D01*
X257011043Y-112750819D02*
X256915805Y-112703200D01*
X256915805Y-112703200D02*
X256868186Y-112655580D01*
X256868186Y-112655580D02*
X256820567Y-112560342D01*
X256820567Y-112560342D02*
X256820567Y-112465104D01*
X256820567Y-112465104D02*
X256868186Y-112369866D01*
X256868186Y-112369866D02*
X256915805Y-112322247D01*
X256915805Y-112322247D02*
X257011043Y-112274628D01*
X257011043Y-112274628D02*
X257201519Y-112227009D01*
X257201519Y-112227009D02*
X257296757Y-112179390D01*
X257296757Y-112179390D02*
X257344376Y-112131771D01*
X257344376Y-112131771D02*
X257391995Y-112036533D01*
X257391995Y-112036533D02*
X257391995Y-111941295D01*
X257391995Y-111941295D02*
X257344376Y-111846057D01*
X257344376Y-111846057D02*
X257296757Y-111798438D01*
X257296757Y-111798438D02*
X257201519Y-111750819D01*
X257201519Y-111750819D02*
X256963424Y-111750819D01*
X256963424Y-111750819D02*
X256820567Y-111798438D01*
X256487233Y-111750819D02*
X256249138Y-112750819D01*
X256249138Y-112750819D02*
X256058662Y-112036533D01*
X256058662Y-112036533D02*
X255868186Y-112750819D01*
X255868186Y-112750819D02*
X255630091Y-111750819D01*
X254725329Y-112750819D02*
X255296757Y-112750819D01*
X255011043Y-112750819D02*
X255011043Y-111750819D01*
X255011043Y-111750819D02*
X255106281Y-111893676D01*
X255106281Y-111893676D02*
X255201519Y-111988914D01*
X255201519Y-111988914D02*
X255296757Y-112036533D01*
X254106281Y-111750819D02*
X254011043Y-111750819D01*
X254011043Y-111750819D02*
X253915805Y-111798438D01*
X253915805Y-111798438D02*
X253868186Y-111846057D01*
X253868186Y-111846057D02*
X253820567Y-111941295D01*
X253820567Y-111941295D02*
X253772948Y-112131771D01*
X253772948Y-112131771D02*
X253772948Y-112369866D01*
X253772948Y-112369866D02*
X253820567Y-112560342D01*
X253820567Y-112560342D02*
X253868186Y-112655580D01*
X253868186Y-112655580D02*
X253915805Y-112703200D01*
X253915805Y-112703200D02*
X254011043Y-112750819D01*
X254011043Y-112750819D02*
X254106281Y-112750819D01*
X254106281Y-112750819D02*
X254201519Y-112703200D01*
X254201519Y-112703200D02*
X254249138Y-112655580D01*
X254249138Y-112655580D02*
X254296757Y-112560342D01*
X254296757Y-112560342D02*
X254344376Y-112369866D01*
X254344376Y-112369866D02*
X254344376Y-112131771D01*
X254344376Y-112131771D02*
X254296757Y-111941295D01*
X254296757Y-111941295D02*
X254249138Y-111846057D01*
X254249138Y-111846057D02*
X254201519Y-111798438D01*
X254201519Y-111798438D02*
X254106281Y-111750819D01*
X210139285Y-134154819D02*
X210139285Y-133154819D01*
X210139285Y-133154819D02*
X209901190Y-133154819D01*
X209901190Y-133154819D02*
X209758333Y-133202438D01*
X209758333Y-133202438D02*
X209663095Y-133297676D01*
X209663095Y-133297676D02*
X209615476Y-133392914D01*
X209615476Y-133392914D02*
X209567857Y-133583390D01*
X209567857Y-133583390D02*
X209567857Y-133726247D01*
X209567857Y-133726247D02*
X209615476Y-133916723D01*
X209615476Y-133916723D02*
X209663095Y-134011961D01*
X209663095Y-134011961D02*
X209758333Y-134107200D01*
X209758333Y-134107200D02*
X209901190Y-134154819D01*
X209901190Y-134154819D02*
X210139285Y-134154819D01*
X209234523Y-133154819D02*
X208615476Y-133154819D01*
X208615476Y-133154819D02*
X208948809Y-133535771D01*
X208948809Y-133535771D02*
X208805952Y-133535771D01*
X208805952Y-133535771D02*
X208710714Y-133583390D01*
X208710714Y-133583390D02*
X208663095Y-133631009D01*
X208663095Y-133631009D02*
X208615476Y-133726247D01*
X208615476Y-133726247D02*
X208615476Y-133964342D01*
X208615476Y-133964342D02*
X208663095Y-134059580D01*
X208663095Y-134059580D02*
X208710714Y-134107200D01*
X208710714Y-134107200D02*
X208805952Y-134154819D01*
X208805952Y-134154819D02*
X209091666Y-134154819D01*
X209091666Y-134154819D02*
X209186904Y-134107200D01*
X209186904Y-134107200D02*
X209234523Y-134059580D01*
X208282142Y-133154819D02*
X207615476Y-133154819D01*
X207615476Y-133154819D02*
X208044047Y-134154819D01*
X238341995Y-107115200D02*
X238199138Y-107162819D01*
X238199138Y-107162819D02*
X237961043Y-107162819D01*
X237961043Y-107162819D02*
X237865805Y-107115200D01*
X237865805Y-107115200D02*
X237818186Y-107067580D01*
X237818186Y-107067580D02*
X237770567Y-106972342D01*
X237770567Y-106972342D02*
X237770567Y-106877104D01*
X237770567Y-106877104D02*
X237818186Y-106781866D01*
X237818186Y-106781866D02*
X237865805Y-106734247D01*
X237865805Y-106734247D02*
X237961043Y-106686628D01*
X237961043Y-106686628D02*
X238151519Y-106639009D01*
X238151519Y-106639009D02*
X238246757Y-106591390D01*
X238246757Y-106591390D02*
X238294376Y-106543771D01*
X238294376Y-106543771D02*
X238341995Y-106448533D01*
X238341995Y-106448533D02*
X238341995Y-106353295D01*
X238341995Y-106353295D02*
X238294376Y-106258057D01*
X238294376Y-106258057D02*
X238246757Y-106210438D01*
X238246757Y-106210438D02*
X238151519Y-106162819D01*
X238151519Y-106162819D02*
X237913424Y-106162819D01*
X237913424Y-106162819D02*
X237770567Y-106210438D01*
X237437233Y-106162819D02*
X237199138Y-107162819D01*
X237199138Y-107162819D02*
X237008662Y-106448533D01*
X237008662Y-106448533D02*
X236818186Y-107162819D01*
X236818186Y-107162819D02*
X236580091Y-106162819D01*
X235675329Y-107162819D02*
X236246757Y-107162819D01*
X235961043Y-107162819D02*
X235961043Y-106162819D01*
X235961043Y-106162819D02*
X236056281Y-106305676D01*
X236056281Y-106305676D02*
X236151519Y-106400914D01*
X236151519Y-106400914D02*
X236246757Y-106448533D01*
X234818186Y-106496152D02*
X234818186Y-107162819D01*
X235056281Y-106115200D02*
X235294376Y-106829485D01*
X235294376Y-106829485D02*
X234675329Y-106829485D01*
X275965804Y-55553200D02*
X275822947Y-55600819D01*
X275822947Y-55600819D02*
X275584852Y-55600819D01*
X275584852Y-55600819D02*
X275489614Y-55553200D01*
X275489614Y-55553200D02*
X275441995Y-55505580D01*
X275441995Y-55505580D02*
X275394376Y-55410342D01*
X275394376Y-55410342D02*
X275394376Y-55315104D01*
X275394376Y-55315104D02*
X275441995Y-55219866D01*
X275441995Y-55219866D02*
X275489614Y-55172247D01*
X275489614Y-55172247D02*
X275584852Y-55124628D01*
X275584852Y-55124628D02*
X275775328Y-55077009D01*
X275775328Y-55077009D02*
X275870566Y-55029390D01*
X275870566Y-55029390D02*
X275918185Y-54981771D01*
X275918185Y-54981771D02*
X275965804Y-54886533D01*
X275965804Y-54886533D02*
X275965804Y-54791295D01*
X275965804Y-54791295D02*
X275918185Y-54696057D01*
X275918185Y-54696057D02*
X275870566Y-54648438D01*
X275870566Y-54648438D02*
X275775328Y-54600819D01*
X275775328Y-54600819D02*
X275537233Y-54600819D01*
X275537233Y-54600819D02*
X275394376Y-54648438D01*
X275061042Y-54600819D02*
X274822947Y-55600819D01*
X274822947Y-55600819D02*
X274632471Y-54886533D01*
X274632471Y-54886533D02*
X274441995Y-55600819D01*
X274441995Y-55600819D02*
X274203900Y-54600819D01*
X273394376Y-54934152D02*
X273394376Y-55600819D01*
X273632471Y-54553200D02*
X273870566Y-55267485D01*
X273870566Y-55267485D02*
X273251519Y-55267485D01*
X181192171Y-52378200D02*
X181049314Y-52425819D01*
X181049314Y-52425819D02*
X180811219Y-52425819D01*
X180811219Y-52425819D02*
X180715981Y-52378200D01*
X180715981Y-52378200D02*
X180668362Y-52330580D01*
X180668362Y-52330580D02*
X180620743Y-52235342D01*
X180620743Y-52235342D02*
X180620743Y-52140104D01*
X180620743Y-52140104D02*
X180668362Y-52044866D01*
X180668362Y-52044866D02*
X180715981Y-51997247D01*
X180715981Y-51997247D02*
X180811219Y-51949628D01*
X180811219Y-51949628D02*
X181001695Y-51902009D01*
X181001695Y-51902009D02*
X181096933Y-51854390D01*
X181096933Y-51854390D02*
X181144552Y-51806771D01*
X181144552Y-51806771D02*
X181192171Y-51711533D01*
X181192171Y-51711533D02*
X181192171Y-51616295D01*
X181192171Y-51616295D02*
X181144552Y-51521057D01*
X181144552Y-51521057D02*
X181096933Y-51473438D01*
X181096933Y-51473438D02*
X181001695Y-51425819D01*
X181001695Y-51425819D02*
X180763600Y-51425819D01*
X180763600Y-51425819D02*
X180620743Y-51473438D01*
X180287409Y-51425819D02*
X180049314Y-52425819D01*
X180049314Y-52425819D02*
X179858838Y-51711533D01*
X179858838Y-51711533D02*
X179668362Y-52425819D01*
X179668362Y-52425819D02*
X179430267Y-51425819D01*
X179096933Y-51521057D02*
X179049314Y-51473438D01*
X179049314Y-51473438D02*
X178954076Y-51425819D01*
X178954076Y-51425819D02*
X178715981Y-51425819D01*
X178715981Y-51425819D02*
X178620743Y-51473438D01*
X178620743Y-51473438D02*
X178573124Y-51521057D01*
X178573124Y-51521057D02*
X178525505Y-51616295D01*
X178525505Y-51616295D02*
X178525505Y-51711533D01*
X178525505Y-51711533D02*
X178573124Y-51854390D01*
X178573124Y-51854390D02*
X179144552Y-52425819D01*
X179144552Y-52425819D02*
X178525505Y-52425819D01*
X178192171Y-51425819D02*
X177573124Y-51425819D01*
X177573124Y-51425819D02*
X177906457Y-51806771D01*
X177906457Y-51806771D02*
X177763600Y-51806771D01*
X177763600Y-51806771D02*
X177668362Y-51854390D01*
X177668362Y-51854390D02*
X177620743Y-51902009D01*
X177620743Y-51902009D02*
X177573124Y-51997247D01*
X177573124Y-51997247D02*
X177573124Y-52235342D01*
X177573124Y-52235342D02*
X177620743Y-52330580D01*
X177620743Y-52330580D02*
X177668362Y-52378200D01*
X177668362Y-52378200D02*
X177763600Y-52425819D01*
X177763600Y-52425819D02*
X178049314Y-52425819D01*
X178049314Y-52425819D02*
X178144552Y-52378200D01*
X178144552Y-52378200D02*
X178192171Y-52330580D01*
X237038094Y-112104819D02*
X237038094Y-111104819D01*
X237038094Y-111104819D02*
X236799999Y-111104819D01*
X236799999Y-111104819D02*
X236657142Y-111152438D01*
X236657142Y-111152438D02*
X236561904Y-111247676D01*
X236561904Y-111247676D02*
X236514285Y-111342914D01*
X236514285Y-111342914D02*
X236466666Y-111533390D01*
X236466666Y-111533390D02*
X236466666Y-111676247D01*
X236466666Y-111676247D02*
X236514285Y-111866723D01*
X236514285Y-111866723D02*
X236561904Y-111961961D01*
X236561904Y-111961961D02*
X236657142Y-112057200D01*
X236657142Y-112057200D02*
X236799999Y-112104819D01*
X236799999Y-112104819D02*
X237038094Y-112104819D01*
X235990475Y-112104819D02*
X235799999Y-112104819D01*
X235799999Y-112104819D02*
X235704761Y-112057200D01*
X235704761Y-112057200D02*
X235657142Y-112009580D01*
X235657142Y-112009580D02*
X235561904Y-111866723D01*
X235561904Y-111866723D02*
X235514285Y-111676247D01*
X235514285Y-111676247D02*
X235514285Y-111295295D01*
X235514285Y-111295295D02*
X235561904Y-111200057D01*
X235561904Y-111200057D02*
X235609523Y-111152438D01*
X235609523Y-111152438D02*
X235704761Y-111104819D01*
X235704761Y-111104819D02*
X235895237Y-111104819D01*
X235895237Y-111104819D02*
X235990475Y-111152438D01*
X235990475Y-111152438D02*
X236038094Y-111200057D01*
X236038094Y-111200057D02*
X236085713Y-111295295D01*
X236085713Y-111295295D02*
X236085713Y-111533390D01*
X236085713Y-111533390D02*
X236038094Y-111628628D01*
X236038094Y-111628628D02*
X235990475Y-111676247D01*
X235990475Y-111676247D02*
X235895237Y-111723866D01*
X235895237Y-111723866D02*
X235704761Y-111723866D01*
X235704761Y-111723866D02*
X235609523Y-111676247D01*
X235609523Y-111676247D02*
X235561904Y-111628628D01*
X235561904Y-111628628D02*
X235514285Y-111533390D01*
X199439285Y-55054819D02*
X199439285Y-54054819D01*
X199439285Y-54054819D02*
X199201190Y-54054819D01*
X199201190Y-54054819D02*
X199058333Y-54102438D01*
X199058333Y-54102438D02*
X198963095Y-54197676D01*
X198963095Y-54197676D02*
X198915476Y-54292914D01*
X198915476Y-54292914D02*
X198867857Y-54483390D01*
X198867857Y-54483390D02*
X198867857Y-54626247D01*
X198867857Y-54626247D02*
X198915476Y-54816723D01*
X198915476Y-54816723D02*
X198963095Y-54911961D01*
X198963095Y-54911961D02*
X199058333Y-55007200D01*
X199058333Y-55007200D02*
X199201190Y-55054819D01*
X199201190Y-55054819D02*
X199439285Y-55054819D01*
X197915476Y-55054819D02*
X198486904Y-55054819D01*
X198201190Y-55054819D02*
X198201190Y-54054819D01*
X198201190Y-54054819D02*
X198296428Y-54197676D01*
X198296428Y-54197676D02*
X198391666Y-54292914D01*
X198391666Y-54292914D02*
X198486904Y-54340533D01*
X197344047Y-54483390D02*
X197439285Y-54435771D01*
X197439285Y-54435771D02*
X197486904Y-54388152D01*
X197486904Y-54388152D02*
X197534523Y-54292914D01*
X197534523Y-54292914D02*
X197534523Y-54245295D01*
X197534523Y-54245295D02*
X197486904Y-54150057D01*
X197486904Y-54150057D02*
X197439285Y-54102438D01*
X197439285Y-54102438D02*
X197344047Y-54054819D01*
X197344047Y-54054819D02*
X197153571Y-54054819D01*
X197153571Y-54054819D02*
X197058333Y-54102438D01*
X197058333Y-54102438D02*
X197010714Y-54150057D01*
X197010714Y-54150057D02*
X196963095Y-54245295D01*
X196963095Y-54245295D02*
X196963095Y-54292914D01*
X196963095Y-54292914D02*
X197010714Y-54388152D01*
X197010714Y-54388152D02*
X197058333Y-54435771D01*
X197058333Y-54435771D02*
X197153571Y-54483390D01*
X197153571Y-54483390D02*
X197344047Y-54483390D01*
X197344047Y-54483390D02*
X197439285Y-54531009D01*
X197439285Y-54531009D02*
X197486904Y-54578628D01*
X197486904Y-54578628D02*
X197534523Y-54673866D01*
X197534523Y-54673866D02*
X197534523Y-54864342D01*
X197534523Y-54864342D02*
X197486904Y-54959580D01*
X197486904Y-54959580D02*
X197439285Y-55007200D01*
X197439285Y-55007200D02*
X197344047Y-55054819D01*
X197344047Y-55054819D02*
X197153571Y-55054819D01*
X197153571Y-55054819D02*
X197058333Y-55007200D01*
X197058333Y-55007200D02*
X197010714Y-54959580D01*
X197010714Y-54959580D02*
X196963095Y-54864342D01*
X196963095Y-54864342D02*
X196963095Y-54673866D01*
X196963095Y-54673866D02*
X197010714Y-54578628D01*
X197010714Y-54578628D02*
X197058333Y-54531009D01*
X197058333Y-54531009D02*
X197153571Y-54483390D01*
X275965804Y-74603200D02*
X275822947Y-74650819D01*
X275822947Y-74650819D02*
X275584852Y-74650819D01*
X275584852Y-74650819D02*
X275489614Y-74603200D01*
X275489614Y-74603200D02*
X275441995Y-74555580D01*
X275441995Y-74555580D02*
X275394376Y-74460342D01*
X275394376Y-74460342D02*
X275394376Y-74365104D01*
X275394376Y-74365104D02*
X275441995Y-74269866D01*
X275441995Y-74269866D02*
X275489614Y-74222247D01*
X275489614Y-74222247D02*
X275584852Y-74174628D01*
X275584852Y-74174628D02*
X275775328Y-74127009D01*
X275775328Y-74127009D02*
X275870566Y-74079390D01*
X275870566Y-74079390D02*
X275918185Y-74031771D01*
X275918185Y-74031771D02*
X275965804Y-73936533D01*
X275965804Y-73936533D02*
X275965804Y-73841295D01*
X275965804Y-73841295D02*
X275918185Y-73746057D01*
X275918185Y-73746057D02*
X275870566Y-73698438D01*
X275870566Y-73698438D02*
X275775328Y-73650819D01*
X275775328Y-73650819D02*
X275537233Y-73650819D01*
X275537233Y-73650819D02*
X275394376Y-73698438D01*
X275061042Y-73650819D02*
X274822947Y-74650819D01*
X274822947Y-74650819D02*
X274632471Y-73936533D01*
X274632471Y-73936533D02*
X274441995Y-74650819D01*
X274441995Y-74650819D02*
X274203900Y-73650819D01*
X273346757Y-73650819D02*
X273822947Y-73650819D01*
X273822947Y-73650819D02*
X273870566Y-74127009D01*
X273870566Y-74127009D02*
X273822947Y-74079390D01*
X273822947Y-74079390D02*
X273727709Y-74031771D01*
X273727709Y-74031771D02*
X273489614Y-74031771D01*
X273489614Y-74031771D02*
X273394376Y-74079390D01*
X273394376Y-74079390D02*
X273346757Y-74127009D01*
X273346757Y-74127009D02*
X273299138Y-74222247D01*
X273299138Y-74222247D02*
X273299138Y-74460342D01*
X273299138Y-74460342D02*
X273346757Y-74555580D01*
X273346757Y-74555580D02*
X273394376Y-74603200D01*
X273394376Y-74603200D02*
X273489614Y-74650819D01*
X273489614Y-74650819D02*
X273727709Y-74650819D01*
X273727709Y-74650819D02*
X273822947Y-74603200D01*
X273822947Y-74603200D02*
X273870566Y-74555580D01*
X256314285Y-60579819D02*
X256314285Y-59579819D01*
X256314285Y-59579819D02*
X256076190Y-59579819D01*
X256076190Y-59579819D02*
X255933333Y-59627438D01*
X255933333Y-59627438D02*
X255838095Y-59722676D01*
X255838095Y-59722676D02*
X255790476Y-59817914D01*
X255790476Y-59817914D02*
X255742857Y-60008390D01*
X255742857Y-60008390D02*
X255742857Y-60151247D01*
X255742857Y-60151247D02*
X255790476Y-60341723D01*
X255790476Y-60341723D02*
X255838095Y-60436961D01*
X255838095Y-60436961D02*
X255933333Y-60532200D01*
X255933333Y-60532200D02*
X256076190Y-60579819D01*
X256076190Y-60579819D02*
X256314285Y-60579819D01*
X254790476Y-60579819D02*
X255361904Y-60579819D01*
X255076190Y-60579819D02*
X255076190Y-59579819D01*
X255076190Y-59579819D02*
X255171428Y-59722676D01*
X255171428Y-59722676D02*
X255266666Y-59817914D01*
X255266666Y-59817914D02*
X255361904Y-59865533D01*
X253885714Y-59579819D02*
X254361904Y-59579819D01*
X254361904Y-59579819D02*
X254409523Y-60056009D01*
X254409523Y-60056009D02*
X254361904Y-60008390D01*
X254361904Y-60008390D02*
X254266666Y-59960771D01*
X254266666Y-59960771D02*
X254028571Y-59960771D01*
X254028571Y-59960771D02*
X253933333Y-60008390D01*
X253933333Y-60008390D02*
X253885714Y-60056009D01*
X253885714Y-60056009D02*
X253838095Y-60151247D01*
X253838095Y-60151247D02*
X253838095Y-60389342D01*
X253838095Y-60389342D02*
X253885714Y-60484580D01*
X253885714Y-60484580D02*
X253933333Y-60532200D01*
X253933333Y-60532200D02*
X254028571Y-60579819D01*
X254028571Y-60579819D02*
X254266666Y-60579819D01*
X254266666Y-60579819D02*
X254361904Y-60532200D01*
X254361904Y-60532200D02*
X254409523Y-60484580D01*
X256639285Y-79204819D02*
X256639285Y-78204819D01*
X256639285Y-78204819D02*
X256401190Y-78204819D01*
X256401190Y-78204819D02*
X256258333Y-78252438D01*
X256258333Y-78252438D02*
X256163095Y-78347676D01*
X256163095Y-78347676D02*
X256115476Y-78442914D01*
X256115476Y-78442914D02*
X256067857Y-78633390D01*
X256067857Y-78633390D02*
X256067857Y-78776247D01*
X256067857Y-78776247D02*
X256115476Y-78966723D01*
X256115476Y-78966723D02*
X256163095Y-79061961D01*
X256163095Y-79061961D02*
X256258333Y-79157200D01*
X256258333Y-79157200D02*
X256401190Y-79204819D01*
X256401190Y-79204819D02*
X256639285Y-79204819D01*
X255115476Y-79204819D02*
X255686904Y-79204819D01*
X255401190Y-79204819D02*
X255401190Y-78204819D01*
X255401190Y-78204819D02*
X255496428Y-78347676D01*
X255496428Y-78347676D02*
X255591666Y-78442914D01*
X255591666Y-78442914D02*
X255686904Y-78490533D01*
X254258333Y-78204819D02*
X254448809Y-78204819D01*
X254448809Y-78204819D02*
X254544047Y-78252438D01*
X254544047Y-78252438D02*
X254591666Y-78300057D01*
X254591666Y-78300057D02*
X254686904Y-78442914D01*
X254686904Y-78442914D02*
X254734523Y-78633390D01*
X254734523Y-78633390D02*
X254734523Y-79014342D01*
X254734523Y-79014342D02*
X254686904Y-79109580D01*
X254686904Y-79109580D02*
X254639285Y-79157200D01*
X254639285Y-79157200D02*
X254544047Y-79204819D01*
X254544047Y-79204819D02*
X254353571Y-79204819D01*
X254353571Y-79204819D02*
X254258333Y-79157200D01*
X254258333Y-79157200D02*
X254210714Y-79109580D01*
X254210714Y-79109580D02*
X254163095Y-79014342D01*
X254163095Y-79014342D02*
X254163095Y-78776247D01*
X254163095Y-78776247D02*
X254210714Y-78681009D01*
X254210714Y-78681009D02*
X254258333Y-78633390D01*
X254258333Y-78633390D02*
X254353571Y-78585771D01*
X254353571Y-78585771D02*
X254544047Y-78585771D01*
X254544047Y-78585771D02*
X254639285Y-78633390D01*
X254639285Y-78633390D02*
X254686904Y-78681009D01*
X254686904Y-78681009D02*
X254734523Y-78776247D01*
X180789285Y-57179819D02*
X180789285Y-56179819D01*
X180789285Y-56179819D02*
X180551190Y-56179819D01*
X180551190Y-56179819D02*
X180408333Y-56227438D01*
X180408333Y-56227438D02*
X180313095Y-56322676D01*
X180313095Y-56322676D02*
X180265476Y-56417914D01*
X180265476Y-56417914D02*
X180217857Y-56608390D01*
X180217857Y-56608390D02*
X180217857Y-56751247D01*
X180217857Y-56751247D02*
X180265476Y-56941723D01*
X180265476Y-56941723D02*
X180313095Y-57036961D01*
X180313095Y-57036961D02*
X180408333Y-57132200D01*
X180408333Y-57132200D02*
X180551190Y-57179819D01*
X180551190Y-57179819D02*
X180789285Y-57179819D01*
X179836904Y-56275057D02*
X179789285Y-56227438D01*
X179789285Y-56227438D02*
X179694047Y-56179819D01*
X179694047Y-56179819D02*
X179455952Y-56179819D01*
X179455952Y-56179819D02*
X179360714Y-56227438D01*
X179360714Y-56227438D02*
X179313095Y-56275057D01*
X179313095Y-56275057D02*
X179265476Y-56370295D01*
X179265476Y-56370295D02*
X179265476Y-56465533D01*
X179265476Y-56465533D02*
X179313095Y-56608390D01*
X179313095Y-56608390D02*
X179884523Y-57179819D01*
X179884523Y-57179819D02*
X179265476Y-57179819D01*
X178884523Y-56275057D02*
X178836904Y-56227438D01*
X178836904Y-56227438D02*
X178741666Y-56179819D01*
X178741666Y-56179819D02*
X178503571Y-56179819D01*
X178503571Y-56179819D02*
X178408333Y-56227438D01*
X178408333Y-56227438D02*
X178360714Y-56275057D01*
X178360714Y-56275057D02*
X178313095Y-56370295D01*
X178313095Y-56370295D02*
X178313095Y-56465533D01*
X178313095Y-56465533D02*
X178360714Y-56608390D01*
X178360714Y-56608390D02*
X178932142Y-57179819D01*
X178932142Y-57179819D02*
X178313095Y-57179819D01*
X169039285Y-139879819D02*
X169039285Y-138879819D01*
X169039285Y-138879819D02*
X168801190Y-138879819D01*
X168801190Y-138879819D02*
X168658333Y-138927438D01*
X168658333Y-138927438D02*
X168563095Y-139022676D01*
X168563095Y-139022676D02*
X168515476Y-139117914D01*
X168515476Y-139117914D02*
X168467857Y-139308390D01*
X168467857Y-139308390D02*
X168467857Y-139451247D01*
X168467857Y-139451247D02*
X168515476Y-139641723D01*
X168515476Y-139641723D02*
X168563095Y-139736961D01*
X168563095Y-139736961D02*
X168658333Y-139832200D01*
X168658333Y-139832200D02*
X168801190Y-139879819D01*
X168801190Y-139879819D02*
X169039285Y-139879819D01*
X168134523Y-138879819D02*
X167515476Y-138879819D01*
X167515476Y-138879819D02*
X167848809Y-139260771D01*
X167848809Y-139260771D02*
X167705952Y-139260771D01*
X167705952Y-139260771D02*
X167610714Y-139308390D01*
X167610714Y-139308390D02*
X167563095Y-139356009D01*
X167563095Y-139356009D02*
X167515476Y-139451247D01*
X167515476Y-139451247D02*
X167515476Y-139689342D01*
X167515476Y-139689342D02*
X167563095Y-139784580D01*
X167563095Y-139784580D02*
X167610714Y-139832200D01*
X167610714Y-139832200D02*
X167705952Y-139879819D01*
X167705952Y-139879819D02*
X167991666Y-139879819D01*
X167991666Y-139879819D02*
X168086904Y-139832200D01*
X168086904Y-139832200D02*
X168134523Y-139784580D01*
X166610714Y-138879819D02*
X167086904Y-138879819D01*
X167086904Y-138879819D02*
X167134523Y-139356009D01*
X167134523Y-139356009D02*
X167086904Y-139308390D01*
X167086904Y-139308390D02*
X166991666Y-139260771D01*
X166991666Y-139260771D02*
X166753571Y-139260771D01*
X166753571Y-139260771D02*
X166658333Y-139308390D01*
X166658333Y-139308390D02*
X166610714Y-139356009D01*
X166610714Y-139356009D02*
X166563095Y-139451247D01*
X166563095Y-139451247D02*
X166563095Y-139689342D01*
X166563095Y-139689342D02*
X166610714Y-139784580D01*
X166610714Y-139784580D02*
X166658333Y-139832200D01*
X166658333Y-139832200D02*
X166753571Y-139879819D01*
X166753571Y-139879819D02*
X166991666Y-139879819D01*
X166991666Y-139879819D02*
X167086904Y-139832200D01*
X167086904Y-139832200D02*
X167134523Y-139784580D01*
X219292171Y-45901200D02*
X219149314Y-45948819D01*
X219149314Y-45948819D02*
X218911219Y-45948819D01*
X218911219Y-45948819D02*
X218815981Y-45901200D01*
X218815981Y-45901200D02*
X218768362Y-45853580D01*
X218768362Y-45853580D02*
X218720743Y-45758342D01*
X218720743Y-45758342D02*
X218720743Y-45663104D01*
X218720743Y-45663104D02*
X218768362Y-45567866D01*
X218768362Y-45567866D02*
X218815981Y-45520247D01*
X218815981Y-45520247D02*
X218911219Y-45472628D01*
X218911219Y-45472628D02*
X219101695Y-45425009D01*
X219101695Y-45425009D02*
X219196933Y-45377390D01*
X219196933Y-45377390D02*
X219244552Y-45329771D01*
X219244552Y-45329771D02*
X219292171Y-45234533D01*
X219292171Y-45234533D02*
X219292171Y-45139295D01*
X219292171Y-45139295D02*
X219244552Y-45044057D01*
X219244552Y-45044057D02*
X219196933Y-44996438D01*
X219196933Y-44996438D02*
X219101695Y-44948819D01*
X219101695Y-44948819D02*
X218863600Y-44948819D01*
X218863600Y-44948819D02*
X218720743Y-44996438D01*
X218387409Y-44948819D02*
X218149314Y-45948819D01*
X218149314Y-45948819D02*
X217958838Y-45234533D01*
X217958838Y-45234533D02*
X217768362Y-45948819D01*
X217768362Y-45948819D02*
X217530267Y-44948819D01*
X216625505Y-45948819D02*
X217196933Y-45948819D01*
X216911219Y-45948819D02*
X216911219Y-44948819D01*
X216911219Y-44948819D02*
X217006457Y-45091676D01*
X217006457Y-45091676D02*
X217101695Y-45186914D01*
X217101695Y-45186914D02*
X217196933Y-45234533D01*
X215720743Y-44948819D02*
X216196933Y-44948819D01*
X216196933Y-44948819D02*
X216244552Y-45425009D01*
X216244552Y-45425009D02*
X216196933Y-45377390D01*
X216196933Y-45377390D02*
X216101695Y-45329771D01*
X216101695Y-45329771D02*
X215863600Y-45329771D01*
X215863600Y-45329771D02*
X215768362Y-45377390D01*
X215768362Y-45377390D02*
X215720743Y-45425009D01*
X215720743Y-45425009D02*
X215673124Y-45520247D01*
X215673124Y-45520247D02*
X215673124Y-45758342D01*
X215673124Y-45758342D02*
X215720743Y-45853580D01*
X215720743Y-45853580D02*
X215768362Y-45901200D01*
X215768362Y-45901200D02*
X215863600Y-45948819D01*
X215863600Y-45948819D02*
X216101695Y-45948819D01*
X216101695Y-45948819D02*
X216196933Y-45901200D01*
X216196933Y-45901200D02*
X216244552Y-45853580D01*
X238342171Y-49965200D02*
X238199314Y-50012819D01*
X238199314Y-50012819D02*
X237961219Y-50012819D01*
X237961219Y-50012819D02*
X237865981Y-49965200D01*
X237865981Y-49965200D02*
X237818362Y-49917580D01*
X237818362Y-49917580D02*
X237770743Y-49822342D01*
X237770743Y-49822342D02*
X237770743Y-49727104D01*
X237770743Y-49727104D02*
X237818362Y-49631866D01*
X237818362Y-49631866D02*
X237865981Y-49584247D01*
X237865981Y-49584247D02*
X237961219Y-49536628D01*
X237961219Y-49536628D02*
X238151695Y-49489009D01*
X238151695Y-49489009D02*
X238246933Y-49441390D01*
X238246933Y-49441390D02*
X238294552Y-49393771D01*
X238294552Y-49393771D02*
X238342171Y-49298533D01*
X238342171Y-49298533D02*
X238342171Y-49203295D01*
X238342171Y-49203295D02*
X238294552Y-49108057D01*
X238294552Y-49108057D02*
X238246933Y-49060438D01*
X238246933Y-49060438D02*
X238151695Y-49012819D01*
X238151695Y-49012819D02*
X237913600Y-49012819D01*
X237913600Y-49012819D02*
X237770743Y-49060438D01*
X237437409Y-49012819D02*
X237199314Y-50012819D01*
X237199314Y-50012819D02*
X237008838Y-49298533D01*
X237008838Y-49298533D02*
X236818362Y-50012819D01*
X236818362Y-50012819D02*
X236580267Y-49012819D01*
X235675505Y-50012819D02*
X236246933Y-50012819D01*
X235961219Y-50012819D02*
X235961219Y-49012819D01*
X235961219Y-49012819D02*
X236056457Y-49155676D01*
X236056457Y-49155676D02*
X236151695Y-49250914D01*
X236151695Y-49250914D02*
X236246933Y-49298533D01*
X234723124Y-50012819D02*
X235294552Y-50012819D01*
X235008838Y-50012819D02*
X235008838Y-49012819D01*
X235008838Y-49012819D02*
X235104076Y-49155676D01*
X235104076Y-49155676D02*
X235199314Y-49250914D01*
X235199314Y-49250914D02*
X235294552Y-49298533D01*
D11*
%TO.C,J3*%
X152199450Y-54409200D02*
X152199450Y-55659200D01*
X152489450Y-49399200D02*
X152489450Y-55369200D01*
X160109450Y-49399200D02*
X152489450Y-49399200D01*
X152499450Y-54609200D02*
X152499450Y-55359200D01*
X154299450Y-54609200D02*
X152499450Y-54609200D01*
X153249450Y-53109200D02*
X152499450Y-53109200D01*
X153249450Y-51769200D02*
X153249450Y-53109200D01*
X152199450Y-55659200D02*
X153449450Y-55659200D01*
X152499450Y-55359200D02*
X154299450Y-55359200D01*
X154299450Y-55359200D02*
X154299450Y-54609200D01*
X155799450Y-54609200D02*
X155799450Y-55359200D01*
X156799450Y-54609200D02*
X155799450Y-54609200D01*
X154309450Y-50159200D02*
X156299450Y-50159200D01*
X155799450Y-55359200D02*
X156799450Y-55359200D01*
X156799450Y-55359200D02*
X156799450Y-54609200D01*
X158299450Y-54609200D02*
X158299450Y-55359200D01*
X160099450Y-54609200D02*
X158299450Y-54609200D01*
X159349450Y-50159200D02*
X159349450Y-53109200D01*
X156299450Y-50159200D02*
X159349450Y-50159200D01*
X158299450Y-55359200D02*
X160099450Y-55359200D01*
X160099450Y-55359200D02*
X160099450Y-54609200D01*
X159349450Y-53109200D02*
X160099450Y-53109200D01*
X152489450Y-55369200D02*
X160109450Y-55369200D01*
X160109450Y-55369200D02*
X160109450Y-49399200D01*
%TO.C,D34*%
X159860000Y-123125000D02*
X157900000Y-123125000D01*
X159860000Y-124325000D02*
X157900000Y-124325000D01*
X159860000Y-124325000D02*
X159860000Y-123125000D01*
D10*
%TO.C,SW24*%
X169047472Y-68020780D02*
X169047472Y-68820780D01*
X169047472Y-71910780D02*
X169047472Y-71670780D01*
X174932648Y-70070780D02*
X179497472Y-70070780D01*
X176947472Y-66020780D02*
X171047472Y-66020780D01*
X179997472Y-66020780D02*
X178447472Y-66020780D01*
X179997472Y-66250780D02*
X179997472Y-66020780D01*
X179997472Y-69570780D02*
X179997472Y-69100780D01*
X169047472Y-68020780D02*
G75*
G02*
X171047472Y-66020780I2000005J-5D01*
G01*
X172638326Y-71910780D02*
G75*
G02*
X174932648Y-70070780I2293456J-509332D01*
G01*
X179997472Y-69570780D02*
G75*
G02*
X179497472Y-70070780I-500001J1D01*
G01*
D11*
%TO.C,D10*%
X218435000Y-51750000D02*
X216475000Y-51750000D01*
X218435000Y-52950000D02*
X216475000Y-52950000D01*
X218435000Y-52950000D02*
X218435000Y-51750000D01*
D10*
%TO.C,SW12*%
X226197472Y-65607780D02*
X226197472Y-66407780D01*
X226197472Y-69497780D02*
X226197472Y-69257780D01*
X232082648Y-67657780D02*
X236647472Y-67657780D01*
X234097472Y-63607780D02*
X228197472Y-63607780D01*
X237147472Y-63607780D02*
X235597472Y-63607780D01*
X237147472Y-63837780D02*
X237147472Y-63607780D01*
X237147472Y-67157780D02*
X237147472Y-66687780D01*
X226197472Y-65607780D02*
G75*
G02*
X228197472Y-63607780I2000005J-5D01*
G01*
X229788326Y-69497780D02*
G75*
G02*
X232082648Y-67657780I2293456J-509332D01*
G01*
X237147472Y-67157780D02*
G75*
G02*
X236647472Y-67657780I-500001J1D01*
G01*
%TO.C,SW35*%
X145379973Y-120853777D02*
X145779973Y-121546597D01*
X147324973Y-124222616D02*
X147204973Y-124014770D01*
X151221574Y-115171726D02*
X146112024Y-118121726D01*
X151501685Y-119686541D02*
X155454938Y-117404129D01*
X153862951Y-113646726D02*
X152520612Y-114421726D01*
X153977951Y-113845912D02*
X153862951Y-113646726D01*
X155637951Y-116721116D02*
X155402951Y-116314084D01*
X145379973Y-120853777D02*
G75*
G02*
X146112024Y-118121726I1732044J1000002D01*
G01*
X150434744Y-122427189D02*
G75*
G02*
X151501685Y-119686541I2240863J705632D01*
G01*
X155637951Y-116721116D02*
G75*
G02*
X155454938Y-117404129I-433014J-250000D01*
G01*
%TO.C,SW8*%
X264297296Y-109295780D02*
X264297296Y-110095780D01*
X264297296Y-113185780D02*
X264297296Y-112945780D01*
X270182472Y-111345780D02*
X274747296Y-111345780D01*
X272197296Y-107295780D02*
X266297296Y-107295780D01*
X275247296Y-107295780D02*
X273697296Y-107295780D01*
X275247296Y-107525780D02*
X275247296Y-107295780D01*
X275247296Y-110845780D02*
X275247296Y-110375780D01*
X264297296Y-109295780D02*
G75*
G02*
X266297296Y-107295780I2000005J-5D01*
G01*
X267888150Y-113185780D02*
G75*
G02*
X270182472Y-111345780I2293456J-509332D01*
G01*
X275247296Y-110845780D02*
G75*
G02*
X274747296Y-111345780I-500001J1D01*
G01*
%TO.C,SW13*%
X226197472Y-84657780D02*
X226197472Y-85457780D01*
X226197472Y-88547780D02*
X226197472Y-88307780D01*
X232082648Y-86707780D02*
X236647472Y-86707780D01*
X234097472Y-82657780D02*
X228197472Y-82657780D01*
X237147472Y-82657780D02*
X235597472Y-82657780D01*
X237147472Y-82887780D02*
X237147472Y-82657780D01*
X237147472Y-86207780D02*
X237147472Y-85737780D01*
X226197472Y-84657780D02*
G75*
G02*
X228197472Y-82657780I2000005J-5D01*
G01*
X229788326Y-88547780D02*
G75*
G02*
X232082648Y-86707780I2293456J-509332D01*
G01*
X237147472Y-86207780D02*
G75*
G02*
X236647472Y-86707780I-500001J1D01*
G01*
%TO.C,SW16*%
X207147296Y-61543780D02*
X207147296Y-62343780D01*
X207147296Y-65433780D02*
X207147296Y-65193780D01*
X213032472Y-63593780D02*
X217597296Y-63593780D01*
X215047296Y-59543780D02*
X209147296Y-59543780D01*
X218097296Y-59543780D02*
X216547296Y-59543780D01*
X218097296Y-59773780D02*
X218097296Y-59543780D01*
X218097296Y-63093780D02*
X218097296Y-62623780D01*
X207147296Y-61543780D02*
G75*
G02*
X209147296Y-59543780I2000005J-5D01*
G01*
X210738150Y-65433780D02*
G75*
G02*
X213032472Y-63593780I2293456J-509332D01*
G01*
X218097296Y-63093780D02*
G75*
G02*
X217597296Y-63593780I-500001J1D01*
G01*
%TO.C,SW25*%
X169047296Y-87070780D02*
X169047296Y-87870780D01*
X169047296Y-90960780D02*
X169047296Y-90720780D01*
X174932472Y-89120780D02*
X179497296Y-89120780D01*
X176947296Y-85070780D02*
X171047296Y-85070780D01*
X179997296Y-85070780D02*
X178447296Y-85070780D01*
X179997296Y-85300780D02*
X179997296Y-85070780D01*
X179997296Y-88620780D02*
X179997296Y-88150780D01*
X169047296Y-87070780D02*
G75*
G02*
X171047296Y-85070780I2000005J-5D01*
G01*
X172638150Y-90960780D02*
G75*
G02*
X174932472Y-89120780I2293456J-509332D01*
G01*
X179997296Y-88620780D02*
G75*
G02*
X179497296Y-89120780I-500001J1D01*
G01*
D11*
%TO.C,D19*%
X199310000Y-74425000D02*
X197350000Y-74425000D01*
X199310000Y-75625000D02*
X197350000Y-75625000D01*
X199310000Y-75625000D02*
X199310000Y-74425000D01*
%TO.C,D24*%
X180685000Y-95975000D02*
X178725000Y-95975000D01*
X180685000Y-97175000D02*
X178725000Y-97175000D01*
X180685000Y-97175000D02*
X180685000Y-95975000D01*
%TO.C,D23*%
X180510000Y-76875000D02*
X178550000Y-76875000D01*
X180510000Y-78075000D02*
X178550000Y-78075000D01*
X180510000Y-78075000D02*
X180510000Y-76875000D01*
%TO.C,D11*%
X218610000Y-70375000D02*
X216650000Y-70375000D01*
X218610000Y-71575000D02*
X216650000Y-71575000D01*
X218610000Y-71575000D02*
X218610000Y-70375000D01*
D10*
%TO.C,SW26*%
X169047472Y-106120780D02*
X169047472Y-106920780D01*
X169047472Y-110010780D02*
X169047472Y-109770780D01*
X174932648Y-108170780D02*
X179497472Y-108170780D01*
X176947472Y-104120780D02*
X171047472Y-104120780D01*
X179997472Y-104120780D02*
X178447472Y-104120780D01*
X179997472Y-104350780D02*
X179997472Y-104120780D01*
X179997472Y-107670780D02*
X179997472Y-107200780D01*
X169047472Y-106120780D02*
G75*
G02*
X171047472Y-104120780I2000005J-5D01*
G01*
X172638326Y-110010780D02*
G75*
G02*
X174932648Y-108170780I2293456J-509332D01*
G01*
X179997472Y-107670780D02*
G75*
G02*
X179497472Y-108170780I-500001J1D01*
G01*
%TO.C,SW21*%
X188097472Y-84657780D02*
X188097472Y-85457780D01*
X188097472Y-88547780D02*
X188097472Y-88307780D01*
X193982648Y-86707780D02*
X198547472Y-86707780D01*
X195997472Y-82657780D02*
X190097472Y-82657780D01*
X199047472Y-82657780D02*
X197497472Y-82657780D01*
X199047472Y-82887780D02*
X199047472Y-82657780D01*
X199047472Y-86207780D02*
X199047472Y-85737780D01*
X188097472Y-84657780D02*
G75*
G02*
X190097472Y-82657780I2000005J-5D01*
G01*
X191688326Y-88547780D02*
G75*
G02*
X193982648Y-86707780I2293456J-509332D01*
G01*
X199047472Y-86207780D02*
G75*
G02*
X198547472Y-86707780I-500001J1D01*
G01*
%TO.C,SW37*%
X179842824Y-127583780D02*
X179842824Y-128383780D01*
X179842824Y-131473780D02*
X179842824Y-131233780D01*
X185728000Y-129633780D02*
X190292824Y-129633780D01*
X187742824Y-125583780D02*
X181842824Y-125583780D01*
X190792824Y-125583780D02*
X189242824Y-125583780D01*
X190792824Y-125813780D02*
X190792824Y-125583780D01*
X190792824Y-129133780D02*
X190792824Y-128663780D01*
X179842824Y-127583780D02*
G75*
G02*
X181842824Y-125583780I2000005J-5D01*
G01*
X183433678Y-131473780D02*
G75*
G02*
X185728000Y-129633780I2293456J-509332D01*
G01*
X190792824Y-129133780D02*
G75*
G02*
X190292824Y-129633780I-500001J1D01*
G01*
D11*
%TO.C,D36*%
X191110000Y-136175000D02*
X189150000Y-136175000D01*
X191110000Y-137375000D02*
X189150000Y-137375000D01*
X191110000Y-137375000D02*
X191110000Y-136175000D01*
D10*
%TO.C,SW7*%
X245247472Y-71195780D02*
X245247472Y-71995780D01*
X245247472Y-75085780D02*
X245247472Y-74845780D01*
X251132648Y-73245780D02*
X255697472Y-73245780D01*
X253147472Y-69195780D02*
X247247472Y-69195780D01*
X256197472Y-69195780D02*
X254647472Y-69195780D01*
X256197472Y-69425780D02*
X256197472Y-69195780D01*
X256197472Y-72745780D02*
X256197472Y-72275780D01*
X245247472Y-71195780D02*
G75*
G02*
X247247472Y-69195780I2000005J-5D01*
G01*
X248838326Y-75085780D02*
G75*
G02*
X251132648Y-73245780I2293456J-509332D01*
G01*
X256197472Y-72745780D02*
G75*
G02*
X255697472Y-73245780I-500001J1D01*
G01*
%TO.C,SW20*%
X188097296Y-65607780D02*
X188097296Y-66407780D01*
X188097296Y-69497780D02*
X188097296Y-69257780D01*
X193982472Y-67657780D02*
X198547296Y-67657780D01*
X195997296Y-63607780D02*
X190097296Y-63607780D01*
X199047296Y-63607780D02*
X197497296Y-63607780D01*
X199047296Y-63837780D02*
X199047296Y-63607780D01*
X199047296Y-67157780D02*
X199047296Y-66687780D01*
X188097296Y-65607780D02*
G75*
G02*
X190097296Y-63607780I2000005J-5D01*
G01*
X191688150Y-69497780D02*
G75*
G02*
X193982472Y-67657780I2293456J-509332D01*
G01*
X199047296Y-67157780D02*
G75*
G02*
X198547296Y-67657780I-500001J1D01*
G01*
D11*
%TO.C,D12*%
X218760000Y-89350000D02*
X216800000Y-89350000D01*
X218760000Y-90550000D02*
X216800000Y-90550000D01*
X218760000Y-90550000D02*
X218760000Y-89350000D01*
D10*
%TO.C,SW38*%
X198914824Y-125249780D02*
X198914824Y-126049780D01*
X198914824Y-129139780D02*
X198914824Y-128899780D01*
X204800000Y-127299780D02*
X209364824Y-127299780D01*
X206814824Y-123249780D02*
X200914824Y-123249780D01*
X209864824Y-123249780D02*
X208314824Y-123249780D01*
X209864824Y-123479780D02*
X209864824Y-123249780D01*
X209864824Y-126799780D02*
X209864824Y-126329780D01*
X198914824Y-125249780D02*
G75*
G02*
X200914824Y-123249780I2000005J-5D01*
G01*
X202505678Y-129139780D02*
G75*
G02*
X204800000Y-127299780I2293456J-509332D01*
G01*
X209864824Y-126799780D02*
G75*
G02*
X209364824Y-127299780I-500001J1D01*
G01*
D11*
%TO.C,D20*%
X199260000Y-93400000D02*
X197300000Y-93400000D01*
X199260000Y-94600000D02*
X197300000Y-94600000D01*
X199260000Y-94600000D02*
X199260000Y-93400000D01*
%TO.C,D8*%
X237410000Y-93225000D02*
X235450000Y-93225000D01*
X237410000Y-94425000D02*
X235450000Y-94425000D01*
X237410000Y-94425000D02*
X237410000Y-93225000D01*
D10*
%TO.C,SW19*%
X188097296Y-46557780D02*
X188097296Y-47357780D01*
X188097296Y-50447780D02*
X188097296Y-50207780D01*
X193982472Y-48607780D02*
X198547296Y-48607780D01*
X195997296Y-44557780D02*
X190097296Y-44557780D01*
X199047296Y-44557780D02*
X197497296Y-44557780D01*
X199047296Y-44787780D02*
X199047296Y-44557780D01*
X199047296Y-48107780D02*
X199047296Y-47637780D01*
X188097296Y-46557780D02*
G75*
G02*
X190097296Y-44557780I2000005J-5D01*
G01*
X191688150Y-50447780D02*
G75*
G02*
X193982472Y-48607780I2293456J-509332D01*
G01*
X199047296Y-48107780D02*
G75*
G02*
X198547296Y-48607780I-500001J1D01*
G01*
%TO.C,SW17*%
X207147296Y-80593780D02*
X207147296Y-81393780D01*
X207147296Y-84483780D02*
X207147296Y-84243780D01*
X213032472Y-82643780D02*
X217597296Y-82643780D01*
X215047296Y-78593780D02*
X209147296Y-78593780D01*
X218097296Y-78593780D02*
X216547296Y-78593780D01*
X218097296Y-78823780D02*
X218097296Y-78593780D01*
X218097296Y-82143780D02*
X218097296Y-81673780D01*
X207147296Y-80593780D02*
G75*
G02*
X209147296Y-78593780I2000005J-5D01*
G01*
X210738150Y-84483780D02*
G75*
G02*
X213032472Y-82643780I2293456J-509332D01*
G01*
X218097296Y-82143780D02*
G75*
G02*
X217597296Y-82643780I-500001J1D01*
G01*
D11*
%TO.C,D25*%
X180510000Y-114775000D02*
X178550000Y-114775000D01*
X180510000Y-115975000D02*
X178550000Y-115975000D01*
X180510000Y-115975000D02*
X180510000Y-114775000D01*
%TO.C,D5*%
X257010000Y-117875000D02*
X255050000Y-117875000D01*
X257010000Y-119075000D02*
X255050000Y-119075000D01*
X257010000Y-119075000D02*
X257010000Y-117875000D01*
%TO.C,D2*%
X275660000Y-98425000D02*
X273700000Y-98425000D01*
X275660000Y-99625000D02*
X273700000Y-99625000D01*
X275660000Y-99625000D02*
X275660000Y-98425000D01*
%TO.C,D13*%
X274835000Y-60650000D02*
X272875000Y-60650000D01*
X274835000Y-61850000D02*
X272875000Y-61850000D01*
X274835000Y-61850000D02*
X274835000Y-60650000D01*
%TO.C,D21*%
X199485000Y-112350000D02*
X197525000Y-112350000D01*
X199485000Y-113550000D02*
X197525000Y-113550000D01*
X199485000Y-113550000D02*
X199485000Y-112350000D01*
D10*
%TO.C,SW36*%
X154914973Y-137358777D02*
X155314973Y-138051597D01*
X156859973Y-140727616D02*
X156739973Y-140519770D01*
X160756574Y-131676726D02*
X155647024Y-134626726D01*
X161036685Y-136191541D02*
X164989938Y-133909129D01*
X163397951Y-130151726D02*
X162055612Y-130926726D01*
X163512951Y-130350912D02*
X163397951Y-130151726D01*
X165172951Y-133226116D02*
X164937951Y-132819084D01*
X154914973Y-137358777D02*
G75*
G02*
X155647024Y-134626726I1732044J1000002D01*
G01*
X159969744Y-138932189D02*
G75*
G02*
X161036685Y-136191541I2240863J705632D01*
G01*
X165172951Y-133226116D02*
G75*
G02*
X164989938Y-133909129I-433014J-250000D01*
G01*
%TO.C,SW9*%
X245247472Y-90245780D02*
X245247472Y-91045780D01*
X245247472Y-94135780D02*
X245247472Y-93895780D01*
X251132648Y-92295780D02*
X255697472Y-92295780D01*
X253147472Y-88245780D02*
X247247472Y-88245780D01*
X256197472Y-88245780D02*
X254647472Y-88245780D01*
X256197472Y-88475780D02*
X256197472Y-88245780D01*
X256197472Y-91795780D02*
X256197472Y-91325780D01*
X245247472Y-90245780D02*
G75*
G02*
X247247472Y-88245780I2000005J-5D01*
G01*
X248838326Y-94135780D02*
G75*
G02*
X251132648Y-92295780I2293456J-509332D01*
G01*
X256197472Y-91795780D02*
G75*
G02*
X255697472Y-92295780I-500001J1D01*
G01*
D11*
%TO.C,D3*%
X274835000Y-117700000D02*
X272875000Y-117700000D01*
X274835000Y-118900000D02*
X272875000Y-118900000D01*
X274835000Y-118900000D02*
X274835000Y-117700000D01*
%TO.C,D17*%
X218285000Y-108150000D02*
X216325000Y-108150000D01*
X218285000Y-109350000D02*
X216325000Y-109350000D01*
X218285000Y-109350000D02*
X218285000Y-108150000D01*
%TO.C,D14*%
X275660000Y-80275000D02*
X273700000Y-80275000D01*
X275660000Y-81475000D02*
X273700000Y-81475000D01*
X275660000Y-81475000D02*
X275660000Y-80275000D01*
D10*
%TO.C,SW22*%
X188097472Y-103707780D02*
X188097472Y-104507780D01*
X188097472Y-107597780D02*
X188097472Y-107357780D01*
X193982648Y-105757780D02*
X198547472Y-105757780D01*
X195997472Y-101707780D02*
X190097472Y-101707780D01*
X199047472Y-101707780D02*
X197497472Y-101707780D01*
X199047472Y-101937780D02*
X199047472Y-101707780D01*
X199047472Y-105257780D02*
X199047472Y-104787780D01*
X188097472Y-103707780D02*
G75*
G02*
X190097472Y-101707780I2000005J-5D01*
G01*
X191688326Y-107597780D02*
G75*
G02*
X193982648Y-105757780I2293456J-509332D01*
G01*
X199047472Y-105257780D02*
G75*
G02*
X198547472Y-105757780I-500001J1D01*
G01*
D11*
%TO.C,D4*%
X257010000Y-98900000D02*
X255050000Y-98900000D01*
X257010000Y-100100000D02*
X255050000Y-100100000D01*
X257010000Y-100100000D02*
X257010000Y-98900000D01*
D10*
%TO.C,SW6*%
X245247472Y-52145780D02*
X245247472Y-52945780D01*
X245247472Y-56035780D02*
X245247472Y-55795780D01*
X251132648Y-54195780D02*
X255697472Y-54195780D01*
X253147472Y-50145780D02*
X247247472Y-50145780D01*
X256197472Y-50145780D02*
X254647472Y-50145780D01*
X256197472Y-50375780D02*
X256197472Y-50145780D01*
X256197472Y-53695780D02*
X256197472Y-53225780D01*
X245247472Y-52145780D02*
G75*
G02*
X247247472Y-50145780I2000005J-5D01*
G01*
X248838326Y-56035780D02*
G75*
G02*
X251132648Y-54195780I2293456J-509332D01*
G01*
X256197472Y-53695780D02*
G75*
G02*
X255697472Y-54195780I-500001J1D01*
G01*
%TO.C,SW18*%
X207147472Y-99643780D02*
X207147472Y-100443780D01*
X207147472Y-103533780D02*
X207147472Y-103293780D01*
X213032648Y-101693780D02*
X217597472Y-101693780D01*
X215047472Y-97643780D02*
X209147472Y-97643780D01*
X218097472Y-97643780D02*
X216547472Y-97643780D01*
X218097472Y-97873780D02*
X218097472Y-97643780D01*
X218097472Y-101193780D02*
X218097472Y-100723780D01*
X207147472Y-99643780D02*
G75*
G02*
X209147472Y-97643780I2000005J-5D01*
G01*
X210738326Y-103533780D02*
G75*
G02*
X213032648Y-101693780I2293456J-509332D01*
G01*
X218097472Y-101193780D02*
G75*
G02*
X217597472Y-101693780I-500001J1D01*
G01*
D11*
%TO.C,D7*%
X237235000Y-74600000D02*
X235275000Y-74600000D01*
X237235000Y-75800000D02*
X235275000Y-75800000D01*
X237235000Y-75800000D02*
X237235000Y-74600000D01*
%TO.C,D6*%
X237735000Y-55150000D02*
X235775000Y-55150000D01*
X237735000Y-56350000D02*
X235775000Y-56350000D01*
X237735000Y-56350000D02*
X237735000Y-55150000D01*
D10*
%TO.C,SW3*%
X264297472Y-90245780D02*
X264297472Y-91045780D01*
X264297472Y-94135780D02*
X264297472Y-93895780D01*
X270182648Y-92295780D02*
X274747472Y-92295780D01*
X272197472Y-88245780D02*
X266297472Y-88245780D01*
X275247472Y-88245780D02*
X273697472Y-88245780D01*
X275247472Y-88475780D02*
X275247472Y-88245780D01*
X275247472Y-91795780D02*
X275247472Y-91325780D01*
X264297472Y-90245780D02*
G75*
G02*
X266297472Y-88245780I2000005J-5D01*
G01*
X267888326Y-94135780D02*
G75*
G02*
X270182648Y-92295780I2293456J-509332D01*
G01*
X275247472Y-91795780D02*
G75*
G02*
X274747472Y-92295780I-500001J1D01*
G01*
%TO.C,SW10*%
X245247296Y-109295780D02*
X245247296Y-110095780D01*
X245247296Y-113185780D02*
X245247296Y-112945780D01*
X251132472Y-111345780D02*
X255697296Y-111345780D01*
X253147296Y-107295780D02*
X247247296Y-107295780D01*
X256197296Y-107295780D02*
X254647296Y-107295780D01*
X256197296Y-107525780D02*
X256197296Y-107295780D01*
X256197296Y-110845780D02*
X256197296Y-110375780D01*
X245247296Y-109295780D02*
G75*
G02*
X247247296Y-107295780I2000005J-5D01*
G01*
X248838150Y-113185780D02*
G75*
G02*
X251132472Y-111345780I2293456J-509332D01*
G01*
X256197296Y-110845780D02*
G75*
G02*
X255697296Y-111345780I-500001J1D01*
G01*
D11*
%TO.C,D37*%
X210185000Y-134400000D02*
X208225000Y-134400000D01*
X210185000Y-135600000D02*
X208225000Y-135600000D01*
X210185000Y-135600000D02*
X210185000Y-134400000D01*
D10*
%TO.C,SW14*%
X226197296Y-103707780D02*
X226197296Y-104507780D01*
X226197296Y-107597780D02*
X226197296Y-107357780D01*
X232082472Y-105757780D02*
X236647296Y-105757780D01*
X234097296Y-101707780D02*
X228197296Y-101707780D01*
X237147296Y-101707780D02*
X235597296Y-101707780D01*
X237147296Y-101937780D02*
X237147296Y-101707780D01*
X237147296Y-105257780D02*
X237147296Y-104787780D01*
X226197296Y-103707780D02*
G75*
G02*
X228197296Y-101707780I2000005J-5D01*
G01*
X229788150Y-107597780D02*
G75*
G02*
X232082472Y-105757780I2293456J-509332D01*
G01*
X237147296Y-105257780D02*
G75*
G02*
X236647296Y-105757780I-500001J1D01*
G01*
%TO.C,SW4*%
X264297296Y-52145780D02*
X264297296Y-52945780D01*
X264297296Y-56035780D02*
X264297296Y-55795780D01*
X270182472Y-54195780D02*
X274747296Y-54195780D01*
X272197296Y-50145780D02*
X266297296Y-50145780D01*
X275247296Y-50145780D02*
X273697296Y-50145780D01*
X275247296Y-50375780D02*
X275247296Y-50145780D01*
X275247296Y-53695780D02*
X275247296Y-53225780D01*
X264297296Y-52145780D02*
G75*
G02*
X266297296Y-50145780I2000005J-5D01*
G01*
X267888150Y-56035780D02*
G75*
G02*
X270182472Y-54195780I2293456J-509332D01*
G01*
X275247296Y-53695780D02*
G75*
G02*
X274747296Y-54195780I-500001J1D01*
G01*
%TO.C,SW23*%
X169047472Y-48970780D02*
X169047472Y-49770780D01*
X169047472Y-52860780D02*
X169047472Y-52620780D01*
X174932648Y-51020780D02*
X179497472Y-51020780D01*
X176947472Y-46970780D02*
X171047472Y-46970780D01*
X179997472Y-46970780D02*
X178447472Y-46970780D01*
X179997472Y-47200780D02*
X179997472Y-46970780D01*
X179997472Y-50520780D02*
X179997472Y-50050780D01*
X169047472Y-48970780D02*
G75*
G02*
X171047472Y-46970780I2000005J-5D01*
G01*
X172638326Y-52860780D02*
G75*
G02*
X174932648Y-51020780I2293456J-509332D01*
G01*
X179997472Y-50520780D02*
G75*
G02*
X179497472Y-51020780I-500001J1D01*
G01*
D11*
%TO.C,D9*%
X237560000Y-112350000D02*
X235600000Y-112350000D01*
X237560000Y-113550000D02*
X235600000Y-113550000D01*
X237560000Y-113550000D02*
X237560000Y-112350000D01*
%TO.C,D18*%
X199485000Y-55300000D02*
X197525000Y-55300000D01*
X199485000Y-56500000D02*
X197525000Y-56500000D01*
X199485000Y-56500000D02*
X199485000Y-55300000D01*
D10*
%TO.C,SW5*%
X264297296Y-71195780D02*
X264297296Y-71995780D01*
X264297296Y-75085780D02*
X264297296Y-74845780D01*
X270182472Y-73245780D02*
X274747296Y-73245780D01*
X272197296Y-69195780D02*
X266297296Y-69195780D01*
X275247296Y-69195780D02*
X273697296Y-69195780D01*
X275247296Y-69425780D02*
X275247296Y-69195780D01*
X275247296Y-72745780D02*
X275247296Y-72275780D01*
X264297296Y-71195780D02*
G75*
G02*
X266297296Y-69195780I2000005J-5D01*
G01*
X267888150Y-75085780D02*
G75*
G02*
X270182472Y-73245780I2293456J-509332D01*
G01*
X275247296Y-72745780D02*
G75*
G02*
X274747296Y-73245780I-500001J1D01*
G01*
D11*
%TO.C,D15*%
X256360000Y-60825000D02*
X254400000Y-60825000D01*
X256360000Y-62025000D02*
X254400000Y-62025000D01*
X256360000Y-62025000D02*
X256360000Y-60825000D01*
%TO.C,D16*%
X256685000Y-79450000D02*
X254725000Y-79450000D01*
X256685000Y-80650000D02*
X254725000Y-80650000D01*
X256685000Y-80650000D02*
X256685000Y-79450000D01*
%TO.C,D22*%
X180835000Y-57425000D02*
X178875000Y-57425000D01*
X180835000Y-58625000D02*
X178875000Y-58625000D01*
X180835000Y-58625000D02*
X180835000Y-57425000D01*
%TO.C,D35*%
X169085000Y-140125000D02*
X167125000Y-140125000D01*
X169085000Y-141325000D02*
X167125000Y-141325000D01*
X169085000Y-141325000D02*
X169085000Y-140125000D01*
D10*
%TO.C,SW15*%
X207147472Y-42493780D02*
X207147472Y-43293780D01*
X207147472Y-46383780D02*
X207147472Y-46143780D01*
X213032648Y-44543780D02*
X217597472Y-44543780D01*
X215047472Y-40493780D02*
X209147472Y-40493780D01*
X218097472Y-40493780D02*
X216547472Y-40493780D01*
X218097472Y-40723780D02*
X218097472Y-40493780D01*
X218097472Y-44043780D02*
X218097472Y-43573780D01*
X207147472Y-42493780D02*
G75*
G02*
X209147472Y-40493780I2000005J-5D01*
G01*
X210738326Y-46383780D02*
G75*
G02*
X213032648Y-44543780I2293456J-509332D01*
G01*
X218097472Y-44043780D02*
G75*
G02*
X217597472Y-44543780I-500001J1D01*
G01*
%TO.C,SW11*%
X226197472Y-46557780D02*
X226197472Y-47357780D01*
X226197472Y-50447780D02*
X226197472Y-50207780D01*
X232082648Y-48607780D02*
X236647472Y-48607780D01*
X234097472Y-44557780D02*
X228197472Y-44557780D01*
X237147472Y-44557780D02*
X235597472Y-44557780D01*
X237147472Y-44787780D02*
X237147472Y-44557780D01*
X237147472Y-48107780D02*
X237147472Y-47637780D01*
X226197472Y-46557780D02*
G75*
G02*
X228197472Y-44557780I2000005J-5D01*
G01*
X229788326Y-50447780D02*
G75*
G02*
X232082648Y-48607780I2293456J-509332D01*
G01*
X237147472Y-48107780D02*
G75*
G02*
X236647472Y-48607780I-500001J1D01*
G01*
%TD*%
M02*
